<?xml version="1.0" encoding="utf-8" standalone="no"?>
<!DOCTYPE svg PUBLIC "-//W3C//DTD SVG 1.1//EN"
  "http://www.w3.org/Graphics/SVG/1.1/DTD/svg11.dtd">
<!-- Created with matplotlib (https://matplotlib.org/) -->
<svg height="360pt" version="1.1" viewBox="0 0 720 360" width="720pt" xmlns="http://www.w3.org/2000/svg" xmlns:xlink="http://www.w3.org/1999/xlink">
 <defs>
  <style type="text/css">
*{stroke-linecap:butt;stroke-linejoin:round;}
  </style>
 </defs>
 <g id="figure_1">
  <g id="patch_1">
   <path d="M 0 360 
L 720 360 
L 720 0 
L 0 0 
z
" style="fill:#ffffff;"/>
  </g>
  <g id="axes_1">
   <g id="patch_2">
    <path d="M 90 315 
L 648 315 
L 648 43.2 
L 90 43.2 
z
" style="fill:#ffffff;"/>
   </g>
   <g id="matplotlib.axis_1">
    <g id="xtick_1">
     <g id="line2d_1">
      <path clip-path="url(#p88f28dae9d)" d="M 115.363636 315 
L 115.363636 43.2 
" style="fill:none;stroke:#b0b0b0;stroke-linecap:square;stroke-width:0.8;"/>
     </g>
     <g id="line2d_2">
      <defs>
       <path d="M 0 0 
L 0 3.5 
" id="m06d5d41395" style="stroke:#000000;stroke-width:0.8;"/>
      </defs>
      <g>
       <use style="stroke:#000000;stroke-width:0.8;" x="115.363636" xlink:href="#m06d5d41395" y="315"/>
      </g>
     </g>
     <g id="text_1">
      <!-- 0 -->
      <defs>
       <path d="M 31.78125 66.40625 
Q 24.171875 66.40625 20.328125 58.90625 
Q 16.5 51.421875 16.5 36.375 
Q 16.5 21.390625 20.328125 13.890625 
Q 24.171875 6.390625 31.78125 6.390625 
Q 39.453125 6.390625 43.28125 13.890625 
Q 47.125 21.390625 47.125 36.375 
Q 47.125 51.421875 43.28125 58.90625 
Q 39.453125 66.40625 31.78125 66.40625 
z
M 31.78125 74.21875 
Q 44.046875 74.21875 50.515625 64.515625 
Q 56.984375 54.828125 56.984375 36.375 
Q 56.984375 17.96875 50.515625 8.265625 
Q 44.046875 -1.421875 31.78125 -1.421875 
Q 19.53125 -1.421875 13.0625 8.265625 
Q 6.59375 17.96875 6.59375 36.375 
Q 6.59375 54.828125 13.0625 64.515625 
Q 19.53125 74.21875 31.78125 74.21875 
z
" id="DejaVuSans-48"/>
      </defs>
      <g transform="translate(112.182386 329.598437)scale(0.1 -0.1)">
       <use xlink:href="#DejaVuSans-48"/>
      </g>
     </g>
    </g>
    <g id="xtick_2">
     <g id="line2d_3">
      <path clip-path="url(#p88f28dae9d)" d="M 178.804448 315 
L 178.804448 43.2 
" style="fill:none;stroke:#b0b0b0;stroke-linecap:square;stroke-width:0.8;"/>
     </g>
     <g id="line2d_4">
      <g>
       <use style="stroke:#000000;stroke-width:0.8;" x="178.804448" xlink:href="#m06d5d41395" y="315"/>
      </g>
     </g>
     <g id="text_2">
      <!-- 250 -->
      <defs>
       <path d="M 19.1875 8.296875 
L 53.609375 8.296875 
L 53.609375 0 
L 7.328125 0 
L 7.328125 8.296875 
Q 12.9375 14.109375 22.625 23.890625 
Q 32.328125 33.6875 34.8125 36.53125 
Q 39.546875 41.84375 41.421875 45.53125 
Q 43.3125 49.21875 43.3125 52.78125 
Q 43.3125 58.59375 39.234375 62.25 
Q 35.15625 65.921875 28.609375 65.921875 
Q 23.96875 65.921875 18.8125 64.3125 
Q 13.671875 62.703125 7.8125 59.421875 
L 7.8125 69.390625 
Q 13.765625 71.78125 18.9375 73 
Q 24.125 74.21875 28.421875 74.21875 
Q 39.75 74.21875 46.484375 68.546875 
Q 53.21875 62.890625 53.21875 53.421875 
Q 53.21875 48.921875 51.53125 44.890625 
Q 49.859375 40.875 45.40625 35.40625 
Q 44.1875 33.984375 37.640625 27.21875 
Q 31.109375 20.453125 19.1875 8.296875 
z
" id="DejaVuSans-50"/>
       <path d="M 10.796875 72.90625 
L 49.515625 72.90625 
L 49.515625 64.59375 
L 19.828125 64.59375 
L 19.828125 46.734375 
Q 21.96875 47.46875 24.109375 47.828125 
Q 26.265625 48.1875 28.421875 48.1875 
Q 40.625 48.1875 47.75 41.5 
Q 54.890625 34.8125 54.890625 23.390625 
Q 54.890625 11.625 47.5625 5.09375 
Q 40.234375 -1.421875 26.90625 -1.421875 
Q 22.3125 -1.421875 17.546875 -0.640625 
Q 12.796875 0.140625 7.71875 1.703125 
L 7.71875 11.625 
Q 12.109375 9.234375 16.796875 8.0625 
Q 21.484375 6.890625 26.703125 6.890625 
Q 35.15625 6.890625 40.078125 11.328125 
Q 45.015625 15.765625 45.015625 23.390625 
Q 45.015625 31 40.078125 35.4375 
Q 35.15625 39.890625 26.703125 39.890625 
Q 22.75 39.890625 18.8125 39.015625 
Q 14.890625 38.140625 10.796875 36.28125 
z
" id="DejaVuSans-53"/>
      </defs>
      <g transform="translate(169.260698 329.598437)scale(0.1 -0.1)">
       <use xlink:href="#DejaVuSans-50"/>
       <use x="63.623047" xlink:href="#DejaVuSans-53"/>
       <use x="127.246094" xlink:href="#DejaVuSans-48"/>
      </g>
     </g>
    </g>
    <g id="xtick_3">
     <g id="line2d_5">
      <path clip-path="url(#p88f28dae9d)" d="M 242.245259 315 
L 242.245259 43.2 
" style="fill:none;stroke:#b0b0b0;stroke-linecap:square;stroke-width:0.8;"/>
     </g>
     <g id="line2d_6">
      <g>
       <use style="stroke:#000000;stroke-width:0.8;" x="242.245259" xlink:href="#m06d5d41395" y="315"/>
      </g>
     </g>
     <g id="text_3">
      <!-- 500 -->
      <g transform="translate(232.701509 329.598437)scale(0.1 -0.1)">
       <use xlink:href="#DejaVuSans-53"/>
       <use x="63.623047" xlink:href="#DejaVuSans-48"/>
       <use x="127.246094" xlink:href="#DejaVuSans-48"/>
      </g>
     </g>
    </g>
    <g id="xtick_4">
     <g id="line2d_7">
      <path clip-path="url(#p88f28dae9d)" d="M 305.68607 315 
L 305.68607 43.2 
" style="fill:none;stroke:#b0b0b0;stroke-linecap:square;stroke-width:0.8;"/>
     </g>
     <g id="line2d_8">
      <g>
       <use style="stroke:#000000;stroke-width:0.8;" x="305.68607" xlink:href="#m06d5d41395" y="315"/>
      </g>
     </g>
     <g id="text_4">
      <!-- 750 -->
      <defs>
       <path d="M 8.203125 72.90625 
L 55.078125 72.90625 
L 55.078125 68.703125 
L 28.609375 0 
L 18.3125 0 
L 43.21875 64.59375 
L 8.203125 64.59375 
z
" id="DejaVuSans-55"/>
      </defs>
      <g transform="translate(296.14232 329.598437)scale(0.1 -0.1)">
       <use xlink:href="#DejaVuSans-55"/>
       <use x="63.623047" xlink:href="#DejaVuSans-53"/>
       <use x="127.246094" xlink:href="#DejaVuSans-48"/>
      </g>
     </g>
    </g>
    <g id="xtick_5">
     <g id="line2d_9">
      <path clip-path="url(#p88f28dae9d)" d="M 369.126882 315 
L 369.126882 43.2 
" style="fill:none;stroke:#b0b0b0;stroke-linecap:square;stroke-width:0.8;"/>
     </g>
     <g id="line2d_10">
      <g>
       <use style="stroke:#000000;stroke-width:0.8;" x="369.126882" xlink:href="#m06d5d41395" y="315"/>
      </g>
     </g>
     <g id="text_5">
      <!-- 1000 -->
      <defs>
       <path d="M 12.40625 8.296875 
L 28.515625 8.296875 
L 28.515625 63.921875 
L 10.984375 60.40625 
L 10.984375 69.390625 
L 28.421875 72.90625 
L 38.28125 72.90625 
L 38.28125 8.296875 
L 54.390625 8.296875 
L 54.390625 0 
L 12.40625 0 
z
" id="DejaVuSans-49"/>
      </defs>
      <g transform="translate(356.401882 329.598437)scale(0.1 -0.1)">
       <use xlink:href="#DejaVuSans-49"/>
       <use x="63.623047" xlink:href="#DejaVuSans-48"/>
       <use x="127.246094" xlink:href="#DejaVuSans-48"/>
       <use x="190.869141" xlink:href="#DejaVuSans-48"/>
      </g>
     </g>
    </g>
    <g id="xtick_6">
     <g id="line2d_11">
      <path clip-path="url(#p88f28dae9d)" d="M 432.567693 315 
L 432.567693 43.2 
" style="fill:none;stroke:#b0b0b0;stroke-linecap:square;stroke-width:0.8;"/>
     </g>
     <g id="line2d_12">
      <g>
       <use style="stroke:#000000;stroke-width:0.8;" x="432.567693" xlink:href="#m06d5d41395" y="315"/>
      </g>
     </g>
     <g id="text_6">
      <!-- 1250 -->
      <g transform="translate(419.842693 329.598437)scale(0.1 -0.1)">
       <use xlink:href="#DejaVuSans-49"/>
       <use x="63.623047" xlink:href="#DejaVuSans-50"/>
       <use x="127.246094" xlink:href="#DejaVuSans-53"/>
       <use x="190.869141" xlink:href="#DejaVuSans-48"/>
      </g>
     </g>
    </g>
    <g id="xtick_7">
     <g id="line2d_13">
      <path clip-path="url(#p88f28dae9d)" d="M 496.008504 315 
L 496.008504 43.2 
" style="fill:none;stroke:#b0b0b0;stroke-linecap:square;stroke-width:0.8;"/>
     </g>
     <g id="line2d_14">
      <g>
       <use style="stroke:#000000;stroke-width:0.8;" x="496.008504" xlink:href="#m06d5d41395" y="315"/>
      </g>
     </g>
     <g id="text_7">
      <!-- 1500 -->
      <g transform="translate(483.283504 329.598437)scale(0.1 -0.1)">
       <use xlink:href="#DejaVuSans-49"/>
       <use x="63.623047" xlink:href="#DejaVuSans-53"/>
       <use x="127.246094" xlink:href="#DejaVuSans-48"/>
       <use x="190.869141" xlink:href="#DejaVuSans-48"/>
      </g>
     </g>
    </g>
    <g id="xtick_8">
     <g id="line2d_15">
      <path clip-path="url(#p88f28dae9d)" d="M 559.449316 315 
L 559.449316 43.2 
" style="fill:none;stroke:#b0b0b0;stroke-linecap:square;stroke-width:0.8;"/>
     </g>
     <g id="line2d_16">
      <g>
       <use style="stroke:#000000;stroke-width:0.8;" x="559.449316" xlink:href="#m06d5d41395" y="315"/>
      </g>
     </g>
     <g id="text_8">
      <!-- 1750 -->
      <g transform="translate(546.724316 329.598437)scale(0.1 -0.1)">
       <use xlink:href="#DejaVuSans-49"/>
       <use x="63.623047" xlink:href="#DejaVuSans-55"/>
       <use x="127.246094" xlink:href="#DejaVuSans-53"/>
       <use x="190.869141" xlink:href="#DejaVuSans-48"/>
      </g>
     </g>
    </g>
    <g id="xtick_9">
     <g id="line2d_17">
      <path clip-path="url(#p88f28dae9d)" d="M 622.890127 315 
L 622.890127 43.2 
" style="fill:none;stroke:#b0b0b0;stroke-linecap:square;stroke-width:0.8;"/>
     </g>
     <g id="line2d_18">
      <g>
       <use style="stroke:#000000;stroke-width:0.8;" x="622.890127" xlink:href="#m06d5d41395" y="315"/>
      </g>
     </g>
     <g id="text_9">
      <!-- 2000 -->
      <g transform="translate(610.165127 329.598437)scale(0.1 -0.1)">
       <use xlink:href="#DejaVuSans-50"/>
       <use x="63.623047" xlink:href="#DejaVuSans-48"/>
       <use x="127.246094" xlink:href="#DejaVuSans-48"/>
       <use x="190.869141" xlink:href="#DejaVuSans-48"/>
      </g>
     </g>
    </g>
    <g id="text_10">
     <!-- epoch -->
     <defs>
      <path d="M 56.203125 29.59375 
L 56.203125 25.203125 
L 14.890625 25.203125 
Q 15.484375 15.921875 20.484375 11.0625 
Q 25.484375 6.203125 34.421875 6.203125 
Q 39.59375 6.203125 44.453125 7.46875 
Q 49.3125 8.734375 54.109375 11.28125 
L 54.109375 2.78125 
Q 49.265625 0.734375 44.1875 -0.34375 
Q 39.109375 -1.421875 33.890625 -1.421875 
Q 20.796875 -1.421875 13.15625 6.1875 
Q 5.515625 13.8125 5.515625 26.8125 
Q 5.515625 40.234375 12.765625 48.109375 
Q 20.015625 56 32.328125 56 
Q 43.359375 56 49.78125 48.890625 
Q 56.203125 41.796875 56.203125 29.59375 
z
M 47.21875 32.234375 
Q 47.125 39.59375 43.09375 43.984375 
Q 39.0625 48.390625 32.421875 48.390625 
Q 24.90625 48.390625 20.390625 44.140625 
Q 15.875 39.890625 15.1875 32.171875 
z
" id="DejaVuSans-101"/>
      <path d="M 18.109375 8.203125 
L 18.109375 -20.796875 
L 9.078125 -20.796875 
L 9.078125 54.6875 
L 18.109375 54.6875 
L 18.109375 46.390625 
Q 20.953125 51.265625 25.265625 53.625 
Q 29.59375 56 35.59375 56 
Q 45.5625 56 51.78125 48.09375 
Q 58.015625 40.1875 58.015625 27.296875 
Q 58.015625 14.40625 51.78125 6.484375 
Q 45.5625 -1.421875 35.59375 -1.421875 
Q 29.59375 -1.421875 25.265625 0.953125 
Q 20.953125 3.328125 18.109375 8.203125 
z
M 48.6875 27.296875 
Q 48.6875 37.203125 44.609375 42.84375 
Q 40.53125 48.484375 33.40625 48.484375 
Q 26.265625 48.484375 22.1875 42.84375 
Q 18.109375 37.203125 18.109375 27.296875 
Q 18.109375 17.390625 22.1875 11.75 
Q 26.265625 6.109375 33.40625 6.109375 
Q 40.53125 6.109375 44.609375 11.75 
Q 48.6875 17.390625 48.6875 27.296875 
z
" id="DejaVuSans-112"/>
      <path d="M 30.609375 48.390625 
Q 23.390625 48.390625 19.1875 42.75 
Q 14.984375 37.109375 14.984375 27.296875 
Q 14.984375 17.484375 19.15625 11.84375 
Q 23.34375 6.203125 30.609375 6.203125 
Q 37.796875 6.203125 41.984375 11.859375 
Q 46.1875 17.53125 46.1875 27.296875 
Q 46.1875 37.015625 41.984375 42.703125 
Q 37.796875 48.390625 30.609375 48.390625 
z
M 30.609375 56 
Q 42.328125 56 49.015625 48.375 
Q 55.71875 40.765625 55.71875 27.296875 
Q 55.71875 13.875 49.015625 6.21875 
Q 42.328125 -1.421875 30.609375 -1.421875 
Q 18.84375 -1.421875 12.171875 6.21875 
Q 5.515625 13.875 5.515625 27.296875 
Q 5.515625 40.765625 12.171875 48.375 
Q 18.84375 56 30.609375 56 
z
" id="DejaVuSans-111"/>
      <path d="M 48.78125 52.59375 
L 48.78125 44.1875 
Q 44.96875 46.296875 41.140625 47.34375 
Q 37.3125 48.390625 33.40625 48.390625 
Q 24.65625 48.390625 19.8125 42.84375 
Q 14.984375 37.3125 14.984375 27.296875 
Q 14.984375 17.28125 19.8125 11.734375 
Q 24.65625 6.203125 33.40625 6.203125 
Q 37.3125 6.203125 41.140625 7.25 
Q 44.96875 8.296875 48.78125 10.40625 
L 48.78125 2.09375 
Q 45.015625 0.34375 40.984375 -0.53125 
Q 36.96875 -1.421875 32.421875 -1.421875 
Q 20.0625 -1.421875 12.78125 6.34375 
Q 5.515625 14.109375 5.515625 27.296875 
Q 5.515625 40.671875 12.859375 48.328125 
Q 20.21875 56 33.015625 56 
Q 37.15625 56 41.109375 55.140625 
Q 45.0625 54.296875 48.78125 52.59375 
z
" id="DejaVuSans-99"/>
      <path d="M 54.890625 33.015625 
L 54.890625 0 
L 45.90625 0 
L 45.90625 32.71875 
Q 45.90625 40.484375 42.875 44.328125 
Q 39.84375 48.1875 33.796875 48.1875 
Q 26.515625 48.1875 22.3125 43.546875 
Q 18.109375 38.921875 18.109375 30.90625 
L 18.109375 0 
L 9.078125 0 
L 9.078125 75.984375 
L 18.109375 75.984375 
L 18.109375 46.1875 
Q 21.34375 51.125 25.703125 53.5625 
Q 30.078125 56 35.796875 56 
Q 45.21875 56 50.046875 50.171875 
Q 54.890625 44.34375 54.890625 33.015625 
z
" id="DejaVuSans-104"/>
     </defs>
     <g transform="translate(353.771875 343.276563)scale(0.1 -0.1)">
      <use xlink:href="#DejaVuSans-101"/>
      <use x="61.523438" xlink:href="#DejaVuSans-112"/>
      <use x="125" xlink:href="#DejaVuSans-111"/>
      <use x="186.181641" xlink:href="#DejaVuSans-99"/>
      <use x="241.162109" xlink:href="#DejaVuSans-104"/>
     </g>
    </g>
   </g>
   <g id="matplotlib.axis_2">
    <g id="ytick_1">
     <g id="line2d_19">
      <path clip-path="url(#p88f28dae9d)" d="M 90 313.76447 
L 648 313.76447 
" style="fill:none;stroke:#b0b0b0;stroke-linecap:square;stroke-width:0.8;"/>
     </g>
     <g id="line2d_20">
      <defs>
       <path d="M 0 0 
L -3.5 0 
" id="mb025f20c48" style="stroke:#000000;stroke-width:0.8;"/>
      </defs>
      <g>
       <use style="stroke:#000000;stroke-width:0.8;" x="90" xlink:href="#mb025f20c48" y="313.76447"/>
      </g>
     </g>
     <g id="text_11">
      <!-- 0 -->
      <g transform="translate(76.6375 317.563689)scale(0.1 -0.1)">
       <use xlink:href="#DejaVuSans-48"/>
      </g>
     </g>
    </g>
    <g id="ytick_2">
     <g id="line2d_21">
      <path clip-path="url(#p88f28dae9d)" d="M 90 281.671266 
L 648 281.671266 
" style="fill:none;stroke:#b0b0b0;stroke-linecap:square;stroke-width:0.8;"/>
     </g>
     <g id="line2d_22">
      <g>
       <use style="stroke:#000000;stroke-width:0.8;" x="90" xlink:href="#mb025f20c48" y="281.671266"/>
      </g>
     </g>
     <g id="text_12">
      <!-- 5 -->
      <g transform="translate(76.6375 285.470484)scale(0.1 -0.1)">
       <use xlink:href="#DejaVuSans-53"/>
      </g>
     </g>
    </g>
    <g id="ytick_3">
     <g id="line2d_23">
      <path clip-path="url(#p88f28dae9d)" d="M 90 249.578061 
L 648 249.578061 
" style="fill:none;stroke:#b0b0b0;stroke-linecap:square;stroke-width:0.8;"/>
     </g>
     <g id="line2d_24">
      <g>
       <use style="stroke:#000000;stroke-width:0.8;" x="90" xlink:href="#mb025f20c48" y="249.578061"/>
      </g>
     </g>
     <g id="text_13">
      <!-- 10 -->
      <g transform="translate(70.275 253.37728)scale(0.1 -0.1)">
       <use xlink:href="#DejaVuSans-49"/>
       <use x="63.623047" xlink:href="#DejaVuSans-48"/>
      </g>
     </g>
    </g>
    <g id="ytick_4">
     <g id="line2d_25">
      <path clip-path="url(#p88f28dae9d)" d="M 90 217.484856 
L 648 217.484856 
" style="fill:none;stroke:#b0b0b0;stroke-linecap:square;stroke-width:0.8;"/>
     </g>
     <g id="line2d_26">
      <g>
       <use style="stroke:#000000;stroke-width:0.8;" x="90" xlink:href="#mb025f20c48" y="217.484856"/>
      </g>
     </g>
     <g id="text_14">
      <!-- 15 -->
      <g transform="translate(70.275 221.284075)scale(0.1 -0.1)">
       <use xlink:href="#DejaVuSans-49"/>
       <use x="63.623047" xlink:href="#DejaVuSans-53"/>
      </g>
     </g>
    </g>
    <g id="ytick_5">
     <g id="line2d_27">
      <path clip-path="url(#p88f28dae9d)" d="M 90 185.391651 
L 648 185.391651 
" style="fill:none;stroke:#b0b0b0;stroke-linecap:square;stroke-width:0.8;"/>
     </g>
     <g id="line2d_28">
      <g>
       <use style="stroke:#000000;stroke-width:0.8;" x="90" xlink:href="#mb025f20c48" y="185.391651"/>
      </g>
     </g>
     <g id="text_15">
      <!-- 20 -->
      <g transform="translate(70.275 189.19087)scale(0.1 -0.1)">
       <use xlink:href="#DejaVuSans-50"/>
       <use x="63.623047" xlink:href="#DejaVuSans-48"/>
      </g>
     </g>
    </g>
    <g id="ytick_6">
     <g id="line2d_29">
      <path clip-path="url(#p88f28dae9d)" d="M 90 153.298447 
L 648 153.298447 
" style="fill:none;stroke:#b0b0b0;stroke-linecap:square;stroke-width:0.8;"/>
     </g>
     <g id="line2d_30">
      <g>
       <use style="stroke:#000000;stroke-width:0.8;" x="90" xlink:href="#mb025f20c48" y="153.298447"/>
      </g>
     </g>
     <g id="text_16">
      <!-- 25 -->
      <g transform="translate(70.275 157.097665)scale(0.1 -0.1)">
       <use xlink:href="#DejaVuSans-50"/>
       <use x="63.623047" xlink:href="#DejaVuSans-53"/>
      </g>
     </g>
    </g>
    <g id="ytick_7">
     <g id="line2d_31">
      <path clip-path="url(#p88f28dae9d)" d="M 90 121.205242 
L 648 121.205242 
" style="fill:none;stroke:#b0b0b0;stroke-linecap:square;stroke-width:0.8;"/>
     </g>
     <g id="line2d_32">
      <g>
       <use style="stroke:#000000;stroke-width:0.8;" x="90" xlink:href="#mb025f20c48" y="121.205242"/>
      </g>
     </g>
     <g id="text_17">
      <!-- 30 -->
      <defs>
       <path d="M 40.578125 39.3125 
Q 47.65625 37.796875 51.625 33 
Q 55.609375 28.21875 55.609375 21.1875 
Q 55.609375 10.40625 48.1875 4.484375 
Q 40.765625 -1.421875 27.09375 -1.421875 
Q 22.515625 -1.421875 17.65625 -0.515625 
Q 12.796875 0.390625 7.625 2.203125 
L 7.625 11.71875 
Q 11.71875 9.328125 16.59375 8.109375 
Q 21.484375 6.890625 26.8125 6.890625 
Q 36.078125 6.890625 40.9375 10.546875 
Q 45.796875 14.203125 45.796875 21.1875 
Q 45.796875 27.640625 41.28125 31.265625 
Q 36.765625 34.90625 28.71875 34.90625 
L 20.21875 34.90625 
L 20.21875 43.015625 
L 29.109375 43.015625 
Q 36.375 43.015625 40.234375 45.921875 
Q 44.09375 48.828125 44.09375 54.296875 
Q 44.09375 59.90625 40.109375 62.90625 
Q 36.140625 65.921875 28.71875 65.921875 
Q 24.65625 65.921875 20.015625 65.03125 
Q 15.375 64.15625 9.8125 62.3125 
L 9.8125 71.09375 
Q 15.4375 72.65625 20.34375 73.4375 
Q 25.25 74.21875 29.59375 74.21875 
Q 40.828125 74.21875 47.359375 69.109375 
Q 53.90625 64.015625 53.90625 55.328125 
Q 53.90625 49.265625 50.4375 45.09375 
Q 46.96875 40.921875 40.578125 39.3125 
z
" id="DejaVuSans-51"/>
      </defs>
      <g transform="translate(70.275 125.00446)scale(0.1 -0.1)">
       <use xlink:href="#DejaVuSans-51"/>
       <use x="63.623047" xlink:href="#DejaVuSans-48"/>
      </g>
     </g>
    </g>
    <g id="ytick_8">
     <g id="line2d_33">
      <path clip-path="url(#p88f28dae9d)" d="M 90 89.112037 
L 648 89.112037 
" style="fill:none;stroke:#b0b0b0;stroke-linecap:square;stroke-width:0.8;"/>
     </g>
     <g id="line2d_34">
      <g>
       <use style="stroke:#000000;stroke-width:0.8;" x="90" xlink:href="#mb025f20c48" y="89.112037"/>
      </g>
     </g>
     <g id="text_18">
      <!-- 35 -->
      <g transform="translate(70.275 92.911256)scale(0.1 -0.1)">
       <use xlink:href="#DejaVuSans-51"/>
       <use x="63.623047" xlink:href="#DejaVuSans-53"/>
      </g>
     </g>
    </g>
    <g id="ytick_9">
     <g id="line2d_35">
      <path clip-path="url(#p88f28dae9d)" d="M 90 57.018832 
L 648 57.018832 
" style="fill:none;stroke:#b0b0b0;stroke-linecap:square;stroke-width:0.8;"/>
     </g>
     <g id="line2d_36">
      <g>
       <use style="stroke:#000000;stroke-width:0.8;" x="90" xlink:href="#mb025f20c48" y="57.018832"/>
      </g>
     </g>
     <g id="text_19">
      <!-- 40 -->
      <defs>
       <path d="M 37.796875 64.3125 
L 12.890625 25.390625 
L 37.796875 25.390625 
z
M 35.203125 72.90625 
L 47.609375 72.90625 
L 47.609375 25.390625 
L 58.015625 25.390625 
L 58.015625 17.1875 
L 47.609375 17.1875 
L 47.609375 0 
L 37.796875 0 
L 37.796875 17.1875 
L 4.890625 17.1875 
L 4.890625 26.703125 
z
" id="DejaVuSans-52"/>
      </defs>
      <g transform="translate(70.275 60.818051)scale(0.1 -0.1)">
       <use xlink:href="#DejaVuSans-52"/>
       <use x="63.623047" xlink:href="#DejaVuSans-48"/>
      </g>
     </g>
    </g>
    <g id="text_20">
     <!-- loss -->
     <defs>
      <path d="M 9.421875 75.984375 
L 18.40625 75.984375 
L 18.40625 0 
L 9.421875 0 
z
" id="DejaVuSans-108"/>
      <path d="M 44.28125 53.078125 
L 44.28125 44.578125 
Q 40.484375 46.53125 36.375 47.5 
Q 32.28125 48.484375 27.875 48.484375 
Q 21.1875 48.484375 17.84375 46.4375 
Q 14.5 44.390625 14.5 40.28125 
Q 14.5 37.15625 16.890625 35.375 
Q 19.28125 33.59375 26.515625 31.984375 
L 29.59375 31.296875 
Q 39.15625 29.25 43.1875 25.515625 
Q 47.21875 21.78125 47.21875 15.09375 
Q 47.21875 7.46875 41.1875 3.015625 
Q 35.15625 -1.421875 24.609375 -1.421875 
Q 20.21875 -1.421875 15.453125 -0.5625 
Q 10.6875 0.296875 5.421875 2 
L 5.421875 11.28125 
Q 10.40625 8.6875 15.234375 7.390625 
Q 20.0625 6.109375 24.8125 6.109375 
Q 31.15625 6.109375 34.5625 8.28125 
Q 37.984375 10.453125 37.984375 14.40625 
Q 37.984375 18.0625 35.515625 20.015625 
Q 33.0625 21.96875 24.703125 23.78125 
L 21.578125 24.515625 
Q 13.234375 26.265625 9.515625 29.90625 
Q 5.8125 33.546875 5.8125 39.890625 
Q 5.8125 47.609375 11.28125 51.796875 
Q 16.75 56 26.8125 56 
Q 31.78125 56 36.171875 55.265625 
Q 40.578125 54.546875 44.28125 53.078125 
z
" id="DejaVuSans-115"/>
     </defs>
     <g transform="translate(64.195312 188.757812)rotate(-90)scale(0.1 -0.1)">
      <use xlink:href="#DejaVuSans-108"/>
      <use x="27.783203" xlink:href="#DejaVuSans-111"/>
      <use x="88.964844" xlink:href="#DejaVuSans-115"/>
      <use x="141.064453" xlink:href="#DejaVuSans-115"/>
     </g>
    </g>
   </g>
   <g id="line2d_37">
    <path clip-path="url(#p88f28dae9d)" d="M 115.363636 55.554545 
L 116.632453 135.855583 
L 117.647506 162.654776 
L 119.170085 187.744529 
L 120.438901 202.738257 
L 121.707717 214.81439 
L 122.72277 222.761478 
L 123.737823 229.310744 
L 124.752876 234.70462 
L 126.021693 240.213826 
L 127.290509 244.74096 
L 128.813088 249.063765 
L 131.604484 255.570773 
L 133.380827 258.997008 
L 134.903406 261.483881 
L 136.679749 264.033037 
L 140.232434 268.40239 
L 140.486198 268.561011 
L 140.993724 269.1847 
L 141.755014 270.039314 
L 143.277593 271.451286 
L 143.78512 271.885747 
L 149.114148 275.753333 
L 149.367911 275.826724 
L 149.875438 276.17875 
L 151.144254 276.882202 
L 151.398017 277.102016 
L 151.905544 277.287737 
L 153.428123 278.08257 
L 153.681886 278.137364 
L 153.93565 278.33364 
L 154.189413 278.322453 
L 154.696939 278.639622 
L 155.458229 278.959319 
L 155.965756 279.165239 
L 156.219519 279.197207 
L 156.727045 279.546525 
L 157.234572 279.740965 
L 162.817363 282.012387 
L 163.32489 282.191101 
L 163.578653 282.242745 
L 164.086179 282.484903 
L 165.354996 282.939295 
L 165.608759 282.955167 
L 165.862522 283.167011 
L 166.116285 283.150883 
L 166.370049 283.311119 
L 166.623812 283.298826 
L 166.877575 283.474118 
L 167.131338 283.448329 
L 167.638865 283.628883 
L 167.892628 283.655842 
L 168.146391 283.816884 
L 168.653918 283.902362 
L 169.161444 284.099099 
L 170.937787 284.649717 
L 171.19155 284.549886 
L 171.445314 284.723123 
L 171.699077 284.756387 
L 171.95284 284.908706 
L 172.206603 284.849354 
L 173.221656 285.110412 
L 173.729183 285.182115 
L 174.490473 285.442496 
L 177.535631 285.982968 
L 178.043158 286.158919 
L 178.804448 286.212087 
L 179.311974 286.381709 
L 180.834554 286.654391 
L 181.088317 286.609877 
L 182.357133 286.897486 
L 182.86466 286.880293 
L 183.625949 287.05911 
L 184.641002 287.293591 
L 185.148529 287.280154 
L 189.716267 288.021386 
L 190.223794 288.050402 
L 191.49261 288.203829 
L 191.746373 288.321208 
L 192.000136 288.278934 
L 192.2539 288.363733 
L 192.507663 288.294472 
L 195.299059 288.698563 
L 195.552822 288.671918 
L 196.060348 288.816555 
L 196.567875 288.829396 
L 197.329165 288.968367 
L 197.836691 289.003353 
L 202.911956 289.540805 
L 203.419482 289.585813 
L 203.927009 289.674354 
L 204.180772 289.654093 
L 204.434535 289.745727 
L 204.688299 289.647112 
L 205.703352 289.85185 
L 206.210878 289.847283 
L 206.464641 289.958489 
L 206.718405 289.901782 
L 206.972168 289.990537 
L 207.225931 289.910354 
L 207.733458 289.957873 
L 208.748511 290.163027 
L 215.853881 290.765339 
L 216.361408 290.802857 
L 216.615171 290.810387 
L 216.868934 290.955893 
L 217.376461 290.919935 
L 217.883987 290.950202 
L 218.645277 290.990174 
L 219.66033 291.108132 
L 220.167857 291.114772 
L 221.18291 291.274018 
L 221.436673 291.296842 
L 221.690436 291.204517 
L 221.944199 291.359781 
L 222.959252 291.380837 
L 223.213016 291.324375 
L 223.720542 291.504047 
L 223.974305 291.409755 
L 224.735595 291.580758 
L 228.542044 291.813331 
L 229.303333 291.90155 
L 232.094729 292.095626 
L 232.348492 292.242303 
L 232.602256 292.137419 
L 233.109782 292.238208 
L 233.617309 292.20132 
L 234.886125 292.31004 
L 235.393651 292.346523 
L 236.154941 292.494263 
L 236.408704 292.371065 
L 236.662468 292.479722 
L 236.916231 292.444318 
L 237.169994 292.541261 
L 237.677521 292.505921 
L 237.931284 292.4915 
L 238.185047 292.590127 
L 238.692574 292.594304 
L 238.946337 292.648387 
L 239.453863 292.598585 
L 240.468916 292.714492 
L 241.230206 292.693166 
L 241.737733 292.784093 
L 243.260312 292.853641 
L 243.514075 292.933741 
L 244.021602 292.911804 
L 244.529128 293.000458 
L 245.036655 293.000816 
L 245.544181 293.061513 
L 246.051708 293.046064 
L 247.320524 293.083315 
L 247.574287 293.187663 
L 247.82805 293.146036 
L 248.335577 293.218003 
L 248.843103 293.195887 
L 249.35063 293.214577 
L 252.649552 293.437874 
L 252.903315 293.357726 
L 253.918368 293.539173 
L 254.172132 293.482015 
L 254.679658 293.529784 
L 255.187185 293.580852 
L 259.754923 293.766227 
L 260.008686 293.894111 
L 260.262449 293.783021 
L 260.769976 293.905167 
L 262.292555 293.899034 
L 263.307608 293.99643 
L 263.815135 293.943962 
L 265.337714 294.056591 
L 266.099004 294.075953 
L 266.860294 294.173974 
L 268.382873 294.219705 
L 268.636637 294.292388 
L 269.144163 294.233371 
L 270.920506 294.299243 
L 271.174269 294.398345 
L 271.428032 294.285188 
L 271.681795 294.369795 
L 272.189322 294.33572 
L 273.711901 294.47749 
L 274.473191 294.441541 
L 274.980718 294.509509 
L 275.995771 294.537163 
L 276.75706 294.516241 
L 277.264587 294.630219 
L 277.772113 294.505102 
L 278.025877 294.689633 
L 278.533403 294.625413 
L 278.787166 294.707751 
L 279.294693 294.687747 
L 285.892537 295.001488 
L 286.1463 295.06417 
L 286.653827 294.922911 
L 287.161353 295.077869 
L 288.683933 295.062703 
L 289.952749 295.097078 
L 294.520488 295.266775 
L 294.774251 295.201287 
L 295.028014 295.32087 
L 295.789304 295.278801 
L 296.550593 295.381547 
L 297.05812 295.355103 
L 298.073173 295.457969 
L 298.580699 295.383263 
L 299.595752 295.542233 
L 299.849516 295.465205 
L 300.103279 295.524551 
L 300.610805 295.421492 
L 301.118332 295.571655 
L 301.879622 295.500783 
L 302.133385 295.633607 
L 302.387148 295.520967 
L 302.894675 295.598664 
L 303.402201 295.579177 
L 304.163491 295.652746 
L 314.821547 295.949046 
L 315.07531 295.917557 
L 315.329074 296.015018 
L 315.8366 296.046442 
L 316.344127 296.084951 
L 316.851653 296.090614 
L 317.35918 296.135217 
L 327.509709 296.539993 
L 327.763473 296.380175 
L 328.270999 296.519186 
L 328.778526 296.448524 
L 339.690345 296.854726 
L 339.944108 296.820594 
L 340.451635 296.873591 
L 340.705398 296.821659 
L 341.212925 296.94465 
L 341.720451 296.916285 
L 342.481741 296.963132 
L 342.989267 296.952256 
L 346.034426 297.112405 
L 346.28819 297.025462 
L 346.795716 297.093954 
L 347.557006 297.092779 
L 347.810769 297.194897 
L 348.318296 297.136672 
L 349.587112 297.16993 
L 349.840875 297.104731 
L 350.094638 297.189936 
L 350.602165 297.178332 
L 352.124744 297.271108 
L 354.15485 297.270927 
L 355.169903 297.32742 
L 355.423666 297.30231 
L 355.931193 297.411324 
L 359.483878 297.442283 
L 360.245168 297.512567 
L 360.752695 297.497598 
L 362.275274 297.543524 
L 362.7828 297.641193 
L 363.797853 297.578473 
L 364.30538 297.574007 
L 364.559143 297.535761 
L 364.812906 297.652936 
L 365.574196 297.611466 
L 365.827959 297.723311 
L 366.335486 297.660917 
L 366.843012 297.677694 
L 367.350539 297.701849 
L 368.365592 297.780623 
L 368.873118 297.70873 
L 369.126882 297.855118 
L 369.380645 297.722275 
L 369.888171 297.764604 
L 371.410751 297.871484 
L 371.664514 297.771464 
L 372.172041 297.941587 
L 372.679567 297.839184 
L 373.187094 297.920405 
L 373.69462 297.890351 
L 374.709673 297.973484 
L 375.470963 297.942739 
L 375.978489 298.01332 
L 376.739779 298.023856 
L 376.993542 297.941731 
L 377.501069 298.035132 
L 377.754832 297.992747 
L 378.008595 298.109098 
L 378.516122 298.076474 
L 379.023648 298.104058 
L 419.118241 299.101539 
L 419.372004 299.022896 
L 419.625767 299.188656 
L 420.387057 299.061129 
L 420.894584 299.162289 
L 421.148347 299.107189 
L 421.655873 299.184435 
L 421.909637 299.104132 
L 422.417163 299.182494 
L 429.268771 299.2992 
L 429.522534 299.417485 
L 429.776297 299.295985 
L 430.03006 299.400116 
L 431.045113 299.385864 
L 431.298877 299.45289 
L 431.55264 299.318013 
L 432.31393 299.436942 
L 433.328983 299.369891 
L 433.582746 299.443729 
L 433.836509 299.392149 
L 434.344036 299.48374 
L 435.612852 299.484894 
L 435.866615 299.500112 
L 436.120378 299.363474 
L 436.627905 299.513656 
L 438.658011 299.450494 
L 440.18059 299.604123 
L 441.195643 299.522975 
L 442.46446 299.61574 
L 442.971986 299.43186 
L 443.225749 299.601866 
L 447.539724 299.758791 
L 447.793488 299.642218 
L 448.301014 299.715651 
L 448.554777 299.783741 
L 448.808541 299.658517 
L 449.062304 299.817648 
L 449.56983 299.765147 
L 450.077357 299.862959 
L 450.584883 299.792747 
L 451.09241 299.84632 
L 451.346173 299.725243 
L 451.8537 299.784184 
L 452.361226 299.845314 
L 452.614989 299.717949 
L 452.868753 299.818932 
L 453.376279 299.813184 
L 453.630042 299.923142 
L 453.883806 299.825458 
L 454.137569 299.942784 
L 454.645095 299.88993 
L 455.406385 299.840886 
L 455.660148 299.940428 
L 456.675201 299.864029 
L 457.436491 299.975795 
L 457.944017 299.887037 
L 458.705307 299.974873 
L 459.212834 299.915491 
L 459.72036 299.882271 
L 460.227887 299.927416 
L 460.989176 299.978377 
L 462.765519 299.837446 
L 463.019282 299.974095 
L 463.273046 299.922393 
L 463.780572 300.026325 
L 464.034335 299.961029 
L 464.541862 299.99298 
L 465.556915 300.035199 
L 468.855837 300.15716 
L 469.1096 300.19335 
L 469.363363 300.096889 
L 469.87089 300.125342 
L 470.378416 300.067083 
L 471.139706 300.216975 
L 471.393469 300.065199 
L 472.154759 300.162608 
L 474.692392 300.232719 
L 475.453681 300.211869 
L 478.752604 300.249077 
L 480.275183 300.275076 
L 480.528946 300.341462 
L 481.036473 300.327601 
L 481.543999 300.364231 
L 482.305289 300.320329 
L 483.827868 300.372398 
L 485.604211 300.422532 
L 487.634317 300.480649 
L 487.88808 300.292876 
L 488.395607 300.468596 
L 488.64937 300.394774 
L 489.156897 300.541681 
L 494.739688 300.59095 
L 495.754741 300.576469 
L 496.262267 300.560065 
L 496.516031 300.652128 
L 497.27732 300.574522 
L 497.784847 300.603036 
L 498.546137 300.601041 
L 500.068716 300.682771 
L 500.576243 300.653994 
L 501.337532 300.769535 
L 501.845059 300.690283 
L 508.95043 300.753923 
L 509.204193 300.87275 
L 509.711719 300.828741 
L 513.264405 300.894642 
L 513.518168 300.959719 
L 513.771931 300.852395 
L 514.279458 300.958852 
L 515.802037 300.812662 
L 516.81709 300.797538 
L 518.085907 300.91395 
L 518.593433 300.890719 
L 524.429988 300.999924 
L 525.191277 300.960136 
L 525.445041 301.096119 
L 525.698804 300.969895 
L 526.96762 301.121476 
L 527.221383 301.043064 
L 528.236436 301.128026 
L 528.743963 301.100405 
L 531.027832 301.151156 
L 531.281595 301.083682 
L 531.535359 301.23593 
L 531.789122 301.123762 
L 533.311701 301.262822 
L 536.103097 301.273704 
L 536.35686 301.310155 
L 536.864387 301.169362 
L 537.11815 301.301357 
L 537.625676 301.274718 
L 538.133203 301.297141 
L 538.386966 301.236289 
L 538.640729 301.294157 
L 539.148256 301.127332 
L 539.402019 301.280353 
L 539.909546 301.284717 
L 540.417072 301.173457 
L 540.924599 301.301552 
L 543.462231 301.390786 
L 543.969758 301.386594 
L 545.7461 301.39284 
L 546.253627 301.423667 
L 547.26868 301.397499 
L 548.537496 301.443608 
L 549.552549 301.489137 
L 550.567602 301.375241 
L 550.821365 301.469781 
L 551.075128 301.414376 
L 551.328892 301.490538 
L 551.582655 301.43782 
L 551.836418 301.530345 
L 553.612761 301.378268 
L 554.627814 301.442766 
L 562.240711 301.714612 
L 562.494475 301.589475 
L 563.255764 301.742055 
L 564.017054 301.675938 
L 564.270817 301.796727 
L 564.52458 301.63393 
L 564.778344 301.614483 
L 565.032107 301.764083 
L 566.04716 301.684532 
L 566.554686 301.700751 
L 567.062213 301.724362 
L 567.315976 301.811314 
L 567.823503 301.735816 
L 568.077266 301.737487 
L 568.331029 301.882409 
L 568.584792 301.780898 
L 569.092319 301.805333 
L 571.376188 301.781839 
L 572.137478 301.838037 
L 572.391241 301.775163 
L 572.645004 301.903874 
L 575.690163 301.83579 
L 576.19769 301.851568 
L 581.526718 301.921532 
L 581.780481 302.029431 
L 582.034244 301.941193 
L 583.303061 301.992826 
L 583.556824 301.909531 
L 584.318114 302.035398 
L 584.571877 301.992144 
L 584.82564 302.106113 
L 585.58693 301.993914 
L 586.34822 302.067991 
L 587.363273 302.069067 
L 587.617036 302.148911 
L 588.632089 302.040428 
L 589.139615 302.024442 
L 591.169721 302.037925 
L 591.677248 302.04357 
L 592.184774 302.048373 
L 592.946064 302.106345 
L 593.707354 302.134639 
L 593.961117 302.228076 
L 594.722407 301.898741 
L 594.97617 302.073259 
L 595.229933 301.926159 
L 595.73746 302.06642 
L 595.991223 301.955131 
L 597.767566 302.178052 
L 600.812725 302.249238 
L 601.827778 302.272377 
L 602.842831 302.257043 
L 603.60412 302.389938 
L 604.111647 302.294679 
L 604.36541 302.337867 
L 604.619173 302.245772 
L 604.872936 302.33685 
L 605.380463 302.331907 
L 605.887989 302.323452 
L 606.141753 302.227084 
L 606.395516 302.353006 
L 606.649279 302.266437 
L 606.903042 302.394721 
L 608.679385 302.372023 
L 609.186912 302.389167 
L 609.440675 302.328383 
L 609.694438 302.399182 
L 610.201965 302.287078 
L 610.709491 302.34096 
L 611.978307 302.433022 
L 612.485834 302.390215 
L 612.99336 302.452349 
L 614.51594 302.450009 
L 614.769703 302.391337 
L 615.27723 302.453478 
L 615.530993 302.494285 
L 615.784756 302.417131 
L 616.038519 302.497195 
L 616.799809 302.413107 
L 618.322388 302.497792 
L 618.576152 302.349062 
L 618.829915 302.461613 
L 619.844968 302.396905 
L 620.860021 302.502472 
L 621.367547 302.44225 
L 621.875074 302.578113 
L 622.636364 302.64283 
L 622.636364 302.64283 
" style="fill:none;stroke:#1f77b4;stroke-linecap:square;stroke-width:0.5;"/>
   </g>
   <g id="line2d_38">
    <path clip-path="url(#p88f28dae9d)" d="M 115.363636 67.241783 
L 116.124926 122.416376 
L 116.632453 141.252342 
L 117.647506 165.815842 
L 119.170085 189.768315 
L 120.692665 206.904495 
L 121.961481 218.186154 
L 122.976534 225.478175 
L 124.499113 233.992061 
L 126.021693 240.612325 
L 127.290509 245.050887 
L 129.066852 249.99639 
L 130.081905 252.340025 
L 131.096958 254.645806 
L 131.858247 256.156015 
L 132.8733 258.133829 
L 133.888353 259.892672 
L 136.172222 263.365937 
L 136.679749 263.992876 
L 141.247487 269.320299 
L 142.770067 270.806919 
L 145.053936 272.785294 
L 146.322752 273.675054 
L 147.337805 274.474985 
L 147.845332 274.714079 
L 150.382964 276.262583 
L 150.636727 276.273947 
L 150.890491 276.567454 
L 151.398017 276.709756 
L 151.65178 276.941587 
L 152.159307 277.077679 
L 152.41307 277.368443 
L 152.666833 277.406558 
L 153.17436 277.650228 
L 153.428123 277.616451 
L 153.681886 277.958193 
L 154.189413 278.045376 
L 155.965756 278.952484 
L 156.219519 278.987241 
L 156.727045 279.26459 
L 165.101232 282.564393 
L 165.354996 282.531671 
L 165.608759 282.756672 
L 166.116285 282.818681 
L 166.877575 283.135255 
L 167.131338 283.121479 
L 167.385102 283.323106 
L 167.638865 283.293154 
L 167.892628 283.434137 
L 168.146391 283.435958 
L 168.653918 283.633614 
L 170.684024 284.223334 
L 171.445314 284.367089 
L 171.699077 284.513067 
L 172.206603 284.538063 
L 176.266815 285.408514 
L 176.520578 285.323407 
L 176.774342 285.518385 
L 178.296921 285.866864 
L 178.550684 285.759429 
L 178.804448 285.938691 
L 179.311974 285.98368 
L 179.819501 286.107694 
L 182.610896 286.537158 
L 182.86466 286.54451 
L 183.118423 286.678499 
L 183.372186 286.581195 
L 183.625949 286.74369 
L 183.879713 286.732345 
L 184.133476 286.919298 
L 185.656055 287.022531 
L 186.163582 287.139398 
L 186.924872 287.279937 
L 187.432398 287.282884 
L 187.686161 287.406816 
L 188.447451 287.456625 
L 190.477557 287.769414 
L 191.238847 287.813264 
L 191.746373 287.968463 
L 192.000136 287.852599 
L 192.507663 287.997729 
L 192.761426 287.952762 
L 193.015189 288.209338 
L 193.522716 288.075809 
L 194.284006 288.240708 
L 196.821638 288.493679 
L 197.582928 288.649682 
L 201.389377 288.932926 
L 201.896903 289.133125 
L 202.150666 289.058506 
L 202.404429 289.164353 
L 202.658193 289.078385 
L 203.419482 289.305819 
L 203.673246 289.189698 
L 204.688299 289.458138 
L 205.703352 289.413205 
L 206.210878 289.580966 
L 206.464641 289.507271 
L 206.718405 289.612339 
L 206.972168 289.553922 
L 207.479694 289.754823 
L 207.733458 289.567111 
L 208.240984 289.829892 
L 209.002274 289.782081 
L 209.5098 289.865095 
L 210.017327 289.873411 
L 210.524853 290.000077 
L 210.778617 290.029434 
L 211.03238 289.942903 
L 211.79367 290.016339 
L 212.554959 290.009259 
L 212.808723 290.200626 
L 213.570012 290.179851 
L 214.077539 290.29638 
L 214.331302 290.237043 
L 214.585065 290.380497 
L 214.838829 290.281668 
L 215.092592 290.352168 
L 215.600118 290.329975 
L 215.853881 290.463873 
L 216.107645 290.399705 
L 216.361408 290.482229 
L 216.615171 290.42752 
L 217.122698 290.664157 
L 217.376461 290.524822 
L 219.914093 290.645277 
L 220.167857 290.796424 
L 220.675383 290.798244 
L 220.929146 290.877791 
L 221.18291 290.802897 
L 221.690436 291.036334 
L 221.944199 290.827981 
L 222.197963 291.043637 
L 222.451726 290.876774 
L 223.720542 291.188699 
L 224.228069 291.154457 
L 225.750648 291.314319 
L 226.004411 291.215936 
L 226.511938 291.303034 
L 226.765701 291.244477 
L 227.273228 291.435334 
L 227.780754 291.357396 
L 229.303333 291.566723 
L 229.81086 291.534761 
L 230.064623 291.608655 
L 230.57215 291.568178 
L 231.079676 291.617146 
L 234.378598 291.949308 
L 234.886125 291.897042 
L 236.154941 292.072841 
L 236.408704 291.917735 
L 237.169994 292.093919 
L 237.677521 292.119419 
L 238.185047 292.229142 
L 238.692574 292.145516 
L 238.946337 292.256186 
L 239.2001 292.204975 
L 239.453863 292.282097 
L 239.96139 292.264365 
L 240.976443 292.399935 
L 241.230206 292.419206 
L 241.483969 292.262501 
L 241.991496 292.435931 
L 242.499022 292.264814 
L 243.006549 292.524762 
L 243.767838 292.525735 
L 245.036655 292.519413 
L 245.290418 292.66263 
L 245.797944 292.512773 
L 246.305471 292.819109 
L 246.559234 292.648358 
L 247.574287 292.673269 
L 247.82805 292.790663 
L 248.843103 292.833345 
L 249.096867 292.889553 
L 249.604393 292.846811 
L 250.873209 292.914347 
L 251.126973 293.057187 
L 251.380736 292.804608 
L 251.888262 293.053011 
L 252.649552 292.99851 
L 253.410842 293.129252 
L 255.948474 293.156233 
L 256.202237 293.266046 
L 256.709764 293.199566 
L 258.232343 293.428738 
L 258.73987 293.28667 
L 258.993633 293.469334 
L 259.247396 293.362718 
L 262.800082 293.59821 
L 263.053845 293.491756 
L 263.307608 293.597537 
L 263.815135 293.571068 
L 265.083951 293.624901 
L 267.875347 293.730129 
L 268.12911 293.908829 
L 268.8904 293.697646 
L 269.144163 293.938693 
L 269.651689 293.800475 
L 269.905453 293.871645 
L 270.159216 293.735545 
L 270.666742 293.941964 
L 270.920506 293.816137 
L 271.428032 293.988804 
L 271.935559 293.942204 
L 272.696848 293.954906 
L 272.950612 293.938885 
L 273.204375 294.073065 
L 274.980718 294.112437 
L 275.234481 294.18321 
L 275.488244 293.989269 
L 275.995771 294.152045 
L 277.264587 294.137807 
L 277.51835 294.234467 
L 278.025877 294.245736 
L 278.533403 294.277072 
L 278.787166 294.337751 
L 279.294693 294.178276 
L 279.802219 294.323677 
L 280.055983 294.259743 
L 280.309746 294.422197 
L 281.324799 294.323856 
L 281.832325 294.403775 
L 282.593615 294.461378 
L 282.847378 294.391297 
L 283.862431 294.534206 
L 284.116194 294.408321 
L 284.369958 294.546825 
L 284.623721 294.449206 
L 285.892537 294.582252 
L 287.922643 294.556234 
L 288.176406 294.73063 
L 289.191459 294.635866 
L 290.206512 294.742023 
L 290.460276 294.643409 
L 290.967802 294.706056 
L 291.475329 294.763098 
L 291.729092 294.721275 
L 291.982855 294.844499 
L 292.236618 294.768814 
L 292.490382 294.845327 
L 292.744145 294.721415 
L 292.997908 294.846761 
L 293.251671 294.792233 
L 293.759198 294.895196 
L 294.520488 294.844646 
L 294.774251 294.956902 
L 295.281777 294.870859 
L 298.073173 294.996249 
L 298.580699 295.106269 
L 299.088226 294.998066 
L 299.595752 295.05724 
L 299.849516 294.999991 
L 300.357042 295.128598 
L 302.387148 295.127071 
L 302.640911 295.188296 
L 302.894675 295.086422 
L 303.148438 295.268581 
L 304.417254 295.16602 
L 304.924781 295.338847 
L 305.178544 295.388407 
L 305.432307 295.267882 
L 305.68607 295.374381 
L 305.939834 295.274568 
L 306.193597 295.353174 
L 306.954887 295.250171 
L 307.462413 295.427471 
L 313.298968 295.56958 
L 313.806494 295.61152 
L 314.314021 295.517565 
L 314.567784 295.610278 
L 314.821547 295.493225 
L 315.582837 295.704021 
L 316.344127 295.720072 
L 316.851653 295.692295 
L 317.105416 295.592287 
L 319.135522 295.867191 
L 319.896812 295.769612 
L 320.150575 295.844328 
L 320.658102 295.741855 
L 320.911865 295.861225 
L 321.926918 295.856259 
L 322.941971 295.86161 
L 323.703261 295.929206 
L 323.957024 295.931748 
L 324.210787 295.81627 
L 324.46455 295.971253 
L 324.718314 295.850468 
L 324.972077 295.970418 
L 325.22584 295.912269 
L 325.479603 296.023098 
L 325.733367 295.94867 
L 326.74842 296.075597 
L 327.255946 296.187405 
L 327.509709 296.017749 
L 327.763473 295.992283 
L 328.270999 296.061221 
L 328.524762 296.121115 
L 329.286052 296.03613 
L 332.077448 296.228859 
L 332.331211 296.149734 
L 333.346264 296.260693 
L 333.853791 296.233516 
L 334.107554 296.343293 
L 334.61508 296.260035 
L 334.868844 296.395862 
L 335.37637 296.300683 
L 336.13766 296.401412 
L 336.391423 296.278428 
L 337.152713 296.375732 
L 337.660239 296.372429 
L 337.914002 296.470189 
L 338.421529 296.345456 
L 338.675292 296.505313 
L 339.182819 296.379824 
L 340.197872 296.465179 
L 341.212925 296.480219 
L 341.720451 296.539637 
L 343.750557 296.579087 
L 344.00432 296.689953 
L 344.258084 296.544614 
L 344.511847 296.686401 
L 345.273137 296.651031 
L 346.541953 296.671514 
L 347.049479 296.656373 
L 347.303243 296.73311 
L 348.064532 296.649352 
L 348.572059 296.777927 
L 348.825822 296.657984 
L 349.079585 296.721745 
L 349.333348 296.63424 
L 349.587112 296.75436 
L 349.840875 296.691065 
L 350.348401 296.739101 
L 350.602165 296.733354 
L 350.855928 296.946574 
L 351.363454 296.891922 
L 353.139797 296.784331 
L 353.39356 296.96327 
L 353.647324 296.980812 
L 353.901087 296.792449 
L 354.15485 296.995638 
L 354.408613 297.039543 
L 354.662377 296.888939 
L 354.91614 296.9782 
L 355.423666 296.971017 
L 356.184956 296.953291 
L 356.438719 297.140584 
L 356.692483 297.00484 
L 357.453772 297.051409 
L 357.707536 296.940048 
L 358.468825 297.060733 
L 361.006458 297.075556 
L 361.260221 296.937625 
L 361.767748 297.142618 
L 363.036564 297.10744 
L 363.290327 297.309125 
L 363.54409 297.200253 
L 364.051617 297.242279 
L 364.559143 297.176963 
L 364.812906 297.259747 
L 365.06667 297.117078 
L 366.843012 297.279495 
L 367.096776 297.221055 
L 367.604302 297.326013 
L 368.365592 297.446252 
L 368.873118 297.265169 
L 369.126882 297.4498 
L 369.634408 297.301237 
L 370.395698 297.44183 
L 370.649461 297.398823 
L 370.903224 297.498845 
L 371.156988 297.406981 
L 371.918277 297.441733 
L 373.440857 297.4729 
L 373.69462 297.433938 
L 373.948383 297.601591 
L 374.963436 297.436102 
L 375.2172 297.616536 
L 376.232252 297.672165 
L 376.739779 297.526444 
L 376.993542 297.632785 
L 377.501069 297.561057 
L 378.008595 297.701347 
L 378.262358 297.570775 
L 378.516122 297.680628 
L 378.769885 297.633693 
L 379.023648 297.709635 
L 379.784938 297.660799 
L 380.292464 297.673085 
L 380.546228 297.615714 
L 381.561281 297.750845 
L 382.32257 297.725397 
L 383.08386 297.768848 
L 383.337623 297.70438 
L 383.591387 297.818234 
L 384.60644 297.758213 
L 387.144072 297.907939 
L 388.159125 297.897503 
L 388.412888 297.989956 
L 388.666652 297.885839 
L 389.174178 298.051149 
L 389.681704 297.915563 
L 390.189231 297.989937 
L 391.71181 298.089554 
L 392.4731 297.976379 
L 392.980627 298.084947 
L 394.249443 298.15734 
L 394.503206 298.013015 
L 395.010733 298.070857 
L 395.264496 298.049781 
L 395.518259 298.175214 
L 395.772022 298.067787 
L 396.025786 298.118003 
L 396.279549 298.032821 
L 396.787075 298.197038 
L 398.055892 298.086957 
L 398.309655 298.169407 
L 398.817181 298.148851 
L 399.070945 298.255434 
L 399.324708 298.159885 
L 399.578471 298.282996 
L 400.085998 298.19528 
L 400.593524 298.260283 
L 400.847287 298.196284 
L 401.608577 298.361409 
L 401.86234 298.362835 
L 402.116104 298.224489 
L 402.369867 298.371371 
L 402.62363 298.226394 
L 403.638683 298.385553 
L 404.399973 298.327382 
L 405.161262 298.454633 
L 405.415026 298.433761 
L 405.668789 298.53774 
L 406.176315 298.413636 
L 406.430079 298.498483 
L 406.683842 298.342621 
L 406.937605 298.492285 
L 409.729001 298.470756 
L 410.490291 298.615295 
L 410.997817 298.540281 
L 411.505344 298.634348 
L 411.759107 298.492515 
L 412.77416 298.556597 
L 413.027923 298.534491 
L 413.281686 298.629547 
L 413.789213 298.563739 
L 414.296739 298.62593 
L 414.550503 298.523055 
L 415.311792 298.671515 
L 415.819319 298.612934 
L 416.580608 298.674482 
L 416.834372 298.632101 
L 417.088135 298.72047 
L 417.341898 298.683435 
L 417.595661 298.830493 
L 420.387057 298.711152 
L 420.64082 298.807368 
L 421.655873 298.751624 
L 424.447269 298.828466 
L 424.954796 298.774432 
L 425.716085 298.825364 
L 425.969849 298.935141 
L 428.253718 298.846559 
L 428.507481 298.986062 
L 428.761244 298.936198 
L 429.015008 299.003575 
L 429.522534 298.916282 
L 430.03006 298.977913 
L 430.283824 299.045648 
L 430.537587 298.960654 
L 431.045113 299.073793 
L 432.060166 298.903198 
L 432.31393 299.088921 
L 433.328983 299.036003 
L 433.582746 299.132171 
L 433.836509 298.992783 
L 434.851562 299.085585 
L 435.359089 299.049136 
L 435.866615 299.138277 
L 437.389195 299.098573 
L 437.642958 299.199616 
L 438.150484 299.101611 
L 438.404248 299.251266 
L 438.658011 299.049511 
L 439.165537 299.103765 
L 439.926827 299.189165 
L 440.688117 299.147113 
L 440.94188 299.246006 
L 441.195643 299.201613 
L 441.449407 299.322254 
L 441.956933 299.165841 
L 442.46446 299.277274 
L 442.971986 299.177213 
L 443.987039 299.220547 
L 444.240802 299.381704 
L 444.494565 299.184224 
L 445.002092 299.315783 
L 446.270908 299.326613 
L 446.778435 299.203253 
L 447.285961 299.326893 
L 448.047251 299.225864 
L 448.301014 299.428491 
L 448.808541 299.382748 
L 449.823594 299.491767 
L 450.077357 299.341867 
L 450.33112 299.435501 
L 450.838647 299.420662 
L 451.346173 299.321783 
L 451.599936 299.445617 
L 452.361226 299.414831 
L 452.614989 299.555111 
L 453.122516 299.42906 
L 453.883806 299.491441 
L 454.137569 299.348556 
L 454.391332 299.501304 
L 457.944017 299.445758 
L 458.197781 299.600011 
L 458.451544 299.435362 
L 458.705307 299.550432 
L 459.212834 299.450609 
L 459.72036 299.589969 
L 460.989176 299.562902 
L 461.24294 299.654556 
L 461.496703 299.508889 
L 462.511756 299.515448 
L 462.765519 299.610077 
L 463.019282 299.457999 
L 463.273046 299.644735 
L 465.556915 299.700821 
L 465.810678 299.591989 
L 466.571968 299.775724 
L 466.825731 299.724509 
L 467.079494 299.820102 
L 467.333258 299.726901 
L 467.587021 299.815709 
L 467.840784 299.635814 
L 468.094547 299.774498 
L 468.348311 299.675392 
L 468.602074 299.783821 
L 469.87089 299.714019 
L 472.154759 299.832297 
L 472.408522 299.769667 
L 472.916049 299.84196 
L 475.707445 299.800603 
L 475.961208 299.924137 
L 476.468734 299.844691 
L 477.483787 299.838391 
L 477.737551 299.924374 
L 478.49884 299.882377 
L 479.006367 299.939016 
L 480.528946 299.899374 
L 481.036473 299.982183 
L 481.290236 299.888217 
L 481.543999 300.019141 
L 481.797763 299.921866 
L 483.827868 300.055928 
L 484.081632 299.934252 
L 484.335395 300.068744 
L 484.589158 299.872865 
L 485.096685 300.079025 
L 486.111738 300.100433 
L 488.64937 299.998203 
L 488.903133 300.145836 
L 489.918186 300.14622 
L 490.17195 300.199699 
L 490.425713 300.047944 
L 492.202056 300.21821 
L 493.470872 300.082049 
L 493.978398 300.265337 
L 494.232162 300.115826 
L 494.739688 300.255315 
L 494.993451 300.263807 
L 495.247215 300.140373 
L 495.500978 300.242533 
L 496.008504 300.184983 
L 496.262267 300.289154 
L 496.516031 300.172459 
L 497.023557 300.29279 
L 497.27732 300.164497 
L 497.531084 300.238976 
L 497.784847 300.160039 
L 498.03861 300.270724 
L 498.292373 300.226737 
L 498.546137 300.295647 
L 498.7999 300.225001 
L 499.56119 300.351733 
L 499.814953 300.236635 
L 500.322479 300.386622 
L 500.576243 300.165742 
L 501.083769 300.405706 
L 501.591296 300.363679 
L 502.098822 300.342401 
L 503.367638 300.360608 
L 503.621402 300.429638 
L 503.875165 300.321386 
L 504.382691 300.435369 
L 505.397744 300.32436 
L 506.412797 300.392659 
L 506.666561 300.244771 
L 507.174087 300.374044 
L 508.18914 300.431948 
L 508.442903 300.492554 
L 508.696667 300.31657 
L 508.95043 300.437739 
L 509.204193 300.35007 
L 509.711719 300.453826 
L 510.980536 300.424678 
L 511.741825 300.574899 
L 512.503115 300.448745 
L 513.010642 300.54107 
L 513.518168 300.441736 
L 513.771931 300.653822 
L 514.279458 300.463794 
L 515.548274 300.508434 
L 515.802037 300.396183 
L 516.055801 300.474745 
L 516.309564 300.355908 
L 516.563327 300.52073 
L 517.070854 300.363558 
L 517.57838 300.536359 
L 518.33967 300.47841 
L 518.593433 300.604909 
L 518.847196 300.51611 
L 519.862249 300.593197 
L 520.116013 300.530388 
L 520.623539 300.595529 
L 521.384829 300.670835 
L 522.146119 300.566941 
L 522.653645 300.698563 
L 522.907408 300.754208 
L 523.161171 300.573904 
L 523.668698 300.753361 
L 524.683751 300.584849 
L 524.937514 300.735471 
L 525.952567 300.618233 
L 526.20633 300.821244 
L 526.96762 300.710008 
L 527.475147 300.796588 
L 527.72891 300.658759 
L 529.759016 300.839922 
L 530.012779 300.721877 
L 530.520306 300.807796 
L 530.774069 300.697201 
L 531.535359 300.823411 
L 532.550412 300.854374 
L 532.804175 300.75384 
L 533.057938 300.809569 
L 533.311701 300.731552 
L 533.819228 300.832849 
L 534.834281 300.784331 
L 535.088044 300.94126 
L 535.341807 300.798781 
L 538.640729 300.966692 
L 538.894493 300.839952 
L 539.909546 300.954611 
L 540.163309 300.897416 
L 540.417072 300.973666 
L 540.924599 300.868248 
L 541.432125 300.935846 
L 542.193415 300.956812 
L 542.954705 301.022435 
L 543.208468 300.96558 
L 543.715994 301.062447 
L 544.223521 301.033282 
L 544.984811 301.028683 
L 545.238574 300.893174 
L 545.492337 300.996692 
L 545.7461 300.900879 
L 545.999864 301.054916 
L 547.522443 301.05933 
L 548.791259 301.115162 
L 549.045023 301.251316 
L 549.552549 301.03688 
L 550.060075 301.019484 
L 551.328892 301.088957 
L 551.582655 301.224917 
L 552.090181 300.987674 
L 552.343945 301.183583 
L 552.597708 300.99841 
L 552.851471 300.968188 
L 553.105234 301.069772 
L 553.358998 300.988231 
L 553.866524 301.126203 
L 554.627814 301.047668 
L 554.881577 301.230186 
L 556.150393 301.150883 
L 556.65792 301.262157 
L 556.911683 301.230669 
L 557.165446 301.363813 
L 557.41921 301.135649 
L 558.180499 301.322697 
L 558.688026 301.129955 
L 559.195552 301.211873 
L 559.956842 301.142915 
L 560.210605 301.291933 
L 562.240711 301.243412 
L 562.494475 301.402897 
L 563.002001 301.370411 
L 563.255764 301.406965 
L 563.763291 301.331008 
L 564.52458 301.25993 
L 564.778344 301.364954 
L 565.032107 301.216345 
L 565.539633 301.395617 
L 566.80845 301.287029 
L 567.062213 301.472495 
L 567.315976 301.292186 
L 567.569739 301.466448 
L 568.331029 301.357772 
L 568.584792 301.517676 
L 568.838556 301.492148 
L 569.092319 301.31269 
L 569.346082 301.455295 
L 570.107372 301.39203 
L 570.361135 301.531788 
L 570.614898 301.405493 
L 570.868662 301.486414 
L 571.122425 301.364356 
L 572.391241 301.567274 
L 573.913821 301.446305 
L 574.167584 301.556245 
L 574.421347 301.544603 
L 574.67511 301.328459 
L 574.928874 301.554512 
L 575.182637 301.351973 
L 575.690163 301.510867 
L 576.19769 301.363133 
L 577.212743 301.615706 
L 577.720269 301.431865 
L 578.227796 301.638445 
L 578.735322 301.532874 
L 579.496612 301.638858 
L 579.750375 301.552049 
L 580.765428 301.737798 
L 581.019191 301.557296 
L 581.526718 301.539707 
L 583.049297 301.653381 
L 583.303061 301.537328 
L 583.810587 301.721814 
L 584.06435 301.604649 
L 584.571877 301.644775 
L 585.079403 301.669613 
L 585.333167 301.554372 
L 585.840693 301.753514 
L 586.34822 301.69431 
L 586.601983 301.636475 
L 587.109509 301.699595 
L 587.363273 301.768723 
L 587.617036 301.680837 
L 588.124562 301.821426 
L 588.378326 301.678276 
L 589.393379 301.703636 
L 589.647142 301.609033 
L 590.662195 301.760208 
L 590.915958 301.621337 
L 591.677248 301.658826 
L 593.707354 301.809953 
L 594.468643 301.566747 
L 594.722407 301.704974 
L 594.97617 301.468442 
L 595.229933 301.74192 
L 595.483696 301.545346 
L 595.991223 301.779298 
L 596.244986 301.637874 
L 596.498749 301.654038 
L 596.752513 301.881826 
L 597.006276 301.741424 
L 597.260039 301.794204 
L 597.513802 301.679929 
L 598.021329 301.884462 
L 598.782619 301.674274 
L 599.290145 301.854004 
L 600.051435 301.809288 
L 600.558961 301.994495 
L 600.812725 301.805834 
L 601.066488 301.968795 
L 602.589067 301.941058 
L 602.842831 302.066484 
L 603.096594 301.913652 
L 603.350357 301.955361 
L 603.60412 301.878709 
L 603.857883 302.016552 
L 604.111647 301.953592 
L 604.36541 302.009882 
L 604.619173 301.903431 
L 604.872936 302.074951 
L 605.634226 301.845215 
L 606.141753 302.007289 
L 607.156806 301.990241 
L 607.918095 302.07637 
L 608.171859 302.00444 
L 608.425622 302.155403 
L 608.679385 302.068312 
L 608.933148 302.115538 
L 609.186912 302.024659 
L 609.440675 302.057323 
L 609.694438 301.897191 
L 610.709491 302.068631 
L 611.217018 302.042925 
L 613.500887 302.140521 
L 613.75465 301.994704 
L 614.008413 301.986632 
L 614.769703 302.242158 
L 615.023466 302.108631 
L 616.292283 302.158539 
L 616.799809 302.052079 
L 617.561099 302.185533 
L 618.068625 302.060085 
L 618.576152 302.172181 
L 618.829915 301.984493 
L 619.337441 302.031933 
L 620.098731 302.098175 
L 620.352494 301.978733 
L 620.606258 302.103925 
L 620.860021 302.072537 
L 621.113784 302.248925 
L 621.875074 302.213685 
L 622.128837 302.277284 
L 622.3826 302.147427 
L 622.636364 302.244324 
L 622.636364 302.244324 
" style="fill:none;stroke:#ff7f0e;stroke-linecap:square;stroke-width:0.5;"/>
   </g>
   <g id="patch_3">
    <path d="M 90 315 
L 90 43.2 
" style="fill:none;stroke:#000000;stroke-linecap:square;stroke-linejoin:miter;stroke-width:0.8;"/>
   </g>
   <g id="patch_4">
    <path d="M 648 315 
L 648 43.2 
" style="fill:none;stroke:#000000;stroke-linecap:square;stroke-linejoin:miter;stroke-width:0.8;"/>
   </g>
   <g id="patch_5">
    <path d="M 90 315 
L 648 315 
" style="fill:none;stroke:#000000;stroke-linecap:square;stroke-linejoin:miter;stroke-width:0.8;"/>
   </g>
   <g id="patch_6">
    <path d="M 90 43.2 
L 648 43.2 
" style="fill:none;stroke:#000000;stroke-linecap:square;stroke-linejoin:miter;stroke-width:0.8;"/>
   </g>
   <g id="text_21">
    <!-- loss -->
    <g transform="translate(357.410625 37.2)scale(0.12 -0.12)">
     <use xlink:href="#DejaVuSans-108"/>
     <use x="27.783203" xlink:href="#DejaVuSans-111"/>
     <use x="88.964844" xlink:href="#DejaVuSans-115"/>
     <use x="141.064453" xlink:href="#DejaVuSans-115"/>
    </g>
   </g>
   <g id="legend_1">
    <g id="patch_7">
     <path d="M 568.846875 80.55625 
L 641 80.55625 
Q 643 80.55625 643 78.55625 
L 643 50.2 
Q 643 48.2 641 48.2 
L 568.846875 48.2 
Q 566.846875 48.2 566.846875 50.2 
L 566.846875 78.55625 
Q 566.846875 80.55625 568.846875 80.55625 
z
" style="fill:#ffffff;opacity:0.8;stroke:#cccccc;stroke-linejoin:miter;"/>
    </g>
    <g id="line2d_39">
     <path d="M 570.846875 56.298437 
L 590.846875 56.298437 
" style="fill:none;stroke:#1f77b4;stroke-linecap:square;stroke-width:0.5;"/>
    </g>
    <g id="line2d_40"/>
    <g id="text_22">
     <!-- train -->
     <defs>
      <path d="M 18.3125 70.21875 
L 18.3125 54.6875 
L 36.8125 54.6875 
L 36.8125 47.703125 
L 18.3125 47.703125 
L 18.3125 18.015625 
Q 18.3125 11.328125 20.140625 9.421875 
Q 21.96875 7.515625 27.59375 7.515625 
L 36.8125 7.515625 
L 36.8125 0 
L 27.59375 0 
Q 17.1875 0 13.234375 3.875 
Q 9.28125 7.765625 9.28125 18.015625 
L 9.28125 47.703125 
L 2.6875 47.703125 
L 2.6875 54.6875 
L 9.28125 54.6875 
L 9.28125 70.21875 
z
" id="DejaVuSans-116"/>
      <path d="M 41.109375 46.296875 
Q 39.59375 47.171875 37.8125 47.578125 
Q 36.03125 48 33.890625 48 
Q 26.265625 48 22.1875 43.046875 
Q 18.109375 38.09375 18.109375 28.8125 
L 18.109375 0 
L 9.078125 0 
L 9.078125 54.6875 
L 18.109375 54.6875 
L 18.109375 46.1875 
Q 20.953125 51.171875 25.484375 53.578125 
Q 30.03125 56 36.53125 56 
Q 37.453125 56 38.578125 55.875 
Q 39.703125 55.765625 41.0625 55.515625 
z
" id="DejaVuSans-114"/>
      <path d="M 34.28125 27.484375 
Q 23.390625 27.484375 19.1875 25 
Q 14.984375 22.515625 14.984375 16.5 
Q 14.984375 11.71875 18.140625 8.90625 
Q 21.296875 6.109375 26.703125 6.109375 
Q 34.1875 6.109375 38.703125 11.40625 
Q 43.21875 16.703125 43.21875 25.484375 
L 43.21875 27.484375 
z
M 52.203125 31.203125 
L 52.203125 0 
L 43.21875 0 
L 43.21875 8.296875 
Q 40.140625 3.328125 35.546875 0.953125 
Q 30.953125 -1.421875 24.3125 -1.421875 
Q 15.921875 -1.421875 10.953125 3.296875 
Q 6 8.015625 6 15.921875 
Q 6 25.140625 12.171875 29.828125 
Q 18.359375 34.515625 30.609375 34.515625 
L 43.21875 34.515625 
L 43.21875 35.40625 
Q 43.21875 41.609375 39.140625 45 
Q 35.0625 48.390625 27.6875 48.390625 
Q 23 48.390625 18.546875 47.265625 
Q 14.109375 46.140625 10.015625 43.890625 
L 10.015625 52.203125 
Q 14.9375 54.109375 19.578125 55.046875 
Q 24.21875 56 28.609375 56 
Q 40.484375 56 46.34375 49.84375 
Q 52.203125 43.703125 52.203125 31.203125 
z
" id="DejaVuSans-97"/>
      <path d="M 9.421875 54.6875 
L 18.40625 54.6875 
L 18.40625 0 
L 9.421875 0 
z
M 9.421875 75.984375 
L 18.40625 75.984375 
L 18.40625 64.59375 
L 9.421875 64.59375 
z
" id="DejaVuSans-105"/>
      <path d="M 54.890625 33.015625 
L 54.890625 0 
L 45.90625 0 
L 45.90625 32.71875 
Q 45.90625 40.484375 42.875 44.328125 
Q 39.84375 48.1875 33.796875 48.1875 
Q 26.515625 48.1875 22.3125 43.546875 
Q 18.109375 38.921875 18.109375 30.90625 
L 18.109375 0 
L 9.078125 0 
L 9.078125 54.6875 
L 18.109375 54.6875 
L 18.109375 46.1875 
Q 21.34375 51.125 25.703125 53.5625 
Q 30.078125 56 35.796875 56 
Q 45.21875 56 50.046875 50.171875 
Q 54.890625 44.34375 54.890625 33.015625 
z
" id="DejaVuSans-110"/>
     </defs>
     <g transform="translate(598.846875 59.798437)scale(0.1 -0.1)">
      <use xlink:href="#DejaVuSans-116"/>
      <use x="39.208984" xlink:href="#DejaVuSans-114"/>
      <use x="80.322266" xlink:href="#DejaVuSans-97"/>
      <use x="141.601562" xlink:href="#DejaVuSans-105"/>
      <use x="169.384766" xlink:href="#DejaVuSans-110"/>
     </g>
    </g>
    <g id="line2d_41">
     <path d="M 570.846875 70.976562 
L 590.846875 70.976562 
" style="fill:none;stroke:#ff7f0e;stroke-linecap:square;stroke-width:0.5;"/>
    </g>
    <g id="line2d_42"/>
    <g id="text_23">
     <!-- validate -->
     <defs>
      <path d="M 2.984375 54.6875 
L 12.5 54.6875 
L 29.59375 8.796875 
L 46.6875 54.6875 
L 56.203125 54.6875 
L 35.6875 0 
L 23.484375 0 
z
" id="DejaVuSans-118"/>
      <path d="M 45.40625 46.390625 
L 45.40625 75.984375 
L 54.390625 75.984375 
L 54.390625 0 
L 45.40625 0 
L 45.40625 8.203125 
Q 42.578125 3.328125 38.25 0.953125 
Q 33.9375 -1.421875 27.875 -1.421875 
Q 17.96875 -1.421875 11.734375 6.484375 
Q 5.515625 14.40625 5.515625 27.296875 
Q 5.515625 40.1875 11.734375 48.09375 
Q 17.96875 56 27.875 56 
Q 33.9375 56 38.25 53.625 
Q 42.578125 51.265625 45.40625 46.390625 
z
M 14.796875 27.296875 
Q 14.796875 17.390625 18.875 11.75 
Q 22.953125 6.109375 30.078125 6.109375 
Q 37.203125 6.109375 41.296875 11.75 
Q 45.40625 17.390625 45.40625 27.296875 
Q 45.40625 37.203125 41.296875 42.84375 
Q 37.203125 48.484375 30.078125 48.484375 
Q 22.953125 48.484375 18.875 42.84375 
Q 14.796875 37.203125 14.796875 27.296875 
z
" id="DejaVuSans-100"/>
     </defs>
     <g transform="translate(598.846875 74.476562)scale(0.1 -0.1)">
      <use xlink:href="#DejaVuSans-118"/>
      <use x="59.179688" xlink:href="#DejaVuSans-97"/>
      <use x="120.458984" xlink:href="#DejaVuSans-108"/>
      <use x="148.242188" xlink:href="#DejaVuSans-105"/>
      <use x="176.025391" xlink:href="#DejaVuSans-100"/>
      <use x="239.501953" xlink:href="#DejaVuSans-97"/>
      <use x="300.78125" xlink:href="#DejaVuSans-116"/>
      <use x="339.990234" xlink:href="#DejaVuSans-101"/>
     </g>
    </g>
   </g>
  </g>
 </g>
 <defs>
  <clipPath id="p88f28dae9d">
   <rect height="271.8" width="558" x="90" y="43.2"/>
  </clipPath>
 </defs>
</svg>
