<?xml version="1.0" encoding="utf-8" standalone="no"?>
<!DOCTYPE svg PUBLIC "-//W3C//DTD SVG 1.1//EN"
  "http://www.w3.org/Graphics/SVG/1.1/DTD/svg11.dtd">
<!-- Created with matplotlib (https://matplotlib.org/) -->
<svg height="360pt" version="1.1" viewBox="0 0 720 360" width="720pt" xmlns="http://www.w3.org/2000/svg" xmlns:xlink="http://www.w3.org/1999/xlink">
 <defs>
  <style type="text/css">
*{stroke-linecap:butt;stroke-linejoin:round;}
  </style>
 </defs>
 <g id="figure_1">
  <g id="patch_1">
   <path d="M 0 360 
L 720 360 
L 720 0 
L 0 0 
z
" style="fill:#ffffff;"/>
  </g>
  <g id="axes_1">
   <g id="patch_2">
    <path d="M 90 315 
L 648 315 
L 648 43.2 
L 90 43.2 
z
" style="fill:#ffffff;"/>
   </g>
   <g id="matplotlib.axis_1">
    <g id="xtick_1">
     <g id="line2d_1">
      <path clip-path="url(#p0f8873a696)" d="M 115.363636 315 
L 115.363636 43.2 
" style="fill:none;stroke:#b0b0b0;stroke-linecap:square;stroke-width:0.8;"/>
     </g>
     <g id="line2d_2">
      <defs>
       <path d="M 0 0 
L 0 3.5 
" id="m55588567b0" style="stroke:#000000;stroke-width:0.8;"/>
      </defs>
      <g>
       <use style="stroke:#000000;stroke-width:0.8;" x="115.363636" xlink:href="#m55588567b0" y="315"/>
      </g>
     </g>
     <g id="text_1">
      <!-- 0 -->
      <defs>
       <path d="M 31.78125 66.40625 
Q 24.171875 66.40625 20.328125 58.90625 
Q 16.5 51.421875 16.5 36.375 
Q 16.5 21.390625 20.328125 13.890625 
Q 24.171875 6.390625 31.78125 6.390625 
Q 39.453125 6.390625 43.28125 13.890625 
Q 47.125 21.390625 47.125 36.375 
Q 47.125 51.421875 43.28125 58.90625 
Q 39.453125 66.40625 31.78125 66.40625 
z
M 31.78125 74.21875 
Q 44.046875 74.21875 50.515625 64.515625 
Q 56.984375 54.828125 56.984375 36.375 
Q 56.984375 17.96875 50.515625 8.265625 
Q 44.046875 -1.421875 31.78125 -1.421875 
Q 19.53125 -1.421875 13.0625 8.265625 
Q 6.59375 17.96875 6.59375 36.375 
Q 6.59375 54.828125 13.0625 64.515625 
Q 19.53125 74.21875 31.78125 74.21875 
z
" id="DejaVuSans-48"/>
      </defs>
      <g transform="translate(112.182386 329.598437)scale(0.1 -0.1)">
       <use xlink:href="#DejaVuSans-48"/>
      </g>
     </g>
    </g>
    <g id="xtick_2">
     <g id="line2d_3">
      <path clip-path="url(#p0f8873a696)" d="M 178.804448 315 
L 178.804448 43.2 
" style="fill:none;stroke:#b0b0b0;stroke-linecap:square;stroke-width:0.8;"/>
     </g>
     <g id="line2d_4">
      <g>
       <use style="stroke:#000000;stroke-width:0.8;" x="178.804448" xlink:href="#m55588567b0" y="315"/>
      </g>
     </g>
     <g id="text_2">
      <!-- 250 -->
      <defs>
       <path d="M 19.1875 8.296875 
L 53.609375 8.296875 
L 53.609375 0 
L 7.328125 0 
L 7.328125 8.296875 
Q 12.9375 14.109375 22.625 23.890625 
Q 32.328125 33.6875 34.8125 36.53125 
Q 39.546875 41.84375 41.421875 45.53125 
Q 43.3125 49.21875 43.3125 52.78125 
Q 43.3125 58.59375 39.234375 62.25 
Q 35.15625 65.921875 28.609375 65.921875 
Q 23.96875 65.921875 18.8125 64.3125 
Q 13.671875 62.703125 7.8125 59.421875 
L 7.8125 69.390625 
Q 13.765625 71.78125 18.9375 73 
Q 24.125 74.21875 28.421875 74.21875 
Q 39.75 74.21875 46.484375 68.546875 
Q 53.21875 62.890625 53.21875 53.421875 
Q 53.21875 48.921875 51.53125 44.890625 
Q 49.859375 40.875 45.40625 35.40625 
Q 44.1875 33.984375 37.640625 27.21875 
Q 31.109375 20.453125 19.1875 8.296875 
z
" id="DejaVuSans-50"/>
       <path d="M 10.796875 72.90625 
L 49.515625 72.90625 
L 49.515625 64.59375 
L 19.828125 64.59375 
L 19.828125 46.734375 
Q 21.96875 47.46875 24.109375 47.828125 
Q 26.265625 48.1875 28.421875 48.1875 
Q 40.625 48.1875 47.75 41.5 
Q 54.890625 34.8125 54.890625 23.390625 
Q 54.890625 11.625 47.5625 5.09375 
Q 40.234375 -1.421875 26.90625 -1.421875 
Q 22.3125 -1.421875 17.546875 -0.640625 
Q 12.796875 0.140625 7.71875 1.703125 
L 7.71875 11.625 
Q 12.109375 9.234375 16.796875 8.0625 
Q 21.484375 6.890625 26.703125 6.890625 
Q 35.15625 6.890625 40.078125 11.328125 
Q 45.015625 15.765625 45.015625 23.390625 
Q 45.015625 31 40.078125 35.4375 
Q 35.15625 39.890625 26.703125 39.890625 
Q 22.75 39.890625 18.8125 39.015625 
Q 14.890625 38.140625 10.796875 36.28125 
z
" id="DejaVuSans-53"/>
      </defs>
      <g transform="translate(169.260698 329.598437)scale(0.1 -0.1)">
       <use xlink:href="#DejaVuSans-50"/>
       <use x="63.623047" xlink:href="#DejaVuSans-53"/>
       <use x="127.246094" xlink:href="#DejaVuSans-48"/>
      </g>
     </g>
    </g>
    <g id="xtick_3">
     <g id="line2d_5">
      <path clip-path="url(#p0f8873a696)" d="M 242.245259 315 
L 242.245259 43.2 
" style="fill:none;stroke:#b0b0b0;stroke-linecap:square;stroke-width:0.8;"/>
     </g>
     <g id="line2d_6">
      <g>
       <use style="stroke:#000000;stroke-width:0.8;" x="242.245259" xlink:href="#m55588567b0" y="315"/>
      </g>
     </g>
     <g id="text_3">
      <!-- 500 -->
      <g transform="translate(232.701509 329.598437)scale(0.1 -0.1)">
       <use xlink:href="#DejaVuSans-53"/>
       <use x="63.623047" xlink:href="#DejaVuSans-48"/>
       <use x="127.246094" xlink:href="#DejaVuSans-48"/>
      </g>
     </g>
    </g>
    <g id="xtick_4">
     <g id="line2d_7">
      <path clip-path="url(#p0f8873a696)" d="M 305.68607 315 
L 305.68607 43.2 
" style="fill:none;stroke:#b0b0b0;stroke-linecap:square;stroke-width:0.8;"/>
     </g>
     <g id="line2d_8">
      <g>
       <use style="stroke:#000000;stroke-width:0.8;" x="305.68607" xlink:href="#m55588567b0" y="315"/>
      </g>
     </g>
     <g id="text_4">
      <!-- 750 -->
      <defs>
       <path d="M 8.203125 72.90625 
L 55.078125 72.90625 
L 55.078125 68.703125 
L 28.609375 0 
L 18.3125 0 
L 43.21875 64.59375 
L 8.203125 64.59375 
z
" id="DejaVuSans-55"/>
      </defs>
      <g transform="translate(296.14232 329.598437)scale(0.1 -0.1)">
       <use xlink:href="#DejaVuSans-55"/>
       <use x="63.623047" xlink:href="#DejaVuSans-53"/>
       <use x="127.246094" xlink:href="#DejaVuSans-48"/>
      </g>
     </g>
    </g>
    <g id="xtick_5">
     <g id="line2d_9">
      <path clip-path="url(#p0f8873a696)" d="M 369.126882 315 
L 369.126882 43.2 
" style="fill:none;stroke:#b0b0b0;stroke-linecap:square;stroke-width:0.8;"/>
     </g>
     <g id="line2d_10">
      <g>
       <use style="stroke:#000000;stroke-width:0.8;" x="369.126882" xlink:href="#m55588567b0" y="315"/>
      </g>
     </g>
     <g id="text_5">
      <!-- 1000 -->
      <defs>
       <path d="M 12.40625 8.296875 
L 28.515625 8.296875 
L 28.515625 63.921875 
L 10.984375 60.40625 
L 10.984375 69.390625 
L 28.421875 72.90625 
L 38.28125 72.90625 
L 38.28125 8.296875 
L 54.390625 8.296875 
L 54.390625 0 
L 12.40625 0 
z
" id="DejaVuSans-49"/>
      </defs>
      <g transform="translate(356.401882 329.598437)scale(0.1 -0.1)">
       <use xlink:href="#DejaVuSans-49"/>
       <use x="63.623047" xlink:href="#DejaVuSans-48"/>
       <use x="127.246094" xlink:href="#DejaVuSans-48"/>
       <use x="190.869141" xlink:href="#DejaVuSans-48"/>
      </g>
     </g>
    </g>
    <g id="xtick_6">
     <g id="line2d_11">
      <path clip-path="url(#p0f8873a696)" d="M 432.567693 315 
L 432.567693 43.2 
" style="fill:none;stroke:#b0b0b0;stroke-linecap:square;stroke-width:0.8;"/>
     </g>
     <g id="line2d_12">
      <g>
       <use style="stroke:#000000;stroke-width:0.8;" x="432.567693" xlink:href="#m55588567b0" y="315"/>
      </g>
     </g>
     <g id="text_6">
      <!-- 1250 -->
      <g transform="translate(419.842693 329.598437)scale(0.1 -0.1)">
       <use xlink:href="#DejaVuSans-49"/>
       <use x="63.623047" xlink:href="#DejaVuSans-50"/>
       <use x="127.246094" xlink:href="#DejaVuSans-53"/>
       <use x="190.869141" xlink:href="#DejaVuSans-48"/>
      </g>
     </g>
    </g>
    <g id="xtick_7">
     <g id="line2d_13">
      <path clip-path="url(#p0f8873a696)" d="M 496.008504 315 
L 496.008504 43.2 
" style="fill:none;stroke:#b0b0b0;stroke-linecap:square;stroke-width:0.8;"/>
     </g>
     <g id="line2d_14">
      <g>
       <use style="stroke:#000000;stroke-width:0.8;" x="496.008504" xlink:href="#m55588567b0" y="315"/>
      </g>
     </g>
     <g id="text_7">
      <!-- 1500 -->
      <g transform="translate(483.283504 329.598437)scale(0.1 -0.1)">
       <use xlink:href="#DejaVuSans-49"/>
       <use x="63.623047" xlink:href="#DejaVuSans-53"/>
       <use x="127.246094" xlink:href="#DejaVuSans-48"/>
       <use x="190.869141" xlink:href="#DejaVuSans-48"/>
      </g>
     </g>
    </g>
    <g id="xtick_8">
     <g id="line2d_15">
      <path clip-path="url(#p0f8873a696)" d="M 559.449316 315 
L 559.449316 43.2 
" style="fill:none;stroke:#b0b0b0;stroke-linecap:square;stroke-width:0.8;"/>
     </g>
     <g id="line2d_16">
      <g>
       <use style="stroke:#000000;stroke-width:0.8;" x="559.449316" xlink:href="#m55588567b0" y="315"/>
      </g>
     </g>
     <g id="text_8">
      <!-- 1750 -->
      <g transform="translate(546.724316 329.598437)scale(0.1 -0.1)">
       <use xlink:href="#DejaVuSans-49"/>
       <use x="63.623047" xlink:href="#DejaVuSans-55"/>
       <use x="127.246094" xlink:href="#DejaVuSans-53"/>
       <use x="190.869141" xlink:href="#DejaVuSans-48"/>
      </g>
     </g>
    </g>
    <g id="xtick_9">
     <g id="line2d_17">
      <path clip-path="url(#p0f8873a696)" d="M 622.890127 315 
L 622.890127 43.2 
" style="fill:none;stroke:#b0b0b0;stroke-linecap:square;stroke-width:0.8;"/>
     </g>
     <g id="line2d_18">
      <g>
       <use style="stroke:#000000;stroke-width:0.8;" x="622.890127" xlink:href="#m55588567b0" y="315"/>
      </g>
     </g>
     <g id="text_9">
      <!-- 2000 -->
      <g transform="translate(610.165127 329.598437)scale(0.1 -0.1)">
       <use xlink:href="#DejaVuSans-50"/>
       <use x="63.623047" xlink:href="#DejaVuSans-48"/>
       <use x="127.246094" xlink:href="#DejaVuSans-48"/>
       <use x="190.869141" xlink:href="#DejaVuSans-48"/>
      </g>
     </g>
    </g>
    <g id="text_10">
     <!-- epoch -->
     <defs>
      <path d="M 56.203125 29.59375 
L 56.203125 25.203125 
L 14.890625 25.203125 
Q 15.484375 15.921875 20.484375 11.0625 
Q 25.484375 6.203125 34.421875 6.203125 
Q 39.59375 6.203125 44.453125 7.46875 
Q 49.3125 8.734375 54.109375 11.28125 
L 54.109375 2.78125 
Q 49.265625 0.734375 44.1875 -0.34375 
Q 39.109375 -1.421875 33.890625 -1.421875 
Q 20.796875 -1.421875 13.15625 6.1875 
Q 5.515625 13.8125 5.515625 26.8125 
Q 5.515625 40.234375 12.765625 48.109375 
Q 20.015625 56 32.328125 56 
Q 43.359375 56 49.78125 48.890625 
Q 56.203125 41.796875 56.203125 29.59375 
z
M 47.21875 32.234375 
Q 47.125 39.59375 43.09375 43.984375 
Q 39.0625 48.390625 32.421875 48.390625 
Q 24.90625 48.390625 20.390625 44.140625 
Q 15.875 39.890625 15.1875 32.171875 
z
" id="DejaVuSans-101"/>
      <path d="M 18.109375 8.203125 
L 18.109375 -20.796875 
L 9.078125 -20.796875 
L 9.078125 54.6875 
L 18.109375 54.6875 
L 18.109375 46.390625 
Q 20.953125 51.265625 25.265625 53.625 
Q 29.59375 56 35.59375 56 
Q 45.5625 56 51.78125 48.09375 
Q 58.015625 40.1875 58.015625 27.296875 
Q 58.015625 14.40625 51.78125 6.484375 
Q 45.5625 -1.421875 35.59375 -1.421875 
Q 29.59375 -1.421875 25.265625 0.953125 
Q 20.953125 3.328125 18.109375 8.203125 
z
M 48.6875 27.296875 
Q 48.6875 37.203125 44.609375 42.84375 
Q 40.53125 48.484375 33.40625 48.484375 
Q 26.265625 48.484375 22.1875 42.84375 
Q 18.109375 37.203125 18.109375 27.296875 
Q 18.109375 17.390625 22.1875 11.75 
Q 26.265625 6.109375 33.40625 6.109375 
Q 40.53125 6.109375 44.609375 11.75 
Q 48.6875 17.390625 48.6875 27.296875 
z
" id="DejaVuSans-112"/>
      <path d="M 30.609375 48.390625 
Q 23.390625 48.390625 19.1875 42.75 
Q 14.984375 37.109375 14.984375 27.296875 
Q 14.984375 17.484375 19.15625 11.84375 
Q 23.34375 6.203125 30.609375 6.203125 
Q 37.796875 6.203125 41.984375 11.859375 
Q 46.1875 17.53125 46.1875 27.296875 
Q 46.1875 37.015625 41.984375 42.703125 
Q 37.796875 48.390625 30.609375 48.390625 
z
M 30.609375 56 
Q 42.328125 56 49.015625 48.375 
Q 55.71875 40.765625 55.71875 27.296875 
Q 55.71875 13.875 49.015625 6.21875 
Q 42.328125 -1.421875 30.609375 -1.421875 
Q 18.84375 -1.421875 12.171875 6.21875 
Q 5.515625 13.875 5.515625 27.296875 
Q 5.515625 40.765625 12.171875 48.375 
Q 18.84375 56 30.609375 56 
z
" id="DejaVuSans-111"/>
      <path d="M 48.78125 52.59375 
L 48.78125 44.1875 
Q 44.96875 46.296875 41.140625 47.34375 
Q 37.3125 48.390625 33.40625 48.390625 
Q 24.65625 48.390625 19.8125 42.84375 
Q 14.984375 37.3125 14.984375 27.296875 
Q 14.984375 17.28125 19.8125 11.734375 
Q 24.65625 6.203125 33.40625 6.203125 
Q 37.3125 6.203125 41.140625 7.25 
Q 44.96875 8.296875 48.78125 10.40625 
L 48.78125 2.09375 
Q 45.015625 0.34375 40.984375 -0.53125 
Q 36.96875 -1.421875 32.421875 -1.421875 
Q 20.0625 -1.421875 12.78125 6.34375 
Q 5.515625 14.109375 5.515625 27.296875 
Q 5.515625 40.671875 12.859375 48.328125 
Q 20.21875 56 33.015625 56 
Q 37.15625 56 41.109375 55.140625 
Q 45.0625 54.296875 48.78125 52.59375 
z
" id="DejaVuSans-99"/>
      <path d="M 54.890625 33.015625 
L 54.890625 0 
L 45.90625 0 
L 45.90625 32.71875 
Q 45.90625 40.484375 42.875 44.328125 
Q 39.84375 48.1875 33.796875 48.1875 
Q 26.515625 48.1875 22.3125 43.546875 
Q 18.109375 38.921875 18.109375 30.90625 
L 18.109375 0 
L 9.078125 0 
L 9.078125 75.984375 
L 18.109375 75.984375 
L 18.109375 46.1875 
Q 21.34375 51.125 25.703125 53.5625 
Q 30.078125 56 35.796875 56 
Q 45.21875 56 50.046875 50.171875 
Q 54.890625 44.34375 54.890625 33.015625 
z
" id="DejaVuSans-104"/>
     </defs>
     <g transform="translate(353.771875 343.276563)scale(0.1 -0.1)">
      <use xlink:href="#DejaVuSans-101"/>
      <use x="61.523438" xlink:href="#DejaVuSans-112"/>
      <use x="125" xlink:href="#DejaVuSans-111"/>
      <use x="186.181641" xlink:href="#DejaVuSans-99"/>
      <use x="241.162109" xlink:href="#DejaVuSans-104"/>
     </g>
    </g>
   </g>
   <g id="matplotlib.axis_2">
    <g id="ytick_1">
     <g id="line2d_19">
      <path clip-path="url(#p0f8873a696)" d="M 90 310.776145 
L 648 310.776145 
" style="fill:none;stroke:#b0b0b0;stroke-linecap:square;stroke-width:0.8;"/>
     </g>
     <g id="line2d_20">
      <defs>
       <path d="M 0 0 
L -3.5 0 
" id="m52e2d85a47" style="stroke:#000000;stroke-width:0.8;"/>
      </defs>
      <g>
       <use style="stroke:#000000;stroke-width:0.8;" x="90" xlink:href="#m52e2d85a47" y="310.776145"/>
      </g>
     </g>
     <g id="text_11">
      <!-- 0 -->
      <g transform="translate(76.6375 314.575363)scale(0.1 -0.1)">
       <use xlink:href="#DejaVuSans-48"/>
      </g>
     </g>
    </g>
    <g id="ytick_2">
     <g id="line2d_21">
      <path clip-path="url(#p0f8873a696)" d="M 90 278.734048 
L 648 278.734048 
" style="fill:none;stroke:#b0b0b0;stroke-linecap:square;stroke-width:0.8;"/>
     </g>
     <g id="line2d_22">
      <g>
       <use style="stroke:#000000;stroke-width:0.8;" x="90" xlink:href="#m52e2d85a47" y="278.734048"/>
      </g>
     </g>
     <g id="text_12">
      <!-- 5 -->
      <g transform="translate(76.6375 282.533267)scale(0.1 -0.1)">
       <use xlink:href="#DejaVuSans-53"/>
      </g>
     </g>
    </g>
    <g id="ytick_3">
     <g id="line2d_23">
      <path clip-path="url(#p0f8873a696)" d="M 90 246.691951 
L 648 246.691951 
" style="fill:none;stroke:#b0b0b0;stroke-linecap:square;stroke-width:0.8;"/>
     </g>
     <g id="line2d_24">
      <g>
       <use style="stroke:#000000;stroke-width:0.8;" x="90" xlink:href="#m52e2d85a47" y="246.691951"/>
      </g>
     </g>
     <g id="text_13">
      <!-- 10 -->
      <g transform="translate(70.275 250.49117)scale(0.1 -0.1)">
       <use xlink:href="#DejaVuSans-49"/>
       <use x="63.623047" xlink:href="#DejaVuSans-48"/>
      </g>
     </g>
    </g>
    <g id="ytick_4">
     <g id="line2d_25">
      <path clip-path="url(#p0f8873a696)" d="M 90 214.649855 
L 648 214.649855 
" style="fill:none;stroke:#b0b0b0;stroke-linecap:square;stroke-width:0.8;"/>
     </g>
     <g id="line2d_26">
      <g>
       <use style="stroke:#000000;stroke-width:0.8;" x="90" xlink:href="#m52e2d85a47" y="214.649855"/>
      </g>
     </g>
     <g id="text_14">
      <!-- 15 -->
      <g transform="translate(70.275 218.449074)scale(0.1 -0.1)">
       <use xlink:href="#DejaVuSans-49"/>
       <use x="63.623047" xlink:href="#DejaVuSans-53"/>
      </g>
     </g>
    </g>
    <g id="ytick_5">
     <g id="line2d_27">
      <path clip-path="url(#p0f8873a696)" d="M 90 182.607758 
L 648 182.607758 
" style="fill:none;stroke:#b0b0b0;stroke-linecap:square;stroke-width:0.8;"/>
     </g>
     <g id="line2d_28">
      <g>
       <use style="stroke:#000000;stroke-width:0.8;" x="90" xlink:href="#m52e2d85a47" y="182.607758"/>
      </g>
     </g>
     <g id="text_15">
      <!-- 20 -->
      <g transform="translate(70.275 186.406977)scale(0.1 -0.1)">
       <use xlink:href="#DejaVuSans-50"/>
       <use x="63.623047" xlink:href="#DejaVuSans-48"/>
      </g>
     </g>
    </g>
    <g id="ytick_6">
     <g id="line2d_29">
      <path clip-path="url(#p0f8873a696)" d="M 90 150.565662 
L 648 150.565662 
" style="fill:none;stroke:#b0b0b0;stroke-linecap:square;stroke-width:0.8;"/>
     </g>
     <g id="line2d_30">
      <g>
       <use style="stroke:#000000;stroke-width:0.8;" x="90" xlink:href="#m52e2d85a47" y="150.565662"/>
      </g>
     </g>
     <g id="text_16">
      <!-- 25 -->
      <g transform="translate(70.275 154.36488)scale(0.1 -0.1)">
       <use xlink:href="#DejaVuSans-50"/>
       <use x="63.623047" xlink:href="#DejaVuSans-53"/>
      </g>
     </g>
    </g>
    <g id="ytick_7">
     <g id="line2d_31">
      <path clip-path="url(#p0f8873a696)" d="M 90 118.523565 
L 648 118.523565 
" style="fill:none;stroke:#b0b0b0;stroke-linecap:square;stroke-width:0.8;"/>
     </g>
     <g id="line2d_32">
      <g>
       <use style="stroke:#000000;stroke-width:0.8;" x="90" xlink:href="#m52e2d85a47" y="118.523565"/>
      </g>
     </g>
     <g id="text_17">
      <!-- 30 -->
      <defs>
       <path d="M 40.578125 39.3125 
Q 47.65625 37.796875 51.625 33 
Q 55.609375 28.21875 55.609375 21.1875 
Q 55.609375 10.40625 48.1875 4.484375 
Q 40.765625 -1.421875 27.09375 -1.421875 
Q 22.515625 -1.421875 17.65625 -0.515625 
Q 12.796875 0.390625 7.625 2.203125 
L 7.625 11.71875 
Q 11.71875 9.328125 16.59375 8.109375 
Q 21.484375 6.890625 26.8125 6.890625 
Q 36.078125 6.890625 40.9375 10.546875 
Q 45.796875 14.203125 45.796875 21.1875 
Q 45.796875 27.640625 41.28125 31.265625 
Q 36.765625 34.90625 28.71875 34.90625 
L 20.21875 34.90625 
L 20.21875 43.015625 
L 29.109375 43.015625 
Q 36.375 43.015625 40.234375 45.921875 
Q 44.09375 48.828125 44.09375 54.296875 
Q 44.09375 59.90625 40.109375 62.90625 
Q 36.140625 65.921875 28.71875 65.921875 
Q 24.65625 65.921875 20.015625 65.03125 
Q 15.375 64.15625 9.8125 62.3125 
L 9.8125 71.09375 
Q 15.4375 72.65625 20.34375 73.4375 
Q 25.25 74.21875 29.59375 74.21875 
Q 40.828125 74.21875 47.359375 69.109375 
Q 53.90625 64.015625 53.90625 55.328125 
Q 53.90625 49.265625 50.4375 45.09375 
Q 46.96875 40.921875 40.578125 39.3125 
z
" id="DejaVuSans-51"/>
      </defs>
      <g transform="translate(70.275 122.322784)scale(0.1 -0.1)">
       <use xlink:href="#DejaVuSans-51"/>
       <use x="63.623047" xlink:href="#DejaVuSans-48"/>
      </g>
     </g>
    </g>
    <g id="ytick_8">
     <g id="line2d_33">
      <path clip-path="url(#p0f8873a696)" d="M 90 86.481468 
L 648 86.481468 
" style="fill:none;stroke:#b0b0b0;stroke-linecap:square;stroke-width:0.8;"/>
     </g>
     <g id="line2d_34">
      <g>
       <use style="stroke:#000000;stroke-width:0.8;" x="90" xlink:href="#m52e2d85a47" y="86.481468"/>
      </g>
     </g>
     <g id="text_18">
      <!-- 35 -->
      <g transform="translate(70.275 90.280687)scale(0.1 -0.1)">
       <use xlink:href="#DejaVuSans-51"/>
       <use x="63.623047" xlink:href="#DejaVuSans-53"/>
      </g>
     </g>
    </g>
    <g id="ytick_9">
     <g id="line2d_35">
      <path clip-path="url(#p0f8873a696)" d="M 90 54.439372 
L 648 54.439372 
" style="fill:none;stroke:#b0b0b0;stroke-linecap:square;stroke-width:0.8;"/>
     </g>
     <g id="line2d_36">
      <g>
       <use style="stroke:#000000;stroke-width:0.8;" x="90" xlink:href="#m52e2d85a47" y="54.439372"/>
      </g>
     </g>
     <g id="text_19">
      <!-- 40 -->
      <defs>
       <path d="M 37.796875 64.3125 
L 12.890625 25.390625 
L 37.796875 25.390625 
z
M 35.203125 72.90625 
L 47.609375 72.90625 
L 47.609375 25.390625 
L 58.015625 25.390625 
L 58.015625 17.1875 
L 47.609375 17.1875 
L 47.609375 0 
L 37.796875 0 
L 37.796875 17.1875 
L 4.890625 17.1875 
L 4.890625 26.703125 
z
" id="DejaVuSans-52"/>
      </defs>
      <g transform="translate(70.275 58.238591)scale(0.1 -0.1)">
       <use xlink:href="#DejaVuSans-52"/>
       <use x="63.623047" xlink:href="#DejaVuSans-48"/>
      </g>
     </g>
    </g>
    <g id="text_20">
     <!-- loss -->
     <defs>
      <path d="M 9.421875 75.984375 
L 18.40625 75.984375 
L 18.40625 0 
L 9.421875 0 
z
" id="DejaVuSans-108"/>
      <path d="M 44.28125 53.078125 
L 44.28125 44.578125 
Q 40.484375 46.53125 36.375 47.5 
Q 32.28125 48.484375 27.875 48.484375 
Q 21.1875 48.484375 17.84375 46.4375 
Q 14.5 44.390625 14.5 40.28125 
Q 14.5 37.15625 16.890625 35.375 
Q 19.28125 33.59375 26.515625 31.984375 
L 29.59375 31.296875 
Q 39.15625 29.25 43.1875 25.515625 
Q 47.21875 21.78125 47.21875 15.09375 
Q 47.21875 7.46875 41.1875 3.015625 
Q 35.15625 -1.421875 24.609375 -1.421875 
Q 20.21875 -1.421875 15.453125 -0.5625 
Q 10.6875 0.296875 5.421875 2 
L 5.421875 11.28125 
Q 10.40625 8.6875 15.234375 7.390625 
Q 20.0625 6.109375 24.8125 6.109375 
Q 31.15625 6.109375 34.5625 8.28125 
Q 37.984375 10.453125 37.984375 14.40625 
Q 37.984375 18.0625 35.515625 20.015625 
Q 33.0625 21.96875 24.703125 23.78125 
L 21.578125 24.515625 
Q 13.234375 26.265625 9.515625 29.90625 
Q 5.8125 33.546875 5.8125 39.890625 
Q 5.8125 47.609375 11.28125 51.796875 
Q 16.75 56 26.8125 56 
Q 31.78125 56 36.171875 55.265625 
Q 40.578125 54.546875 44.28125 53.078125 
z
" id="DejaVuSans-115"/>
     </defs>
     <g transform="translate(64.195312 188.757812)rotate(-90)scale(0.1 -0.1)">
      <use xlink:href="#DejaVuSans-108"/>
      <use x="27.783203" xlink:href="#DejaVuSans-111"/>
      <use x="88.964844" xlink:href="#DejaVuSans-115"/>
      <use x="141.064453" xlink:href="#DejaVuSans-115"/>
     </g>
    </g>
   </g>
   <g id="line2d_37">
    <path clip-path="url(#p0f8873a696)" d="M 115.363636 55.554545 
L 116.632453 134.572824 
L 117.139979 152.264029 
L 117.901269 167.352749 
L 119.170085 189.882532 
L 120.692665 211.006308 
L 121.453954 218.878968 
L 122.469007 227.239537 
L 123.48406 233.611837 
L 124.752876 240.158777 
L 126.021693 245.880986 
L 127.290509 251.079451 
L 128.813088 256.453672 
L 130.843194 262.263383 
L 133.127064 267.442562 
L 135.157169 271.095812 
L 136.172222 272.637968 
L 137.187275 274.096504 
L 137.948565 275.012227 
L 138.709855 275.961514 
L 139.724908 277.144953 
L 140.993724 278.40384 
L 142.26254 279.617328 
L 145.053936 281.788746 
L 145.561463 282.100314 
L 146.576516 282.766403 
L 149.367911 284.337849 
L 149.621674 284.392642 
L 150.382964 284.860047 
L 151.144254 285.206278 
L 153.428123 286.208016 
L 153.93565 286.428171 
L 156.980809 287.509264 
L 157.995862 287.91926 
L 158.757151 288.093478 
L 160.279731 288.579244 
L 161.041021 288.813142 
L 162.5636 289.209945 
L 166.370049 290.150964 
L 166.623812 290.127884 
L 167.638865 290.440903 
L 168.146391 290.540726 
L 169.922734 290.925693 
L 170.430261 290.933284 
L 170.937787 291.10226 
L 172.206603 291.328201 
L 173.47542 291.521956 
L 176.013052 291.916959 
L 176.266815 291.906618 
L 176.774342 292.085341 
L 177.281868 292.142093 
L 178.804448 292.355128 
L 180.327027 292.516424 
L 180.58079 292.618078 
L 180.834554 292.557131 
L 181.849607 292.756184 
L 185.148529 293.118985 
L 185.656055 293.177379 
L 185.909819 293.256906 
L 186.163582 293.219146 
L 186.671108 293.295879 
L 190.223794 293.713066 
L 190.73132 293.753895 
L 192.2539 293.848346 
L 193.268953 294.010107 
L 193.776479 293.987081 
L 195.045295 294.135687 
L 197.075401 294.243491 
L 197.836691 294.34499 
L 198.090454 294.299514 
L 198.597981 294.384417 
L 201.389377 294.58708 
L 201.896903 294.635242 
L 204.180772 294.848722 
L 204.434535 294.752546 
L 206.718405 294.949547 
L 207.479694 295.043146 
L 207.987221 294.980678 
L 210.27109 295.187239 
L 211.286143 295.213749 
L 212.047433 295.232461 
L 212.808723 295.285525 
L 214.585065 295.353712 
L 215.092592 295.381896 
L 215.853881 295.420522 
L 217.630224 295.553115 
L 217.883987 295.509143 
L 218.137751 295.626011 
L 218.89904 295.563623 
L 219.152804 295.655226 
L 219.914093 295.601342 
L 220.167857 295.724125 
L 220.675383 295.666546 
L 221.436673 295.751681 
L 223.974305 295.821296 
L 224.989358 295.8209 
L 225.750648 295.91815 
L 231.333439 296.136329 
L 232.856019 296.157988 
L 255.948474 296.965707 
L 256.456001 296.949466 
L 257.471054 296.982645 
L 257.97858 296.994964 
L 258.232343 296.925314 
L 258.73987 297.027359 
L 259.754923 296.991784 
L 260.516213 297.033179 
L 263.307608 297.150922 
L 263.815135 297.123475 
L 265.845241 297.218381 
L 266.860294 297.252096 
L 267.36782 297.229766 
L 268.636637 297.308551 
L 269.397926 297.256034 
L 269.905453 297.288128 
L 270.920506 297.302349 
L 271.428032 297.313892 
L 274.219428 297.427511 
L 275.234481 297.455187 
L 277.51835 297.469524 
L 278.27964 297.53411 
L 279.04093 297.510096 
L 279.548456 297.505299 
L 280.309746 297.535822 
L 281.324799 297.550438 
L 282.593615 297.615469 
L 285.131247 297.639448 
L 285.892537 297.706786 
L 286.653827 297.681992 
L 288.43017 297.728116 
L 289.191459 297.720115 
L 290.714039 297.80663 
L 291.475329 297.761968 
L 292.490382 297.831997 
L 293.505435 297.857368 
L 294.266724 297.89431 
L 294.520488 297.821545 
L 295.028014 297.920201 
L 296.804357 297.89694 
L 297.311883 298.005136 
L 297.565646 297.91328 
L 299.088226 298.027997 
L 299.849516 298.044137 
L 308.223703 298.148329 
L 308.731229 298.201577 
L 309.238756 298.17238 
L 312.283915 298.24027 
L 313.552731 298.326481 
L 314.567784 298.273251 
L 315.329074 298.300886 
L 315.8366 298.283281 
L 316.851653 298.390713 
L 320.404339 298.399023 
L 321.673155 298.487789 
L 322.180681 298.408552 
L 323.195734 298.472149 
L 324.46455 298.483357 
L 327.763473 298.555104 
L 328.270999 298.549156 
L 329.286052 298.586056 
L 329.793579 298.567163 
L 331.316158 298.669269 
L 331.823685 298.625568 
L 333.346264 298.641221 
L 333.853791 298.651149 
L 336.645186 298.730884 
L 336.898949 298.646374 
L 337.152713 298.742181 
L 337.660239 298.720015 
L 339.182819 298.808289 
L 339.944108 298.755386 
L 340.451635 298.768882 
L 341.466688 298.782438 
L 342.735504 298.830904 
L 343.496794 298.789268 
L 344.511847 298.847763 
L 345.273137 298.878234 
L 345.780663 298.867576 
L 346.28819 298.882099 
L 347.303243 298.816652 
L 347.557006 298.94648 
L 348.064532 298.873699 
L 349.333348 298.908507 
L 350.094638 298.93412 
L 350.602165 298.942264 
L 352.632271 298.966167 
L 353.139797 298.976004 
L 355.169903 299.042259 
L 355.67743 299.018059 
L 366.589249 299.259083 
L 366.843012 299.317283 
L 367.604302 299.205147 
L 374.963436 299.381508 
L 375.470963 299.375163 
L 376.739779 299.365371 
L 377.247305 299.366901 
L 377.501069 299.431338 
L 377.754832 299.362828 
L 378.008595 299.465856 
L 378.516122 299.380448 
L 379.277411 299.473109 
L 379.784938 299.430613 
L 380.292464 299.451252 
L 381.053754 299.380588 
L 381.561281 299.490522 
L 383.337623 299.476727 
L 384.352676 299.52669 
L 385.113966 299.506268 
L 386.890309 299.583318 
L 387.144072 299.518372 
L 387.905362 299.593592 
L 389.681704 299.552028 
L 389.935468 299.621491 
L 390.442994 299.591521 
L 392.219337 299.626927 
L 392.4731 299.705622 
L 393.23439 299.631002 
L 393.99568 299.661123 
L 394.249443 299.61383 
L 394.503206 299.689395 
L 395.264496 299.615485 
L 396.279549 299.700604 
L 398.055892 299.665395 
L 398.563418 299.762449 
L 399.578471 299.709806 
L 399.832234 299.824388 
L 400.085998 299.717963 
L 401.86234 299.791155 
L 402.369867 299.79882 
L 403.131156 299.79411 
L 403.38492 299.752288 
L 403.892446 299.880359 
L 404.653736 299.810383 
L 405.922552 299.881994 
L 406.430079 299.797258 
L 406.937605 299.839703 
L 407.445132 299.825993 
L 407.698895 299.904469 
L 407.952658 299.825101 
L 408.967711 299.944784 
L 409.221474 299.863073 
L 409.475238 299.954016 
L 409.982764 299.873029 
L 410.997817 299.913679 
L 412.520397 299.928308 
L 413.281686 299.920015 
L 413.789213 300.026714 
L 414.296739 299.933365 
L 415.058029 300.004789 
L 415.311792 299.933415 
L 415.565556 300.077121 
L 415.819319 299.933937 
L 418.864478 300.048217 
L 422.1634 300.034601 
L 422.417163 300.139793 
L 422.670926 300.059693 
L 423.685979 300.158842 
L 424.447269 300.128662 
L 426.477375 300.175126 
L 426.984902 300.221317 
L 427.238665 300.128327 
L 427.746191 300.191001 
L 428.253718 300.189698 
L 430.03006 300.282337 
L 430.79135 300.220886 
L 431.55264 300.28752 
L 431.806403 300.212877 
L 432.31393 300.278331 
L 434.597799 300.319353 
L 434.851562 300.40338 
L 435.612852 300.304407 
L 440.18059 300.337487 
L 440.434354 300.445482 
L 440.94188 300.414582 
L 442.718223 300.387016 
L 443.225749 300.458463 
L 446.524671 300.441203 
L 447.285961 300.519092 
L 447.793488 300.540928 
L 451.346173 300.548798 
L 452.107463 300.59649 
L 453.376279 300.631053 
L 454.645095 300.625096 
L 455.913912 300.650982 
L 456.167675 300.59113 
L 456.675201 300.681421 
L 457.182728 300.600689 
L 457.690254 300.701635 
L 459.212834 300.737978 
L 469.87089 300.888286 
L 470.63218 300.944821 
L 471.900996 300.842336 
L 472.154759 300.971925 
L 472.662286 300.930037 
L 474.184865 300.921069 
L 475.199918 301.003575 
L 475.707445 300.876687 
L 475.961208 300.994981 
L 476.214971 300.921223 
L 476.468734 301.000403 
L 476.722498 300.927929 
L 477.483787 301.026955 
L 478.752604 301.027924 
L 479.006367 301.072535 
L 479.26013 300.993476 
L 479.767657 301.06869 
L 480.528946 301.011938 
L 482.051526 301.124172 
L 482.305289 301.049501 
L 482.559052 301.146422 
L 482.812815 301.057056 
L 484.081632 301.149641 
L 484.842921 301.085611 
L 485.350448 301.055572 
L 485.604211 301.015374 
L 486.111738 301.138411 
L 486.619264 301.126937 
L 506.412797 301.416084 
L 507.174087 301.414091 
L 507.681614 301.417718 
L 508.696667 301.399411 
L 509.204193 301.510586 
L 509.457956 301.419705 
L 510.473009 301.472997 
L 512.503115 301.556812 
L 513.010642 301.527587 
L 513.771931 301.607366 
L 514.279458 301.60259 
L 515.294511 301.560703 
L 516.81709 301.614203 
L 517.324617 301.621297 
L 519.862249 301.647339 
L 522.653645 301.705375 
L 523.161171 301.693426 
L 524.429988 301.714863 
L 524.683751 301.60031 
L 525.191277 301.682324 
L 525.952567 301.663627 
L 526.20633 301.742365 
L 526.460094 301.678951 
L 526.713857 301.766494 
L 527.475147 301.732985 
L 532.296648 301.794818 
L 534.326754 301.815297 
L 542.447178 301.931906 
L 542.700941 301.877845 
L 543.208468 301.91268 
L 543.969758 301.971207 
L 544.731047 301.875393 
L 545.999864 301.91718 
L 546.761153 301.940053 
L 548.537496 301.984068 
L 549.552549 302.023975 
L 550.567602 302.0337 
L 551.836418 302.050002 
L 555.642867 302.041218 
L 556.65792 302.03552 
L 557.165446 302.071566 
L 559.956842 302.088982 
L 560.718132 302.072224 
L 560.971895 302.035782 
L 561.479422 302.134694 
L 563.002001 302.063417 
L 568.584792 302.196551 
L 569.346082 302.183966 
L 570.107372 302.223232 
L 572.645004 302.243544 
L 574.421347 302.207921 
L 574.928874 302.263923 
L 575.690163 302.187786 
L 576.451453 302.24457 
L 578.735322 302.225884 
L 579.242849 302.258609 
L 580.511665 302.206539 
L 581.019191 302.308866 
L 584.571877 302.329011 
L 584.82564 302.233222 
L 585.840693 302.341702 
L 586.601983 302.409479 
L 586.855746 302.338428 
L 587.617036 302.391901 
L 588.378326 302.320364 
L 589.647142 302.377186 
L 590.662195 302.402369 
L 590.915958 302.327793 
L 591.169721 302.415161 
L 591.931011 302.38327 
L 592.184774 302.434747 
L 592.438537 302.35308 
L 592.946064 302.451371 
L 593.199827 302.359172 
L 593.45359 302.417153 
L 593.961117 302.3785 
L 594.97617 302.44163 
L 597.513802 302.447117 
L 598.021329 302.460891 
L 598.275092 302.39285 
L 598.782619 302.444846 
L 600.558961 302.371367 
L 601.320251 302.380535 
L 601.574014 302.35142 
L 602.081541 302.545826 
L 602.335304 302.415419 
L 605.887989 302.4973 
L 606.395516 302.512281 
L 607.410569 302.41196 
L 607.918095 302.54172 
L 608.425622 302.494913 
L 614.51594 302.584446 
L 615.530993 302.560739 
L 615.784756 302.631848 
L 616.292283 302.625204 
L 617.561099 302.552258 
L 621.621311 302.495164 
L 622.3826 302.520637 
L 622.636364 302.577595 
L 622.636364 302.577595 
" style="fill:none;stroke:#1f77b4;stroke-linecap:square;stroke-width:0.5;"/>
   </g>
   <g id="line2d_38">
    <path clip-path="url(#p0f8873a696)" d="M 115.363636 67.231935 
L 116.124926 118.962594 
L 116.632453 141.877257 
L 117.139979 156.395391 
L 118.916322 188.580962 
L 120.438901 209.914832 
L 121.453954 220.189274 
L 122.72277 229.797056 
L 124.24535 238.209537 
L 126.782982 249.511623 
L 128.559325 255.861206 
L 129.574378 258.951008 
L 130.843194 262.354622 
L 132.8733 266.990739 
L 135.410933 271.505291 
L 136.679749 273.243146 
L 137.441039 274.349919 
L 137.948565 274.919402 
L 139.471145 276.715203 
L 139.978671 277.174327 
L 140.232434 277.552469 
L 140.739961 278.001573 
L 142.516304 279.639284 
L 143.02383 280.066398 
L 143.78512 280.615252 
L 144.54641 281.221263 
L 145.053936 281.484213 
L 146.068989 282.242738 
L 146.576516 282.54602 
L 148.099095 283.459773 
L 148.352858 283.502896 
L 148.860385 283.843963 
L 149.114148 283.892498 
L 150.129201 284.441336 
L 151.905544 285.318391 
L 152.159307 285.313033 
L 153.17436 285.812265 
L 155.965756 286.860163 
L 158.757151 287.794054 
L 159.518441 287.99623 
L 160.025968 288.233896 
L 160.279731 288.234327 
L 160.533494 288.428087 
L 161.294784 288.541756 
L 161.80231 288.793576 
L 162.056073 288.719597 
L 162.5636 288.89808 
L 163.32489 289.116562 
L 165.101232 289.538693 
L 165.862522 289.674328 
L 166.370049 289.81122 
L 166.877575 289.972061 
L 167.385102 290.010597 
L 167.892628 290.242408 
L 168.146391 290.175415 
L 168.907681 290.404587 
L 169.668971 290.521644 
L 169.922734 290.511152 
L 170.176497 290.665489 
L 170.937787 290.762053 
L 171.699077 290.957421 
L 171.95284 290.918051 
L 172.206603 291.016806 
L 172.71413 291.046093 
L 173.729183 291.279824 
L 176.774342 291.771124 
L 177.281868 291.808637 
L 178.043158 291.919307 
L 178.296921 292.077274 
L 178.550684 291.960881 
L 179.058211 292.119216 
L 180.834554 292.285774 
L 181.34208 292.386619 
L 181.595843 292.333585 
L 181.849607 292.471247 
L 182.10337 292.430231 
L 182.86466 292.605182 
L 187.178635 293.063315 
L 187.432398 292.981217 
L 187.686161 293.11022 
L 188.954977 293.231461 
L 189.716267 293.245103 
L 189.97003 293.197998 
L 190.477557 293.389675 
L 191.49261 293.406265 
L 192.000136 293.612137 
L 192.507663 293.521713 
L 193.015189 293.610627 
L 193.268953 293.65116 
L 193.522716 293.574357 
L 195.045295 293.799967 
L 195.299059 293.725717 
L 195.552822 293.863752 
L 196.567875 293.849095 
L 197.329165 294.00322 
L 197.836691 293.945775 
L 198.344218 294.054113 
L 200.12056 294.128608 
L 200.628087 294.258594 
L 200.88185 294.152808 
L 201.135613 294.285167 
L 202.150666 294.288475 
L 202.658193 294.26024 
L 202.911956 294.426512 
L 203.165719 294.336682 
L 204.434535 294.487593 
L 205.449588 294.475492 
L 205.703352 294.600386 
L 205.957115 294.503099 
L 206.718405 294.592523 
L 207.225931 294.604717 
L 208.494747 294.740921 
L 208.748511 294.625212 
L 209.002274 294.787217 
L 209.5098 294.710349 
L 210.017327 294.826692 
L 210.524853 294.843689 
L 210.778617 294.767063 
L 211.03238 294.872039 
L 211.286143 294.767666 
L 211.79367 294.95588 
L 212.047433 294.863468 
L 213.316249 294.943019 
L 213.570012 294.938145 
L 213.823776 295.074802 
L 214.077539 294.95882 
L 214.331302 295.101587 
L 214.838829 295.080585 
L 215.346355 295.088414 
L 226.004411 295.489547 
L 226.258175 295.46481 
L 226.765701 295.583834 
L 227.273228 295.596201 
L 227.526991 295.733779 
L 228.034517 295.622358 
L 230.318386 295.702447 
L 230.825913 295.811721 
L 231.079676 295.725749 
L 231.333439 295.823966 
L 231.840966 295.749295 
L 234.632362 295.92288 
L 234.886125 295.849651 
L 235.393651 296.006478 
L 238.185047 295.976356 
L 238.43881 295.920852 
L 238.692574 296.055875 
L 239.453863 296.031392 
L 240.976443 296.131212 
L 241.483969 296.081328 
L 241.737733 296.175404 
L 242.245259 296.103335 
L 242.752785 296.153998 
L 244.275365 296.264926 
L 244.529128 296.177022 
L 244.782891 296.251239 
L 245.290418 296.209623 
L 252.649552 296.503301 
L 253.410842 296.440638 
L 253.918368 296.476271 
L 254.172132 296.421848 
L 254.425895 296.541284 
L 254.679658 296.511452 
L 254.933421 296.61922 
L 255.440948 296.487149 
L 255.694711 296.642882 
L 260.262449 296.705185 
L 260.516213 296.768901 
L 261.023739 296.683353 
L 261.785029 296.77251 
L 262.546319 296.734717 
L 263.053845 296.730685 
L 263.307608 296.804235 
L 263.561372 296.740743 
L 263.815135 296.832039 
L 264.576425 296.792886 
L 265.845241 296.838595 
L 266.606531 296.790993 
L 266.860294 296.91251 
L 267.875347 296.885233 
L 269.397926 296.917968 
L 275.234481 297.006834 
L 275.488244 297.134768 
L 275.742007 297.0713 
L 276.503297 297.15941 
L 276.75706 297.086978 
L 277.51835 297.140571 
L 278.27964 297.189455 
L 279.294693 297.180692 
L 281.071036 297.230576 
L 282.339852 297.209682 
L 282.593615 297.320922 
L 284.116194 297.217143 
L 284.369958 297.35197 
L 284.623721 297.208461 
L 284.877484 297.313559 
L 285.385011 297.293815 
L 286.1463 297.412544 
L 286.400064 297.31442 
L 286.90759 297.373209 
L 287.66888 297.36894 
L 287.922643 297.418051 
L 288.43017 297.33499 
L 289.445223 297.4174 
L 292.236618 297.429365 
L 292.744145 297.543145 
L 294.520488 297.550538 
L 295.028014 297.579038 
L 295.281777 297.439866 
L 295.53554 297.431638 
L 295.789304 297.602656 
L 296.043067 297.515573 
L 296.29683 297.579212 
L 296.550593 297.487342 
L 297.05812 297.609901 
L 297.81941 297.583084 
L 298.326936 297.641753 
L 299.088226 297.540083 
L 299.341989 297.674983 
L 299.849516 297.644199 
L 300.864569 297.676094 
L 302.133385 297.623901 
L 302.387148 297.745183 
L 303.148438 297.691324 
L 303.655964 297.766566 
L 304.163491 297.710551 
L 305.178544 297.815561 
L 305.939834 297.749763 
L 306.193597 297.881547 
L 306.44736 297.700852 
L 306.701123 297.823353 
L 307.96994 297.742986 
L 308.984992 297.86315 
L 309.238756 297.801015 
L 309.746282 297.861364 
L 310.761335 297.83699 
L 312.791441 297.985505 
L 313.045204 297.918935 
L 313.298968 298.005111 
L 313.552731 297.857495 
L 314.060257 297.934623 
L 315.8366 297.948169 
L 316.344127 297.961806 
L 316.59789 297.914948 
L 317.105416 297.98065 
L 317.612943 298.018567 
L 318.120469 297.996134 
L 318.627996 297.963829 
L 319.643049 298.10311 
L 319.896812 297.984003 
L 320.404339 298.065006 
L 321.419392 298.103825 
L 322.180681 298.071473 
L 323.449497 298.104393 
L 323.957024 298.137653 
L 324.972077 298.203516 
L 325.22584 298.087972 
L 325.479603 298.145673 
L 325.733367 298.077419 
L 325.98713 298.173928 
L 326.74842 298.117934 
L 327.002183 298.240982 
L 327.255946 298.108165 
L 327.509709 298.272119 
L 328.017236 298.206265 
L 333.346264 298.329402 
L 333.600027 298.237986 
L 334.107554 298.372844 
L 334.361317 298.250213 
L 334.868844 298.331899 
L 338.929055 298.422064 
L 339.182819 298.34499 
L 339.690345 298.432911 
L 340.197872 298.343543 
L 340.451635 298.458476 
L 341.466688 298.389225 
L 341.720451 298.47588 
L 341.974214 298.394756 
L 342.735504 298.503841 
L 343.496794 298.475845 
L 344.00432 298.481424 
L 344.258084 298.407819 
L 344.511847 298.537097 
L 344.76561 298.418875 
L 345.019373 298.543312 
L 349.333348 298.531884 
L 349.840875 298.639587 
L 350.094638 298.570717 
L 350.855928 298.673665 
L 351.617218 298.542144 
L 351.870981 298.698057 
L 352.632271 298.556816 
L 353.139797 298.659175 
L 353.39356 298.531125 
L 353.647324 298.685107 
L 354.408613 298.62487 
L 355.169903 298.720561 
L 357.453772 298.740397 
L 357.961299 298.783319 
L 358.976352 298.763028 
L 359.991405 298.828559 
L 361.513984 298.844938 
L 362.529037 298.817472 
L 362.7828 298.764067 
L 363.036564 298.862659 
L 363.290327 298.796697 
L 363.797853 298.843857 
L 364.812906 298.807929 
L 365.320433 298.932745 
L 365.827959 298.872565 
L 367.350539 298.877142 
L 367.858065 298.85067 
L 368.365592 298.932848 
L 373.187094 298.97965 
L 373.69462 298.997041 
L 374.709673 299.005156 
L 375.2172 299.091477 
L 375.470963 298.961014 
L 375.724726 299.21661 
L 376.232252 299.07813 
L 376.486016 299.095629 
L 376.993542 298.994826 
L 377.501069 299.040294 
L 377.754832 298.992253 
L 378.008595 299.125107 
L 378.516122 299.042284 
L 381.307517 299.101987 
L 381.561281 299.197452 
L 382.576334 299.13773 
L 383.08386 299.208055 
L 383.337623 299.139203 
L 383.591387 299.197658 
L 383.84515 299.123534 
L 384.098913 299.251225 
L 384.352676 299.17184 
L 384.60644 299.225368 
L 384.860203 299.163124 
L 385.621493 299.256017 
L 385.875256 299.142954 
L 386.382782 299.230944 
L 387.144072 299.204921 
L 387.397835 299.264878 
L 387.651599 299.205995 
L 388.159125 299.272286 
L 388.666652 299.254805 
L 389.681704 299.339408 
L 389.935468 299.200335 
L 390.950521 299.366802 
L 391.204284 299.254345 
L 391.965574 299.302443 
L 392.219337 299.208423 
L 392.4731 299.400013 
L 392.726863 299.304253 
L 393.488153 299.292394 
L 394.756969 299.360719 
L 395.010733 299.202934 
L 395.518259 299.367149 
L 397.040839 299.381821 
L 397.294602 299.312739 
L 397.548365 299.447886 
L 398.055892 299.330637 
L 398.563418 299.414067 
L 398.817181 299.373469 
L 399.070945 299.486474 
L 399.578471 299.421214 
L 400.593524 299.408894 
L 401.608577 299.475353 
L 401.86234 299.417997 
L 402.369867 299.5232 
L 402.62363 299.377532 
L 404.146209 299.525638 
L 405.161262 299.448969 
L 405.415026 299.537361 
L 406.176315 299.52254 
L 410.490291 299.621817 
L 410.744054 299.663339 
L 411.25158 299.519352 
L 412.520397 299.599173 
L 415.819319 299.694803 
L 416.326845 299.637211 
L 416.834372 299.742582 
L 418.103188 299.679715 
L 418.356951 299.755967 
L 419.118241 299.693112 
L 419.372004 299.76053 
L 419.879531 299.714054 
L 421.148347 299.796396 
L 421.40211 299.733652 
L 421.655873 299.835683 
L 422.92469 299.761507 
L 423.939743 299.747814 
L 424.193506 299.895872 
L 424.447269 299.732701 
L 424.954796 299.830419 
L 425.462322 299.804158 
L 426.477375 299.858042 
L 427.238665 299.794048 
L 427.999955 299.934347 
L 428.253718 299.831175 
L 429.522534 299.907339 
L 431.045113 299.938884 
L 431.298877 299.964753 
L 431.55264 299.835268 
L 433.582746 300.014939 
L 434.344036 299.871159 
L 434.597799 299.988848 
L 434.851562 299.922479 
L 435.866615 300.063933 
L 437.896721 299.968172 
L 438.658011 300.070081 
L 442.971986 300.066883 
L 443.479512 300.170607 
L 443.733276 300.084444 
L 444.240802 300.171269 
L 444.748329 300.169351 
L 446.017145 300.131207 
L 446.778435 300.201797 
L 447.539724 300.114847 
L 447.793488 300.278312 
L 448.047251 300.113344 
L 448.554777 300.247763 
L 449.062304 300.110043 
L 449.56983 300.227497 
L 449.823594 300.146011 
L 450.077357 300.296892 
L 450.584883 300.249656 
L 451.09241 300.202895 
L 451.599936 300.214694 
L 452.107463 300.309712 
L 453.376279 300.276432 
L 454.137569 300.339203 
L 454.645095 300.271812 
L 455.406385 300.30671 
L 456.421438 300.356506 
L 457.182728 300.345414 
L 457.436491 300.399881 
L 457.690254 300.292681 
L 457.944017 300.424873 
L 459.212834 300.392898 
L 461.24294 300.37665 
L 461.496703 300.463543 
L 462.257993 300.367318 
L 462.511756 300.517505 
L 463.019282 300.450081 
L 463.780572 300.471823 
L 464.288099 300.430659 
L 465.556915 300.473348 
L 466.318205 300.485096 
L 466.825731 300.566284 
L 467.079494 300.503267 
L 467.333258 300.589683 
L 467.840784 300.580656 
L 474.692392 300.559777 
L 474.946155 300.687553 
L 475.199918 300.588693 
L 475.453681 300.688325 
L 476.722498 300.650112 
L 476.976261 300.734888 
L 477.483787 300.653545 
L 477.737551 300.750756 
L 478.49884 300.644651 
L 479.767657 300.767847 
L 480.78271 300.734282 
L 481.290236 300.805905 
L 481.797763 300.753591 
L 482.305289 300.776234 
L 482.559052 300.868356 
L 482.812815 300.751936 
L 483.320342 300.797146 
L 483.827868 300.820087 
L 484.335395 300.830637 
L 484.589158 300.747865 
L 484.842921 300.845997 
L 485.350448 300.819964 
L 486.873027 300.713642 
L 487.126791 300.831583 
L 487.634317 300.713038 
L 487.88808 300.861757 
L 488.395607 300.795883 
L 489.156897 300.916798 
L 489.41066 300.962992 
L 489.664423 300.844992 
L 489.918186 300.961852 
L 490.679476 300.866349 
L 490.933239 300.968556 
L 491.440766 300.887136 
L 491.694529 301.022077 
L 493.978398 300.928166 
L 494.485925 301.053621 
L 494.993451 300.925431 
L 497.784847 301.03982 
L 498.292373 300.9478 
L 499.307426 301.121141 
L 499.814953 300.985229 
L 500.322479 301.07649 
L 501.591296 301.080949 
L 502.098822 301.017592 
L 502.352585 301.104153 
L 502.606349 301.026765 
L 503.621402 301.134082 
L 504.382691 301.146482 
L 505.143981 301.139841 
L 505.905271 301.169797 
L 506.412797 301.038059 
L 506.920324 301.210075 
L 508.442903 301.077017 
L 508.696667 301.163921 
L 508.95043 301.105325 
L 509.204193 301.165291 
L 509.457956 301.04492 
L 509.711719 301.24374 
L 509.965483 301.15998 
L 510.473009 301.181963 
L 510.980536 301.141483 
L 511.741825 301.259572 
L 512.249352 301.226425 
L 512.756878 301.224025 
L 513.264405 301.240793 
L 513.771931 301.324009 
L 515.040748 301.22044 
L 515.548274 301.315781 
L 517.324617 301.357171 
L 517.832143 301.352064 
L 518.085907 301.243734 
L 519.608486 301.379964 
L 520.369776 301.258493 
L 520.877302 301.390612 
L 523.668698 301.413133 
L 523.922461 301.336994 
L 524.176224 301.43081 
L 524.683751 301.330893 
L 524.937514 301.294854 
L 525.191277 301.443333 
L 525.952567 301.367262 
L 526.20633 301.488714 
L 526.713857 301.364786 
L 529.759016 301.489509 
L 530.012779 301.343781 
L 530.266542 301.523343 
L 531.789122 301.448207 
L 532.296648 301.589928 
L 533.311701 301.470622 
L 533.565465 301.5768 
L 535.341807 301.495897 
L 535.849334 301.589785 
L 537.11815 301.556923 
L 542.700941 301.648689 
L 543.208468 301.597176 
L 546.761153 301.731975 
L 547.014917 301.584923 
L 547.522443 301.678753 
L 547.776206 301.524514 
L 548.02997 301.673313 
L 548.791259 301.580856 
L 550.567602 301.76827 
L 550.821365 301.698646 
L 551.075128 301.765475 
L 551.582655 301.728369 
L 552.090181 301.773078 
L 552.343945 301.629545 
L 552.851471 301.681944 
L 562.494475 301.766038 
L 562.748238 301.683848 
L 563.002001 301.845125 
L 563.763291 301.806452 
L 564.017054 301.62816 
L 564.270817 301.866534 
L 564.778344 301.798281 
L 568.331029 301.8467 
L 568.584792 301.844967 
L 568.838556 301.994159 
L 569.092319 301.849048 
L 569.346082 301.948926 
L 569.853609 301.887554 
L 570.107372 301.935884 
L 570.614898 301.845392 
L 570.868662 301.991992 
L 571.376188 301.903207 
L 571.883715 301.981347 
L 572.137478 301.908648 
L 572.645004 301.945371 
L 574.421347 301.953541 
L 575.182637 301.974162 
L 577.212743 301.953152 
L 580.004138 301.954064 
L 580.511665 301.898461 
L 583.303061 301.932801 
L 583.556824 302.117697 
L 583.810587 301.959168 
L 586.34822 302.12998 
L 587.109509 301.988979 
L 588.378326 302.085559 
L 588.632089 302.050657 
L 588.885852 302.161675 
L 589.393379 302.045946 
L 592.692301 302.154655 
L 592.946064 302.035436 
L 593.45359 302.136896 
L 594.468643 302.0524 
L 594.97617 302.150089 
L 595.73746 302.063922 
L 596.498749 302.129697 
L 597.260039 302.211622 
L 597.513802 302.217233 
L 597.767566 302.059965 
L 598.021329 302.163132 
L 598.275092 302.083774 
L 599.036382 302.135719 
L 599.290145 302.061415 
L 599.797672 302.176419 
L 600.051435 302.036606 
L 600.558961 302.162838 
L 601.066488 302.1139 
L 601.320251 302.16307 
L 601.574014 302.049143 
L 601.827778 302.201102 
L 602.335304 302.114943 
L 602.589067 302.255311 
L 602.842831 302.111277 
L 603.350357 302.153235 
L 604.111647 302.163117 
L 604.36541 302.117293 
L 604.619173 302.23773 
L 604.872936 302.153177 
L 605.380463 302.152571 
L 609.694438 302.332498 
L 609.948201 302.129145 
L 610.455728 302.282245 
L 612.739597 302.218432 
L 613.247124 302.308102 
L 614.008413 302.205856 
L 614.262177 302.269993 
L 614.769703 302.22531 
L 616.546046 302.277261 
L 617.307335 302.326068 
L 617.561099 302.299119 
L 617.814862 302.392071 
L 618.068625 302.186276 
L 618.576152 302.284323 
L 620.606258 302.299298 
L 621.621311 302.171095 
L 622.128837 302.273489 
L 622.3826 302.184459 
L 622.636364 302.367268 
L 622.636364 302.367268 
" style="fill:none;stroke:#ff7f0e;stroke-linecap:square;stroke-width:0.5;"/>
   </g>
   <g id="patch_3">
    <path d="M 90 315 
L 90 43.2 
" style="fill:none;stroke:#000000;stroke-linecap:square;stroke-linejoin:miter;stroke-width:0.8;"/>
   </g>
   <g id="patch_4">
    <path d="M 648 315 
L 648 43.2 
" style="fill:none;stroke:#000000;stroke-linecap:square;stroke-linejoin:miter;stroke-width:0.8;"/>
   </g>
   <g id="patch_5">
    <path d="M 90 315 
L 648 315 
" style="fill:none;stroke:#000000;stroke-linecap:square;stroke-linejoin:miter;stroke-width:0.8;"/>
   </g>
   <g id="patch_6">
    <path d="M 90 43.2 
L 648 43.2 
" style="fill:none;stroke:#000000;stroke-linecap:square;stroke-linejoin:miter;stroke-width:0.8;"/>
   </g>
   <g id="text_21">
    <!-- loss -->
    <g transform="translate(357.410625 37.2)scale(0.12 -0.12)">
     <use xlink:href="#DejaVuSans-108"/>
     <use x="27.783203" xlink:href="#DejaVuSans-111"/>
     <use x="88.964844" xlink:href="#DejaVuSans-115"/>
     <use x="141.064453" xlink:href="#DejaVuSans-115"/>
    </g>
   </g>
   <g id="legend_1">
    <g id="patch_7">
     <path d="M 568.846875 80.55625 
L 641 80.55625 
Q 643 80.55625 643 78.55625 
L 643 50.2 
Q 643 48.2 641 48.2 
L 568.846875 48.2 
Q 566.846875 48.2 566.846875 50.2 
L 566.846875 78.55625 
Q 566.846875 80.55625 568.846875 80.55625 
z
" style="fill:#ffffff;opacity:0.8;stroke:#cccccc;stroke-linejoin:miter;"/>
    </g>
    <g id="line2d_39">
     <path d="M 570.846875 56.298437 
L 590.846875 56.298437 
" style="fill:none;stroke:#1f77b4;stroke-linecap:square;stroke-width:0.5;"/>
    </g>
    <g id="line2d_40"/>
    <g id="text_22">
     <!-- train -->
     <defs>
      <path d="M 18.3125 70.21875 
L 18.3125 54.6875 
L 36.8125 54.6875 
L 36.8125 47.703125 
L 18.3125 47.703125 
L 18.3125 18.015625 
Q 18.3125 11.328125 20.140625 9.421875 
Q 21.96875 7.515625 27.59375 7.515625 
L 36.8125 7.515625 
L 36.8125 0 
L 27.59375 0 
Q 17.1875 0 13.234375 3.875 
Q 9.28125 7.765625 9.28125 18.015625 
L 9.28125 47.703125 
L 2.6875 47.703125 
L 2.6875 54.6875 
L 9.28125 54.6875 
L 9.28125 70.21875 
z
" id="DejaVuSans-116"/>
      <path d="M 41.109375 46.296875 
Q 39.59375 47.171875 37.8125 47.578125 
Q 36.03125 48 33.890625 48 
Q 26.265625 48 22.1875 43.046875 
Q 18.109375 38.09375 18.109375 28.8125 
L 18.109375 0 
L 9.078125 0 
L 9.078125 54.6875 
L 18.109375 54.6875 
L 18.109375 46.1875 
Q 20.953125 51.171875 25.484375 53.578125 
Q 30.03125 56 36.53125 56 
Q 37.453125 56 38.578125 55.875 
Q 39.703125 55.765625 41.0625 55.515625 
z
" id="DejaVuSans-114"/>
      <path d="M 34.28125 27.484375 
Q 23.390625 27.484375 19.1875 25 
Q 14.984375 22.515625 14.984375 16.5 
Q 14.984375 11.71875 18.140625 8.90625 
Q 21.296875 6.109375 26.703125 6.109375 
Q 34.1875 6.109375 38.703125 11.40625 
Q 43.21875 16.703125 43.21875 25.484375 
L 43.21875 27.484375 
z
M 52.203125 31.203125 
L 52.203125 0 
L 43.21875 0 
L 43.21875 8.296875 
Q 40.140625 3.328125 35.546875 0.953125 
Q 30.953125 -1.421875 24.3125 -1.421875 
Q 15.921875 -1.421875 10.953125 3.296875 
Q 6 8.015625 6 15.921875 
Q 6 25.140625 12.171875 29.828125 
Q 18.359375 34.515625 30.609375 34.515625 
L 43.21875 34.515625 
L 43.21875 35.40625 
Q 43.21875 41.609375 39.140625 45 
Q 35.0625 48.390625 27.6875 48.390625 
Q 23 48.390625 18.546875 47.265625 
Q 14.109375 46.140625 10.015625 43.890625 
L 10.015625 52.203125 
Q 14.9375 54.109375 19.578125 55.046875 
Q 24.21875 56 28.609375 56 
Q 40.484375 56 46.34375 49.84375 
Q 52.203125 43.703125 52.203125 31.203125 
z
" id="DejaVuSans-97"/>
      <path d="M 9.421875 54.6875 
L 18.40625 54.6875 
L 18.40625 0 
L 9.421875 0 
z
M 9.421875 75.984375 
L 18.40625 75.984375 
L 18.40625 64.59375 
L 9.421875 64.59375 
z
" id="DejaVuSans-105"/>
      <path d="M 54.890625 33.015625 
L 54.890625 0 
L 45.90625 0 
L 45.90625 32.71875 
Q 45.90625 40.484375 42.875 44.328125 
Q 39.84375 48.1875 33.796875 48.1875 
Q 26.515625 48.1875 22.3125 43.546875 
Q 18.109375 38.921875 18.109375 30.90625 
L 18.109375 0 
L 9.078125 0 
L 9.078125 54.6875 
L 18.109375 54.6875 
L 18.109375 46.1875 
Q 21.34375 51.125 25.703125 53.5625 
Q 30.078125 56 35.796875 56 
Q 45.21875 56 50.046875 50.171875 
Q 54.890625 44.34375 54.890625 33.015625 
z
" id="DejaVuSans-110"/>
     </defs>
     <g transform="translate(598.846875 59.798437)scale(0.1 -0.1)">
      <use xlink:href="#DejaVuSans-116"/>
      <use x="39.208984" xlink:href="#DejaVuSans-114"/>
      <use x="80.322266" xlink:href="#DejaVuSans-97"/>
      <use x="141.601562" xlink:href="#DejaVuSans-105"/>
      <use x="169.384766" xlink:href="#DejaVuSans-110"/>
     </g>
    </g>
    <g id="line2d_41">
     <path d="M 570.846875 70.976562 
L 590.846875 70.976562 
" style="fill:none;stroke:#ff7f0e;stroke-linecap:square;stroke-width:0.5;"/>
    </g>
    <g id="line2d_42"/>
    <g id="text_23">
     <!-- validate -->
     <defs>
      <path d="M 2.984375 54.6875 
L 12.5 54.6875 
L 29.59375 8.796875 
L 46.6875 54.6875 
L 56.203125 54.6875 
L 35.6875 0 
L 23.484375 0 
z
" id="DejaVuSans-118"/>
      <path d="M 45.40625 46.390625 
L 45.40625 75.984375 
L 54.390625 75.984375 
L 54.390625 0 
L 45.40625 0 
L 45.40625 8.203125 
Q 42.578125 3.328125 38.25 0.953125 
Q 33.9375 -1.421875 27.875 -1.421875 
Q 17.96875 -1.421875 11.734375 6.484375 
Q 5.515625 14.40625 5.515625 27.296875 
Q 5.515625 40.1875 11.734375 48.09375 
Q 17.96875 56 27.875 56 
Q 33.9375 56 38.25 53.625 
Q 42.578125 51.265625 45.40625 46.390625 
z
M 14.796875 27.296875 
Q 14.796875 17.390625 18.875 11.75 
Q 22.953125 6.109375 30.078125 6.109375 
Q 37.203125 6.109375 41.296875 11.75 
Q 45.40625 17.390625 45.40625 27.296875 
Q 45.40625 37.203125 41.296875 42.84375 
Q 37.203125 48.484375 30.078125 48.484375 
Q 22.953125 48.484375 18.875 42.84375 
Q 14.796875 37.203125 14.796875 27.296875 
z
" id="DejaVuSans-100"/>
     </defs>
     <g transform="translate(598.846875 74.476562)scale(0.1 -0.1)">
      <use xlink:href="#DejaVuSans-118"/>
      <use x="59.179688" xlink:href="#DejaVuSans-97"/>
      <use x="120.458984" xlink:href="#DejaVuSans-108"/>
      <use x="148.242188" xlink:href="#DejaVuSans-105"/>
      <use x="176.025391" xlink:href="#DejaVuSans-100"/>
      <use x="239.501953" xlink:href="#DejaVuSans-97"/>
      <use x="300.78125" xlink:href="#DejaVuSans-116"/>
      <use x="339.990234" xlink:href="#DejaVuSans-101"/>
     </g>
    </g>
   </g>
  </g>
 </g>
 <defs>
  <clipPath id="p0f8873a696">
   <rect height="271.8" width="558" x="90" y="43.2"/>
  </clipPath>
 </defs>
</svg>
