<?xml version="1.0" encoding="utf-8" standalone="no"?>
<!DOCTYPE svg PUBLIC "-//W3C//DTD SVG 1.1//EN"
  "http://www.w3.org/Graphics/SVG/1.1/DTD/svg11.dtd">
<!-- Created with matplotlib (https://matplotlib.org/) -->
<svg height="360pt" version="1.1" viewBox="0 0 720 360" width="720pt" xmlns="http://www.w3.org/2000/svg" xmlns:xlink="http://www.w3.org/1999/xlink">
 <defs>
  <style type="text/css">
*{stroke-linecap:butt;stroke-linejoin:round;}
  </style>
 </defs>
 <g id="figure_1">
  <g id="patch_1">
   <path d="M 0 360 
L 720 360 
L 720 0 
L 0 0 
z
" style="fill:#ffffff;"/>
  </g>
  <g id="axes_1">
   <g id="patch_2">
    <path d="M 90 315 
L 648 315 
L 648 43.2 
L 90 43.2 
z
" style="fill:#ffffff;"/>
   </g>
   <g id="matplotlib.axis_1">
    <g id="xtick_1">
     <g id="line2d_1">
      <path clip-path="url(#pab29ae5f05)" d="M 115.363636 315 
L 115.363636 43.2 
" style="fill:none;stroke:#b0b0b0;stroke-linecap:square;stroke-width:0.8;"/>
     </g>
     <g id="line2d_2">
      <defs>
       <path d="M 0 0 
L 0 3.5 
" id="md864e7e769" style="stroke:#000000;stroke-width:0.8;"/>
      </defs>
      <g>
       <use style="stroke:#000000;stroke-width:0.8;" x="115.363636" xlink:href="#md864e7e769" y="315"/>
      </g>
     </g>
     <g id="text_1">
      <!-- 0 -->
      <defs>
       <path d="M 31.78125 66.40625 
Q 24.171875 66.40625 20.328125 58.90625 
Q 16.5 51.421875 16.5 36.375 
Q 16.5 21.390625 20.328125 13.890625 
Q 24.171875 6.390625 31.78125 6.390625 
Q 39.453125 6.390625 43.28125 13.890625 
Q 47.125 21.390625 47.125 36.375 
Q 47.125 51.421875 43.28125 58.90625 
Q 39.453125 66.40625 31.78125 66.40625 
z
M 31.78125 74.21875 
Q 44.046875 74.21875 50.515625 64.515625 
Q 56.984375 54.828125 56.984375 36.375 
Q 56.984375 17.96875 50.515625 8.265625 
Q 44.046875 -1.421875 31.78125 -1.421875 
Q 19.53125 -1.421875 13.0625 8.265625 
Q 6.59375 17.96875 6.59375 36.375 
Q 6.59375 54.828125 13.0625 64.515625 
Q 19.53125 74.21875 31.78125 74.21875 
z
" id="DejaVuSans-48"/>
      </defs>
      <g transform="translate(112.182386 329.598437)scale(0.1 -0.1)">
       <use xlink:href="#DejaVuSans-48"/>
      </g>
     </g>
    </g>
    <g id="xtick_2">
     <g id="line2d_3">
      <path clip-path="url(#pab29ae5f05)" d="M 178.804448 315 
L 178.804448 43.2 
" style="fill:none;stroke:#b0b0b0;stroke-linecap:square;stroke-width:0.8;"/>
     </g>
     <g id="line2d_4">
      <g>
       <use style="stroke:#000000;stroke-width:0.8;" x="178.804448" xlink:href="#md864e7e769" y="315"/>
      </g>
     </g>
     <g id="text_2">
      <!-- 250 -->
      <defs>
       <path d="M 19.1875 8.296875 
L 53.609375 8.296875 
L 53.609375 0 
L 7.328125 0 
L 7.328125 8.296875 
Q 12.9375 14.109375 22.625 23.890625 
Q 32.328125 33.6875 34.8125 36.53125 
Q 39.546875 41.84375 41.421875 45.53125 
Q 43.3125 49.21875 43.3125 52.78125 
Q 43.3125 58.59375 39.234375 62.25 
Q 35.15625 65.921875 28.609375 65.921875 
Q 23.96875 65.921875 18.8125 64.3125 
Q 13.671875 62.703125 7.8125 59.421875 
L 7.8125 69.390625 
Q 13.765625 71.78125 18.9375 73 
Q 24.125 74.21875 28.421875 74.21875 
Q 39.75 74.21875 46.484375 68.546875 
Q 53.21875 62.890625 53.21875 53.421875 
Q 53.21875 48.921875 51.53125 44.890625 
Q 49.859375 40.875 45.40625 35.40625 
Q 44.1875 33.984375 37.640625 27.21875 
Q 31.109375 20.453125 19.1875 8.296875 
z
" id="DejaVuSans-50"/>
       <path d="M 10.796875 72.90625 
L 49.515625 72.90625 
L 49.515625 64.59375 
L 19.828125 64.59375 
L 19.828125 46.734375 
Q 21.96875 47.46875 24.109375 47.828125 
Q 26.265625 48.1875 28.421875 48.1875 
Q 40.625 48.1875 47.75 41.5 
Q 54.890625 34.8125 54.890625 23.390625 
Q 54.890625 11.625 47.5625 5.09375 
Q 40.234375 -1.421875 26.90625 -1.421875 
Q 22.3125 -1.421875 17.546875 -0.640625 
Q 12.796875 0.140625 7.71875 1.703125 
L 7.71875 11.625 
Q 12.109375 9.234375 16.796875 8.0625 
Q 21.484375 6.890625 26.703125 6.890625 
Q 35.15625 6.890625 40.078125 11.328125 
Q 45.015625 15.765625 45.015625 23.390625 
Q 45.015625 31 40.078125 35.4375 
Q 35.15625 39.890625 26.703125 39.890625 
Q 22.75 39.890625 18.8125 39.015625 
Q 14.890625 38.140625 10.796875 36.28125 
z
" id="DejaVuSans-53"/>
      </defs>
      <g transform="translate(169.260698 329.598437)scale(0.1 -0.1)">
       <use xlink:href="#DejaVuSans-50"/>
       <use x="63.623047" xlink:href="#DejaVuSans-53"/>
       <use x="127.246094" xlink:href="#DejaVuSans-48"/>
      </g>
     </g>
    </g>
    <g id="xtick_3">
     <g id="line2d_5">
      <path clip-path="url(#pab29ae5f05)" d="M 242.245259 315 
L 242.245259 43.2 
" style="fill:none;stroke:#b0b0b0;stroke-linecap:square;stroke-width:0.8;"/>
     </g>
     <g id="line2d_6">
      <g>
       <use style="stroke:#000000;stroke-width:0.8;" x="242.245259" xlink:href="#md864e7e769" y="315"/>
      </g>
     </g>
     <g id="text_3">
      <!-- 500 -->
      <g transform="translate(232.701509 329.598437)scale(0.1 -0.1)">
       <use xlink:href="#DejaVuSans-53"/>
       <use x="63.623047" xlink:href="#DejaVuSans-48"/>
       <use x="127.246094" xlink:href="#DejaVuSans-48"/>
      </g>
     </g>
    </g>
    <g id="xtick_4">
     <g id="line2d_7">
      <path clip-path="url(#pab29ae5f05)" d="M 305.68607 315 
L 305.68607 43.2 
" style="fill:none;stroke:#b0b0b0;stroke-linecap:square;stroke-width:0.8;"/>
     </g>
     <g id="line2d_8">
      <g>
       <use style="stroke:#000000;stroke-width:0.8;" x="305.68607" xlink:href="#md864e7e769" y="315"/>
      </g>
     </g>
     <g id="text_4">
      <!-- 750 -->
      <defs>
       <path d="M 8.203125 72.90625 
L 55.078125 72.90625 
L 55.078125 68.703125 
L 28.609375 0 
L 18.3125 0 
L 43.21875 64.59375 
L 8.203125 64.59375 
z
" id="DejaVuSans-55"/>
      </defs>
      <g transform="translate(296.14232 329.598437)scale(0.1 -0.1)">
       <use xlink:href="#DejaVuSans-55"/>
       <use x="63.623047" xlink:href="#DejaVuSans-53"/>
       <use x="127.246094" xlink:href="#DejaVuSans-48"/>
      </g>
     </g>
    </g>
    <g id="xtick_5">
     <g id="line2d_9">
      <path clip-path="url(#pab29ae5f05)" d="M 369.126882 315 
L 369.126882 43.2 
" style="fill:none;stroke:#b0b0b0;stroke-linecap:square;stroke-width:0.8;"/>
     </g>
     <g id="line2d_10">
      <g>
       <use style="stroke:#000000;stroke-width:0.8;" x="369.126882" xlink:href="#md864e7e769" y="315"/>
      </g>
     </g>
     <g id="text_5">
      <!-- 1000 -->
      <defs>
       <path d="M 12.40625 8.296875 
L 28.515625 8.296875 
L 28.515625 63.921875 
L 10.984375 60.40625 
L 10.984375 69.390625 
L 28.421875 72.90625 
L 38.28125 72.90625 
L 38.28125 8.296875 
L 54.390625 8.296875 
L 54.390625 0 
L 12.40625 0 
z
" id="DejaVuSans-49"/>
      </defs>
      <g transform="translate(356.401882 329.598437)scale(0.1 -0.1)">
       <use xlink:href="#DejaVuSans-49"/>
       <use x="63.623047" xlink:href="#DejaVuSans-48"/>
       <use x="127.246094" xlink:href="#DejaVuSans-48"/>
       <use x="190.869141" xlink:href="#DejaVuSans-48"/>
      </g>
     </g>
    </g>
    <g id="xtick_6">
     <g id="line2d_11">
      <path clip-path="url(#pab29ae5f05)" d="M 432.567693 315 
L 432.567693 43.2 
" style="fill:none;stroke:#b0b0b0;stroke-linecap:square;stroke-width:0.8;"/>
     </g>
     <g id="line2d_12">
      <g>
       <use style="stroke:#000000;stroke-width:0.8;" x="432.567693" xlink:href="#md864e7e769" y="315"/>
      </g>
     </g>
     <g id="text_6">
      <!-- 1250 -->
      <g transform="translate(419.842693 329.598437)scale(0.1 -0.1)">
       <use xlink:href="#DejaVuSans-49"/>
       <use x="63.623047" xlink:href="#DejaVuSans-50"/>
       <use x="127.246094" xlink:href="#DejaVuSans-53"/>
       <use x="190.869141" xlink:href="#DejaVuSans-48"/>
      </g>
     </g>
    </g>
    <g id="xtick_7">
     <g id="line2d_13">
      <path clip-path="url(#pab29ae5f05)" d="M 496.008504 315 
L 496.008504 43.2 
" style="fill:none;stroke:#b0b0b0;stroke-linecap:square;stroke-width:0.8;"/>
     </g>
     <g id="line2d_14">
      <g>
       <use style="stroke:#000000;stroke-width:0.8;" x="496.008504" xlink:href="#md864e7e769" y="315"/>
      </g>
     </g>
     <g id="text_7">
      <!-- 1500 -->
      <g transform="translate(483.283504 329.598437)scale(0.1 -0.1)">
       <use xlink:href="#DejaVuSans-49"/>
       <use x="63.623047" xlink:href="#DejaVuSans-53"/>
       <use x="127.246094" xlink:href="#DejaVuSans-48"/>
       <use x="190.869141" xlink:href="#DejaVuSans-48"/>
      </g>
     </g>
    </g>
    <g id="xtick_8">
     <g id="line2d_15">
      <path clip-path="url(#pab29ae5f05)" d="M 559.449316 315 
L 559.449316 43.2 
" style="fill:none;stroke:#b0b0b0;stroke-linecap:square;stroke-width:0.8;"/>
     </g>
     <g id="line2d_16">
      <g>
       <use style="stroke:#000000;stroke-width:0.8;" x="559.449316" xlink:href="#md864e7e769" y="315"/>
      </g>
     </g>
     <g id="text_8">
      <!-- 1750 -->
      <g transform="translate(546.724316 329.598437)scale(0.1 -0.1)">
       <use xlink:href="#DejaVuSans-49"/>
       <use x="63.623047" xlink:href="#DejaVuSans-55"/>
       <use x="127.246094" xlink:href="#DejaVuSans-53"/>
       <use x="190.869141" xlink:href="#DejaVuSans-48"/>
      </g>
     </g>
    </g>
    <g id="xtick_9">
     <g id="line2d_17">
      <path clip-path="url(#pab29ae5f05)" d="M 622.890127 315 
L 622.890127 43.2 
" style="fill:none;stroke:#b0b0b0;stroke-linecap:square;stroke-width:0.8;"/>
     </g>
     <g id="line2d_18">
      <g>
       <use style="stroke:#000000;stroke-width:0.8;" x="622.890127" xlink:href="#md864e7e769" y="315"/>
      </g>
     </g>
     <g id="text_9">
      <!-- 2000 -->
      <g transform="translate(610.165127 329.598437)scale(0.1 -0.1)">
       <use xlink:href="#DejaVuSans-50"/>
       <use x="63.623047" xlink:href="#DejaVuSans-48"/>
       <use x="127.246094" xlink:href="#DejaVuSans-48"/>
       <use x="190.869141" xlink:href="#DejaVuSans-48"/>
      </g>
     </g>
    </g>
    <g id="text_10">
     <!-- epoch -->
     <defs>
      <path d="M 56.203125 29.59375 
L 56.203125 25.203125 
L 14.890625 25.203125 
Q 15.484375 15.921875 20.484375 11.0625 
Q 25.484375 6.203125 34.421875 6.203125 
Q 39.59375 6.203125 44.453125 7.46875 
Q 49.3125 8.734375 54.109375 11.28125 
L 54.109375 2.78125 
Q 49.265625 0.734375 44.1875 -0.34375 
Q 39.109375 -1.421875 33.890625 -1.421875 
Q 20.796875 -1.421875 13.15625 6.1875 
Q 5.515625 13.8125 5.515625 26.8125 
Q 5.515625 40.234375 12.765625 48.109375 
Q 20.015625 56 32.328125 56 
Q 43.359375 56 49.78125 48.890625 
Q 56.203125 41.796875 56.203125 29.59375 
z
M 47.21875 32.234375 
Q 47.125 39.59375 43.09375 43.984375 
Q 39.0625 48.390625 32.421875 48.390625 
Q 24.90625 48.390625 20.390625 44.140625 
Q 15.875 39.890625 15.1875 32.171875 
z
" id="DejaVuSans-101"/>
      <path d="M 18.109375 8.203125 
L 18.109375 -20.796875 
L 9.078125 -20.796875 
L 9.078125 54.6875 
L 18.109375 54.6875 
L 18.109375 46.390625 
Q 20.953125 51.265625 25.265625 53.625 
Q 29.59375 56 35.59375 56 
Q 45.5625 56 51.78125 48.09375 
Q 58.015625 40.1875 58.015625 27.296875 
Q 58.015625 14.40625 51.78125 6.484375 
Q 45.5625 -1.421875 35.59375 -1.421875 
Q 29.59375 -1.421875 25.265625 0.953125 
Q 20.953125 3.328125 18.109375 8.203125 
z
M 48.6875 27.296875 
Q 48.6875 37.203125 44.609375 42.84375 
Q 40.53125 48.484375 33.40625 48.484375 
Q 26.265625 48.484375 22.1875 42.84375 
Q 18.109375 37.203125 18.109375 27.296875 
Q 18.109375 17.390625 22.1875 11.75 
Q 26.265625 6.109375 33.40625 6.109375 
Q 40.53125 6.109375 44.609375 11.75 
Q 48.6875 17.390625 48.6875 27.296875 
z
" id="DejaVuSans-112"/>
      <path d="M 30.609375 48.390625 
Q 23.390625 48.390625 19.1875 42.75 
Q 14.984375 37.109375 14.984375 27.296875 
Q 14.984375 17.484375 19.15625 11.84375 
Q 23.34375 6.203125 30.609375 6.203125 
Q 37.796875 6.203125 41.984375 11.859375 
Q 46.1875 17.53125 46.1875 27.296875 
Q 46.1875 37.015625 41.984375 42.703125 
Q 37.796875 48.390625 30.609375 48.390625 
z
M 30.609375 56 
Q 42.328125 56 49.015625 48.375 
Q 55.71875 40.765625 55.71875 27.296875 
Q 55.71875 13.875 49.015625 6.21875 
Q 42.328125 -1.421875 30.609375 -1.421875 
Q 18.84375 -1.421875 12.171875 6.21875 
Q 5.515625 13.875 5.515625 27.296875 
Q 5.515625 40.765625 12.171875 48.375 
Q 18.84375 56 30.609375 56 
z
" id="DejaVuSans-111"/>
      <path d="M 48.78125 52.59375 
L 48.78125 44.1875 
Q 44.96875 46.296875 41.140625 47.34375 
Q 37.3125 48.390625 33.40625 48.390625 
Q 24.65625 48.390625 19.8125 42.84375 
Q 14.984375 37.3125 14.984375 27.296875 
Q 14.984375 17.28125 19.8125 11.734375 
Q 24.65625 6.203125 33.40625 6.203125 
Q 37.3125 6.203125 41.140625 7.25 
Q 44.96875 8.296875 48.78125 10.40625 
L 48.78125 2.09375 
Q 45.015625 0.34375 40.984375 -0.53125 
Q 36.96875 -1.421875 32.421875 -1.421875 
Q 20.0625 -1.421875 12.78125 6.34375 
Q 5.515625 14.109375 5.515625 27.296875 
Q 5.515625 40.671875 12.859375 48.328125 
Q 20.21875 56 33.015625 56 
Q 37.15625 56 41.109375 55.140625 
Q 45.0625 54.296875 48.78125 52.59375 
z
" id="DejaVuSans-99"/>
      <path d="M 54.890625 33.015625 
L 54.890625 0 
L 45.90625 0 
L 45.90625 32.71875 
Q 45.90625 40.484375 42.875 44.328125 
Q 39.84375 48.1875 33.796875 48.1875 
Q 26.515625 48.1875 22.3125 43.546875 
Q 18.109375 38.921875 18.109375 30.90625 
L 18.109375 0 
L 9.078125 0 
L 9.078125 75.984375 
L 18.109375 75.984375 
L 18.109375 46.1875 
Q 21.34375 51.125 25.703125 53.5625 
Q 30.078125 56 35.796875 56 
Q 45.21875 56 50.046875 50.171875 
Q 54.890625 44.34375 54.890625 33.015625 
z
" id="DejaVuSans-104"/>
     </defs>
     <g transform="translate(353.771875 343.276563)scale(0.1 -0.1)">
      <use xlink:href="#DejaVuSans-101"/>
      <use x="61.523438" xlink:href="#DejaVuSans-112"/>
      <use x="125" xlink:href="#DejaVuSans-111"/>
      <use x="186.181641" xlink:href="#DejaVuSans-99"/>
      <use x="241.162109" xlink:href="#DejaVuSans-104"/>
     </g>
    </g>
   </g>
   <g id="matplotlib.axis_2">
    <g id="ytick_1">
     <g id="line2d_19">
      <path clip-path="url(#pab29ae5f05)" d="M 90 314.340612 
L 648 314.340612 
" style="fill:none;stroke:#b0b0b0;stroke-linecap:square;stroke-width:0.8;"/>
     </g>
     <g id="line2d_20">
      <defs>
       <path d="M 0 0 
L -3.5 0 
" id="m721b6c7c8f" style="stroke:#000000;stroke-width:0.8;"/>
      </defs>
      <g>
       <use style="stroke:#000000;stroke-width:0.8;" x="90" xlink:href="#m721b6c7c8f" y="314.340612"/>
      </g>
     </g>
     <g id="text_11">
      <!-- 0 -->
      <g transform="translate(76.6375 318.139831)scale(0.1 -0.1)">
       <use xlink:href="#DejaVuSans-48"/>
      </g>
     </g>
    </g>
    <g id="ytick_2">
     <g id="line2d_21">
      <path clip-path="url(#pab29ae5f05)" d="M 90 281.869919 
L 648 281.869919 
" style="fill:none;stroke:#b0b0b0;stroke-linecap:square;stroke-width:0.8;"/>
     </g>
     <g id="line2d_22">
      <g>
       <use style="stroke:#000000;stroke-width:0.8;" x="90" xlink:href="#m721b6c7c8f" y="281.869919"/>
      </g>
     </g>
     <g id="text_12">
      <!-- 5 -->
      <g transform="translate(76.6375 285.669137)scale(0.1 -0.1)">
       <use xlink:href="#DejaVuSans-53"/>
      </g>
     </g>
    </g>
    <g id="ytick_3">
     <g id="line2d_23">
      <path clip-path="url(#pab29ae5f05)" d="M 90 249.399225 
L 648 249.399225 
" style="fill:none;stroke:#b0b0b0;stroke-linecap:square;stroke-width:0.8;"/>
     </g>
     <g id="line2d_24">
      <g>
       <use style="stroke:#000000;stroke-width:0.8;" x="90" xlink:href="#m721b6c7c8f" y="249.399225"/>
      </g>
     </g>
     <g id="text_13">
      <!-- 10 -->
      <g transform="translate(70.275 253.198444)scale(0.1 -0.1)">
       <use xlink:href="#DejaVuSans-49"/>
       <use x="63.623047" xlink:href="#DejaVuSans-48"/>
      </g>
     </g>
    </g>
    <g id="ytick_4">
     <g id="line2d_25">
      <path clip-path="url(#pab29ae5f05)" d="M 90 216.928532 
L 648 216.928532 
" style="fill:none;stroke:#b0b0b0;stroke-linecap:square;stroke-width:0.8;"/>
     </g>
     <g id="line2d_26">
      <g>
       <use style="stroke:#000000;stroke-width:0.8;" x="90" xlink:href="#m721b6c7c8f" y="216.928532"/>
      </g>
     </g>
     <g id="text_14">
      <!-- 15 -->
      <g transform="translate(70.275 220.72775)scale(0.1 -0.1)">
       <use xlink:href="#DejaVuSans-49"/>
       <use x="63.623047" xlink:href="#DejaVuSans-53"/>
      </g>
     </g>
    </g>
    <g id="ytick_5">
     <g id="line2d_27">
      <path clip-path="url(#pab29ae5f05)" d="M 90 184.457838 
L 648 184.457838 
" style="fill:none;stroke:#b0b0b0;stroke-linecap:square;stroke-width:0.8;"/>
     </g>
     <g id="line2d_28">
      <g>
       <use style="stroke:#000000;stroke-width:0.8;" x="90" xlink:href="#m721b6c7c8f" y="184.457838"/>
      </g>
     </g>
     <g id="text_15">
      <!-- 20 -->
      <g transform="translate(70.275 188.257057)scale(0.1 -0.1)">
       <use xlink:href="#DejaVuSans-50"/>
       <use x="63.623047" xlink:href="#DejaVuSans-48"/>
      </g>
     </g>
    </g>
    <g id="ytick_6">
     <g id="line2d_29">
      <path clip-path="url(#pab29ae5f05)" d="M 90 151.987144 
L 648 151.987144 
" style="fill:none;stroke:#b0b0b0;stroke-linecap:square;stroke-width:0.8;"/>
     </g>
     <g id="line2d_30">
      <g>
       <use style="stroke:#000000;stroke-width:0.8;" x="90" xlink:href="#m721b6c7c8f" y="151.987144"/>
      </g>
     </g>
     <g id="text_16">
      <!-- 25 -->
      <g transform="translate(70.275 155.786363)scale(0.1 -0.1)">
       <use xlink:href="#DejaVuSans-50"/>
       <use x="63.623047" xlink:href="#DejaVuSans-53"/>
      </g>
     </g>
    </g>
    <g id="ytick_7">
     <g id="line2d_31">
      <path clip-path="url(#pab29ae5f05)" d="M 90 119.516451 
L 648 119.516451 
" style="fill:none;stroke:#b0b0b0;stroke-linecap:square;stroke-width:0.8;"/>
     </g>
     <g id="line2d_32">
      <g>
       <use style="stroke:#000000;stroke-width:0.8;" x="90" xlink:href="#m721b6c7c8f" y="119.516451"/>
      </g>
     </g>
     <g id="text_17">
      <!-- 30 -->
      <defs>
       <path d="M 40.578125 39.3125 
Q 47.65625 37.796875 51.625 33 
Q 55.609375 28.21875 55.609375 21.1875 
Q 55.609375 10.40625 48.1875 4.484375 
Q 40.765625 -1.421875 27.09375 -1.421875 
Q 22.515625 -1.421875 17.65625 -0.515625 
Q 12.796875 0.390625 7.625 2.203125 
L 7.625 11.71875 
Q 11.71875 9.328125 16.59375 8.109375 
Q 21.484375 6.890625 26.8125 6.890625 
Q 36.078125 6.890625 40.9375 10.546875 
Q 45.796875 14.203125 45.796875 21.1875 
Q 45.796875 27.640625 41.28125 31.265625 
Q 36.765625 34.90625 28.71875 34.90625 
L 20.21875 34.90625 
L 20.21875 43.015625 
L 29.109375 43.015625 
Q 36.375 43.015625 40.234375 45.921875 
Q 44.09375 48.828125 44.09375 54.296875 
Q 44.09375 59.90625 40.109375 62.90625 
Q 36.140625 65.921875 28.71875 65.921875 
Q 24.65625 65.921875 20.015625 65.03125 
Q 15.375 64.15625 9.8125 62.3125 
L 9.8125 71.09375 
Q 15.4375 72.65625 20.34375 73.4375 
Q 25.25 74.21875 29.59375 74.21875 
Q 40.828125 74.21875 47.359375 69.109375 
Q 53.90625 64.015625 53.90625 55.328125 
Q 53.90625 49.265625 50.4375 45.09375 
Q 46.96875 40.921875 40.578125 39.3125 
z
" id="DejaVuSans-51"/>
      </defs>
      <g transform="translate(70.275 123.31567)scale(0.1 -0.1)">
       <use xlink:href="#DejaVuSans-51"/>
       <use x="63.623047" xlink:href="#DejaVuSans-48"/>
      </g>
     </g>
    </g>
    <g id="ytick_8">
     <g id="line2d_33">
      <path clip-path="url(#pab29ae5f05)" d="M 90 87.045757 
L 648 87.045757 
" style="fill:none;stroke:#b0b0b0;stroke-linecap:square;stroke-width:0.8;"/>
     </g>
     <g id="line2d_34">
      <g>
       <use style="stroke:#000000;stroke-width:0.8;" x="90" xlink:href="#m721b6c7c8f" y="87.045757"/>
      </g>
     </g>
     <g id="text_18">
      <!-- 35 -->
      <g transform="translate(70.275 90.844976)scale(0.1 -0.1)">
       <use xlink:href="#DejaVuSans-51"/>
       <use x="63.623047" xlink:href="#DejaVuSans-53"/>
      </g>
     </g>
    </g>
    <g id="ytick_9">
     <g id="line2d_35">
      <path clip-path="url(#pab29ae5f05)" d="M 90 54.575064 
L 648 54.575064 
" style="fill:none;stroke:#b0b0b0;stroke-linecap:square;stroke-width:0.8;"/>
     </g>
     <g id="line2d_36">
      <g>
       <use style="stroke:#000000;stroke-width:0.8;" x="90" xlink:href="#m721b6c7c8f" y="54.575064"/>
      </g>
     </g>
     <g id="text_19">
      <!-- 40 -->
      <defs>
       <path d="M 37.796875 64.3125 
L 12.890625 25.390625 
L 37.796875 25.390625 
z
M 35.203125 72.90625 
L 47.609375 72.90625 
L 47.609375 25.390625 
L 58.015625 25.390625 
L 58.015625 17.1875 
L 47.609375 17.1875 
L 47.609375 0 
L 37.796875 0 
L 37.796875 17.1875 
L 4.890625 17.1875 
L 4.890625 26.703125 
z
" id="DejaVuSans-52"/>
      </defs>
      <g transform="translate(70.275 58.374282)scale(0.1 -0.1)">
       <use xlink:href="#DejaVuSans-52"/>
       <use x="63.623047" xlink:href="#DejaVuSans-48"/>
      </g>
     </g>
    </g>
    <g id="text_20">
     <!-- loss -->
     <defs>
      <path d="M 9.421875 75.984375 
L 18.40625 75.984375 
L 18.40625 0 
L 9.421875 0 
z
" id="DejaVuSans-108"/>
      <path d="M 44.28125 53.078125 
L 44.28125 44.578125 
Q 40.484375 46.53125 36.375 47.5 
Q 32.28125 48.484375 27.875 48.484375 
Q 21.1875 48.484375 17.84375 46.4375 
Q 14.5 44.390625 14.5 40.28125 
Q 14.5 37.15625 16.890625 35.375 
Q 19.28125 33.59375 26.515625 31.984375 
L 29.59375 31.296875 
Q 39.15625 29.25 43.1875 25.515625 
Q 47.21875 21.78125 47.21875 15.09375 
Q 47.21875 7.46875 41.1875 3.015625 
Q 35.15625 -1.421875 24.609375 -1.421875 
Q 20.21875 -1.421875 15.453125 -0.5625 
Q 10.6875 0.296875 5.421875 2 
L 5.421875 11.28125 
Q 10.40625 8.6875 15.234375 7.390625 
Q 20.0625 6.109375 24.8125 6.109375 
Q 31.15625 6.109375 34.5625 8.28125 
Q 37.984375 10.453125 37.984375 14.40625 
Q 37.984375 18.0625 35.515625 20.015625 
Q 33.0625 21.96875 24.703125 23.78125 
L 21.578125 24.515625 
Q 13.234375 26.265625 9.515625 29.90625 
Q 5.8125 33.546875 5.8125 39.890625 
Q 5.8125 47.609375 11.28125 51.796875 
Q 16.75 56 26.8125 56 
Q 31.78125 56 36.171875 55.265625 
Q 40.578125 54.546875 44.28125 53.078125 
z
" id="DejaVuSans-115"/>
     </defs>
     <g transform="translate(64.195312 188.757812)rotate(-90)scale(0.1 -0.1)">
      <use xlink:href="#DejaVuSans-108"/>
      <use x="27.783203" xlink:href="#DejaVuSans-111"/>
      <use x="88.964844" xlink:href="#DejaVuSans-115"/>
      <use x="141.064453" xlink:href="#DejaVuSans-115"/>
     </g>
    </g>
   </g>
   <g id="line2d_37">
    <path clip-path="url(#pab29ae5f05)" d="M 115.363636 55.554545 
L 116.378689 124.642014 
L 116.886216 144.600242 
L 117.393742 157.067472 
L 118.916322 180.786125 
L 120.692665 200.603171 
L 121.961481 211.359154 
L 123.230297 220.435146 
L 125.260403 232.867251 
L 126.021693 236.634377 
L 127.544272 243.032275 
L 129.574378 249.702347 
L 131.350721 254.045297 
L 131.858247 255.12569 
L 133.380827 257.940668 
L 136.425986 262.552397 
L 136.679749 262.760091 
L 137.441039 263.796218 
L 138.456092 265.085454 
L 142.008777 269.112911 
L 142.516304 269.469936 
L 143.531357 270.542023 
L 144.292646 271.249388 
L 145.561463 272.352467 
L 146.576516 273.160634 
L 147.337805 273.667334 
L 148.099095 274.317211 
L 148.606621 274.580787 
L 153.681886 277.533932 
L 154.189413 277.70871 
L 157.742098 279.46709 
L 158.503388 279.798587 
L 162.5636 281.490861 
L 166.116285 282.820609 
L 166.370049 282.816063 
L 166.877575 283.040962 
L 167.385102 283.173661 
L 167.892628 283.337697 
L 169.668971 283.925866 
L 170.176497 283.967826 
L 170.684024 284.152655 
L 171.445314 284.399733 
L 172.206603 284.577091 
L 172.460367 284.705434 
L 172.967893 284.782655 
L 173.47542 284.922344 
L 173.982946 285.005307 
L 174.490473 285.070246 
L 175.759289 285.411431 
L 176.520578 285.616618 
L 177.028105 285.586373 
L 177.535631 285.811781 
L 178.043158 285.83513 
L 178.804448 286.065099 
L 179.058211 286.025934 
L 179.565737 286.245922 
L 180.073264 286.225894 
L 180.327027 286.342288 
L 180.834554 286.375985 
L 181.088317 286.498733 
L 181.34208 286.438113 
L 182.357133 286.669679 
L 183.372186 286.878046 
L 183.625949 287.001534 
L 184.133476 286.976382 
L 184.894766 287.229847 
L 185.402292 287.229802 
L 188.701214 287.796998 
L 189.208741 287.813244 
L 189.462504 287.98931 
L 189.716267 287.942723 
L 190.477557 288.125179 
L 191.49261 288.22933 
L 193.015189 288.481848 
L 196.060348 288.879538 
L 196.314112 288.9714 
L 196.567875 288.850223 
L 196.821638 288.992702 
L 197.582928 289.022448 
L 198.597981 289.232762 
L 200.12056 289.414748 
L 201.64314 289.595954 
L 202.150666 289.624423 
L 203.927009 289.824668 
L 204.688299 289.937878 
L 207.225931 290.132507 
L 207.479694 290.230143 
L 207.733458 290.151141 
L 208.494747 290.319613 
L 210.017327 290.439649 
L 210.27109 290.541361 
L 210.524853 290.428542 
L 211.79367 290.689627 
L 213.062486 290.790533 
L 213.316249 290.73406 
L 214.331302 290.941872 
L 214.838829 290.881548 
L 215.092592 290.956035 
L 215.346355 290.90221 
L 215.853881 291.116015 
L 216.107645 291.029163 
L 216.361408 291.146121 
L 216.868934 291.094659 
L 217.122698 291.237802 
L 217.883987 291.250848 
L 220.167857 291.452856 
L 220.42162 291.385579 
L 220.675383 291.575298 
L 221.690436 291.526291 
L 226.258175 292.067633 
L 226.511938 291.983461 
L 227.273228 292.019126 
L 230.57215 292.338716 
L 232.094729 292.445404 
L 233.109782 292.504749 
L 233.363545 292.417412 
L 234.378598 292.629821 
L 235.393651 292.652815 
L 235.901178 292.742164 
L 236.154941 292.634806 
L 236.408704 292.796758 
L 236.662468 292.667587 
L 237.423757 292.844044 
L 238.185047 292.825101 
L 238.946337 292.954344 
L 239.2001 292.889278 
L 239.453863 292.991013 
L 239.707627 292.951137 
L 239.96139 293.033055 
L 240.468916 293.029104 
L 241.991496 293.115067 
L 244.275365 293.249398 
L 246.305471 293.39471 
L 246.812997 293.495589 
L 247.066761 293.437164 
L 247.320524 293.590962 
L 247.574287 293.485048 
L 248.335577 293.570358 
L 248.58934 293.443009 
L 249.096867 293.712307 
L 250.365683 293.672905 
L 252.649552 293.846728 
L 253.664605 293.895216 
L 253.918368 293.975639 
L 254.679658 293.909325 
L 255.694711 294.06514 
L 256.202237 294.049024 
L 256.709764 294.082793 
L 257.21729 294.127013 
L 258.486107 294.18981 
L 261.277502 294.356863 
L 261.785029 294.42102 
L 262.292555 294.37131 
L 262.546319 294.478758 
L 262.800082 294.398436 
L 263.053845 294.493201 
L 263.561372 294.461677 
L 264.576425 294.599602 
L 264.830188 294.560994 
L 265.083951 294.665646 
L 265.845241 294.562657 
L 266.860294 294.683753 
L 271.428032 294.916751 
L 272.189322 294.951743 
L 273.965665 295.110539 
L 274.473191 295.047345 
L 275.234481 295.154657 
L 275.742007 295.146923 
L 278.025877 295.271807 
L 278.533403 295.31095 
L 279.294693 295.334144 
L 284.369958 295.581954 
L 284.623721 295.666373 
L 284.877484 295.575769 
L 285.638774 295.656053 
L 286.1463 295.654435 
L 286.653827 295.732661 
L 287.415117 295.67865 
L 287.922643 295.74274 
L 289.445223 295.788445 
L 289.698986 295.863968 
L 290.206512 295.86138 
L 297.81941 296.128687 
L 298.326936 296.147082 
L 298.834463 296.2621 
L 299.595752 296.193289 
L 299.849516 296.317171 
L 300.103279 296.246502 
L 300.610805 296.279162 
L 301.625858 296.339501 
L 302.133385 296.290578 
L 302.387148 296.369151 
L 302.640911 296.276538 
L 303.148438 296.366976 
L 303.655964 296.424204 
L 303.909728 296.463932 
L 304.163491 296.379104 
L 305.68607 296.489993 
L 306.193597 296.525548 
L 306.44736 296.571866 
L 306.701123 296.481285 
L 307.462413 296.598494 
L 308.984992 296.503907 
L 309.238756 296.694886 
L 309.746282 296.648928 
L 310.507572 296.627153 
L 310.761335 296.780458 
L 311.015098 296.629373 
L 311.522625 296.79942 
L 311.776388 296.686538 
L 312.030151 296.823196 
L 313.298968 296.812213 
L 314.567784 296.800162 
L 315.329074 296.910254 
L 316.090363 296.81571 
L 317.35918 296.890703 
L 317.612943 296.861385 
L 318.120469 297.040758 
L 318.881759 296.937166 
L 319.135522 296.929588 
L 319.389286 297.065758 
L 319.643049 296.96636 
L 321.673155 297.066339 
L 321.926918 297.017321 
L 322.434444 297.099846 
L 323.195734 297.164349 
L 324.210787 297.238632 
L 324.46455 297.154214 
L 324.972077 297.207123 
L 325.22584 297.149227 
L 325.479603 297.255342 
L 325.98713 297.168689 
L 326.240893 297.271087 
L 327.002183 297.258179 
L 328.017236 297.326031 
L 328.270999 297.237454 
L 328.524762 297.332668 
L 328.778526 297.280631 
L 329.286052 297.328956 
L 330.808632 297.325754 
L 331.062395 297.473839 
L 333.600027 297.530964 
L 334.107554 297.52625 
L 335.122607 297.598175 
L 335.883896 297.569618 
L 336.645186 297.623307 
L 342.989267 297.811757 
L 343.496794 297.753616 
L 346.541953 297.889106 
L 347.557006 297.912698 
L 348.064532 297.985953 
L 348.318296 297.881955 
L 348.825822 297.966115 
L 352.378507 298.1419 
L 352.632271 298.066421 
L 353.139797 298.102341 
L 372.172041 298.668873 
L 372.93333 298.694193 
L 373.440857 298.616451 
L 373.948383 298.693094 
L 374.709673 298.504109 
L 375.2172 298.678668 
L 376.486016 298.77464 
L 377.247305 298.691527 
L 381.053754 298.904763 
L 381.307517 298.827176 
L 382.068807 298.983413 
L 382.576334 298.889431 
L 383.591387 298.921317 
L 383.84515 298.782086 
L 384.098913 298.969032 
L 384.860203 298.872331 
L 385.367729 299.023517 
L 387.651599 299.016819 
L 389.681704 299.068998 
L 390.189231 299.04622 
L 390.442994 299.124213 
L 390.696757 298.987954 
L 391.204284 299.131433 
L 391.458047 299.099327 
L 391.71181 299.202717 
L 391.965574 299.127568 
L 392.4731 299.198755 
L 392.726863 299.134312 
L 393.23439 299.187479 
L 393.99568 299.090253 
L 394.249443 299.185115 
L 394.503206 299.110454 
L 395.518259 299.22318 
L 399.324708 299.257944 
L 399.578471 299.208008 
L 400.085998 299.293517 
L 400.593524 299.272333 
L 401.86234 299.314267 
L 405.415026 299.368212 
L 405.922552 299.43835 
L 406.683842 299.43761 
L 407.191368 299.450909 
L 407.445132 299.403512 
L 407.698895 299.476358 
L 408.460185 299.418931 
L 408.713948 299.518574 
L 409.475238 299.464298 
L 412.520397 299.546306 
L 413.027923 299.553938 
L 414.042976 299.486879 
L 415.058029 299.533345 
L 415.311792 299.63972 
L 416.326845 299.601489 
L 417.088135 299.667656 
L 417.595661 299.65969 
L 418.610714 299.732114 
L 418.864478 299.670654 
L 419.118241 299.730537 
L 419.625767 299.698243 
L 421.40211 299.755921 
L 422.417163 299.772027 
L 425.462322 299.833404 
L 425.969849 299.814487 
L 426.223612 299.846004 
L 426.477375 299.761205 
L 426.984902 299.869931 
L 427.999955 299.848814 
L 428.761244 299.925719 
L 430.79135 299.882566 
L 431.045113 299.961995 
L 431.55264 299.886023 
L 431.806403 300.035089 
L 432.31393 299.877771 
L 432.567693 299.940254 
L 432.821456 299.833499 
L 433.328983 299.922179 
L 434.344036 299.959294 
L 435.866615 300.035631 
L 436.374142 299.921898 
L 436.627905 299.749813 
L 437.389195 299.910552 
L 437.642958 299.85856 
L 438.150484 299.929575 
L 438.404248 299.889943 
L 438.911774 300.031166 
L 440.688117 300.082245 
L 440.94188 300.143704 
L 441.449407 300.123427 
L 443.225749 300.180453 
L 443.479512 300.251932 
L 443.987039 300.184511 
L 444.494565 300.187799 
L 445.763382 300.15648 
L 446.524671 300.214572 
L 447.032198 300.235669 
L 448.047251 300.272604 
L 448.808541 300.258136 
L 449.56983 300.280593 
L 451.346173 300.27389 
L 451.8537 300.312802 
L 452.868753 300.379603 
L 453.883806 300.385366 
L 454.645095 300.440167 
L 454.898859 300.351302 
L 455.660148 300.481674 
L 456.167675 300.418945 
L 457.182728 300.394143 
L 457.436491 300.500686 
L 458.197781 300.453457 
L 460.989176 300.449785 
L 461.496703 300.507154 
L 464.034335 300.521265 
L 464.541862 300.57123 
L 465.303152 300.454879 
L 466.318205 300.618371 
L 467.587021 300.505862 
L 467.840784 300.64715 
L 473.677339 300.695353 
L 474.692392 300.743368 
L 475.199918 300.694208 
L 475.707445 300.740771 
L 476.214971 300.784649 
L 478.752604 300.732708 
L 479.26013 300.874178 
L 479.513893 300.778096 
L 479.767657 300.902356 
L 480.528946 300.754629 
L 480.78271 300.865098 
L 482.305289 300.813703 
L 482.812815 300.88184 
L 484.589158 300.871836 
L 486.111738 300.919995 
L 486.365501 300.855415 
L 486.873027 300.944426 
L 487.88808 300.687717 
L 489.41066 300.94117 
L 491.187003 301.064887 
L 491.948292 301.014112 
L 492.202056 301.085948 
L 492.455819 300.917549 
L 497.023557 301.083873 
L 497.27732 301.007011 
L 497.784847 301.131512 
L 498.546137 301.123557 
L 500.068716 301.160686 
L 500.322479 301.100311 
L 500.576243 301.168843 
L 500.830006 301.110232 
L 501.337532 301.185447 
L 502.098822 301.198805 
L 503.367638 301.147445 
L 503.621402 301.197752 
L 504.128928 301.102147 
L 504.890218 301.232398 
L 505.905271 301.13621 
L 506.666561 301.282498 
L 507.681614 301.205876 
L 508.18914 301.238391 
L 508.696667 300.758756 
L 509.204193 301.10912 
L 509.965483 301.064474 
L 510.219246 301.200088 
L 511.234299 301.165536 
L 511.741825 301.238199 
L 514.279458 301.300228 
L 514.533221 301.373517 
L 515.040748 301.275488 
L 515.294511 301.33952 
L 515.802037 301.338011 
L 516.055801 301.426446 
L 516.309564 301.320542 
L 516.563327 301.41882 
L 517.324617 301.31643 
L 517.57838 301.426391 
L 518.085907 301.423494 
L 519.354723 301.379816 
L 519.862249 301.402376 
L 520.116013 301.348602 
L 520.369776 301.480864 
L 520.877302 301.290076 
L 521.131066 301.423176 
L 521.638592 301.399294 
L 522.146119 301.438198 
L 524.176224 301.393607 
L 525.191277 301.529177 
L 525.952567 301.524709 
L 529.759016 301.543977 
L 530.266542 301.606766 
L 530.774069 301.485157 
L 531.027832 301.64006 
L 531.281595 301.524776 
L 531.535359 301.619609 
L 532.042885 301.537356 
L 532.296648 301.652114 
L 532.550412 301.496961 
L 533.057938 301.676941 
L 533.565465 301.62717 
L 534.580518 301.647695 
L 535.088044 301.573611 
L 535.595571 301.626042 
L 536.103097 301.510028 
L 536.35686 301.647213 
L 536.864387 301.642737 
L 537.371913 301.600919 
L 537.625676 301.702841 
L 537.87944 301.598569 
L 538.640729 301.691881 
L 539.402019 301.592282 
L 542.954705 301.688698 
L 543.208468 301.615959 
L 543.462231 301.762888 
L 544.731047 301.738403 
L 544.984811 301.820013 
L 545.7461 301.734231 
L 547.26868 301.795413 
L 547.522443 301.704468 
L 547.776206 301.78768 
L 548.283733 301.719883 
L 548.791259 301.8508 
L 549.045023 301.772806 
L 549.806312 301.856954 
L 551.582655 301.845639 
L 552.343945 301.860907 
L 553.105234 301.867345 
L 553.358998 301.736781 
L 553.612761 301.833729 
L 554.627814 301.736919 
L 554.881577 301.8136 
L 555.642867 301.629968 
L 556.150393 301.785926 
L 556.65792 301.844769 
L 556.911683 301.815171 
L 557.165446 301.938813 
L 557.672973 301.913553 
L 557.926736 301.983101 
L 558.180499 301.905191 
L 558.434263 301.954747 
L 559.195552 301.87193 
L 559.703079 301.784294 
L 559.956842 301.578734 
L 560.718132 301.852069 
L 561.225658 301.824645 
L 563.763291 301.924431 
L 564.017054 301.855041 
L 564.778344 301.933699 
L 568.331029 302.06058 
L 568.584792 301.970807 
L 569.092319 302.055914 
L 569.853609 302.085042 
L 571.883715 302.051739 
L 572.137478 302.038329 
L 572.391241 302.17262 
L 573.406294 302.044964 
L 574.67511 302.132198 
L 578.227796 302.039935 
L 578.481559 302.20494 
L 579.496612 302.120647 
L 580.004138 302.173546 
L 580.257902 302.163452 
L 580.511665 302.029098 
L 581.019191 302.18769 
L 581.780481 302.240837 
L 582.288008 302.192145 
L 582.795534 302.189721 
L 583.810587 302.195348 
L 584.318114 302.206338 
L 584.571877 302.119792 
L 585.333167 302.249866 
L 586.34822 302.132491 
L 586.601983 302.235243 
L 586.855746 302.121235 
L 587.363273 302.169955 
L 587.617036 302.080338 
L 587.870799 302.143829 
L 588.124562 302.076034 
L 588.885852 302.246414 
L 589.393379 302.193643 
L 590.154668 302.266124 
L 590.408431 302.236594 
L 590.662195 302.354868 
L 591.169721 302.255436 
L 592.946064 302.245914 
L 593.45359 302.312315 
L 595.483696 302.216899 
L 595.73746 302.317604 
L 596.498749 302.319516 
L 597.006276 302.311836 
L 598.021329 302.208028 
L 598.275092 302.291495 
L 598.528855 302.219618 
L 598.782619 302.294433 
L 599.290145 302.289951 
L 599.797672 302.33159 
L 600.812725 302.343074 
L 601.066488 302.434799 
L 601.574014 302.362385 
L 602.081541 302.351968 
L 606.395516 302.503124 
L 606.649279 302.385519 
L 607.410569 302.307376 
L 608.425622 302.332908 
L 608.933148 302.435503 
L 609.186912 302.474637 
L 609.440675 302.391447 
L 609.694438 302.513636 
L 609.948201 302.459295 
L 610.455728 302.557055 
L 610.963254 302.36309 
L 611.217018 302.521139 
L 611.724544 302.465555 
L 612.232071 302.5421 
L 612.739597 302.53127 
L 613.500887 302.558947 
L 614.008413 302.559831 
L 614.262177 302.6213 
L 614.769703 302.528308 
L 615.530993 302.571226 
L 616.799809 302.496328 
L 617.053572 302.502266 
L 617.307335 302.624407 
L 618.068625 302.620248 
L 618.576152 302.619825 
L 618.829915 302.499133 
L 619.337441 302.512906 
L 619.591205 302.344998 
L 620.098731 302.364031 
L 622.636364 302.566014 
L 622.636364 302.566014 
" style="fill:none;stroke:#1f77b4;stroke-linecap:square;stroke-width:0.5;"/>
   </g>
   <g id="line2d_38">
    <path clip-path="url(#pab29ae5f05)" d="M 115.363636 68.751041 
L 116.124926 121.118036 
L 116.632453 142.213211 
L 117.139979 155.37962 
L 118.408795 176.280127 
L 119.931375 194.328114 
L 121.200191 206.440771 
L 122.72277 217.909946 
L 123.991587 226.17466 
L 125.767929 236.053161 
L 127.036746 241.434786 
L 128.559325 246.92166 
L 130.335668 251.829356 
L 131.604484 254.710662 
L 131.858247 255.071916 
L 132.365774 256.142848 
L 132.619537 256.509473 
L 133.127064 257.523463 
L 133.63459 258.303639 
L 134.142117 259.098362 
L 135.410933 260.98858 
L 136.679749 262.730097 
L 137.187275 263.368718 
L 138.202328 264.672586 
L 140.486198 267.274692 
L 140.739961 267.469075 
L 141.247487 268.027667 
L 141.755014 268.60028 
L 144.800173 271.515624 
L 147.084042 273.299345 
L 147.591569 273.643494 
L 147.845332 273.922254 
L 148.099095 273.938131 
L 148.606621 274.378242 
L 149.367911 274.756581 
L 150.382964 275.541779 
L 150.636727 275.582435 
L 150.890491 275.808456 
L 151.144254 275.853679 
L 151.905544 276.3613 
L 152.159307 276.33536 
L 153.17436 277.027652 
L 153.681886 277.11386 
L 153.93565 277.394998 
L 154.696939 277.696865 
L 155.204466 278.03466 
L 156.473282 278.567989 
L 157.234572 278.984906 
L 157.488335 279.02223 
L 157.995862 279.362059 
L 158.249625 279.35337 
L 158.503388 279.610401 
L 158.757151 279.602613 
L 160.787257 280.501929 
L 161.548547 280.73536 
L 162.056073 281.079069 
L 163.832416 281.702176 
L 164.593706 282.003731 
L 164.847469 282.047487 
L 165.101232 282.253163 
L 165.354996 282.192047 
L 168.653918 283.347676 
L 168.907681 283.286151 
L 169.415208 283.567894 
L 172.206603 284.357554 
L 172.460367 284.201811 
L 173.729183 284.640962 
L 173.982946 284.623955 
L 174.744236 284.889576 
L 175.505525 284.993305 
L 175.759289 285.144381 
L 176.013052 285.134016 
L 176.520578 285.345675 
L 176.774342 285.225361 
L 177.281868 285.436639 
L 177.789395 285.377958 
L 178.043158 285.593968 
L 179.565737 285.873777 
L 179.819501 285.830849 
L 180.327027 286.035679 
L 180.58079 285.974456 
L 181.34208 286.234075 
L 181.595843 286.164001 
L 182.10337 286.343105 
L 182.357133 286.308494 
L 182.86466 286.483529 
L 183.118423 286.463667 
L 183.879713 286.681677 
L 184.894766 286.825879 
L 185.402292 286.992466 
L 185.656055 286.927517 
L 186.163582 287.110364 
L 187.686161 287.290001 
L 187.939925 287.408209 
L 188.447451 287.446053 
L 189.462504 287.696163 
L 189.97003 287.682018 
L 191.238847 287.830945 
L 191.49261 288.003679 
L 191.746373 287.889617 
L 192.000136 288.030756 
L 192.2539 287.937795 
L 192.507663 288.111489 
L 192.761426 288.028517 
L 193.015189 288.191822 
L 193.776479 288.205481 
L 194.030242 288.370379 
L 194.284006 288.26237 
L 194.537769 288.36044 
L 195.045295 288.416391 
L 195.806585 288.572816 
L 196.060348 288.473541 
L 196.314112 288.644482 
L 196.821638 288.595363 
L 197.075401 288.770553 
L 198.597981 288.801031 
L 199.105507 288.878215 
L 199.613034 288.841534 
L 200.12056 289.105619 
L 201.64314 289.195128 
L 201.896903 289.31424 
L 202.404429 289.233555 
L 202.658193 289.349087 
L 203.419482 289.349401 
L 204.180772 289.55063 
L 204.688299 289.533977 
L 205.703352 289.611171 
L 205.957115 289.777751 
L 206.210878 289.688605 
L 206.464641 289.814912 
L 206.718405 289.697795 
L 207.479694 289.906187 
L 208.748511 289.959538 
L 209.256037 290.142948 
L 209.5098 290.033844 
L 209.763564 290.111774 
L 210.27109 290.117016 
L 210.778617 290.199492 
L 212.047433 290.31861 
L 212.808723 290.236226 
L 213.062486 290.479454 
L 213.316249 290.423908 
L 213.570012 290.501313 
L 213.823776 290.452987 
L 214.077539 290.584468 
L 214.585065 290.562274 
L 214.838829 290.707089 
L 215.092592 290.572456 
L 216.361408 290.804737 
L 216.615171 290.721102 
L 216.868934 290.88156 
L 217.122698 290.852436 
L 217.376461 290.960826 
L 217.630224 290.834331 
L 219.66033 291.128033 
L 220.167857 290.970958 
L 220.929146 291.081016 
L 221.18291 291.17918 
L 221.436673 291.137804 
L 221.690436 291.263794 
L 222.197963 291.223742 
L 222.451726 291.330795 
L 222.705489 291.264917 
L 222.959252 291.398452 
L 223.466779 291.283302 
L 223.974305 291.434903 
L 224.481832 291.379103 
L 224.735595 291.510723 
L 225.243122 291.482526 
L 225.750648 291.539381 
L 226.004411 291.544484 
L 226.258175 291.684853 
L 227.273228 291.678059 
L 228.542044 291.798554 
L 228.795807 291.721092 
L 229.303333 291.864409 
L 229.557097 291.894199 
L 230.064623 291.823623 
L 231.079676 291.943033 
L 231.333439 291.915781 
L 231.587203 292.107569 
L 232.094729 292.015687 
L 232.348492 292.148009 
L 235.393651 292.28354 
L 235.901178 292.451746 
L 236.408704 292.343086 
L 237.423757 292.451459 
L 238.692574 292.530407 
L 239.2001 292.521064 
L 239.453863 292.526108 
L 239.96139 292.733279 
L 240.72268 292.593165 
L 241.737733 292.766801 
L 242.245259 292.768272 
L 242.499022 292.75234 
L 242.752785 292.904192 
L 243.006549 292.74236 
L 243.260312 292.881229 
L 244.782891 292.934785 
L 245.036655 293.031065 
L 245.290418 292.960613 
L 245.544181 293.030996 
L 246.051708 292.983726 
L 248.843103 293.325951 
L 249.096867 293.132316 
L 249.35063 293.354212 
L 249.604393 293.196885 
L 250.11192 293.317885 
L 250.619446 293.248457 
L 251.380736 293.412937 
L 252.649552 293.546 
L 253.157079 293.393392 
L 253.664605 293.521465 
L 254.679658 293.606446 
L 254.933421 293.714854 
L 255.440948 293.665764 
L 256.202237 293.730554 
L 256.456001 293.796427 
L 256.709764 293.61588 
L 257.21729 293.758547 
L 257.97858 293.84584 
L 258.486107 293.946469 
L 258.73987 293.806708 
L 260.008686 293.955589 
L 260.262449 293.886908 
L 261.023739 294.01196 
L 262.546319 294.140383 
L 262.800082 294.217772 
L 263.053845 294.065289 
L 264.322661 294.200738 
L 264.830188 294.177216 
L 265.591478 294.270672 
L 266.606531 294.25524 
L 267.114057 294.368458 
L 267.36782 294.310523 
L 267.621584 294.368674 
L 267.875347 294.261159 
L 268.12911 294.423967 
L 268.636637 294.370747 
L 268.8904 294.55882 
L 269.651689 294.483257 
L 270.159216 294.492428 
L 275.234481 294.775268 
L 275.742007 294.762192 
L 276.503297 294.868714 
L 276.75706 294.790245 
L 277.010824 294.895791 
L 277.264587 294.81907 
L 278.025877 294.972469 
L 279.802219 294.893665 
L 280.055983 295.055832 
L 280.817272 295.008863 
L 281.071036 295.115596 
L 281.324799 295.047663 
L 281.578562 295.100331 
L 281.832325 295.000454 
L 282.339852 295.146872 
L 283.862431 295.111559 
L 284.116194 295.256064 
L 285.131247 295.274254 
L 285.385011 295.391544 
L 285.638774 295.237415 
L 285.892537 295.338958 
L 287.161353 295.22947 
L 287.415117 295.458622 
L 288.176406 295.463956 
L 288.43017 295.372665 
L 288.683933 295.430086 
L 288.937696 295.358696 
L 289.445223 295.562315 
L 290.206512 295.419075 
L 292.490382 295.637548 
L 293.505435 295.517107 
L 293.759198 295.68479 
L 294.520488 295.664041 
L 294.774251 295.720865 
L 295.028014 295.648479 
L 295.281777 295.831743 
L 295.789304 295.774327 
L 297.311883 295.755553 
L 297.81941 295.807176 
L 298.073173 295.794597 
L 298.326936 295.895745 
L 299.341989 295.815218 
L 299.849516 295.933474 
L 300.103279 295.817663 
L 301.372095 295.922374 
L 301.625858 295.869175 
L 302.133385 296.019268 
L 302.640911 296.083661 
L 304.163491 296.086411 
L 304.417254 295.966789 
L 304.671017 296.128046 
L 305.178544 296.145325 
L 306.193597 296.235961 
L 306.701123 296.103305 
L 307.462413 296.269948 
L 308.477466 296.251075 
L 309.492519 296.302802 
L 310.253809 296.299211 
L 310.507572 296.177247 
L 310.761335 296.38047 
L 311.015098 296.300664 
L 311.522625 296.428538 
L 311.776388 296.310217 
L 312.030151 296.461915 
L 312.791441 296.336969 
L 313.806494 296.454909 
L 316.851653 296.567163 
L 317.105416 296.675279 
L 317.35918 296.457647 
L 319.643049 296.780582 
L 319.896812 296.621684 
L 321.419392 296.732214 
L 321.673155 296.616898 
L 321.926918 296.797126 
L 322.434444 296.732585 
L 323.449497 296.789641 
L 323.703261 296.908435 
L 324.46455 296.810279 
L 324.972077 296.885725 
L 325.733367 296.911034 
L 325.98713 296.993086 
L 326.240893 296.797254 
L 327.763473 296.964061 
L 328.270999 297.008384 
L 328.524762 296.950803 
L 328.778526 297.038399 
L 329.032289 296.891985 
L 330.047342 297.029812 
L 330.808632 297.180458 
L 331.062395 297.001331 
L 331.823685 297.18902 
L 332.838738 297.074443 
L 333.346264 297.158597 
L 333.853791 297.214591 
L 334.107554 297.319059 
L 334.361317 297.162281 
L 334.61508 297.272822 
L 335.122607 297.134425 
L 336.391423 297.239462 
L 338.421529 297.250879 
L 338.929055 297.40224 
L 339.182819 297.336481 
L 339.436582 297.415978 
L 339.690345 297.335705 
L 339.944108 297.470671 
L 340.197872 297.339551 
L 342.735504 297.455171 
L 343.243031 297.485092 
L 343.496794 297.532649 
L 344.00432 297.419007 
L 344.511847 297.492764 
L 344.76561 297.353011 
L 345.5269 297.613744 
L 345.780663 297.595045 
L 346.034426 297.449784 
L 346.541953 297.545703 
L 346.795716 297.47823 
L 347.303243 297.565732 
L 347.810769 297.585425 
L 349.079585 297.628679 
L 351.109691 297.729167 
L 351.363454 297.632342 
L 352.886034 297.820279 
L 353.39356 297.731556 
L 353.647324 297.866816 
L 354.15485 297.742194 
L 354.662377 297.880062 
L 354.91614 297.765314 
L 355.67743 297.788138 
L 357.453772 297.863623 
L 357.961299 297.932194 
L 358.215062 297.869682 
L 358.468825 297.947036 
L 359.230115 297.860618 
L 359.737642 297.979082 
L 360.498931 297.813238 
L 360.752695 298.034351 
L 361.006458 297.906911 
L 361.260221 298.058187 
L 361.767748 297.991793 
L 362.275274 298.050044 
L 362.7828 297.979195 
L 363.036564 298.0827 
L 363.54409 298.001286 
L 363.797853 298.100291 
L 364.051617 297.911849 
L 364.30538 298.136975 
L 364.559143 298.045393 
L 365.06667 298.049851 
L 365.320433 298.040504 
L 365.574196 298.195209 
L 366.335486 298.114337 
L 367.858065 298.218553 
L 368.873118 298.147259 
L 369.380645 298.26709 
L 370.141935 298.226857 
L 371.918277 298.246932 
L 372.172041 298.376189 
L 372.425804 298.22963 
L 374.202147 298.244415 
L 374.45591 298.149244 
L 374.709673 298.316777 
L 375.2172 298.312409 
L 375.470963 298.261648 
L 375.978489 298.452059 
L 376.739779 298.283954 
L 376.993542 298.467945 
L 378.008595 298.339538 
L 379.023648 298.551534 
L 379.784938 298.526905 
L 380.038701 298.613715 
L 380.546228 298.480594 
L 381.815044 298.522565 
L 383.337623 298.579447 
L 383.591387 298.430697 
L 384.098913 298.530472 
L 384.352676 298.619922 
L 384.860203 298.470708 
L 385.113966 298.689663 
L 385.367729 298.5525 
L 385.875256 298.671038 
L 386.129019 298.581799 
L 386.382782 298.692473 
L 386.890309 298.61626 
L 387.144072 298.742252 
L 388.159125 298.680884 
L 388.920415 298.703725 
L 389.174178 298.814108 
L 390.189231 298.730721 
L 390.696757 298.757105 
L 390.950521 298.686443 
L 391.204284 298.868155 
L 391.458047 298.716796 
L 391.71181 298.905244 
L 392.219337 298.730861 
L 392.726863 298.828651 
L 392.980627 298.846485 
L 393.23439 298.675428 
L 393.488153 298.793645 
L 393.99568 298.795695 
L 396.533312 298.716028 
L 396.787075 298.911459 
L 397.802128 298.878422 
L 399.578471 298.929669 
L 399.832234 298.84766 
L 400.085998 299.00403 
L 400.847287 298.965398 
L 401.101051 299.029933 
L 401.354814 298.902119 
L 401.86234 298.995198 
L 405.161262 299.014768 
L 405.415026 298.996044 
L 405.668789 299.135523 
L 405.922552 298.966223 
L 406.683842 299.115145 
L 407.191368 299.086412 
L 409.475238 299.102132 
L 409.729001 299.015492 
L 409.982764 299.258331 
L 410.490291 299.107661 
L 410.997817 299.257285 
L 411.25158 299.07102 
L 411.759107 299.289689 
L 412.01287 299.183143 
L 412.266633 299.281827 
L 413.027923 299.087009 
L 413.281686 299.223356 
L 413.789213 299.16242 
L 414.296739 299.168855 
L 414.550503 299.318518 
L 414.804266 299.199085 
L 415.058029 299.284518 
L 415.565556 299.251675 
L 416.073082 299.351875 
L 416.326845 299.251986 
L 417.088135 299.325803 
L 417.341898 299.259971 
L 417.849425 299.396086 
L 418.356951 299.368775 
L 418.610714 299.446178 
L 418.864478 299.340063 
L 420.387057 299.455304 
L 421.655873 299.395477 
L 422.92469 299.479353 
L 423.178453 299.338999 
L 424.193506 299.474462 
L 424.447269 299.403753 
L 424.701032 299.541007 
L 425.208559 299.458848 
L 425.462322 299.544014 
L 425.969849 299.45617 
L 430.283824 299.680107 
L 430.537587 299.51979 
L 431.045113 299.621329 
L 431.298877 299.700712 
L 431.55264 299.65819 
L 431.806403 299.435128 
L 432.060166 299.636825 
L 432.31393 299.654694 
L 432.567693 299.51118 
L 433.836509 299.600311 
L 434.344036 299.598628 
L 434.597799 299.597981 
L 434.851562 299.718254 
L 435.105325 299.602921 
L 435.359089 299.706284 
L 435.612852 299.64031 
L 435.866615 299.749195 
L 436.120378 299.546161 
L 436.627905 299.7189 
L 436.881668 299.556871 
L 437.135431 299.702963 
L 437.389195 299.496566 
L 437.642958 299.666951 
L 437.896721 299.480574 
L 438.404248 299.589713 
L 440.434354 299.780952 
L 440.94188 299.639157 
L 441.195643 299.829319 
L 441.70317 299.795288 
L 442.210696 299.857282 
L 442.718223 299.791564 
L 443.225749 299.886591 
L 443.733276 299.891311 
L 444.240802 299.821607 
L 445.509618 299.804518 
L 445.763382 299.953881 
L 446.017145 299.832894 
L 448.047251 299.99736 
L 448.301014 300.075389 
L 448.554777 299.827033 
L 449.062304 299.989474 
L 450.838647 299.892445 
L 451.09241 300.0372 
L 451.8537 299.98702 
L 452.107463 300.144012 
L 452.614989 299.950272 
L 453.376279 300.087994 
L 453.630042 299.96016 
L 454.137569 300.041942 
L 454.391332 300.010903 
L 454.645095 300.142058 
L 454.898859 299.999805 
L 455.406385 300.144254 
L 455.660148 300.06716 
L 455.913912 300.136554 
L 456.167675 300.057672 
L 456.675201 300.109777 
L 456.928964 300.035106 
L 457.182728 300.205746 
L 457.436491 300.023361 
L 457.944017 300.142922 
L 458.197781 300.09912 
L 458.451544 300.248764 
L 458.705307 300.005591 
L 459.212834 300.166746 
L 464.034335 300.188401 
L 464.288099 300.278051 
L 464.795625 300.131593 
L 465.049388 300.201187 
L 465.303152 300.153953 
L 466.064441 300.338922 
L 466.318205 300.238386 
L 466.571968 300.348798 
L 467.333258 300.153239 
L 467.587021 300.318454 
L 467.840784 300.227625 
L 468.094547 300.343697 
L 468.602074 300.261351 
L 468.855837 300.372311 
L 469.1096 300.260719 
L 469.363363 300.351037 
L 469.87089 300.212311 
L 470.63218 300.37542 
L 471.647233 300.329036 
L 471.900996 300.371247 
L 472.154759 300.230172 
L 472.408522 300.389385 
L 472.662286 300.410542 
L 472.916049 300.255307 
L 473.423575 300.394974 
L 473.931102 300.340845 
L 474.184865 300.295485 
L 474.438628 300.44562 
L 475.199918 300.306668 
L 476.214971 300.428331 
L 476.468734 300.363602 
L 476.722498 300.499449 
L 477.230024 300.39068 
L 477.483787 300.480347 
L 477.991314 300.39212 
L 479.006367 300.410028 
L 479.513893 300.570653 
L 479.767657 300.410324 
L 480.275183 300.511315 
L 480.78271 300.511298 
L 481.290236 300.452485 
L 481.797763 300.586186 
L 482.051526 300.613319 
L 482.559052 300.452838 
L 482.812815 300.595377 
L 484.335395 300.477805 
L 484.589158 300.608523 
L 484.842921 300.500008 
L 485.350448 300.594012 
L 486.873027 300.539185 
L 487.126791 300.721899 
L 487.380554 300.344788 
L 487.634317 300.295641 
L 488.395607 300.470654 
L 488.64937 300.454005 
L 489.156897 300.663068 
L 489.918186 300.651378 
L 490.679476 300.641849 
L 492.202056 300.625157 
L 492.455819 300.381211 
L 492.709582 300.39952 
L 492.963345 300.644576 
L 493.217109 300.54644 
L 493.724635 300.693989 
L 493.978398 300.61556 
L 494.485925 300.683794 
L 498.7999 300.898445 
L 499.053663 300.734524 
L 499.307426 300.823277 
L 499.814953 300.820236 
L 500.322479 300.81311 
L 501.083769 300.787054 
L 501.337532 300.893416 
L 502.098822 300.841456 
L 502.606349 300.805112 
L 503.621402 300.820696 
L 504.890218 300.869221 
L 505.397744 300.841702 
L 506.920324 300.961591 
L 507.174087 300.831398 
L 507.935377 300.955966 
L 508.18914 300.527151 
L 508.442903 300.511524 
L 508.95043 300.73526 
L 509.204193 300.589199 
L 509.711719 300.831547 
L 509.965483 300.810329 
L 510.219246 300.907088 
L 510.473009 300.834467 
L 511.234299 300.890129 
L 512.249352 300.970238 
L 512.503115 301.044187 
L 513.010642 300.954396 
L 513.264405 301.026998 
L 513.771931 300.950988 
L 514.279458 300.923742 
L 514.786984 300.953686 
L 515.802037 301.082196 
L 516.055801 300.939476 
L 516.309564 301.057407 
L 518.593433 300.941322 
L 518.847196 301.09804 
L 519.862249 301.105894 
L 520.116013 300.979424 
L 522.653645 301.124459 
L 522.907408 301.006921 
L 523.161171 301.108852 
L 523.668698 300.949655 
L 523.922461 301.162383 
L 524.429988 301.15913 
L 534.834281 301.284806 
L 535.341807 301.256899 
L 535.595571 301.377583 
L 536.103097 301.220543 
L 536.35686 301.344972 
L 536.610623 301.284286 
L 537.11815 301.292907 
L 537.625676 301.327253 
L 537.87944 301.384128 
L 538.133203 301.235604 
L 538.386966 301.373195 
L 538.640729 301.246601 
L 539.148256 301.316257 
L 539.402019 301.199024 
L 539.655782 301.352329 
L 540.670835 301.31446 
L 540.924599 301.366486 
L 541.178362 301.266429 
L 541.432125 301.362071 
L 541.685888 301.320356 
L 541.939652 301.40271 
L 542.193415 301.305272 
L 542.447178 301.415503 
L 542.954705 301.30081 
L 543.208468 301.481547 
L 543.462231 301.315945 
L 543.969758 301.444188 
L 544.223521 301.351318 
L 544.477284 301.466817 
L 544.984811 301.403293 
L 545.999864 301.450615 
L 546.253627 301.486715 
L 546.50739 301.306614 
L 546.761153 301.416473 
L 547.26868 301.314649 
L 547.522443 301.466796 
L 548.283733 301.365351 
L 548.537496 301.503557 
L 549.045023 301.437051 
L 550.313839 301.487318 
L 550.821365 301.522897 
L 551.075128 301.62665 
L 551.582655 301.391307 
L 552.851471 301.460182 
L 553.358998 301.433133 
L 553.612761 301.606125 
L 554.120287 301.440117 
L 554.374051 301.544897 
L 554.881577 301.304524 
L 555.389104 301.425806 
L 555.642867 301.300153 
L 556.150393 301.496183 
L 556.65792 301.496015 
L 557.672973 301.5736 
L 558.434263 301.518499 
L 558.688026 301.672958 
L 558.941789 301.530771 
L 559.195552 301.526126 
L 559.703079 301.218029 
L 560.718132 301.529545 
L 561.479422 301.437987 
L 561.733185 301.570123 
L 562.240711 301.556371 
L 562.748238 301.564491 
L 565.539633 301.648953 
L 565.793397 301.522037 
L 566.04716 301.686957 
L 566.554686 301.572235 
L 567.315976 301.7177 
L 567.569739 301.61905 
L 568.584792 301.771574 
L 568.838556 301.716247 
L 569.092319 301.785844 
L 569.599845 301.717375 
L 570.614898 301.643103 
L 571.122425 301.701641 
L 571.629951 301.63412 
L 572.391241 301.887016 
L 572.898768 301.60883 
L 573.406294 301.701455 
L 573.660057 301.617117 
L 573.913821 301.760387 
L 574.928874 301.783818 
L 577.720269 301.835247 
L 577.974032 301.675286 
L 578.227796 301.857707 
L 578.989085 301.761403 
L 579.242849 301.908273 
L 579.496612 301.745832 
L 580.257902 301.900687 
L 580.511665 301.707293 
L 580.765428 301.809243 
L 581.019191 301.731474 
L 581.526718 301.855043 
L 582.034244 301.841605 
L 582.795534 301.823781 
L 583.303061 301.891667 
L 583.556824 301.761084 
L 585.840693 301.854459 
L 586.094456 301.703306 
L 586.34822 301.876253 
L 588.378326 301.862364 
L 588.632089 301.936033 
L 589.139615 301.854173 
L 589.393379 302.034128 
L 591.931011 301.816497 
L 592.184774 301.98599 
L 592.438537 301.841786 
L 592.692301 301.97522 
L 594.21488 302.013533 
L 594.468643 301.743015 
L 594.722407 301.804064 
L 594.97617 301.698922 
L 595.483696 301.933666 
L 595.73746 301.890201 
L 596.498749 302.047156 
L 596.752513 302.079321 
L 597.006276 301.818852 
L 597.260039 302.105054 
L 597.513802 301.912729 
L 598.528855 301.874363 
L 599.036382 302.023422 
L 599.543908 301.915702 
L 599.797672 301.941256 
L 600.051435 301.819075 
L 600.558961 301.941714 
L 601.320251 302.078849 
L 601.827778 302.053017 
L 602.081541 302.060086 
L 602.335304 302.207285 
L 602.842831 302.179884 
L 603.096594 301.999307 
L 603.350357 302.117295 
L 603.60412 302.011515 
L 604.111647 302.14415 
L 604.619173 302.162193 
L 605.634226 302.130174 
L 605.887989 302.18839 
L 606.395516 301.99198 
L 606.649279 302.139289 
L 606.903042 301.991813 
L 607.156806 302.081729 
L 607.410569 301.993015 
L 608.171859 302.086262 
L 608.679385 302.099239 
L 610.201965 302.190023 
L 610.455728 302.169253 
L 610.709491 302.023425 
L 611.217018 302.184953 
L 611.470781 302.103592 
L 612.485834 302.208845 
L 613.247124 302.111674 
L 613.75465 302.300824 
L 614.769703 302.106796 
L 615.27723 302.251983 
L 617.053572 302.090728 
L 617.307335 302.251865 
L 618.829915 302.317789 
L 619.337441 302.035508 
L 619.591205 302.201352 
L 620.352494 302.110834 
L 620.860021 302.165091 
L 621.875074 302.088985 
L 622.3826 302.248104 
L 622.636364 302.249424 
L 622.636364 302.249424 
" style="fill:none;stroke:#ff7f0e;stroke-linecap:square;stroke-width:0.5;"/>
   </g>
   <g id="patch_3">
    <path d="M 90 315 
L 90 43.2 
" style="fill:none;stroke:#000000;stroke-linecap:square;stroke-linejoin:miter;stroke-width:0.8;"/>
   </g>
   <g id="patch_4">
    <path d="M 648 315 
L 648 43.2 
" style="fill:none;stroke:#000000;stroke-linecap:square;stroke-linejoin:miter;stroke-width:0.8;"/>
   </g>
   <g id="patch_5">
    <path d="M 90 315 
L 648 315 
" style="fill:none;stroke:#000000;stroke-linecap:square;stroke-linejoin:miter;stroke-width:0.8;"/>
   </g>
   <g id="patch_6">
    <path d="M 90 43.2 
L 648 43.2 
" style="fill:none;stroke:#000000;stroke-linecap:square;stroke-linejoin:miter;stroke-width:0.8;"/>
   </g>
   <g id="text_21">
    <!-- loss -->
    <g transform="translate(357.410625 37.2)scale(0.12 -0.12)">
     <use xlink:href="#DejaVuSans-108"/>
     <use x="27.783203" xlink:href="#DejaVuSans-111"/>
     <use x="88.964844" xlink:href="#DejaVuSans-115"/>
     <use x="141.064453" xlink:href="#DejaVuSans-115"/>
    </g>
   </g>
   <g id="legend_1">
    <g id="patch_7">
     <path d="M 568.846875 80.55625 
L 641 80.55625 
Q 643 80.55625 643 78.55625 
L 643 50.2 
Q 643 48.2 641 48.2 
L 568.846875 48.2 
Q 566.846875 48.2 566.846875 50.2 
L 566.846875 78.55625 
Q 566.846875 80.55625 568.846875 80.55625 
z
" style="fill:#ffffff;opacity:0.8;stroke:#cccccc;stroke-linejoin:miter;"/>
    </g>
    <g id="line2d_39">
     <path d="M 570.846875 56.298437 
L 590.846875 56.298437 
" style="fill:none;stroke:#1f77b4;stroke-linecap:square;stroke-width:0.5;"/>
    </g>
    <g id="line2d_40"/>
    <g id="text_22">
     <!-- train -->
     <defs>
      <path d="M 18.3125 70.21875 
L 18.3125 54.6875 
L 36.8125 54.6875 
L 36.8125 47.703125 
L 18.3125 47.703125 
L 18.3125 18.015625 
Q 18.3125 11.328125 20.140625 9.421875 
Q 21.96875 7.515625 27.59375 7.515625 
L 36.8125 7.515625 
L 36.8125 0 
L 27.59375 0 
Q 17.1875 0 13.234375 3.875 
Q 9.28125 7.765625 9.28125 18.015625 
L 9.28125 47.703125 
L 2.6875 47.703125 
L 2.6875 54.6875 
L 9.28125 54.6875 
L 9.28125 70.21875 
z
" id="DejaVuSans-116"/>
      <path d="M 41.109375 46.296875 
Q 39.59375 47.171875 37.8125 47.578125 
Q 36.03125 48 33.890625 48 
Q 26.265625 48 22.1875 43.046875 
Q 18.109375 38.09375 18.109375 28.8125 
L 18.109375 0 
L 9.078125 0 
L 9.078125 54.6875 
L 18.109375 54.6875 
L 18.109375 46.1875 
Q 20.953125 51.171875 25.484375 53.578125 
Q 30.03125 56 36.53125 56 
Q 37.453125 56 38.578125 55.875 
Q 39.703125 55.765625 41.0625 55.515625 
z
" id="DejaVuSans-114"/>
      <path d="M 34.28125 27.484375 
Q 23.390625 27.484375 19.1875 25 
Q 14.984375 22.515625 14.984375 16.5 
Q 14.984375 11.71875 18.140625 8.90625 
Q 21.296875 6.109375 26.703125 6.109375 
Q 34.1875 6.109375 38.703125 11.40625 
Q 43.21875 16.703125 43.21875 25.484375 
L 43.21875 27.484375 
z
M 52.203125 31.203125 
L 52.203125 0 
L 43.21875 0 
L 43.21875 8.296875 
Q 40.140625 3.328125 35.546875 0.953125 
Q 30.953125 -1.421875 24.3125 -1.421875 
Q 15.921875 -1.421875 10.953125 3.296875 
Q 6 8.015625 6 15.921875 
Q 6 25.140625 12.171875 29.828125 
Q 18.359375 34.515625 30.609375 34.515625 
L 43.21875 34.515625 
L 43.21875 35.40625 
Q 43.21875 41.609375 39.140625 45 
Q 35.0625 48.390625 27.6875 48.390625 
Q 23 48.390625 18.546875 47.265625 
Q 14.109375 46.140625 10.015625 43.890625 
L 10.015625 52.203125 
Q 14.9375 54.109375 19.578125 55.046875 
Q 24.21875 56 28.609375 56 
Q 40.484375 56 46.34375 49.84375 
Q 52.203125 43.703125 52.203125 31.203125 
z
" id="DejaVuSans-97"/>
      <path d="M 9.421875 54.6875 
L 18.40625 54.6875 
L 18.40625 0 
L 9.421875 0 
z
M 9.421875 75.984375 
L 18.40625 75.984375 
L 18.40625 64.59375 
L 9.421875 64.59375 
z
" id="DejaVuSans-105"/>
      <path d="M 54.890625 33.015625 
L 54.890625 0 
L 45.90625 0 
L 45.90625 32.71875 
Q 45.90625 40.484375 42.875 44.328125 
Q 39.84375 48.1875 33.796875 48.1875 
Q 26.515625 48.1875 22.3125 43.546875 
Q 18.109375 38.921875 18.109375 30.90625 
L 18.109375 0 
L 9.078125 0 
L 9.078125 54.6875 
L 18.109375 54.6875 
L 18.109375 46.1875 
Q 21.34375 51.125 25.703125 53.5625 
Q 30.078125 56 35.796875 56 
Q 45.21875 56 50.046875 50.171875 
Q 54.890625 44.34375 54.890625 33.015625 
z
" id="DejaVuSans-110"/>
     </defs>
     <g transform="translate(598.846875 59.798437)scale(0.1 -0.1)">
      <use xlink:href="#DejaVuSans-116"/>
      <use x="39.208984" xlink:href="#DejaVuSans-114"/>
      <use x="80.322266" xlink:href="#DejaVuSans-97"/>
      <use x="141.601562" xlink:href="#DejaVuSans-105"/>
      <use x="169.384766" xlink:href="#DejaVuSans-110"/>
     </g>
    </g>
    <g id="line2d_41">
     <path d="M 570.846875 70.976562 
L 590.846875 70.976562 
" style="fill:none;stroke:#ff7f0e;stroke-linecap:square;stroke-width:0.5;"/>
    </g>
    <g id="line2d_42"/>
    <g id="text_23">
     <!-- validate -->
     <defs>
      <path d="M 2.984375 54.6875 
L 12.5 54.6875 
L 29.59375 8.796875 
L 46.6875 54.6875 
L 56.203125 54.6875 
L 35.6875 0 
L 23.484375 0 
z
" id="DejaVuSans-118"/>
      <path d="M 45.40625 46.390625 
L 45.40625 75.984375 
L 54.390625 75.984375 
L 54.390625 0 
L 45.40625 0 
L 45.40625 8.203125 
Q 42.578125 3.328125 38.25 0.953125 
Q 33.9375 -1.421875 27.875 -1.421875 
Q 17.96875 -1.421875 11.734375 6.484375 
Q 5.515625 14.40625 5.515625 27.296875 
Q 5.515625 40.1875 11.734375 48.09375 
Q 17.96875 56 27.875 56 
Q 33.9375 56 38.25 53.625 
Q 42.578125 51.265625 45.40625 46.390625 
z
M 14.796875 27.296875 
Q 14.796875 17.390625 18.875 11.75 
Q 22.953125 6.109375 30.078125 6.109375 
Q 37.203125 6.109375 41.296875 11.75 
Q 45.40625 17.390625 45.40625 27.296875 
Q 45.40625 37.203125 41.296875 42.84375 
Q 37.203125 48.484375 30.078125 48.484375 
Q 22.953125 48.484375 18.875 42.84375 
Q 14.796875 37.203125 14.796875 27.296875 
z
" id="DejaVuSans-100"/>
     </defs>
     <g transform="translate(598.846875 74.476562)scale(0.1 -0.1)">
      <use xlink:href="#DejaVuSans-118"/>
      <use x="59.179688" xlink:href="#DejaVuSans-97"/>
      <use x="120.458984" xlink:href="#DejaVuSans-108"/>
      <use x="148.242188" xlink:href="#DejaVuSans-105"/>
      <use x="176.025391" xlink:href="#DejaVuSans-100"/>
      <use x="239.501953" xlink:href="#DejaVuSans-97"/>
      <use x="300.78125" xlink:href="#DejaVuSans-116"/>
      <use x="339.990234" xlink:href="#DejaVuSans-101"/>
     </g>
    </g>
   </g>
  </g>
 </g>
 <defs>
  <clipPath id="pab29ae5f05">
   <rect height="271.8" width="558" x="90" y="43.2"/>
  </clipPath>
 </defs>
</svg>
