<?xml version="1.0" encoding="utf-8" standalone="no"?>
<!DOCTYPE svg PUBLIC "-//W3C//DTD SVG 1.1//EN"
  "http://www.w3.org/Graphics/SVG/1.1/DTD/svg11.dtd">
<!-- Created with matplotlib (https://matplotlib.org/) -->
<svg height="360pt" version="1.1" viewBox="0 0 720 360" width="720pt" xmlns="http://www.w3.org/2000/svg" xmlns:xlink="http://www.w3.org/1999/xlink">
 <defs>
  <style type="text/css">
*{stroke-linecap:butt;stroke-linejoin:round;}
  </style>
 </defs>
 <g id="figure_1">
  <g id="patch_1">
   <path d="M 0 360 
L 720 360 
L 720 0 
L 0 0 
z
" style="fill:#ffffff;"/>
  </g>
  <g id="axes_1">
   <g id="patch_2">
    <path d="M 90 315 
L 648 315 
L 648 43.2 
L 90 43.2 
z
" style="fill:#ffffff;"/>
   </g>
   <g id="matplotlib.axis_1">
    <g id="xtick_1">
     <g id="line2d_1">
      <path clip-path="url(#pac786d0eab)" d="M 115.363636 315 
L 115.363636 43.2 
" style="fill:none;stroke:#b0b0b0;stroke-linecap:square;stroke-width:0.8;"/>
     </g>
     <g id="line2d_2">
      <defs>
       <path d="M 0 0 
L 0 3.5 
" id="md6a3fc85f9" style="stroke:#000000;stroke-width:0.8;"/>
      </defs>
      <g>
       <use style="stroke:#000000;stroke-width:0.8;" x="115.363636" xlink:href="#md6a3fc85f9" y="315"/>
      </g>
     </g>
     <g id="text_1">
      <!-- 0 -->
      <defs>
       <path d="M 31.78125 66.40625 
Q 24.171875 66.40625 20.328125 58.90625 
Q 16.5 51.421875 16.5 36.375 
Q 16.5 21.390625 20.328125 13.890625 
Q 24.171875 6.390625 31.78125 6.390625 
Q 39.453125 6.390625 43.28125 13.890625 
Q 47.125 21.390625 47.125 36.375 
Q 47.125 51.421875 43.28125 58.90625 
Q 39.453125 66.40625 31.78125 66.40625 
z
M 31.78125 74.21875 
Q 44.046875 74.21875 50.515625 64.515625 
Q 56.984375 54.828125 56.984375 36.375 
Q 56.984375 17.96875 50.515625 8.265625 
Q 44.046875 -1.421875 31.78125 -1.421875 
Q 19.53125 -1.421875 13.0625 8.265625 
Q 6.59375 17.96875 6.59375 36.375 
Q 6.59375 54.828125 13.0625 64.515625 
Q 19.53125 74.21875 31.78125 74.21875 
z
" id="DejaVuSans-48"/>
      </defs>
      <g transform="translate(112.182386 329.598437)scale(0.1 -0.1)">
       <use xlink:href="#DejaVuSans-48"/>
      </g>
     </g>
    </g>
    <g id="xtick_2">
     <g id="line2d_3">
      <path clip-path="url(#pac786d0eab)" d="M 178.804448 315 
L 178.804448 43.2 
" style="fill:none;stroke:#b0b0b0;stroke-linecap:square;stroke-width:0.8;"/>
     </g>
     <g id="line2d_4">
      <g>
       <use style="stroke:#000000;stroke-width:0.8;" x="178.804448" xlink:href="#md6a3fc85f9" y="315"/>
      </g>
     </g>
     <g id="text_2">
      <!-- 250 -->
      <defs>
       <path d="M 19.1875 8.296875 
L 53.609375 8.296875 
L 53.609375 0 
L 7.328125 0 
L 7.328125 8.296875 
Q 12.9375 14.109375 22.625 23.890625 
Q 32.328125 33.6875 34.8125 36.53125 
Q 39.546875 41.84375 41.421875 45.53125 
Q 43.3125 49.21875 43.3125 52.78125 
Q 43.3125 58.59375 39.234375 62.25 
Q 35.15625 65.921875 28.609375 65.921875 
Q 23.96875 65.921875 18.8125 64.3125 
Q 13.671875 62.703125 7.8125 59.421875 
L 7.8125 69.390625 
Q 13.765625 71.78125 18.9375 73 
Q 24.125 74.21875 28.421875 74.21875 
Q 39.75 74.21875 46.484375 68.546875 
Q 53.21875 62.890625 53.21875 53.421875 
Q 53.21875 48.921875 51.53125 44.890625 
Q 49.859375 40.875 45.40625 35.40625 
Q 44.1875 33.984375 37.640625 27.21875 
Q 31.109375 20.453125 19.1875 8.296875 
z
" id="DejaVuSans-50"/>
       <path d="M 10.796875 72.90625 
L 49.515625 72.90625 
L 49.515625 64.59375 
L 19.828125 64.59375 
L 19.828125 46.734375 
Q 21.96875 47.46875 24.109375 47.828125 
Q 26.265625 48.1875 28.421875 48.1875 
Q 40.625 48.1875 47.75 41.5 
Q 54.890625 34.8125 54.890625 23.390625 
Q 54.890625 11.625 47.5625 5.09375 
Q 40.234375 -1.421875 26.90625 -1.421875 
Q 22.3125 -1.421875 17.546875 -0.640625 
Q 12.796875 0.140625 7.71875 1.703125 
L 7.71875 11.625 
Q 12.109375 9.234375 16.796875 8.0625 
Q 21.484375 6.890625 26.703125 6.890625 
Q 35.15625 6.890625 40.078125 11.328125 
Q 45.015625 15.765625 45.015625 23.390625 
Q 45.015625 31 40.078125 35.4375 
Q 35.15625 39.890625 26.703125 39.890625 
Q 22.75 39.890625 18.8125 39.015625 
Q 14.890625 38.140625 10.796875 36.28125 
z
" id="DejaVuSans-53"/>
      </defs>
      <g transform="translate(169.260698 329.598437)scale(0.1 -0.1)">
       <use xlink:href="#DejaVuSans-50"/>
       <use x="63.623047" xlink:href="#DejaVuSans-53"/>
       <use x="127.246094" xlink:href="#DejaVuSans-48"/>
      </g>
     </g>
    </g>
    <g id="xtick_3">
     <g id="line2d_5">
      <path clip-path="url(#pac786d0eab)" d="M 242.245259 315 
L 242.245259 43.2 
" style="fill:none;stroke:#b0b0b0;stroke-linecap:square;stroke-width:0.8;"/>
     </g>
     <g id="line2d_6">
      <g>
       <use style="stroke:#000000;stroke-width:0.8;" x="242.245259" xlink:href="#md6a3fc85f9" y="315"/>
      </g>
     </g>
     <g id="text_3">
      <!-- 500 -->
      <g transform="translate(232.701509 329.598437)scale(0.1 -0.1)">
       <use xlink:href="#DejaVuSans-53"/>
       <use x="63.623047" xlink:href="#DejaVuSans-48"/>
       <use x="127.246094" xlink:href="#DejaVuSans-48"/>
      </g>
     </g>
    </g>
    <g id="xtick_4">
     <g id="line2d_7">
      <path clip-path="url(#pac786d0eab)" d="M 305.68607 315 
L 305.68607 43.2 
" style="fill:none;stroke:#b0b0b0;stroke-linecap:square;stroke-width:0.8;"/>
     </g>
     <g id="line2d_8">
      <g>
       <use style="stroke:#000000;stroke-width:0.8;" x="305.68607" xlink:href="#md6a3fc85f9" y="315"/>
      </g>
     </g>
     <g id="text_4">
      <!-- 750 -->
      <defs>
       <path d="M 8.203125 72.90625 
L 55.078125 72.90625 
L 55.078125 68.703125 
L 28.609375 0 
L 18.3125 0 
L 43.21875 64.59375 
L 8.203125 64.59375 
z
" id="DejaVuSans-55"/>
      </defs>
      <g transform="translate(296.14232 329.598437)scale(0.1 -0.1)">
       <use xlink:href="#DejaVuSans-55"/>
       <use x="63.623047" xlink:href="#DejaVuSans-53"/>
       <use x="127.246094" xlink:href="#DejaVuSans-48"/>
      </g>
     </g>
    </g>
    <g id="xtick_5">
     <g id="line2d_9">
      <path clip-path="url(#pac786d0eab)" d="M 369.126882 315 
L 369.126882 43.2 
" style="fill:none;stroke:#b0b0b0;stroke-linecap:square;stroke-width:0.8;"/>
     </g>
     <g id="line2d_10">
      <g>
       <use style="stroke:#000000;stroke-width:0.8;" x="369.126882" xlink:href="#md6a3fc85f9" y="315"/>
      </g>
     </g>
     <g id="text_5">
      <!-- 1000 -->
      <defs>
       <path d="M 12.40625 8.296875 
L 28.515625 8.296875 
L 28.515625 63.921875 
L 10.984375 60.40625 
L 10.984375 69.390625 
L 28.421875 72.90625 
L 38.28125 72.90625 
L 38.28125 8.296875 
L 54.390625 8.296875 
L 54.390625 0 
L 12.40625 0 
z
" id="DejaVuSans-49"/>
      </defs>
      <g transform="translate(356.401882 329.598437)scale(0.1 -0.1)">
       <use xlink:href="#DejaVuSans-49"/>
       <use x="63.623047" xlink:href="#DejaVuSans-48"/>
       <use x="127.246094" xlink:href="#DejaVuSans-48"/>
       <use x="190.869141" xlink:href="#DejaVuSans-48"/>
      </g>
     </g>
    </g>
    <g id="xtick_6">
     <g id="line2d_11">
      <path clip-path="url(#pac786d0eab)" d="M 432.567693 315 
L 432.567693 43.2 
" style="fill:none;stroke:#b0b0b0;stroke-linecap:square;stroke-width:0.8;"/>
     </g>
     <g id="line2d_12">
      <g>
       <use style="stroke:#000000;stroke-width:0.8;" x="432.567693" xlink:href="#md6a3fc85f9" y="315"/>
      </g>
     </g>
     <g id="text_6">
      <!-- 1250 -->
      <g transform="translate(419.842693 329.598437)scale(0.1 -0.1)">
       <use xlink:href="#DejaVuSans-49"/>
       <use x="63.623047" xlink:href="#DejaVuSans-50"/>
       <use x="127.246094" xlink:href="#DejaVuSans-53"/>
       <use x="190.869141" xlink:href="#DejaVuSans-48"/>
      </g>
     </g>
    </g>
    <g id="xtick_7">
     <g id="line2d_13">
      <path clip-path="url(#pac786d0eab)" d="M 496.008504 315 
L 496.008504 43.2 
" style="fill:none;stroke:#b0b0b0;stroke-linecap:square;stroke-width:0.8;"/>
     </g>
     <g id="line2d_14">
      <g>
       <use style="stroke:#000000;stroke-width:0.8;" x="496.008504" xlink:href="#md6a3fc85f9" y="315"/>
      </g>
     </g>
     <g id="text_7">
      <!-- 1500 -->
      <g transform="translate(483.283504 329.598437)scale(0.1 -0.1)">
       <use xlink:href="#DejaVuSans-49"/>
       <use x="63.623047" xlink:href="#DejaVuSans-53"/>
       <use x="127.246094" xlink:href="#DejaVuSans-48"/>
       <use x="190.869141" xlink:href="#DejaVuSans-48"/>
      </g>
     </g>
    </g>
    <g id="xtick_8">
     <g id="line2d_15">
      <path clip-path="url(#pac786d0eab)" d="M 559.449316 315 
L 559.449316 43.2 
" style="fill:none;stroke:#b0b0b0;stroke-linecap:square;stroke-width:0.8;"/>
     </g>
     <g id="line2d_16">
      <g>
       <use style="stroke:#000000;stroke-width:0.8;" x="559.449316" xlink:href="#md6a3fc85f9" y="315"/>
      </g>
     </g>
     <g id="text_8">
      <!-- 1750 -->
      <g transform="translate(546.724316 329.598437)scale(0.1 -0.1)">
       <use xlink:href="#DejaVuSans-49"/>
       <use x="63.623047" xlink:href="#DejaVuSans-55"/>
       <use x="127.246094" xlink:href="#DejaVuSans-53"/>
       <use x="190.869141" xlink:href="#DejaVuSans-48"/>
      </g>
     </g>
    </g>
    <g id="xtick_9">
     <g id="line2d_17">
      <path clip-path="url(#pac786d0eab)" d="M 622.890127 315 
L 622.890127 43.2 
" style="fill:none;stroke:#b0b0b0;stroke-linecap:square;stroke-width:0.8;"/>
     </g>
     <g id="line2d_18">
      <g>
       <use style="stroke:#000000;stroke-width:0.8;" x="622.890127" xlink:href="#md6a3fc85f9" y="315"/>
      </g>
     </g>
     <g id="text_9">
      <!-- 2000 -->
      <g transform="translate(610.165127 329.598437)scale(0.1 -0.1)">
       <use xlink:href="#DejaVuSans-50"/>
       <use x="63.623047" xlink:href="#DejaVuSans-48"/>
       <use x="127.246094" xlink:href="#DejaVuSans-48"/>
       <use x="190.869141" xlink:href="#DejaVuSans-48"/>
      </g>
     </g>
    </g>
    <g id="text_10">
     <!-- epoch -->
     <defs>
      <path d="M 56.203125 29.59375 
L 56.203125 25.203125 
L 14.890625 25.203125 
Q 15.484375 15.921875 20.484375 11.0625 
Q 25.484375 6.203125 34.421875 6.203125 
Q 39.59375 6.203125 44.453125 7.46875 
Q 49.3125 8.734375 54.109375 11.28125 
L 54.109375 2.78125 
Q 49.265625 0.734375 44.1875 -0.34375 
Q 39.109375 -1.421875 33.890625 -1.421875 
Q 20.796875 -1.421875 13.15625 6.1875 
Q 5.515625 13.8125 5.515625 26.8125 
Q 5.515625 40.234375 12.765625 48.109375 
Q 20.015625 56 32.328125 56 
Q 43.359375 56 49.78125 48.890625 
Q 56.203125 41.796875 56.203125 29.59375 
z
M 47.21875 32.234375 
Q 47.125 39.59375 43.09375 43.984375 
Q 39.0625 48.390625 32.421875 48.390625 
Q 24.90625 48.390625 20.390625 44.140625 
Q 15.875 39.890625 15.1875 32.171875 
z
" id="DejaVuSans-101"/>
      <path d="M 18.109375 8.203125 
L 18.109375 -20.796875 
L 9.078125 -20.796875 
L 9.078125 54.6875 
L 18.109375 54.6875 
L 18.109375 46.390625 
Q 20.953125 51.265625 25.265625 53.625 
Q 29.59375 56 35.59375 56 
Q 45.5625 56 51.78125 48.09375 
Q 58.015625 40.1875 58.015625 27.296875 
Q 58.015625 14.40625 51.78125 6.484375 
Q 45.5625 -1.421875 35.59375 -1.421875 
Q 29.59375 -1.421875 25.265625 0.953125 
Q 20.953125 3.328125 18.109375 8.203125 
z
M 48.6875 27.296875 
Q 48.6875 37.203125 44.609375 42.84375 
Q 40.53125 48.484375 33.40625 48.484375 
Q 26.265625 48.484375 22.1875 42.84375 
Q 18.109375 37.203125 18.109375 27.296875 
Q 18.109375 17.390625 22.1875 11.75 
Q 26.265625 6.109375 33.40625 6.109375 
Q 40.53125 6.109375 44.609375 11.75 
Q 48.6875 17.390625 48.6875 27.296875 
z
" id="DejaVuSans-112"/>
      <path d="M 30.609375 48.390625 
Q 23.390625 48.390625 19.1875 42.75 
Q 14.984375 37.109375 14.984375 27.296875 
Q 14.984375 17.484375 19.15625 11.84375 
Q 23.34375 6.203125 30.609375 6.203125 
Q 37.796875 6.203125 41.984375 11.859375 
Q 46.1875 17.53125 46.1875 27.296875 
Q 46.1875 37.015625 41.984375 42.703125 
Q 37.796875 48.390625 30.609375 48.390625 
z
M 30.609375 56 
Q 42.328125 56 49.015625 48.375 
Q 55.71875 40.765625 55.71875 27.296875 
Q 55.71875 13.875 49.015625 6.21875 
Q 42.328125 -1.421875 30.609375 -1.421875 
Q 18.84375 -1.421875 12.171875 6.21875 
Q 5.515625 13.875 5.515625 27.296875 
Q 5.515625 40.765625 12.171875 48.375 
Q 18.84375 56 30.609375 56 
z
" id="DejaVuSans-111"/>
      <path d="M 48.78125 52.59375 
L 48.78125 44.1875 
Q 44.96875 46.296875 41.140625 47.34375 
Q 37.3125 48.390625 33.40625 48.390625 
Q 24.65625 48.390625 19.8125 42.84375 
Q 14.984375 37.3125 14.984375 27.296875 
Q 14.984375 17.28125 19.8125 11.734375 
Q 24.65625 6.203125 33.40625 6.203125 
Q 37.3125 6.203125 41.140625 7.25 
Q 44.96875 8.296875 48.78125 10.40625 
L 48.78125 2.09375 
Q 45.015625 0.34375 40.984375 -0.53125 
Q 36.96875 -1.421875 32.421875 -1.421875 
Q 20.0625 -1.421875 12.78125 6.34375 
Q 5.515625 14.109375 5.515625 27.296875 
Q 5.515625 40.671875 12.859375 48.328125 
Q 20.21875 56 33.015625 56 
Q 37.15625 56 41.109375 55.140625 
Q 45.0625 54.296875 48.78125 52.59375 
z
" id="DejaVuSans-99"/>
      <path d="M 54.890625 33.015625 
L 54.890625 0 
L 45.90625 0 
L 45.90625 32.71875 
Q 45.90625 40.484375 42.875 44.328125 
Q 39.84375 48.1875 33.796875 48.1875 
Q 26.515625 48.1875 22.3125 43.546875 
Q 18.109375 38.921875 18.109375 30.90625 
L 18.109375 0 
L 9.078125 0 
L 9.078125 75.984375 
L 18.109375 75.984375 
L 18.109375 46.1875 
Q 21.34375 51.125 25.703125 53.5625 
Q 30.078125 56 35.796875 56 
Q 45.21875 56 50.046875 50.171875 
Q 54.890625 44.34375 54.890625 33.015625 
z
" id="DejaVuSans-104"/>
     </defs>
     <g transform="translate(353.771875 343.276563)scale(0.1 -0.1)">
      <use xlink:href="#DejaVuSans-101"/>
      <use x="61.523438" xlink:href="#DejaVuSans-112"/>
      <use x="125" xlink:href="#DejaVuSans-111"/>
      <use x="186.181641" xlink:href="#DejaVuSans-99"/>
      <use x="241.162109" xlink:href="#DejaVuSans-104"/>
     </g>
    </g>
   </g>
   <g id="matplotlib.axis_2">
    <g id="ytick_1">
     <g id="line2d_19">
      <path clip-path="url(#pac786d0eab)" d="M 90 310.829059 
L 648 310.829059 
" style="fill:none;stroke:#b0b0b0;stroke-linecap:square;stroke-width:0.8;"/>
     </g>
     <g id="line2d_20">
      <defs>
       <path d="M 0 0 
L -3.5 0 
" id="m153fda00de" style="stroke:#000000;stroke-width:0.8;"/>
      </defs>
      <g>
       <use style="stroke:#000000;stroke-width:0.8;" x="90" xlink:href="#m153fda00de" y="310.829059"/>
      </g>
     </g>
     <g id="text_11">
      <!-- 0 -->
      <g transform="translate(76.6375 314.628278)scale(0.1 -0.1)">
       <use xlink:href="#DejaVuSans-48"/>
      </g>
     </g>
    </g>
    <g id="ytick_2">
     <g id="line2d_21">
      <path clip-path="url(#pac786d0eab)" d="M 90 278.320142 
L 648 278.320142 
" style="fill:none;stroke:#b0b0b0;stroke-linecap:square;stroke-width:0.8;"/>
     </g>
     <g id="line2d_22">
      <g>
       <use style="stroke:#000000;stroke-width:0.8;" x="90" xlink:href="#m153fda00de" y="278.320142"/>
      </g>
     </g>
     <g id="text_12">
      <!-- 5 -->
      <g transform="translate(76.6375 282.119361)scale(0.1 -0.1)">
       <use xlink:href="#DejaVuSans-53"/>
      </g>
     </g>
    </g>
    <g id="ytick_3">
     <g id="line2d_23">
      <path clip-path="url(#pac786d0eab)" d="M 90 245.811225 
L 648 245.811225 
" style="fill:none;stroke:#b0b0b0;stroke-linecap:square;stroke-width:0.8;"/>
     </g>
     <g id="line2d_24">
      <g>
       <use style="stroke:#000000;stroke-width:0.8;" x="90" xlink:href="#m153fda00de" y="245.811225"/>
      </g>
     </g>
     <g id="text_13">
      <!-- 10 -->
      <g transform="translate(70.275 249.610444)scale(0.1 -0.1)">
       <use xlink:href="#DejaVuSans-49"/>
       <use x="63.623047" xlink:href="#DejaVuSans-48"/>
      </g>
     </g>
    </g>
    <g id="ytick_4">
     <g id="line2d_25">
      <path clip-path="url(#pac786d0eab)" d="M 90 213.302309 
L 648 213.302309 
" style="fill:none;stroke:#b0b0b0;stroke-linecap:square;stroke-width:0.8;"/>
     </g>
     <g id="line2d_26">
      <g>
       <use style="stroke:#000000;stroke-width:0.8;" x="90" xlink:href="#m153fda00de" y="213.302309"/>
      </g>
     </g>
     <g id="text_14">
      <!-- 15 -->
      <g transform="translate(70.275 217.101527)scale(0.1 -0.1)">
       <use xlink:href="#DejaVuSans-49"/>
       <use x="63.623047" xlink:href="#DejaVuSans-53"/>
      </g>
     </g>
    </g>
    <g id="ytick_5">
     <g id="line2d_27">
      <path clip-path="url(#pac786d0eab)" d="M 90 180.793392 
L 648 180.793392 
" style="fill:none;stroke:#b0b0b0;stroke-linecap:square;stroke-width:0.8;"/>
     </g>
     <g id="line2d_28">
      <g>
       <use style="stroke:#000000;stroke-width:0.8;" x="90" xlink:href="#m153fda00de" y="180.793392"/>
      </g>
     </g>
     <g id="text_15">
      <!-- 20 -->
      <g transform="translate(70.275 184.59261)scale(0.1 -0.1)">
       <use xlink:href="#DejaVuSans-50"/>
       <use x="63.623047" xlink:href="#DejaVuSans-48"/>
      </g>
     </g>
    </g>
    <g id="ytick_6">
     <g id="line2d_29">
      <path clip-path="url(#pac786d0eab)" d="M 90 148.284475 
L 648 148.284475 
" style="fill:none;stroke:#b0b0b0;stroke-linecap:square;stroke-width:0.8;"/>
     </g>
     <g id="line2d_30">
      <g>
       <use style="stroke:#000000;stroke-width:0.8;" x="90" xlink:href="#m153fda00de" y="148.284475"/>
      </g>
     </g>
     <g id="text_16">
      <!-- 25 -->
      <g transform="translate(70.275 152.083694)scale(0.1 -0.1)">
       <use xlink:href="#DejaVuSans-50"/>
       <use x="63.623047" xlink:href="#DejaVuSans-53"/>
      </g>
     </g>
    </g>
    <g id="ytick_7">
     <g id="line2d_31">
      <path clip-path="url(#pac786d0eab)" d="M 90 115.775558 
L 648 115.775558 
" style="fill:none;stroke:#b0b0b0;stroke-linecap:square;stroke-width:0.8;"/>
     </g>
     <g id="line2d_32">
      <g>
       <use style="stroke:#000000;stroke-width:0.8;" x="90" xlink:href="#m153fda00de" y="115.775558"/>
      </g>
     </g>
     <g id="text_17">
      <!-- 30 -->
      <defs>
       <path d="M 40.578125 39.3125 
Q 47.65625 37.796875 51.625 33 
Q 55.609375 28.21875 55.609375 21.1875 
Q 55.609375 10.40625 48.1875 4.484375 
Q 40.765625 -1.421875 27.09375 -1.421875 
Q 22.515625 -1.421875 17.65625 -0.515625 
Q 12.796875 0.390625 7.625 2.203125 
L 7.625 11.71875 
Q 11.71875 9.328125 16.59375 8.109375 
Q 21.484375 6.890625 26.8125 6.890625 
Q 36.078125 6.890625 40.9375 10.546875 
Q 45.796875 14.203125 45.796875 21.1875 
Q 45.796875 27.640625 41.28125 31.265625 
Q 36.765625 34.90625 28.71875 34.90625 
L 20.21875 34.90625 
L 20.21875 43.015625 
L 29.109375 43.015625 
Q 36.375 43.015625 40.234375 45.921875 
Q 44.09375 48.828125 44.09375 54.296875 
Q 44.09375 59.90625 40.109375 62.90625 
Q 36.140625 65.921875 28.71875 65.921875 
Q 24.65625 65.921875 20.015625 65.03125 
Q 15.375 64.15625 9.8125 62.3125 
L 9.8125 71.09375 
Q 15.4375 72.65625 20.34375 73.4375 
Q 25.25 74.21875 29.59375 74.21875 
Q 40.828125 74.21875 47.359375 69.109375 
Q 53.90625 64.015625 53.90625 55.328125 
Q 53.90625 49.265625 50.4375 45.09375 
Q 46.96875 40.921875 40.578125 39.3125 
z
" id="DejaVuSans-51"/>
      </defs>
      <g transform="translate(70.275 119.574777)scale(0.1 -0.1)">
       <use xlink:href="#DejaVuSans-51"/>
       <use x="63.623047" xlink:href="#DejaVuSans-48"/>
      </g>
     </g>
    </g>
    <g id="ytick_8">
     <g id="line2d_33">
      <path clip-path="url(#pac786d0eab)" d="M 90 83.266641 
L 648 83.266641 
" style="fill:none;stroke:#b0b0b0;stroke-linecap:square;stroke-width:0.8;"/>
     </g>
     <g id="line2d_34">
      <g>
       <use style="stroke:#000000;stroke-width:0.8;" x="90" xlink:href="#m153fda00de" y="83.266641"/>
      </g>
     </g>
     <g id="text_18">
      <!-- 35 -->
      <g transform="translate(70.275 87.06586)scale(0.1 -0.1)">
       <use xlink:href="#DejaVuSans-51"/>
       <use x="63.623047" xlink:href="#DejaVuSans-53"/>
      </g>
     </g>
    </g>
    <g id="ytick_9">
     <g id="line2d_35">
      <path clip-path="url(#pac786d0eab)" d="M 90 50.757724 
L 648 50.757724 
" style="fill:none;stroke:#b0b0b0;stroke-linecap:square;stroke-width:0.8;"/>
     </g>
     <g id="line2d_36">
      <g>
       <use style="stroke:#000000;stroke-width:0.8;" x="90" xlink:href="#m153fda00de" y="50.757724"/>
      </g>
     </g>
     <g id="text_19">
      <!-- 40 -->
      <defs>
       <path d="M 37.796875 64.3125 
L 12.890625 25.390625 
L 37.796875 25.390625 
z
M 35.203125 72.90625 
L 47.609375 72.90625 
L 47.609375 25.390625 
L 58.015625 25.390625 
L 58.015625 17.1875 
L 47.609375 17.1875 
L 47.609375 0 
L 37.796875 0 
L 37.796875 17.1875 
L 4.890625 17.1875 
L 4.890625 26.703125 
z
" id="DejaVuSans-52"/>
      </defs>
      <g transform="translate(70.275 54.556943)scale(0.1 -0.1)">
       <use xlink:href="#DejaVuSans-52"/>
       <use x="63.623047" xlink:href="#DejaVuSans-48"/>
      </g>
     </g>
    </g>
    <g id="text_20">
     <!-- loss -->
     <defs>
      <path d="M 9.421875 75.984375 
L 18.40625 75.984375 
L 18.40625 0 
L 9.421875 0 
z
" id="DejaVuSans-108"/>
      <path d="M 44.28125 53.078125 
L 44.28125 44.578125 
Q 40.484375 46.53125 36.375 47.5 
Q 32.28125 48.484375 27.875 48.484375 
Q 21.1875 48.484375 17.84375 46.4375 
Q 14.5 44.390625 14.5 40.28125 
Q 14.5 37.15625 16.890625 35.375 
Q 19.28125 33.59375 26.515625 31.984375 
L 29.59375 31.296875 
Q 39.15625 29.25 43.1875 25.515625 
Q 47.21875 21.78125 47.21875 15.09375 
Q 47.21875 7.46875 41.1875 3.015625 
Q 35.15625 -1.421875 24.609375 -1.421875 
Q 20.21875 -1.421875 15.453125 -0.5625 
Q 10.6875 0.296875 5.421875 2 
L 5.421875 11.28125 
Q 10.40625 8.6875 15.234375 7.390625 
Q 20.0625 6.109375 24.8125 6.109375 
Q 31.15625 6.109375 34.5625 8.28125 
Q 37.984375 10.453125 37.984375 14.40625 
Q 37.984375 18.0625 35.515625 20.015625 
Q 33.0625 21.96875 24.703125 23.78125 
L 21.578125 24.515625 
Q 13.234375 26.265625 9.515625 29.90625 
Q 5.8125 33.546875 5.8125 39.890625 
Q 5.8125 47.609375 11.28125 51.796875 
Q 16.75 56 26.8125 56 
Q 31.78125 56 36.171875 55.265625 
Q 40.578125 54.546875 44.28125 53.078125 
z
" id="DejaVuSans-115"/>
     </defs>
     <g transform="translate(64.195312 188.757812)rotate(-90)scale(0.1 -0.1)">
      <use xlink:href="#DejaVuSans-108"/>
      <use x="27.783203" xlink:href="#DejaVuSans-111"/>
      <use x="88.964844" xlink:href="#DejaVuSans-115"/>
      <use x="141.064453" xlink:href="#DejaVuSans-115"/>
     </g>
    </g>
   </g>
   <g id="line2d_37">
    <path clip-path="url(#pac786d0eab)" d="M 115.363636 55.554545 
L 116.124926 111.463132 
L 116.632453 136.359586 
L 117.393742 158.872908 
L 118.408795 178.406154 
L 119.677612 197.95538 
L 120.692665 210.14995 
L 121.707717 220.615996 
L 122.72277 228.945963 
L 123.991587 237.441302 
L 125.767929 246.792009 
L 127.290509 253.319531 
L 128.559325 257.911606 
L 129.828141 261.840032 
L 131.096958 265.244928 
L 132.619537 268.662882 
L 134.142117 271.547276 
L 136.679749 275.361417 
L 137.694802 276.608549 
L 139.724908 278.830331 
L 143.531357 282.103331 
L 146.068989 283.912571 
L 147.591569 284.73943 
L 148.352858 285.219612 
L 151.905544 286.941186 
L 152.41307 287.087376 
L 153.17436 287.408397 
L 155.965756 288.451645 
L 156.727045 288.646951 
L 156.980809 288.812911 
L 157.742098 288.960038 
L 159.010915 289.381847 
L 160.025968 289.60941 
L 163.071126 290.401749 
L 163.578653 290.467976 
L 163.832416 290.604707 
L 164.086179 290.589567 
L 164.593706 290.737352 
L 165.862522 290.965186 
L 166.877575 291.215187 
L 167.892628 291.303083 
L 168.400155 291.463231 
L 168.653918 291.443231 
L 169.161444 291.652655 
L 169.415208 291.616999 
L 170.176497 291.811157 
L 170.937787 291.885573 
L 171.699077 292.070331 
L 172.460367 292.149524 
L 177.281868 292.855207 
L 177.535631 292.803519 
L 178.043158 292.909649 
L 178.804448 293.026895 
L 179.565737 293.135583 
L 179.819501 293.209493 
L 180.073264 293.153071 
L 181.088317 293.31409 
L 181.595843 293.389089 
L 183.118423 293.571398 
L 184.387239 293.631424 
L 185.148529 293.729312 
L 185.402292 293.684844 
L 185.909819 293.809911 
L 186.163582 293.807212 
L 186.417345 293.923992 
L 186.924872 293.919974 
L 189.716267 294.149328 
L 189.97003 294.260452 
L 191.238847 294.276377 
L 191.49261 294.375224 
L 191.746373 294.322025 
L 192.2539 294.396469 
L 192.507663 294.364557 
L 193.015189 294.448225 
L 194.030242 294.535195 
L 194.791532 294.597167 
L 196.314112 294.677637 
L 196.567875 294.780318 
L 196.821638 294.681188 
L 197.075401 294.82184 
L 197.836691 294.755704 
L 198.344218 294.846564 
L 198.851744 294.86521 
L 200.628087 295.034197 
L 200.88185 294.950593 
L 201.896903 295.128395 
L 202.658193 295.100813 
L 204.180772 295.269102 
L 204.434535 295.213982 
L 204.942062 295.240108 
L 206.972168 295.371991 
L 207.225931 295.342996 
L 207.733458 295.449326 
L 208.494747 295.467106 
L 209.256037 295.578557 
L 209.763564 295.523448 
L 210.27109 295.576127 
L 211.79367 295.649352 
L 212.301196 295.688516 
L 212.808723 295.666864 
L 213.570012 295.735978 
L 214.077539 295.748342 
L 214.585065 295.828743 
L 215.346355 295.844809 
L 216.107645 295.890055 
L 216.868934 295.94707 
L 217.376461 295.879754 
L 218.137751 295.932663 
L 228.542044 296.411758 
L 229.81086 296.45284 
L 264.068898 297.573795 
L 264.830188 297.579182 
L 266.606531 297.733123 
L 267.36782 297.684055 
L 268.8904 297.825043 
L 269.144163 297.717809 
L 270.159216 297.752418 
L 286.1463 298.209891 
L 286.400064 298.124902 
L 287.922643 298.211835 
L 288.683933 298.17795 
L 289.445223 298.234091 
L 289.952749 298.221984 
L 290.460276 298.28733 
L 290.967802 298.238485 
L 291.729092 298.310252 
L 292.490382 298.265602 
L 293.759198 298.316257 
L 322.941971 298.858618 
L 323.195734 298.814928 
L 323.703261 298.857336 
L 326.74842 298.917067 
L 327.255946 298.90353 
L 328.524762 298.925917 
L 329.793579 298.994134 
L 330.301105 298.985603 
L 331.569921 299.001554 
L 334.361317 299.097066 
L 334.61508 299.003945 
L 335.122607 299.049573 
L 339.182819 299.15968 
L 339.436582 299.114924 
L 339.944108 299.157262 
L 340.197872 299.089456 
L 340.705398 299.174956 
L 341.466688 299.192246 
L 342.227978 299.175096 
L 342.989267 299.230035 
L 344.00432 299.217096 
L 345.019373 299.261248 
L 345.5269 299.184708 
L 346.034426 299.273224 
L 346.795716 299.223284 
L 351.617218 299.334326 
L 354.662377 299.381337 
L 354.91614 299.32224 
L 355.169903 299.436924 
L 356.692483 299.344297 
L 357.200009 299.429749 
L 358.976352 299.412737 
L 362.021511 299.50209 
L 363.036564 299.44433 
L 363.54409 299.541731 
L 364.812906 299.550363 
L 365.320433 299.570287 
L 365.574196 299.528037 
L 365.827959 299.599897 
L 366.589249 299.532729 
L 367.604302 299.576038 
L 368.111829 299.563433 
L 368.365592 299.672938 
L 368.619355 299.60038 
L 368.873118 299.659863 
L 369.380645 299.593696 
L 371.664514 299.633016 
L 371.918277 299.719157 
L 372.172041 299.636142 
L 372.679567 299.69727 
L 373.69462 299.673768 
L 385.113966 299.815355 
L 385.621493 299.877781 
L 386.129019 299.847746 
L 386.636546 299.884158 
L 387.144072 299.851766 
L 388.920415 299.900065 
L 389.427941 299.908652 
L 390.189231 299.932534 
L 390.950521 299.904809 
L 392.4731 299.96861 
L 400.085998 300.099951 
L 400.339761 300.005698 
L 400.847287 300.115118 
L 401.354814 300.0569 
L 403.38492 300.159574 
L 403.892446 300.069989 
L 405.415026 300.137076 
L 406.430079 300.110756 
L 409.221474 300.211669 
L 409.729001 300.171408 
L 410.744054 300.277088 
L 410.997817 300.155614 
L 411.505344 300.238358 
L 415.819319 300.239111 
L 416.326845 300.308013 
L 417.341898 300.252616 
L 418.864478 300.400388 
L 419.879531 300.358474 
L 421.655873 300.39025 
L 421.909637 300.337753 
L 422.417163 300.398892 
L 423.685979 300.407731 
L 424.193506 300.364924 
L 431.55264 300.514404 
L 431.806403 300.612225 
L 432.31393 300.513204 
L 433.836509 300.562167 
L 434.090272 300.519903 
L 434.597799 300.574684 
L 435.866615 300.563688 
L 436.627905 300.626668 
L 437.642958 300.504853 
L 437.896721 300.630461 
L 438.150484 300.568762 
L 438.658011 300.650242 
L 439.926827 300.607508 
L 440.18059 300.690352 
L 440.688117 300.663169 
L 441.195643 300.674067 
L 543.715994 301.997752 
L 543.969758 301.875119 
L 544.477284 302.02458 
L 544.731047 301.941579 
L 545.238574 302.052714 
L 545.7461 302.038863 
L 547.776206 302.022294 
L 548.537496 302.05091 
L 555.642867 302.104586 
L 556.404157 302.117475 
L 556.65792 302.053586 
L 557.165446 302.14201 
L 557.672973 302.091484 
L 557.926736 301.97655 
L 558.941789 302.083204 
L 561.479422 302.1303 
L 561.733185 302.081912 
L 562.240711 302.151228 
L 563.255764 302.172727 
L 564.270817 302.092906 
L 564.52458 302.235596 
L 565.28587 302.223349 
L 568.077266 302.193792 
L 568.584792 302.200856 
L 569.346082 302.239907 
L 569.599845 302.155835 
L 570.361135 302.226317 
L 570.614898 302.177895 
L 570.868662 302.337348 
L 571.122425 302.221919 
L 571.883715 302.222308 
L 573.913821 302.304326 
L 574.167584 302.217947 
L 574.928874 302.323309 
L 577.974032 302.252147 
L 578.481559 302.273296 
L 578.735322 302.207826 
L 579.242849 302.297211 
L 579.750375 302.278076 
L 580.257902 302.180708 
L 581.526718 302.310173 
L 582.034244 302.286778 
L 586.094456 302.400485 
L 586.34822 302.284959 
L 587.109509 302.439515 
L 587.363273 302.346546 
L 587.870799 302.36829 
L 588.632089 302.323414 
L 589.393379 302.367851 
L 590.154668 302.253552 
L 590.408431 302.360818 
L 590.662195 302.336629 
L 590.915958 302.445064 
L 591.423484 302.358856 
L 592.692301 302.407726 
L 592.946064 302.353281 
L 593.45359 302.423893 
L 593.961117 302.46911 
L 594.468643 302.409224 
L 596.498749 302.435054 
L 597.006276 302.42356 
L 603.857883 302.484218 
L 604.111647 302.581382 
L 604.619173 302.50383 
L 605.1267 302.506671 
L 605.380463 302.450317 
L 605.887989 302.52789 
L 610.709491 302.557845 
L 611.470781 302.572741 
L 615.27723 302.573003 
L 618.576152 302.569575 
L 619.844968 302.607146 
L 620.098731 302.527841 
L 620.860021 302.618928 
L 622.636364 302.645455 
L 622.636364 302.645455 
" style="fill:none;stroke:#1f77b4;stroke-linecap:square;stroke-width:0.5;"/>
   </g>
   <g id="line2d_38">
    <path clip-path="url(#pac786d0eab)" d="M 115.363636 70.351594 
L 116.124926 121.975348 
L 116.632453 142.495387 
L 117.393742 162.471051 
L 118.662559 185.25403 
L 119.931375 203.228679 
L 121.200191 217.274415 
L 122.215244 226.206759 
L 123.230297 233.448086 
L 124.752876 242.35835 
L 126.782982 251.644443 
L 128.305562 257.239676 
L 129.574378 261.242838 
L 131.350721 265.896733 
L 132.8733 269.228496 
L 133.380827 270.181662 
L 135.918459 274.243789 
L 136.425986 274.764721 
L 136.933512 275.532202 
L 141.501251 280.209293 
L 143.277593 281.684483 
L 144.292646 282.394223 
L 146.322752 283.77616 
L 150.636727 286.05862 
L 150.890491 286.106573 
L 151.398017 286.462798 
L 151.65178 286.476638 
L 151.905544 286.659828 
L 152.159307 286.688833 
L 152.666833 286.946421 
L 153.17436 287.11191 
L 154.443176 287.662401 
L 154.950703 287.718311 
L 156.219519 288.219971 
L 156.727045 288.348591 
L 156.980809 288.382877 
L 157.742098 288.710412 
L 160.025968 289.30906 
L 161.041021 289.542492 
L 163.32489 290.092116 
L 163.832416 290.202298 
L 164.593706 290.411722 
L 165.354996 290.600327 
L 165.862522 290.689378 
L 166.116285 290.644052 
L 166.623812 290.816878 
L 167.131338 290.867985 
L 167.638865 291.003453 
L 169.415208 291.265078 
L 169.668971 291.395834 
L 170.684024 291.498155 
L 171.699077 291.740467 
L 172.206603 291.75032 
L 172.71413 291.87997 
L 172.967893 291.865474 
L 173.47542 292.015336 
L 175.759289 292.331116 
L 176.013052 292.445708 
L 176.266815 292.386649 
L 176.520578 292.453609 
L 176.774342 292.398966 
L 177.535631 292.564607 
L 177.789395 292.545026 
L 178.296921 292.663024 
L 179.311974 292.763657 
L 180.327027 292.915717 
L 180.58079 292.855118 
L 181.595843 293.055292 
L 183.372186 293.210313 
L 183.625949 293.301841 
L 184.133476 293.298516 
L 186.924872 293.582923 
L 187.432398 293.580384 
L 194.537769 294.193142 
L 194.791532 294.136278 
L 195.552822 294.366193 
L 197.329165 294.436638 
L 197.582928 294.470939 
L 197.836691 294.386258 
L 198.090454 294.496011 
L 198.597981 294.506014 
L 198.851744 294.586952 
L 199.613034 294.544698 
L 200.628087 294.676501 
L 201.64314 294.666848 
L 202.150666 294.713305 
L 202.658193 294.787997 
L 203.165719 294.819012 
L 203.673246 294.867175 
L 205.703352 294.897998 
L 205.957115 294.973579 
L 206.210878 294.916333 
L 206.464641 295.059244 
L 206.718405 294.945749 
L 207.225931 295.040906 
L 207.733458 295.094752 
L 209.002274 295.139305 
L 209.256037 295.189788 
L 209.5098 295.115405 
L 210.524853 295.223258 
L 211.539906 295.236913 
L 211.79367 295.351311 
L 212.301196 295.350883 
L 213.316249 295.418877 
L 213.570012 295.305817 
L 213.823776 295.435654 
L 214.331302 295.493152 
L 217.122698 295.533995 
L 217.376461 295.658503 
L 217.883987 295.553747 
L 219.152804 295.670157 
L 219.406567 295.582546 
L 219.914093 295.731861 
L 220.167857 295.684175 
L 220.675383 295.746055 
L 221.690436 295.78042 
L 222.197963 295.836593 
L 222.451726 295.745919 
L 222.705489 295.868385 
L 223.466779 295.803263 
L 223.720542 295.893536 
L 224.228069 295.872578 
L 226.004411 295.894007 
L 226.258175 295.865082 
L 226.765701 295.991741 
L 227.273228 296.00167 
L 227.526991 296.099561 
L 227.780754 295.985929 
L 229.04957 296.132921 
L 229.303333 296.030533 
L 229.81086 296.076774 
L 230.825913 296.155019 
L 233.109782 296.237475 
L 233.363545 296.296213 
L 233.871072 296.251211 
L 234.632362 296.410084 
L 234.886125 296.276814 
L 235.139888 296.390716 
L 235.393651 296.266394 
L 235.647415 296.338971 
L 236.154941 296.317606 
L 238.692574 296.487287 
L 238.946337 296.382021 
L 239.96139 296.504791 
L 240.72268 296.45456 
L 240.976443 296.557639 
L 241.483969 296.532685 
L 242.752785 296.606664 
L 243.006549 296.616867 
L 243.260312 296.5106 
L 243.767838 296.616143 
L 245.036655 296.663466 
L 246.812997 296.707592 
L 247.066761 296.777157 
L 247.574287 296.716301 
L 247.82805 296.814104 
L 248.335577 296.781144 
L 249.604393 296.800427 
L 249.858156 296.694447 
L 250.365683 296.798693 
L 250.873209 296.813258 
L 252.142026 296.923267 
L 252.395789 296.867705 
L 252.903315 296.976846 
L 253.664605 296.939734 
L 253.918368 297.021408 
L 254.172132 296.93334 
L 255.440948 297.032966 
L 255.694711 296.947211 
L 256.202237 297.062907 
L 256.456001 296.9803 
L 256.963527 297.074062 
L 258.73987 297.120202 
L 258.993633 297.052242 
L 259.754923 297.11535 
L 260.008686 297.079213 
L 260.516213 297.199288 
L 261.277502 297.117814 
L 262.292555 297.196645 
L 262.546319 297.118271 
L 263.053845 297.257113 
L 263.561372 297.201858 
L 265.591478 297.32154 
L 266.099004 297.268413 
L 266.352767 297.219517 
L 266.606531 297.310492 
L 266.860294 297.263434 
L 267.36782 297.356423 
L 267.875347 297.349174 
L 268.8904 297.433504 
L 269.905453 297.398849 
L 270.412979 297.449525 
L 270.920506 297.367829 
L 271.428032 297.466339 
L 272.189322 297.433127 
L 272.696848 297.488303 
L 273.204375 297.510659 
L 274.219428 297.490904 
L 275.234481 297.513862 
L 275.995771 297.630599 
L 276.75706 297.601523 
L 277.772113 297.672995 
L 278.533403 297.596238 
L 279.04093 297.642377 
L 279.294693 297.614448 
L 279.548456 297.736666 
L 280.309746 297.69205 
L 280.817272 297.675452 
L 281.578562 297.664823 
L 282.339852 297.748055 
L 282.847378 297.73552 
L 283.608668 297.767753 
L 320.150575 298.431578 
L 320.404339 298.385152 
L 320.911865 298.523903 
L 321.419392 298.497075 
L 321.673155 298.584753 
L 322.180681 298.433332 
L 322.434444 298.556522 
L 322.688208 298.438053 
L 322.941971 298.571493 
L 323.703261 298.477501 
L 323.957024 298.604297 
L 324.46455 298.558805 
L 324.718314 298.654291 
L 324.972077 298.502471 
L 328.270999 298.67173 
L 328.524762 298.590413 
L 328.778526 298.714701 
L 329.032289 298.60581 
L 329.286052 298.72234 
L 329.793579 298.653165 
L 330.808632 298.644698 
L 331.062395 298.774918 
L 331.316158 298.633738 
L 331.569921 298.769335 
L 332.331211 298.677371 
L 332.838738 298.712808 
L 334.107554 298.665316 
L 334.361317 298.776295 
L 335.37637 298.69164 
L 335.883896 298.748976 
L 336.645186 298.738139 
L 337.152713 298.775959 
L 339.436582 298.769689 
L 339.690345 298.860755 
L 340.197872 298.751049 
L 341.212925 298.952486 
L 341.720451 298.810221 
L 342.735504 298.894536 
L 342.989267 298.690084 
L 343.243031 298.89433 
L 344.00432 298.860953 
L 344.511847 298.934109 
L 344.76561 298.863334 
L 345.019373 298.948322 
L 345.5269 298.873271 
L 345.780663 298.997365 
L 348.064532 298.913521 
L 348.572059 299.007808 
L 349.333348 298.898286 
L 349.587112 299.000825 
L 350.602165 298.985178 
L 355.423666 299.132719 
L 355.67743 299.041607 
L 355.931193 299.166769 
L 356.184956 299.096075 
L 356.692483 299.174312 
L 356.946246 299.00954 
L 357.200009 299.028337 
L 357.453772 299.197292 
L 358.468825 299.052458 
L 358.976352 299.118697 
L 359.230115 299.072882 
L 359.483878 299.18059 
L 360.498931 299.179153 
L 361.006458 299.157609 
L 361.767748 299.155908 
L 362.021511 299.250608 
L 363.036564 299.217025 
L 364.812906 299.198855 
L 365.574196 299.346078 
L 365.827959 299.190707 
L 366.335486 299.292425 
L 366.589249 299.166448 
L 367.096776 299.201076 
L 368.111829 299.292106 
L 368.619355 299.265112 
L 370.903224 299.328944 
L 371.664514 299.291474 
L 371.918277 299.394472 
L 372.425804 299.292305 
L 372.93333 299.381891 
L 373.948383 299.301616 
L 374.202147 299.429842 
L 375.724726 299.287388 
L 375.978489 299.490548 
L 376.232252 299.35262 
L 376.739779 299.482099 
L 377.247305 299.369493 
L 380.038701 299.462346 
L 380.292464 299.376337 
L 380.546228 299.45884 
L 380.799991 299.415855 
L 381.561281 299.592393 
L 381.815044 299.440151 
L 382.576334 299.496159 
L 382.830097 299.573425 
L 383.337623 299.455904 
L 383.591387 299.561085 
L 384.352676 299.529521 
L 385.113966 299.52334 
L 385.367729 299.594469 
L 385.621493 299.513532 
L 386.382782 299.542147 
L 389.174178 299.556498 
L 389.427941 299.66688 
L 390.189231 299.568758 
L 391.71181 299.614828 
L 395.264496 299.662139 
L 396.025786 299.752284 
L 396.787075 299.667004 
L 397.548365 299.7494 
L 398.817181 299.71018 
L 401.354814 299.71363 
L 401.608577 299.856366 
L 402.369867 299.724413 
L 403.131156 299.836126 
L 403.892446 299.788585 
L 405.161262 299.749748 
L 405.668789 299.852312 
L 406.430079 299.761399 
L 407.698895 299.818124 
L 408.206421 299.872901 
L 410.997817 299.879586 
L 412.520397 299.926932 
L 413.027923 299.885478 
L 420.64082 300.063982 
L 421.148347 300.022979 
L 421.655873 300.006678 
L 422.1634 300.159587 
L 422.417163 300.002304 
L 422.670926 300.090581 
L 422.92469 299.991517 
L 423.178453 300.111429 
L 426.223612 300.109456 
L 426.477375 300.183306 
L 426.984902 300.079106 
L 427.746191 300.154844 
L 428.761244 300.131753 
L 430.03006 300.155943 
L 430.283824 300.267038 
L 432.060166 300.218156 
L 432.821456 300.246347 
L 441.195643 300.38338 
L 441.956933 300.402221 
L 443.225749 300.259057 
L 444.240802 300.427653 
L 444.494565 300.285272 
L 445.002092 300.462832 
L 446.017145 300.362535 
L 446.778435 300.4995 
L 447.032198 300.360512 
L 451.346173 300.465901 
L 451.599936 300.365636 
L 451.8537 300.553381 
L 452.107463 300.445067 
L 453.630042 300.508633 
L 453.883806 300.468343 
L 454.137569 300.568405 
L 454.645095 300.536264 
L 455.660148 300.545675 
L 456.167675 300.493813 
L 456.675201 300.592228 
L 457.182728 300.524023 
L 459.72036 300.629963 
L 459.974123 300.495812 
L 460.48165 300.676522 
L 470.63218 300.70388 
L 471.139706 300.788396 
L 472.154759 300.803762 
L 472.408522 300.709767 
L 473.677339 300.857796 
L 474.438628 300.694727 
L 474.692392 300.683228 
L 474.946155 300.844573 
L 475.199918 300.69933 
L 475.961208 300.871146 
L 476.214971 300.799741 
L 476.722498 300.854349 
L 476.976261 300.785271 
L 477.483787 300.847603 
L 477.991314 300.93026 
L 478.245077 300.811483 
L 478.49884 300.950104 
L 480.02142 300.820937 
L 480.528946 300.957167 
L 480.78271 300.890308 
L 481.543999 300.95926 
L 482.051526 300.949534 
L 482.559052 300.768971 
L 482.812815 300.989811 
L 483.320342 300.863314 
L 483.574105 300.938332 
L 483.827868 300.882341 
L 484.589158 301.022087 
L 484.842921 300.926258 
L 485.096685 301.02709 
L 485.350448 300.934225 
L 485.604211 301.009457 
L 485.857974 300.94804 
L 486.619264 301.027378 
L 486.873027 301.079946 
L 487.380554 300.882551 
L 487.634317 301.028316 
L 487.88808 300.93452 
L 488.64937 301.153401 
L 488.903133 300.969856 
L 490.425713 301.15113 
L 490.679476 300.930535 
L 491.187003 301.095432 
L 491.440766 300.978545 
L 492.709582 301.11226 
L 492.963345 301.030158 
L 493.724635 301.126795 
L 494.232162 301.047289 
L 494.485925 301.106637 
L 494.739688 301.006428 
L 494.993451 301.198482 
L 495.754741 300.986248 
L 496.262267 301.126865 
L 497.784847 301.162205 
L 498.03861 301.052175 
L 499.053663 301.202346 
L 499.56119 301.093291 
L 499.814953 301.235814 
L 500.576243 301.043531 
L 500.830006 301.209932 
L 501.083769 301.097059 
L 501.591296 301.214722 
L 502.606349 301.237468 
L 503.113875 301.236313 
L 504.636455 301.19443 
L 505.143981 301.224816 
L 505.397744 301.22297 
L 505.651508 301.341429 
L 506.159034 301.165805 
L 508.696667 301.314538 
L 508.95043 301.161184 
L 509.457956 301.27826 
L 509.965483 301.294475 
L 510.473009 301.356607 
L 511.995589 301.243066 
L 512.249352 301.357756 
L 514.533221 301.316223 
L 514.786984 301.403342 
L 515.548274 301.308679 
L 515.802037 301.402585 
L 516.055801 301.302281 
L 516.81709 301.371395 
L 517.070854 301.268412 
L 517.324617 301.46246 
L 517.57838 301.373893 
L 518.085907 301.447611 
L 518.847196 301.358467 
L 519.608486 301.495454 
L 520.116013 301.391497 
L 520.369776 301.401622 
L 520.623539 301.298969 
L 520.877302 301.448786 
L 521.638592 301.400589 
L 522.146119 301.387876 
L 522.399882 301.376995 
L 522.653645 301.513536 
L 523.161171 301.437104 
L 532.296648 301.546247 
L 532.550412 301.399641 
L 533.057938 301.570233 
L 535.341807 301.57349 
L 535.595571 301.645223 
L 535.849334 301.580272 
L 536.103097 301.689523 
L 536.864387 301.539 
L 542.447178 301.691763 
L 542.954705 301.553017 
L 544.223521 301.76788 
L 544.731047 301.65135 
L 544.984811 301.748172 
L 545.238574 301.589626 
L 545.999864 301.719664 
L 546.253627 301.579533 
L 546.50739 301.72739 
L 547.776206 301.71113 
L 549.045023 301.71872 
L 549.806312 301.708978 
L 550.567602 301.764588 
L 551.328892 301.726725 
L 551.836418 301.712251 
L 552.343945 301.82813 
L 552.597708 301.741711 
L 553.358998 301.778683 
L 553.612761 301.708366 
L 554.120287 301.846972 
L 554.374051 301.760029 
L 554.627814 301.819557 
L 554.881577 301.679011 
L 555.89663 301.771211 
L 556.911683 301.820498 
L 557.165446 301.838663 
L 557.672973 301.621255 
L 557.926736 301.801714 
L 558.180499 301.665191 
L 558.434263 301.816996 
L 558.688026 301.720982 
L 558.941789 301.880421 
L 559.449316 301.781642 
L 559.703079 301.741702 
L 559.956842 301.866576 
L 560.464369 301.818227 
L 562.748238 301.894949 
L 563.255764 301.811545 
L 564.017054 301.812768 
L 564.270817 301.961713 
L 565.032107 301.774481 
L 565.28587 301.928809 
L 565.539633 301.793201 
L 566.04716 301.950367 
L 566.554686 301.884314 
L 567.823503 301.881652 
L 569.599845 301.954325 
L 570.361135 301.848524 
L 570.614898 301.948769 
L 571.376188 301.879417 
L 571.629951 301.941355 
L 571.883715 301.869219 
L 572.137478 301.973329 
L 572.898768 301.913619 
L 575.4364 301.929822 
L 575.943927 301.809553 
L 576.451453 302.043776 
L 576.958979 301.949127 
L 577.466506 301.950647 
L 577.720269 301.857513 
L 578.227796 302.012872 
L 580.257902 301.810572 
L 580.765428 301.992402 
L 581.019191 301.887046 
L 581.272955 302.036393 
L 581.526718 301.917375 
L 581.780481 302.055291 
L 582.288008 301.949863 
L 582.541771 302.068428 
L 584.06435 302.05236 
L 584.318114 302.145587 
L 584.571877 302.046016 
L 584.82564 302.135526 
L 585.079403 301.968994 
L 585.840693 302.035518 
L 586.094456 301.976806 
L 586.855746 302.096698 
L 587.617036 302.058394 
L 588.124562 301.859329 
L 588.378326 302.050931 
L 588.632089 301.994549 
L 589.139615 302.014871 
L 589.900905 301.913137 
L 590.154668 302.107347 
L 590.408431 301.968487 
L 590.662195 302.130941 
L 590.915958 301.981544 
L 591.423484 302.142505 
L 591.677248 301.997055 
L 592.184774 302.119862 
L 592.438537 302.016219 
L 592.946064 302.120302 
L 593.45359 302.129513 
L 594.468643 302.102764 
L 594.97617 302.107943 
L 595.483696 302.088288 
L 599.290145 302.216502 
L 599.543908 302.027485 
L 599.797672 302.151041 
L 600.051435 302.08193 
L 600.305198 302.229658 
L 600.558961 302.033749 
L 600.812725 302.201006 
L 601.320251 302.113108 
L 602.081541 302.179105 
L 603.60412 302.117099 
L 604.111647 302.238057 
L 606.141753 302.114387 
L 606.395516 302.24441 
L 606.903042 302.148647 
L 610.201965 302.244341 
L 610.455728 302.170992 
L 611.217018 302.248142 
L 611.724544 302.261001 
L 611.978307 302.322389 
L 612.485834 302.157254 
L 612.739597 302.310728 
L 612.99336 302.166767 
L 613.247124 302.299585 
L 613.500887 302.172674 
L 613.75465 302.303569 
L 614.51594 302.241278 
L 614.769703 302.32326 
L 615.530993 302.227691 
L 616.292283 302.249347 
L 619.591205 302.304812 
L 619.844968 302.381191 
L 620.352494 302.29805 
L 620.606258 302.343241 
L 621.113784 302.263768 
L 622.636364 302.324844 
L 622.636364 302.324844 
" style="fill:none;stroke:#ff7f0e;stroke-linecap:square;stroke-width:0.5;"/>
   </g>
   <g id="patch_3">
    <path d="M 90 315 
L 90 43.2 
" style="fill:none;stroke:#000000;stroke-linecap:square;stroke-linejoin:miter;stroke-width:0.8;"/>
   </g>
   <g id="patch_4">
    <path d="M 648 315 
L 648 43.2 
" style="fill:none;stroke:#000000;stroke-linecap:square;stroke-linejoin:miter;stroke-width:0.8;"/>
   </g>
   <g id="patch_5">
    <path d="M 90 315 
L 648 315 
" style="fill:none;stroke:#000000;stroke-linecap:square;stroke-linejoin:miter;stroke-width:0.8;"/>
   </g>
   <g id="patch_6">
    <path d="M 90 43.2 
L 648 43.2 
" style="fill:none;stroke:#000000;stroke-linecap:square;stroke-linejoin:miter;stroke-width:0.8;"/>
   </g>
   <g id="text_21">
    <!-- loss -->
    <g transform="translate(357.410625 37.2)scale(0.12 -0.12)">
     <use xlink:href="#DejaVuSans-108"/>
     <use x="27.783203" xlink:href="#DejaVuSans-111"/>
     <use x="88.964844" xlink:href="#DejaVuSans-115"/>
     <use x="141.064453" xlink:href="#DejaVuSans-115"/>
    </g>
   </g>
   <g id="legend_1">
    <g id="patch_7">
     <path d="M 568.846875 80.55625 
L 641 80.55625 
Q 643 80.55625 643 78.55625 
L 643 50.2 
Q 643 48.2 641 48.2 
L 568.846875 48.2 
Q 566.846875 48.2 566.846875 50.2 
L 566.846875 78.55625 
Q 566.846875 80.55625 568.846875 80.55625 
z
" style="fill:#ffffff;opacity:0.8;stroke:#cccccc;stroke-linejoin:miter;"/>
    </g>
    <g id="line2d_39">
     <path d="M 570.846875 56.298437 
L 590.846875 56.298437 
" style="fill:none;stroke:#1f77b4;stroke-linecap:square;stroke-width:0.5;"/>
    </g>
    <g id="line2d_40"/>
    <g id="text_22">
     <!-- train -->
     <defs>
      <path d="M 18.3125 70.21875 
L 18.3125 54.6875 
L 36.8125 54.6875 
L 36.8125 47.703125 
L 18.3125 47.703125 
L 18.3125 18.015625 
Q 18.3125 11.328125 20.140625 9.421875 
Q 21.96875 7.515625 27.59375 7.515625 
L 36.8125 7.515625 
L 36.8125 0 
L 27.59375 0 
Q 17.1875 0 13.234375 3.875 
Q 9.28125 7.765625 9.28125 18.015625 
L 9.28125 47.703125 
L 2.6875 47.703125 
L 2.6875 54.6875 
L 9.28125 54.6875 
L 9.28125 70.21875 
z
" id="DejaVuSans-116"/>
      <path d="M 41.109375 46.296875 
Q 39.59375 47.171875 37.8125 47.578125 
Q 36.03125 48 33.890625 48 
Q 26.265625 48 22.1875 43.046875 
Q 18.109375 38.09375 18.109375 28.8125 
L 18.109375 0 
L 9.078125 0 
L 9.078125 54.6875 
L 18.109375 54.6875 
L 18.109375 46.1875 
Q 20.953125 51.171875 25.484375 53.578125 
Q 30.03125 56 36.53125 56 
Q 37.453125 56 38.578125 55.875 
Q 39.703125 55.765625 41.0625 55.515625 
z
" id="DejaVuSans-114"/>
      <path d="M 34.28125 27.484375 
Q 23.390625 27.484375 19.1875 25 
Q 14.984375 22.515625 14.984375 16.5 
Q 14.984375 11.71875 18.140625 8.90625 
Q 21.296875 6.109375 26.703125 6.109375 
Q 34.1875 6.109375 38.703125 11.40625 
Q 43.21875 16.703125 43.21875 25.484375 
L 43.21875 27.484375 
z
M 52.203125 31.203125 
L 52.203125 0 
L 43.21875 0 
L 43.21875 8.296875 
Q 40.140625 3.328125 35.546875 0.953125 
Q 30.953125 -1.421875 24.3125 -1.421875 
Q 15.921875 -1.421875 10.953125 3.296875 
Q 6 8.015625 6 15.921875 
Q 6 25.140625 12.171875 29.828125 
Q 18.359375 34.515625 30.609375 34.515625 
L 43.21875 34.515625 
L 43.21875 35.40625 
Q 43.21875 41.609375 39.140625 45 
Q 35.0625 48.390625 27.6875 48.390625 
Q 23 48.390625 18.546875 47.265625 
Q 14.109375 46.140625 10.015625 43.890625 
L 10.015625 52.203125 
Q 14.9375 54.109375 19.578125 55.046875 
Q 24.21875 56 28.609375 56 
Q 40.484375 56 46.34375 49.84375 
Q 52.203125 43.703125 52.203125 31.203125 
z
" id="DejaVuSans-97"/>
      <path d="M 9.421875 54.6875 
L 18.40625 54.6875 
L 18.40625 0 
L 9.421875 0 
z
M 9.421875 75.984375 
L 18.40625 75.984375 
L 18.40625 64.59375 
L 9.421875 64.59375 
z
" id="DejaVuSans-105"/>
      <path d="M 54.890625 33.015625 
L 54.890625 0 
L 45.90625 0 
L 45.90625 32.71875 
Q 45.90625 40.484375 42.875 44.328125 
Q 39.84375 48.1875 33.796875 48.1875 
Q 26.515625 48.1875 22.3125 43.546875 
Q 18.109375 38.921875 18.109375 30.90625 
L 18.109375 0 
L 9.078125 0 
L 9.078125 54.6875 
L 18.109375 54.6875 
L 18.109375 46.1875 
Q 21.34375 51.125 25.703125 53.5625 
Q 30.078125 56 35.796875 56 
Q 45.21875 56 50.046875 50.171875 
Q 54.890625 44.34375 54.890625 33.015625 
z
" id="DejaVuSans-110"/>
     </defs>
     <g transform="translate(598.846875 59.798437)scale(0.1 -0.1)">
      <use xlink:href="#DejaVuSans-116"/>
      <use x="39.208984" xlink:href="#DejaVuSans-114"/>
      <use x="80.322266" xlink:href="#DejaVuSans-97"/>
      <use x="141.601562" xlink:href="#DejaVuSans-105"/>
      <use x="169.384766" xlink:href="#DejaVuSans-110"/>
     </g>
    </g>
    <g id="line2d_41">
     <path d="M 570.846875 70.976562 
L 590.846875 70.976562 
" style="fill:none;stroke:#ff7f0e;stroke-linecap:square;stroke-width:0.5;"/>
    </g>
    <g id="line2d_42"/>
    <g id="text_23">
     <!-- validate -->
     <defs>
      <path d="M 2.984375 54.6875 
L 12.5 54.6875 
L 29.59375 8.796875 
L 46.6875 54.6875 
L 56.203125 54.6875 
L 35.6875 0 
L 23.484375 0 
z
" id="DejaVuSans-118"/>
      <path d="M 45.40625 46.390625 
L 45.40625 75.984375 
L 54.390625 75.984375 
L 54.390625 0 
L 45.40625 0 
L 45.40625 8.203125 
Q 42.578125 3.328125 38.25 0.953125 
Q 33.9375 -1.421875 27.875 -1.421875 
Q 17.96875 -1.421875 11.734375 6.484375 
Q 5.515625 14.40625 5.515625 27.296875 
Q 5.515625 40.1875 11.734375 48.09375 
Q 17.96875 56 27.875 56 
Q 33.9375 56 38.25 53.625 
Q 42.578125 51.265625 45.40625 46.390625 
z
M 14.796875 27.296875 
Q 14.796875 17.390625 18.875 11.75 
Q 22.953125 6.109375 30.078125 6.109375 
Q 37.203125 6.109375 41.296875 11.75 
Q 45.40625 17.390625 45.40625 27.296875 
Q 45.40625 37.203125 41.296875 42.84375 
Q 37.203125 48.484375 30.078125 48.484375 
Q 22.953125 48.484375 18.875 42.84375 
Q 14.796875 37.203125 14.796875 27.296875 
z
" id="DejaVuSans-100"/>
     </defs>
     <g transform="translate(598.846875 74.476562)scale(0.1 -0.1)">
      <use xlink:href="#DejaVuSans-118"/>
      <use x="59.179688" xlink:href="#DejaVuSans-97"/>
      <use x="120.458984" xlink:href="#DejaVuSans-108"/>
      <use x="148.242188" xlink:href="#DejaVuSans-105"/>
      <use x="176.025391" xlink:href="#DejaVuSans-100"/>
      <use x="239.501953" xlink:href="#DejaVuSans-97"/>
      <use x="300.78125" xlink:href="#DejaVuSans-116"/>
      <use x="339.990234" xlink:href="#DejaVuSans-101"/>
     </g>
    </g>
   </g>
  </g>
 </g>
 <defs>
  <clipPath id="pac786d0eab">
   <rect height="271.8" width="558" x="90" y="43.2"/>
  </clipPath>
 </defs>
</svg>
