<?xml version="1.0" encoding="utf-8" standalone="no"?>
<!DOCTYPE svg PUBLIC "-//W3C//DTD SVG 1.1//EN"
  "http://www.w3.org/Graphics/SVG/1.1/DTD/svg11.dtd">
<!-- Created with matplotlib (https://matplotlib.org/) -->
<svg height="360pt" version="1.1" viewBox="0 0 720 360" width="720pt" xmlns="http://www.w3.org/2000/svg" xmlns:xlink="http://www.w3.org/1999/xlink">
 <defs>
  <style type="text/css">
*{stroke-linecap:butt;stroke-linejoin:round;}
  </style>
 </defs>
 <g id="figure_1">
  <g id="patch_1">
   <path d="M 0 360 
L 720 360 
L 720 0 
L 0 0 
z
" style="fill:#ffffff;"/>
  </g>
  <g id="axes_1">
   <g id="patch_2">
    <path d="M 90 315 
L 648 315 
L 648 43.2 
L 90 43.2 
z
" style="fill:#ffffff;"/>
   </g>
   <g id="matplotlib.axis_1">
    <g id="xtick_1">
     <g id="line2d_1">
      <path clip-path="url(#p748d66a238)" d="M 115.363636 315 
L 115.363636 43.2 
" style="fill:none;stroke:#b0b0b0;stroke-linecap:square;stroke-width:0.8;"/>
     </g>
     <g id="line2d_2">
      <defs>
       <path d="M 0 0 
L 0 3.5 
" id="m43dca64f4d" style="stroke:#000000;stroke-width:0.8;"/>
      </defs>
      <g>
       <use style="stroke:#000000;stroke-width:0.8;" x="115.363636" xlink:href="#m43dca64f4d" y="315"/>
      </g>
     </g>
     <g id="text_1">
      <!-- 0 -->
      <defs>
       <path d="M 31.78125 66.40625 
Q 24.171875 66.40625 20.328125 58.90625 
Q 16.5 51.421875 16.5 36.375 
Q 16.5 21.390625 20.328125 13.890625 
Q 24.171875 6.390625 31.78125 6.390625 
Q 39.453125 6.390625 43.28125 13.890625 
Q 47.125 21.390625 47.125 36.375 
Q 47.125 51.421875 43.28125 58.90625 
Q 39.453125 66.40625 31.78125 66.40625 
z
M 31.78125 74.21875 
Q 44.046875 74.21875 50.515625 64.515625 
Q 56.984375 54.828125 56.984375 36.375 
Q 56.984375 17.96875 50.515625 8.265625 
Q 44.046875 -1.421875 31.78125 -1.421875 
Q 19.53125 -1.421875 13.0625 8.265625 
Q 6.59375 17.96875 6.59375 36.375 
Q 6.59375 54.828125 13.0625 64.515625 
Q 19.53125 74.21875 31.78125 74.21875 
z
" id="DejaVuSans-48"/>
      </defs>
      <g transform="translate(112.182386 329.598437)scale(0.1 -0.1)">
       <use xlink:href="#DejaVuSans-48"/>
      </g>
     </g>
    </g>
    <g id="xtick_2">
     <g id="line2d_3">
      <path clip-path="url(#p748d66a238)" d="M 178.804448 315 
L 178.804448 43.2 
" style="fill:none;stroke:#b0b0b0;stroke-linecap:square;stroke-width:0.8;"/>
     </g>
     <g id="line2d_4">
      <g>
       <use style="stroke:#000000;stroke-width:0.8;" x="178.804448" xlink:href="#m43dca64f4d" y="315"/>
      </g>
     </g>
     <g id="text_2">
      <!-- 250 -->
      <defs>
       <path d="M 19.1875 8.296875 
L 53.609375 8.296875 
L 53.609375 0 
L 7.328125 0 
L 7.328125 8.296875 
Q 12.9375 14.109375 22.625 23.890625 
Q 32.328125 33.6875 34.8125 36.53125 
Q 39.546875 41.84375 41.421875 45.53125 
Q 43.3125 49.21875 43.3125 52.78125 
Q 43.3125 58.59375 39.234375 62.25 
Q 35.15625 65.921875 28.609375 65.921875 
Q 23.96875 65.921875 18.8125 64.3125 
Q 13.671875 62.703125 7.8125 59.421875 
L 7.8125 69.390625 
Q 13.765625 71.78125 18.9375 73 
Q 24.125 74.21875 28.421875 74.21875 
Q 39.75 74.21875 46.484375 68.546875 
Q 53.21875 62.890625 53.21875 53.421875 
Q 53.21875 48.921875 51.53125 44.890625 
Q 49.859375 40.875 45.40625 35.40625 
Q 44.1875 33.984375 37.640625 27.21875 
Q 31.109375 20.453125 19.1875 8.296875 
z
" id="DejaVuSans-50"/>
       <path d="M 10.796875 72.90625 
L 49.515625 72.90625 
L 49.515625 64.59375 
L 19.828125 64.59375 
L 19.828125 46.734375 
Q 21.96875 47.46875 24.109375 47.828125 
Q 26.265625 48.1875 28.421875 48.1875 
Q 40.625 48.1875 47.75 41.5 
Q 54.890625 34.8125 54.890625 23.390625 
Q 54.890625 11.625 47.5625 5.09375 
Q 40.234375 -1.421875 26.90625 -1.421875 
Q 22.3125 -1.421875 17.546875 -0.640625 
Q 12.796875 0.140625 7.71875 1.703125 
L 7.71875 11.625 
Q 12.109375 9.234375 16.796875 8.0625 
Q 21.484375 6.890625 26.703125 6.890625 
Q 35.15625 6.890625 40.078125 11.328125 
Q 45.015625 15.765625 45.015625 23.390625 
Q 45.015625 31 40.078125 35.4375 
Q 35.15625 39.890625 26.703125 39.890625 
Q 22.75 39.890625 18.8125 39.015625 
Q 14.890625 38.140625 10.796875 36.28125 
z
" id="DejaVuSans-53"/>
      </defs>
      <g transform="translate(169.260698 329.598437)scale(0.1 -0.1)">
       <use xlink:href="#DejaVuSans-50"/>
       <use x="63.623047" xlink:href="#DejaVuSans-53"/>
       <use x="127.246094" xlink:href="#DejaVuSans-48"/>
      </g>
     </g>
    </g>
    <g id="xtick_3">
     <g id="line2d_5">
      <path clip-path="url(#p748d66a238)" d="M 242.245259 315 
L 242.245259 43.2 
" style="fill:none;stroke:#b0b0b0;stroke-linecap:square;stroke-width:0.8;"/>
     </g>
     <g id="line2d_6">
      <g>
       <use style="stroke:#000000;stroke-width:0.8;" x="242.245259" xlink:href="#m43dca64f4d" y="315"/>
      </g>
     </g>
     <g id="text_3">
      <!-- 500 -->
      <g transform="translate(232.701509 329.598437)scale(0.1 -0.1)">
       <use xlink:href="#DejaVuSans-53"/>
       <use x="63.623047" xlink:href="#DejaVuSans-48"/>
       <use x="127.246094" xlink:href="#DejaVuSans-48"/>
      </g>
     </g>
    </g>
    <g id="xtick_4">
     <g id="line2d_7">
      <path clip-path="url(#p748d66a238)" d="M 305.68607 315 
L 305.68607 43.2 
" style="fill:none;stroke:#b0b0b0;stroke-linecap:square;stroke-width:0.8;"/>
     </g>
     <g id="line2d_8">
      <g>
       <use style="stroke:#000000;stroke-width:0.8;" x="305.68607" xlink:href="#m43dca64f4d" y="315"/>
      </g>
     </g>
     <g id="text_4">
      <!-- 750 -->
      <defs>
       <path d="M 8.203125 72.90625 
L 55.078125 72.90625 
L 55.078125 68.703125 
L 28.609375 0 
L 18.3125 0 
L 43.21875 64.59375 
L 8.203125 64.59375 
z
" id="DejaVuSans-55"/>
      </defs>
      <g transform="translate(296.14232 329.598437)scale(0.1 -0.1)">
       <use xlink:href="#DejaVuSans-55"/>
       <use x="63.623047" xlink:href="#DejaVuSans-53"/>
       <use x="127.246094" xlink:href="#DejaVuSans-48"/>
      </g>
     </g>
    </g>
    <g id="xtick_5">
     <g id="line2d_9">
      <path clip-path="url(#p748d66a238)" d="M 369.126882 315 
L 369.126882 43.2 
" style="fill:none;stroke:#b0b0b0;stroke-linecap:square;stroke-width:0.8;"/>
     </g>
     <g id="line2d_10">
      <g>
       <use style="stroke:#000000;stroke-width:0.8;" x="369.126882" xlink:href="#m43dca64f4d" y="315"/>
      </g>
     </g>
     <g id="text_5">
      <!-- 1000 -->
      <defs>
       <path d="M 12.40625 8.296875 
L 28.515625 8.296875 
L 28.515625 63.921875 
L 10.984375 60.40625 
L 10.984375 69.390625 
L 28.421875 72.90625 
L 38.28125 72.90625 
L 38.28125 8.296875 
L 54.390625 8.296875 
L 54.390625 0 
L 12.40625 0 
z
" id="DejaVuSans-49"/>
      </defs>
      <g transform="translate(356.401882 329.598437)scale(0.1 -0.1)">
       <use xlink:href="#DejaVuSans-49"/>
       <use x="63.623047" xlink:href="#DejaVuSans-48"/>
       <use x="127.246094" xlink:href="#DejaVuSans-48"/>
       <use x="190.869141" xlink:href="#DejaVuSans-48"/>
      </g>
     </g>
    </g>
    <g id="xtick_6">
     <g id="line2d_11">
      <path clip-path="url(#p748d66a238)" d="M 432.567693 315 
L 432.567693 43.2 
" style="fill:none;stroke:#b0b0b0;stroke-linecap:square;stroke-width:0.8;"/>
     </g>
     <g id="line2d_12">
      <g>
       <use style="stroke:#000000;stroke-width:0.8;" x="432.567693" xlink:href="#m43dca64f4d" y="315"/>
      </g>
     </g>
     <g id="text_6">
      <!-- 1250 -->
      <g transform="translate(419.842693 329.598437)scale(0.1 -0.1)">
       <use xlink:href="#DejaVuSans-49"/>
       <use x="63.623047" xlink:href="#DejaVuSans-50"/>
       <use x="127.246094" xlink:href="#DejaVuSans-53"/>
       <use x="190.869141" xlink:href="#DejaVuSans-48"/>
      </g>
     </g>
    </g>
    <g id="xtick_7">
     <g id="line2d_13">
      <path clip-path="url(#p748d66a238)" d="M 496.008504 315 
L 496.008504 43.2 
" style="fill:none;stroke:#b0b0b0;stroke-linecap:square;stroke-width:0.8;"/>
     </g>
     <g id="line2d_14">
      <g>
       <use style="stroke:#000000;stroke-width:0.8;" x="496.008504" xlink:href="#m43dca64f4d" y="315"/>
      </g>
     </g>
     <g id="text_7">
      <!-- 1500 -->
      <g transform="translate(483.283504 329.598437)scale(0.1 -0.1)">
       <use xlink:href="#DejaVuSans-49"/>
       <use x="63.623047" xlink:href="#DejaVuSans-53"/>
       <use x="127.246094" xlink:href="#DejaVuSans-48"/>
       <use x="190.869141" xlink:href="#DejaVuSans-48"/>
      </g>
     </g>
    </g>
    <g id="xtick_8">
     <g id="line2d_15">
      <path clip-path="url(#p748d66a238)" d="M 559.449316 315 
L 559.449316 43.2 
" style="fill:none;stroke:#b0b0b0;stroke-linecap:square;stroke-width:0.8;"/>
     </g>
     <g id="line2d_16">
      <g>
       <use style="stroke:#000000;stroke-width:0.8;" x="559.449316" xlink:href="#m43dca64f4d" y="315"/>
      </g>
     </g>
     <g id="text_8">
      <!-- 1750 -->
      <g transform="translate(546.724316 329.598437)scale(0.1 -0.1)">
       <use xlink:href="#DejaVuSans-49"/>
       <use x="63.623047" xlink:href="#DejaVuSans-55"/>
       <use x="127.246094" xlink:href="#DejaVuSans-53"/>
       <use x="190.869141" xlink:href="#DejaVuSans-48"/>
      </g>
     </g>
    </g>
    <g id="xtick_9">
     <g id="line2d_17">
      <path clip-path="url(#p748d66a238)" d="M 622.890127 315 
L 622.890127 43.2 
" style="fill:none;stroke:#b0b0b0;stroke-linecap:square;stroke-width:0.8;"/>
     </g>
     <g id="line2d_18">
      <g>
       <use style="stroke:#000000;stroke-width:0.8;" x="622.890127" xlink:href="#m43dca64f4d" y="315"/>
      </g>
     </g>
     <g id="text_9">
      <!-- 2000 -->
      <g transform="translate(610.165127 329.598437)scale(0.1 -0.1)">
       <use xlink:href="#DejaVuSans-50"/>
       <use x="63.623047" xlink:href="#DejaVuSans-48"/>
       <use x="127.246094" xlink:href="#DejaVuSans-48"/>
       <use x="190.869141" xlink:href="#DejaVuSans-48"/>
      </g>
     </g>
    </g>
    <g id="text_10">
     <!-- epoch -->
     <defs>
      <path d="M 56.203125 29.59375 
L 56.203125 25.203125 
L 14.890625 25.203125 
Q 15.484375 15.921875 20.484375 11.0625 
Q 25.484375 6.203125 34.421875 6.203125 
Q 39.59375 6.203125 44.453125 7.46875 
Q 49.3125 8.734375 54.109375 11.28125 
L 54.109375 2.78125 
Q 49.265625 0.734375 44.1875 -0.34375 
Q 39.109375 -1.421875 33.890625 -1.421875 
Q 20.796875 -1.421875 13.15625 6.1875 
Q 5.515625 13.8125 5.515625 26.8125 
Q 5.515625 40.234375 12.765625 48.109375 
Q 20.015625 56 32.328125 56 
Q 43.359375 56 49.78125 48.890625 
Q 56.203125 41.796875 56.203125 29.59375 
z
M 47.21875 32.234375 
Q 47.125 39.59375 43.09375 43.984375 
Q 39.0625 48.390625 32.421875 48.390625 
Q 24.90625 48.390625 20.390625 44.140625 
Q 15.875 39.890625 15.1875 32.171875 
z
" id="DejaVuSans-101"/>
      <path d="M 18.109375 8.203125 
L 18.109375 -20.796875 
L 9.078125 -20.796875 
L 9.078125 54.6875 
L 18.109375 54.6875 
L 18.109375 46.390625 
Q 20.953125 51.265625 25.265625 53.625 
Q 29.59375 56 35.59375 56 
Q 45.5625 56 51.78125 48.09375 
Q 58.015625 40.1875 58.015625 27.296875 
Q 58.015625 14.40625 51.78125 6.484375 
Q 45.5625 -1.421875 35.59375 -1.421875 
Q 29.59375 -1.421875 25.265625 0.953125 
Q 20.953125 3.328125 18.109375 8.203125 
z
M 48.6875 27.296875 
Q 48.6875 37.203125 44.609375 42.84375 
Q 40.53125 48.484375 33.40625 48.484375 
Q 26.265625 48.484375 22.1875 42.84375 
Q 18.109375 37.203125 18.109375 27.296875 
Q 18.109375 17.390625 22.1875 11.75 
Q 26.265625 6.109375 33.40625 6.109375 
Q 40.53125 6.109375 44.609375 11.75 
Q 48.6875 17.390625 48.6875 27.296875 
z
" id="DejaVuSans-112"/>
      <path d="M 30.609375 48.390625 
Q 23.390625 48.390625 19.1875 42.75 
Q 14.984375 37.109375 14.984375 27.296875 
Q 14.984375 17.484375 19.15625 11.84375 
Q 23.34375 6.203125 30.609375 6.203125 
Q 37.796875 6.203125 41.984375 11.859375 
Q 46.1875 17.53125 46.1875 27.296875 
Q 46.1875 37.015625 41.984375 42.703125 
Q 37.796875 48.390625 30.609375 48.390625 
z
M 30.609375 56 
Q 42.328125 56 49.015625 48.375 
Q 55.71875 40.765625 55.71875 27.296875 
Q 55.71875 13.875 49.015625 6.21875 
Q 42.328125 -1.421875 30.609375 -1.421875 
Q 18.84375 -1.421875 12.171875 6.21875 
Q 5.515625 13.875 5.515625 27.296875 
Q 5.515625 40.765625 12.171875 48.375 
Q 18.84375 56 30.609375 56 
z
" id="DejaVuSans-111"/>
      <path d="M 48.78125 52.59375 
L 48.78125 44.1875 
Q 44.96875 46.296875 41.140625 47.34375 
Q 37.3125 48.390625 33.40625 48.390625 
Q 24.65625 48.390625 19.8125 42.84375 
Q 14.984375 37.3125 14.984375 27.296875 
Q 14.984375 17.28125 19.8125 11.734375 
Q 24.65625 6.203125 33.40625 6.203125 
Q 37.3125 6.203125 41.140625 7.25 
Q 44.96875 8.296875 48.78125 10.40625 
L 48.78125 2.09375 
Q 45.015625 0.34375 40.984375 -0.53125 
Q 36.96875 -1.421875 32.421875 -1.421875 
Q 20.0625 -1.421875 12.78125 6.34375 
Q 5.515625 14.109375 5.515625 27.296875 
Q 5.515625 40.671875 12.859375 48.328125 
Q 20.21875 56 33.015625 56 
Q 37.15625 56 41.109375 55.140625 
Q 45.0625 54.296875 48.78125 52.59375 
z
" id="DejaVuSans-99"/>
      <path d="M 54.890625 33.015625 
L 54.890625 0 
L 45.90625 0 
L 45.90625 32.71875 
Q 45.90625 40.484375 42.875 44.328125 
Q 39.84375 48.1875 33.796875 48.1875 
Q 26.515625 48.1875 22.3125 43.546875 
Q 18.109375 38.921875 18.109375 30.90625 
L 18.109375 0 
L 9.078125 0 
L 9.078125 75.984375 
L 18.109375 75.984375 
L 18.109375 46.1875 
Q 21.34375 51.125 25.703125 53.5625 
Q 30.078125 56 35.796875 56 
Q 45.21875 56 50.046875 50.171875 
Q 54.890625 44.34375 54.890625 33.015625 
z
" id="DejaVuSans-104"/>
     </defs>
     <g transform="translate(353.771875 343.276563)scale(0.1 -0.1)">
      <use xlink:href="#DejaVuSans-101"/>
      <use x="61.523438" xlink:href="#DejaVuSans-112"/>
      <use x="125" xlink:href="#DejaVuSans-111"/>
      <use x="186.181641" xlink:href="#DejaVuSans-99"/>
      <use x="241.162109" xlink:href="#DejaVuSans-104"/>
     </g>
    </g>
   </g>
   <g id="matplotlib.axis_2">
    <g id="ytick_1">
     <g id="line2d_19">
      <path clip-path="url(#p748d66a238)" d="M 90 314.153832 
L 648 314.153832 
" style="fill:none;stroke:#b0b0b0;stroke-linecap:square;stroke-width:0.8;"/>
     </g>
     <g id="line2d_20">
      <defs>
       <path d="M 0 0 
L -3.5 0 
" id="m3e55c725bd" style="stroke:#000000;stroke-width:0.8;"/>
      </defs>
      <g>
       <use style="stroke:#000000;stroke-width:0.8;" x="90" xlink:href="#m3e55c725bd" y="314.153832"/>
      </g>
     </g>
     <g id="text_11">
      <!-- 0 -->
      <g transform="translate(76.6375 317.953051)scale(0.1 -0.1)">
       <use xlink:href="#DejaVuSans-48"/>
      </g>
     </g>
    </g>
    <g id="ytick_2">
     <g id="line2d_21">
      <path clip-path="url(#p748d66a238)" d="M 90 282.091837 
L 648 282.091837 
" style="fill:none;stroke:#b0b0b0;stroke-linecap:square;stroke-width:0.8;"/>
     </g>
     <g id="line2d_22">
      <g>
       <use style="stroke:#000000;stroke-width:0.8;" x="90" xlink:href="#m3e55c725bd" y="282.091837"/>
      </g>
     </g>
     <g id="text_12">
      <!-- 5 -->
      <g transform="translate(76.6375 285.891055)scale(0.1 -0.1)">
       <use xlink:href="#DejaVuSans-53"/>
      </g>
     </g>
    </g>
    <g id="ytick_3">
     <g id="line2d_23">
      <path clip-path="url(#p748d66a238)" d="M 90 250.029841 
L 648 250.029841 
" style="fill:none;stroke:#b0b0b0;stroke-linecap:square;stroke-width:0.8;"/>
     </g>
     <g id="line2d_24">
      <g>
       <use style="stroke:#000000;stroke-width:0.8;" x="90" xlink:href="#m3e55c725bd" y="250.029841"/>
      </g>
     </g>
     <g id="text_13">
      <!-- 10 -->
      <g transform="translate(70.275 253.82906)scale(0.1 -0.1)">
       <use xlink:href="#DejaVuSans-49"/>
       <use x="63.623047" xlink:href="#DejaVuSans-48"/>
      </g>
     </g>
    </g>
    <g id="ytick_4">
     <g id="line2d_25">
      <path clip-path="url(#p748d66a238)" d="M 90 217.967846 
L 648 217.967846 
" style="fill:none;stroke:#b0b0b0;stroke-linecap:square;stroke-width:0.8;"/>
     </g>
     <g id="line2d_26">
      <g>
       <use style="stroke:#000000;stroke-width:0.8;" x="90" xlink:href="#m3e55c725bd" y="217.967846"/>
      </g>
     </g>
     <g id="text_14">
      <!-- 15 -->
      <g transform="translate(70.275 221.767064)scale(0.1 -0.1)">
       <use xlink:href="#DejaVuSans-49"/>
       <use x="63.623047" xlink:href="#DejaVuSans-53"/>
      </g>
     </g>
    </g>
    <g id="ytick_5">
     <g id="line2d_27">
      <path clip-path="url(#p748d66a238)" d="M 90 185.90585 
L 648 185.90585 
" style="fill:none;stroke:#b0b0b0;stroke-linecap:square;stroke-width:0.8;"/>
     </g>
     <g id="line2d_28">
      <g>
       <use style="stroke:#000000;stroke-width:0.8;" x="90" xlink:href="#m3e55c725bd" y="185.90585"/>
      </g>
     </g>
     <g id="text_15">
      <!-- 20 -->
      <g transform="translate(70.275 189.705069)scale(0.1 -0.1)">
       <use xlink:href="#DejaVuSans-50"/>
       <use x="63.623047" xlink:href="#DejaVuSans-48"/>
      </g>
     </g>
    </g>
    <g id="ytick_6">
     <g id="line2d_29">
      <path clip-path="url(#p748d66a238)" d="M 90 153.843854 
L 648 153.843854 
" style="fill:none;stroke:#b0b0b0;stroke-linecap:square;stroke-width:0.8;"/>
     </g>
     <g id="line2d_30">
      <g>
       <use style="stroke:#000000;stroke-width:0.8;" x="90" xlink:href="#m3e55c725bd" y="153.843854"/>
      </g>
     </g>
     <g id="text_16">
      <!-- 25 -->
      <g transform="translate(70.275 157.643073)scale(0.1 -0.1)">
       <use xlink:href="#DejaVuSans-50"/>
       <use x="63.623047" xlink:href="#DejaVuSans-53"/>
      </g>
     </g>
    </g>
    <g id="ytick_7">
     <g id="line2d_31">
      <path clip-path="url(#p748d66a238)" d="M 90 121.781859 
L 648 121.781859 
" style="fill:none;stroke:#b0b0b0;stroke-linecap:square;stroke-width:0.8;"/>
     </g>
     <g id="line2d_32">
      <g>
       <use style="stroke:#000000;stroke-width:0.8;" x="90" xlink:href="#m3e55c725bd" y="121.781859"/>
      </g>
     </g>
     <g id="text_17">
      <!-- 30 -->
      <defs>
       <path d="M 40.578125 39.3125 
Q 47.65625 37.796875 51.625 33 
Q 55.609375 28.21875 55.609375 21.1875 
Q 55.609375 10.40625 48.1875 4.484375 
Q 40.765625 -1.421875 27.09375 -1.421875 
Q 22.515625 -1.421875 17.65625 -0.515625 
Q 12.796875 0.390625 7.625 2.203125 
L 7.625 11.71875 
Q 11.71875 9.328125 16.59375 8.109375 
Q 21.484375 6.890625 26.8125 6.890625 
Q 36.078125 6.890625 40.9375 10.546875 
Q 45.796875 14.203125 45.796875 21.1875 
Q 45.796875 27.640625 41.28125 31.265625 
Q 36.765625 34.90625 28.71875 34.90625 
L 20.21875 34.90625 
L 20.21875 43.015625 
L 29.109375 43.015625 
Q 36.375 43.015625 40.234375 45.921875 
Q 44.09375 48.828125 44.09375 54.296875 
Q 44.09375 59.90625 40.109375 62.90625 
Q 36.140625 65.921875 28.71875 65.921875 
Q 24.65625 65.921875 20.015625 65.03125 
Q 15.375 64.15625 9.8125 62.3125 
L 9.8125 71.09375 
Q 15.4375 72.65625 20.34375 73.4375 
Q 25.25 74.21875 29.59375 74.21875 
Q 40.828125 74.21875 47.359375 69.109375 
Q 53.90625 64.015625 53.90625 55.328125 
Q 53.90625 49.265625 50.4375 45.09375 
Q 46.96875 40.921875 40.578125 39.3125 
z
" id="DejaVuSans-51"/>
      </defs>
      <g transform="translate(70.275 125.581078)scale(0.1 -0.1)">
       <use xlink:href="#DejaVuSans-51"/>
       <use x="63.623047" xlink:href="#DejaVuSans-48"/>
      </g>
     </g>
    </g>
    <g id="ytick_8">
     <g id="line2d_33">
      <path clip-path="url(#p748d66a238)" d="M 90 89.719863 
L 648 89.719863 
" style="fill:none;stroke:#b0b0b0;stroke-linecap:square;stroke-width:0.8;"/>
     </g>
     <g id="line2d_34">
      <g>
       <use style="stroke:#000000;stroke-width:0.8;" x="90" xlink:href="#m3e55c725bd" y="89.719863"/>
      </g>
     </g>
     <g id="text_18">
      <!-- 35 -->
      <g transform="translate(70.275 93.519082)scale(0.1 -0.1)">
       <use xlink:href="#DejaVuSans-51"/>
       <use x="63.623047" xlink:href="#DejaVuSans-53"/>
      </g>
     </g>
    </g>
    <g id="ytick_9">
     <g id="line2d_35">
      <path clip-path="url(#p748d66a238)" d="M 90 57.657868 
L 648 57.657868 
" style="fill:none;stroke:#b0b0b0;stroke-linecap:square;stroke-width:0.8;"/>
     </g>
     <g id="line2d_36">
      <g>
       <use style="stroke:#000000;stroke-width:0.8;" x="90" xlink:href="#m3e55c725bd" y="57.657868"/>
      </g>
     </g>
     <g id="text_19">
      <!-- 40 -->
      <defs>
       <path d="M 37.796875 64.3125 
L 12.890625 25.390625 
L 37.796875 25.390625 
z
M 35.203125 72.90625 
L 47.609375 72.90625 
L 47.609375 25.390625 
L 58.015625 25.390625 
L 58.015625 17.1875 
L 47.609375 17.1875 
L 47.609375 0 
L 37.796875 0 
L 37.796875 17.1875 
L 4.890625 17.1875 
L 4.890625 26.703125 
z
" id="DejaVuSans-52"/>
      </defs>
      <g transform="translate(70.275 61.457087)scale(0.1 -0.1)">
       <use xlink:href="#DejaVuSans-52"/>
       <use x="63.623047" xlink:href="#DejaVuSans-48"/>
      </g>
     </g>
    </g>
    <g id="text_20">
     <!-- loss -->
     <defs>
      <path d="M 9.421875 75.984375 
L 18.40625 75.984375 
L 18.40625 0 
L 9.421875 0 
z
" id="DejaVuSans-108"/>
      <path d="M 44.28125 53.078125 
L 44.28125 44.578125 
Q 40.484375 46.53125 36.375 47.5 
Q 32.28125 48.484375 27.875 48.484375 
Q 21.1875 48.484375 17.84375 46.4375 
Q 14.5 44.390625 14.5 40.28125 
Q 14.5 37.15625 16.890625 35.375 
Q 19.28125 33.59375 26.515625 31.984375 
L 29.59375 31.296875 
Q 39.15625 29.25 43.1875 25.515625 
Q 47.21875 21.78125 47.21875 15.09375 
Q 47.21875 7.46875 41.1875 3.015625 
Q 35.15625 -1.421875 24.609375 -1.421875 
Q 20.21875 -1.421875 15.453125 -0.5625 
Q 10.6875 0.296875 5.421875 2 
L 5.421875 11.28125 
Q 10.40625 8.6875 15.234375 7.390625 
Q 20.0625 6.109375 24.8125 6.109375 
Q 31.15625 6.109375 34.5625 8.28125 
Q 37.984375 10.453125 37.984375 14.40625 
Q 37.984375 18.0625 35.515625 20.015625 
Q 33.0625 21.96875 24.703125 23.78125 
L 21.578125 24.515625 
Q 13.234375 26.265625 9.515625 29.90625 
Q 5.8125 33.546875 5.8125 39.890625 
Q 5.8125 47.609375 11.28125 51.796875 
Q 16.75 56 26.8125 56 
Q 31.78125 56 36.171875 55.265625 
Q 40.578125 54.546875 44.28125 53.078125 
z
" id="DejaVuSans-115"/>
     </defs>
     <g transform="translate(64.195312 188.757812)rotate(-90)scale(0.1 -0.1)">
      <use xlink:href="#DejaVuSans-108"/>
      <use x="27.783203" xlink:href="#DejaVuSans-111"/>
      <use x="88.964844" xlink:href="#DejaVuSans-115"/>
      <use x="141.064453" xlink:href="#DejaVuSans-115"/>
     </g>
    </g>
   </g>
   <g id="line2d_37">
    <path clip-path="url(#p748d66a238)" d="M 115.363636 55.554545 
L 116.378689 125.196151 
L 116.886216 142.724245 
L 117.901269 164.506091 
L 118.662559 177.689126 
L 120.185138 200.594213 
L 121.200191 211.557312 
L 122.215244 219.206743 
L 123.230297 225.217416 
L 124.752876 232.500609 
L 126.782982 240.289951 
L 128.559325 245.808205 
L 129.574378 248.636993 
L 131.858247 254.123603 
L 132.619537 255.631621 
L 133.127064 256.66113 
L 134.903406 259.806757 
L 138.963618 265.689459 
L 140.232434 267.249471 
L 141.501251 268.695058 
L 141.755014 268.857477 
L 142.770067 269.970426 
L 146.576516 273.217301 
L 147.084042 273.504824 
L 147.591569 273.932474 
L 148.099095 274.256136 
L 150.382964 275.822793 
L 150.636727 275.862107 
L 151.144254 276.31293 
L 151.65178 276.558614 
L 153.17436 277.571666 
L 154.696939 278.438589 
L 155.204466 278.70458 
L 156.980809 279.495864 
L 158.249625 280.08833 
L 159.010915 280.395901 
L 159.772204 280.729392 
L 160.787257 281.131814 
L 161.041021 281.250372 
L 161.294784 281.19606 
L 161.548547 281.458948 
L 162.056073 281.559212 
L 162.309837 281.725019 
L 162.5636 281.727274 
L 163.071126 281.957295 
L 166.370049 282.996968 
L 167.131338 283.222967 
L 168.146391 283.489229 
L 168.653918 283.614324 
L 168.907681 283.608409 
L 169.668971 283.934514 
L 169.922734 283.877412 
L 170.176497 284.058703 
L 171.699077 284.337451 
L 172.206603 284.506476 
L 173.221656 284.660431 
L 174.236709 284.969963 
L 176.013052 285.345907 
L 176.520578 285.388647 
L 180.834554 286.378961 
L 181.088317 286.359451 
L 181.595843 286.532132 
L 182.10337 286.595406 
L 182.86466 286.751335 
L 183.372186 286.871088 
L 183.879713 286.963421 
L 184.894766 287.193549 
L 185.909819 287.294825 
L 188.193688 287.801987 
L 188.701214 287.899485 
L 188.954977 288.01638 
L 189.462504 287.947114 
L 190.477557 288.170045 
L 191.238847 288.296235 
L 192.000136 288.463397 
L 192.2539 288.426537 
L 192.761426 288.57582 
L 193.268953 288.661792 
L 194.537769 288.856328 
L 194.791532 288.875175 
L 195.045295 289.027753 
L 195.299059 288.930407 
L 196.314112 289.130061 
L 197.075401 289.312218 
L 197.329165 289.261866 
L 198.090454 289.401694 
L 198.597981 289.451014 
L 199.105507 289.585488 
L 199.613034 289.576402 
L 200.12056 289.708705 
L 200.374324 289.688163 
L 200.88185 289.773345 
L 203.927009 290.216812 
L 204.180772 290.123715 
L 204.688299 290.260328 
L 205.703352 290.411012 
L 205.957115 290.383786 
L 206.210878 290.507351 
L 206.718405 290.475695 
L 208.240984 290.626927 
L 211.79367 291.051774 
L 212.047433 290.983382 
L 213.062486 291.156625 
L 214.331302 291.303887 
L 215.092592 291.315027 
L 215.853881 291.39106 
L 219.914093 291.707743 
L 220.167857 291.695855 
L 220.42162 291.816482 
L 220.929146 291.802323 
L 221.690436 291.899716 
L 222.451726 291.928871 
L 222.959252 292.040407 
L 223.213016 291.980737 
L 224.228069 292.149437 
L 224.481832 292.018504 
L 224.735595 292.192852 
L 225.496885 292.162115 
L 230.57215 292.6182 
L 231.079676 292.640443 
L 231.587203 292.646614 
L 231.840966 292.76906 
L 232.094729 292.681174 
L 233.109782 292.830353 
L 233.617309 292.732637 
L 234.124835 292.893838 
L 234.378598 292.858931 
L 234.632362 292.95746 
L 235.139888 292.867903 
L 235.901178 292.975256 
L 236.408704 293.016514 
L 238.185047 293.169659 
L 238.43881 293.072704 
L 239.453863 293.300838 
L 240.215153 293.263508 
L 243.006549 293.454148 
L 243.260312 293.560414 
L 244.275365 293.557653 
L 246.305471 293.65985 
L 246.812997 293.696575 
L 247.574287 293.778357 
L 249.858156 293.899867 
L 250.619446 294.013108 
L 250.873209 293.968393 
L 251.126973 294.046827 
L 251.634499 294.024926 
L 252.395789 294.088297 
L 252.903315 294.081411 
L 253.410842 294.185122 
L 253.664605 294.112919 
L 254.172132 294.257378 
L 256.709764 294.333627 
L 256.963527 294.426229 
L 257.724817 294.38189 
L 257.97858 294.363312 
L 258.486107 294.507661 
L 259.247396 294.470807 
L 259.754923 294.547709 
L 261.531266 294.588693 
L 262.546319 294.685232 
L 262.800082 294.740138 
L 263.053845 294.663483 
L 263.561372 294.7341 
L 264.322661 294.773667 
L 264.830188 294.76313 
L 266.099004 294.904477 
L 266.606531 294.969089 
L 267.36782 294.921466 
L 268.382873 294.956598 
L 269.144163 295.054097 
L 270.666742 295.100383 
L 272.443085 295.177511 
L 274.219428 295.258589 
L 274.726954 295.30736 
L 275.742007 295.422923 
L 276.503297 295.314759 
L 276.75706 295.420215 
L 277.010824 295.356356 
L 277.264587 295.462322 
L 277.772113 295.439508 
L 278.27964 295.505064 
L 278.533403 295.438792 
L 279.04093 295.515327 
L 280.309746 295.602155 
L 283.862431 295.714048 
L 284.369958 295.773261 
L 287.161353 295.895942 
L 287.66888 295.912181 
L 288.43017 295.989593 
L 288.683933 295.95832 
L 289.191459 296.038423 
L 289.445223 295.974665 
L 290.206512 296.068427 
L 290.714039 296.084208 
L 292.997908 296.24502 
L 293.251671 296.099924 
L 293.759198 296.235252 
L 294.266724 296.172003 
L 294.520488 296.33062 
L 295.028014 296.267663 
L 295.53554 296.25452 
L 297.311883 296.352839 
L 297.565646 296.317942 
L 297.81941 296.411511 
L 298.580699 296.371776 
L 299.088226 296.339823 
L 299.595752 296.468223 
L 300.103279 296.382211 
L 300.610805 296.418469 
L 302.894675 296.567664 
L 303.402201 296.569127 
L 303.655964 296.630629 
L 303.909728 296.570054 
L 304.417254 296.617058 
L 307.96994 296.803773 
L 308.731229 296.75383 
L 309.746282 296.789733 
L 310.507572 296.907256 
L 311.522625 296.843149 
L 312.537678 296.965982 
L 313.552731 296.87421 
L 313.806494 296.979679 
L 314.314021 296.993608 
L 315.329074 297.051609 
L 315.582837 296.97995 
L 316.344127 297.062327 
L 317.612943 297.122523 
L 317.866706 297.197729 
L 318.374233 297.178513 
L 319.896812 297.1069 
L 320.150575 297.264679 
L 320.404339 297.161688 
L 320.911865 297.238937 
L 324.972077 297.356351 
L 325.733367 297.381034 
L 326.240893 297.451015 
L 327.255946 297.402528 
L 327.509709 297.499446 
L 327.763473 297.390408 
L 329.286052 297.52772 
L 329.793579 297.463977 
L 330.301105 297.551731 
L 331.062395 297.60995 
L 332.838738 297.628109 
L 333.092501 297.559209 
L 333.600027 297.631403 
L 335.122607 297.710859 
L 335.883896 297.741986 
L 340.959161 297.904062 
L 341.466688 297.950985 
L 341.720451 297.869616 
L 342.227978 297.943283 
L 344.258084 297.980872 
L 345.780663 298.023972 
L 346.541953 298.010742 
L 349.587112 298.112128 
L 349.840875 298.075502 
L 350.094638 298.199177 
L 350.855928 298.137021 
L 356.184956 298.31233 
L 356.438719 298.250904 
L 356.946246 298.356933 
L 358.468825 298.331777 
L 361.767748 298.425045 
L 362.021511 298.378051 
L 362.529037 298.491341 
L 379.784938 298.896397 
L 380.038701 298.94562 
L 380.292464 298.865792 
L 380.799991 298.929812 
L 381.815044 298.897731 
L 383.84515 298.972862 
L 384.098913 298.846825 
L 384.860203 299.034417 
L 385.367729 299.005322 
L 385.621493 299.03792 
L 385.875256 298.929875 
L 386.129019 299.05113 
L 386.636546 299.020987 
L 387.397835 299.012272 
L 388.159125 299.099967 
L 388.920415 299.107666 
L 400.339761 299.321756 
L 400.593524 299.386267 
L 400.847287 299.302103 
L 401.354814 299.410303 
L 402.877393 299.305875 
L 403.131156 299.388974 
L 403.38492 299.341297 
L 404.146209 299.464287 
L 404.399973 299.327853 
L 404.653736 299.451953 
L 407.445132 299.451191 
L 408.206421 299.560994 
L 408.460185 299.478018 
L 409.221474 299.546728 
L 409.475238 299.421649 
L 410.236527 299.544857 
L 410.490291 299.472293 
L 410.997817 299.554908 
L 411.505344 299.569064 
L 414.296739 299.596521 
L 415.058029 299.620148 
L 416.580608 299.642776 
L 416.834372 299.534317 
L 417.595661 299.64669 
L 419.372004 299.668904 
L 419.625767 299.737654 
L 420.133294 299.644473 
L 420.64082 299.733586 
L 421.40211 299.691698 
L 423.685979 299.764113 
L 423.939743 299.687426 
L 424.447269 299.766479 
L 426.477375 299.77737 
L 426.984902 299.809263 
L 429.268771 299.817127 
L 430.03006 299.87886 
L 430.283824 299.820691 
L 430.79135 299.926533 
L 435.612852 299.937131 
L 436.120378 299.996122 
L 438.404248 299.977413 
L 439.673064 299.916536 
L 440.18059 300.062423 
L 441.449407 300.089266 
L 442.210696 300.129075 
L 442.718223 300.079502 
L 443.479512 300.158294 
L 445.002092 300.129929 
L 445.509618 300.105025 
L 446.017145 300.178371 
L 446.778435 300.152442 
L 448.808541 300.155671 
L 449.316067 300.266909 
L 449.823594 300.254472 
L 450.584883 300.288555 
L 450.838647 300.176931 
L 451.09241 300.309047 
L 451.346173 300.170096 
L 451.8537 300.238666 
L 452.614989 300.256246 
L 453.122516 300.252314 
L 455.660148 300.262462 
L 455.913912 300.360891 
L 456.675201 300.329544 
L 466.571968 300.478533 
L 466.825731 300.389494 
L 468.602074 300.567979 
L 469.363363 300.470125 
L 469.617127 300.532214 
L 469.87089 300.45538 
L 470.378416 300.590154 
L 470.885943 300.47222 
L 471.647233 300.548827 
L 472.662286 300.514101 
L 473.677339 300.61186 
L 474.184865 300.577584 
L 474.946155 300.627224 
L 475.453681 300.63908 
L 476.976261 300.604362 
L 477.483787 300.730313 
L 477.737551 300.600636 
L 478.752604 300.693919 
L 479.26013 300.650686 
L 479.513893 300.751619 
L 479.767657 300.655393 
L 480.275183 300.709198 
L 481.036473 300.694613 
L 483.827868 300.7651 
L 484.335395 300.748697 
L 484.842921 300.781492 
L 485.350448 300.730953 
L 485.604211 300.817201 
L 486.365501 300.729792 
L 486.873027 300.758001 
L 487.380554 300.714977 
L 487.634317 300.825618 
L 487.88808 300.744069 
L 488.903133 300.80433 
L 489.664423 300.85419 
L 490.933239 300.772518 
L 491.694529 300.865315 
L 492.455819 300.822939 
L 494.739688 300.930405 
L 495.754741 300.841298 
L 496.008504 300.924138 
L 496.516031 300.867973 
L 496.769794 300.987085 
L 497.023557 300.906876 
L 497.531084 300.91097 
L 498.292373 300.941887 
L 500.068716 300.989158 
L 500.322479 300.890591 
L 500.830006 300.981115 
L 501.845059 300.991541 
L 502.860112 300.936336 
L 503.621402 301.025072 
L 508.442903 301.020908 
L 509.204193 301.120345 
L 510.219246 301.097516 
L 511.234299 301.194535 
L 511.741825 301.119489 
L 512.249352 301.11453 
L 513.264405 301.174938 
L 514.786984 301.160004 
L 515.294511 301.133756 
L 515.802037 301.185411 
L 516.055801 301.230659 
L 516.563327 301.170524 
L 519.354723 301.266407 
L 519.862249 301.186109 
L 520.877302 301.205626 
L 523.922461 301.277638 
L 524.176224 301.208675 
L 524.683751 301.262768 
L 525.445041 301.310538 
L 525.952567 301.266645 
L 527.221383 301.315467 
L 527.72891 301.341937 
L 528.236436 301.340942 
L 528.4902 301.421775 
L 528.997726 301.372483 
L 530.012779 301.375816 
L 530.774069 301.313643 
L 531.027832 301.403007 
L 531.789122 301.289521 
L 532.042885 301.367504 
L 532.550412 301.30666 
L 532.804175 301.44593 
L 534.072991 301.46362 
L 534.326754 301.485804 
L 534.580518 301.352673 
L 534.834281 301.447552 
L 535.595571 301.443293 
L 540.924599 301.508854 
L 541.939652 301.56566 
L 542.700941 301.538921 
L 542.954705 301.572292 
L 543.208468 301.48612 
L 543.715994 301.507022 
L 544.477284 301.6099 
L 544.731047 301.485345 
L 544.984811 301.603751 
L 545.999864 301.547577 
L 546.253627 301.567845 
L 546.50739 301.475273 
L 547.26868 301.585489 
L 547.522443 301.491934 
L 549.045023 301.605099 
L 551.075128 301.622255 
L 551.582655 301.695316 
L 551.836418 301.633679 
L 552.090181 301.726852 
L 552.597708 301.63177 
L 554.120287 301.655445 
L 559.449316 301.683463 
L 559.703079 301.614501 
L 559.956842 301.74557 
L 560.210605 301.711306 
L 560.464369 301.793001 
L 560.971895 301.753705 
L 562.240711 301.757034 
L 563.002001 301.758126 
L 563.509527 301.801306 
L 563.763291 301.755647 
L 564.017054 301.855947 
L 564.778344 301.783948 
L 565.28587 301.825837 
L 565.539633 301.712892 
L 565.793397 301.790569 
L 566.04716 301.700531 
L 566.80845 301.817001 
L 567.062213 301.72962 
L 567.315976 301.854337 
L 568.077266 301.863931 
L 568.331029 301.89985 
L 568.584792 301.797708 
L 569.092319 301.899639 
L 570.868662 301.91166 
L 571.122425 301.78432 
L 571.883715 301.896989 
L 572.898768 301.877404 
L 573.660057 301.906256 
L 574.67511 301.904975 
L 576.19769 301.9624 
L 576.705216 301.91356 
L 576.958979 302.022452 
L 577.212743 301.932959 
L 577.466506 302.000879 
L 577.720269 301.884076 
L 577.974032 302.011041 
L 579.242849 301.914066 
L 579.496612 301.824996 
L 579.750375 301.873317 
L 580.004138 301.630153 
L 580.257902 301.740598 
L 581.526718 301.754921 
L 581.780481 301.941455 
L 582.288008 301.89927 
L 582.541771 302.052625 
L 582.795534 301.953785 
L 584.06435 302.075505 
L 584.571877 302.071128 
L 586.094456 302.097715 
L 586.601983 302.007342 
L 589.647142 302.133717 
L 589.900905 302.060231 
L 590.154668 302.199715 
L 590.915958 302.0889 
L 591.423484 302.159272 
L 591.931011 302.147968 
L 592.438537 302.206611 
L 593.45359 302.174996 
L 593.961117 302.19747 
L 599.290145 302.269422 
L 599.797672 302.234231 
L 601.066488 302.351139 
L 601.320251 302.185842 
L 601.574014 302.311013 
L 602.589067 302.262434 
L 603.350357 302.322656 
L 605.634226 302.255361 
L 605.887989 302.335013 
L 606.141753 302.221639 
L 606.395516 302.314364 
L 606.649279 302.217103 
L 606.903042 302.360492 
L 609.694438 302.3065 
L 610.201965 302.379572 
L 612.99336 302.494411 
L 614.51594 302.445425 
L 614.769703 302.373095 
L 615.27723 302.41338 
L 615.530993 302.398944 
L 615.784756 302.504364 
L 616.038519 302.399226 
L 617.053572 302.449865 
L 617.307335 302.372625 
L 618.068625 302.476852 
L 618.322388 302.401408 
L 618.576152 302.565393 
L 619.083678 302.459529 
L 619.591205 302.524395 
L 620.606258 302.513215 
L 621.113784 302.537455 
L 621.367547 302.473976 
L 621.621311 302.645455 
L 621.875074 302.504861 
L 622.3826 302.612859 
L 622.636364 302.533896 
L 622.636364 302.533896 
" style="fill:none;stroke:#1f77b4;stroke-linecap:square;stroke-width:0.5;"/>
   </g>
   <g id="line2d_38">
    <path clip-path="url(#p748d66a238)" d="M 115.363636 69.25385 
L 116.124926 121.948734 
L 116.632453 140.807796 
L 117.901269 167.875405 
L 119.170085 188.747086 
L 119.931375 199.40166 
L 120.946428 210.493297 
L 121.961481 218.442903 
L 123.991587 229.536369 
L 125.00664 233.915693 
L 125.767929 236.909495 
L 127.290509 242.300081 
L 128.051799 244.599498 
L 131.096958 252.565469 
L 133.127064 256.724359 
L 133.380827 257.076089 
L 133.63459 257.674897 
L 133.888353 257.961474 
L 134.649643 259.368516 
L 138.202328 264.644336 
L 141.501251 268.632131 
L 141.755014 268.78507 
L 142.770067 269.893531 
L 143.02383 270.025897 
L 143.78512 270.763499 
L 148.352858 274.291699 
L 148.606621 274.36656 
L 149.367911 274.856689 
L 149.875438 275.220282 
L 150.382964 275.584803 
L 151.398017 276.145735 
L 151.65178 276.44668 
L 151.905544 276.492197 
L 152.666833 277.082728 
L 153.681886 277.604516 
L 154.443176 278.121892 
L 154.696939 278.178707 
L 154.950703 278.398419 
L 155.458229 278.509339 
L 155.711992 278.7593 
L 156.473282 279.011191 
L 157.234572 279.406961 
L 157.488335 279.419965 
L 157.995862 279.675072 
L 160.787257 280.913839 
L 161.041021 280.907604 
L 161.294784 281.079424 
L 161.548547 281.090031 
L 161.80231 281.251855 
L 162.056073 281.218936 
L 163.32489 281.826333 
L 163.832416 281.878209 
L 164.339943 282.042492 
L 166.116285 282.694494 
L 166.370049 282.572411 
L 166.623812 282.786221 
L 167.131338 282.86783 
L 167.385102 283.09822 
L 167.892628 283.133566 
L 169.161444 283.476194 
L 169.922734 283.577977 
L 170.176497 283.726709 
L 170.430261 283.634049 
L 170.937787 283.8676 
L 171.19155 283.923338 
L 171.445314 284.095898 
L 171.699077 283.998945 
L 172.206603 284.212579 
L 172.460367 284.177293 
L 173.47542 284.497786 
L 173.982946 284.481375 
L 174.490473 284.773838 
L 174.744236 284.699681 
L 174.997999 284.864321 
L 175.251762 284.806901 
L 175.759289 285.017645 
L 176.013052 285.016293 
L 176.266815 285.162083 
L 176.520578 285.093716 
L 176.774342 285.237149 
L 177.281868 285.268765 
L 178.043158 285.392659 
L 178.804448 285.610655 
L 182.86466 286.441914 
L 183.118423 286.590978 
L 183.625949 286.589529 
L 183.879713 286.724005 
L 184.133476 286.650936 
L 184.641002 286.824474 
L 186.163582 287.015184 
L 186.671108 287.146315 
L 188.701214 287.616178 
L 188.954977 287.568258 
L 189.97003 287.780965 
L 190.223794 287.727808 
L 190.477557 287.847515 
L 190.73132 287.797419 
L 191.746373 288.073116 
L 192.000136 288.04169 
L 192.761426 288.250972 
L 193.015189 288.324622 
L 193.268953 288.274131 
L 194.537769 288.607279 
L 194.791532 288.525433 
L 196.314112 288.870685 
L 196.821638 288.864596 
L 197.075401 288.851656 
L 197.582928 289.055985 
L 198.090454 288.942112 
L 198.597981 289.199184 
L 198.851744 289.147504 
L 199.105507 289.298525 
L 199.359271 289.173518 
L 199.866797 289.338689 
L 200.628087 289.4075 
L 200.88185 289.547294 
L 201.389377 289.427444 
L 202.150666 289.600979 
L 203.673246 289.775207 
L 203.927009 289.695417 
L 204.180772 289.812367 
L 204.434535 289.8004 
L 204.942062 289.96211 
L 205.195825 289.943504 
L 205.449588 290.052891 
L 205.703352 289.950827 
L 206.210878 290.17504 
L 206.464641 290.084103 
L 206.972168 290.207032 
L 208.494747 290.257695 
L 209.002274 290.409754 
L 210.778617 290.621581 
L 211.286143 290.545082 
L 211.79367 290.644298 
L 215.092592 290.959328 
L 215.346355 290.873395 
L 215.600118 291.079165 
L 216.361408 291.016667 
L 216.868934 291.127324 
L 219.406567 291.355706 
L 220.42162 291.380294 
L 220.929146 291.374422 
L 221.18291 291.514506 
L 221.436673 291.418467 
L 221.690436 291.559764 
L 222.197963 291.537368 
L 224.228069 291.746473 
L 224.481832 291.697446 
L 224.989358 291.749361 
L 226.765701 291.895871 
L 227.273228 291.95071 
L 227.780754 291.953361 
L 232.094729 292.38319 
L 232.348492 292.28709 
L 232.602256 292.383765 
L 233.109782 292.37434 
L 233.617309 292.448867 
L 233.871072 292.382396 
L 234.124835 292.480736 
L 234.632362 292.441688 
L 235.139888 292.577765 
L 236.408704 292.540533 
L 238.43881 292.837788 
L 238.692574 292.708632 
L 238.946337 292.859755 
L 239.96139 292.853194 
L 240.72268 292.946475 
L 241.991496 293.016579 
L 242.245259 292.939749 
L 242.752785 293.061357 
L 243.006549 293.137129 
L 243.514075 293.017487 
L 243.767838 293.192026 
L 244.275365 293.095571 
L 244.782891 293.211415 
L 245.036655 293.138361 
L 245.544181 293.298132 
L 245.797944 293.221765 
L 246.559234 293.295658 
L 246.812997 293.272602 
L 247.320524 293.403042 
L 247.574287 293.434409 
L 247.82805 293.29655 
L 248.335577 293.452751 
L 249.096867 293.456475 
L 249.604393 293.495288 
L 258.993633 294.157905 
L 259.247396 294.014876 
L 259.754923 294.017288 
L 260.008686 294.201629 
L 261.023739 294.285487 
L 261.785029 294.1686 
L 262.038792 294.25202 
L 262.292555 294.213323 
L 262.800082 294.355983 
L 263.053845 294.217075 
L 263.561372 294.360162 
L 264.322661 294.284241 
L 264.830188 294.452652 
L 265.337714 294.478269 
L 265.591478 294.386768 
L 266.099004 294.471401 
L 267.114057 294.507543 
L 267.36782 294.564692 
L 268.12911 294.489695 
L 268.636637 294.62506 
L 270.920506 294.629121 
L 271.174269 294.761353 
L 272.189322 294.69659 
L 272.443085 294.830696 
L 273.204375 294.834559 
L 273.711901 294.922799 
L 279.802219 295.112453 
L 280.309746 295.205196 
L 281.071036 295.212119 
L 282.086088 295.294621 
L 282.593615 295.398979 
L 283.101141 295.254223 
L 283.608668 295.366982 
L 283.862431 295.230407 
L 284.369958 295.381439 
L 285.131247 295.295208 
L 285.385011 295.48846 
L 285.892537 295.368026 
L 288.43017 295.603294 
L 288.937696 295.570025 
L 289.952749 295.531459 
L 290.206512 295.710589 
L 290.460276 295.560212 
L 290.714039 295.67255 
L 291.475329 295.64665 
L 291.982855 295.76429 
L 292.236618 295.666236 
L 292.997908 295.773603 
L 293.251671 295.668057 
L 293.505435 295.876684 
L 293.759198 295.748096 
L 294.774251 295.833494 
L 295.53554 295.775222 
L 296.550593 295.946816 
L 298.073173 295.934411 
L 298.834463 295.957415 
L 300.864569 296.040966 
L 301.118332 295.924735 
L 301.372095 296.135306 
L 301.879622 296.071965 
L 302.133385 296.162866 
L 302.387148 296.07132 
L 303.402201 296.196498 
L 304.671017 296.269412 
L 304.924781 296.37858 
L 305.432307 296.183016 
L 305.939834 296.356033 
L 306.193597 296.300504 
L 306.44736 296.371826 
L 306.701123 296.274242 
L 306.954887 296.372525 
L 307.716176 296.335664 
L 308.223703 296.317477 
L 308.477466 296.527284 
L 309.238756 296.36394 
L 311.522625 296.433999 
L 312.283915 296.634487 
L 312.537678 296.46157 
L 313.045204 296.634321 
L 313.552731 296.627598 
L 313.806494 296.662327 
L 314.060257 296.582765 
L 314.567784 296.624328 
L 315.07531 296.616782 
L 316.59789 296.708861 
L 317.612943 296.652607 
L 319.896812 296.812173 
L 320.150575 296.793647 
L 320.404339 296.930196 
L 320.658102 296.692416 
L 321.419392 296.922792 
L 322.688208 296.876861 
L 322.941971 296.958119 
L 323.195734 296.876152 
L 323.449497 296.990891 
L 324.972077 296.968385 
L 325.479603 297.057559 
L 325.733367 296.959484 
L 327.002183 297.139238 
L 327.509709 297.040619 
L 328.270999 297.111848 
L 329.032289 297.046762 
L 329.793579 297.099359 
L 330.554868 297.056357 
L 330.808632 297.216958 
L 331.062395 297.134407 
L 331.316158 297.190029 
L 331.569921 297.096144 
L 332.077448 297.224349 
L 333.346264 297.237928 
L 333.600027 297.341578 
L 334.361317 297.231719 
L 334.868844 297.296623 
L 335.37637 297.383213 
L 335.630133 297.429384 
L 335.883896 297.319444 
L 336.391423 297.339722 
L 336.898949 297.349331 
L 337.152713 297.388588 
L 337.406476 297.302281 
L 337.660239 297.42593 
L 338.929055 297.3513 
L 339.182819 297.475753 
L 339.436582 297.428674 
L 339.690345 297.245878 
L 340.197872 297.537223 
L 340.451635 297.425549 
L 340.959161 297.474507 
L 341.466688 297.502762 
L 341.720451 297.527024 
L 341.974214 297.681707 
L 342.227978 297.480196 
L 347.049479 297.729837 
L 347.557006 297.723964 
L 348.064532 297.669874 
L 348.572059 297.687411 
L 349.333348 297.689426 
L 350.602165 297.783358 
L 350.855928 297.8701 
L 351.109691 297.769022 
L 351.363454 297.860633 
L 351.617218 297.736337 
L 351.870981 297.84188 
L 352.124744 297.71928 
L 352.886034 297.864902 
L 353.139797 297.695387 
L 353.39356 297.853941 
L 355.169903 297.847892 
L 355.67743 297.932967 
L 356.946246 297.943208 
L 358.976352 298.009827 
L 359.230115 297.889675 
L 359.483878 298.052002 
L 360.498931 297.998465 
L 361.006458 297.994288 
L 361.513984 298.002579 
L 362.275274 298.058836 
L 363.036564 298.145434 
L 363.54409 298.039033 
L 364.051617 298.072834 
L 364.812906 298.189264 
L 365.06667 298.057695 
L 366.843012 298.118844 
L 367.096776 298.250964 
L 368.111829 298.200793 
L 368.365592 298.350794 
L 369.126882 298.224609 
L 371.664514 298.265658 
L 371.918277 298.159571 
L 372.172041 298.340518 
L 372.679567 298.36194 
L 373.440857 298.371223 
L 373.948383 298.436375 
L 374.202147 298.237281 
L 374.45591 298.358009 
L 374.963436 298.316016 
L 375.724726 298.460254 
L 375.978489 298.347728 
L 376.993542 298.480421 
L 377.247305 298.321523 
L 378.008595 298.439052 
L 378.262358 298.397581 
L 378.516122 298.474716 
L 378.769885 298.412356 
L 379.023648 298.5189 
L 379.277411 298.416608 
L 379.784938 298.432761 
L 380.546228 298.452381 
L 381.307517 298.519773 
L 381.561281 298.571257 
L 381.815044 298.4757 
L 382.068807 298.54932 
L 382.576334 298.527199 
L 383.08386 298.521972 
L 383.337623 298.465286 
L 383.591387 298.601834 
L 383.84515 298.444604 
L 384.60644 298.628429 
L 385.113966 298.581837 
L 385.875256 298.523987 
L 386.129019 298.69824 
L 386.636546 298.598559 
L 386.890309 298.712673 
L 387.397835 298.638856 
L 387.651599 298.685134 
L 387.905362 298.576382 
L 388.666652 298.65672 
L 388.920415 298.630371 
L 389.427941 298.744072 
L 389.935468 298.745018 
L 390.189231 298.641527 
L 390.696757 298.737787 
L 391.204284 298.709098 
L 391.71181 298.730889 
L 391.965574 298.661701 
L 392.726863 298.724399 
L 393.741916 298.80517 
L 393.99568 298.781093 
L 394.249443 298.875581 
L 394.503206 298.750803 
L 394.756969 298.824591 
L 395.010733 298.773925 
L 395.518259 298.875978 
L 395.772022 298.773655 
L 396.025786 298.89336 
L 396.279549 298.794467 
L 396.533312 298.897085 
L 396.787075 298.799625 
L 397.294602 298.87034 
L 397.802128 298.799096 
L 398.309655 298.899724 
L 399.578471 298.973911 
L 399.832234 298.847878 
L 400.339761 298.867781 
L 400.593524 298.987461 
L 400.847287 298.845658 
L 401.86234 299.063816 
L 402.116104 298.916344 
L 403.131156 299.021542 
L 403.38492 298.930776 
L 403.638683 299.089975 
L 404.146209 298.996395 
L 405.415026 299.046398 
L 406.176315 299.085603 
L 406.937605 298.968722 
L 407.191368 299.143121 
L 408.460185 299.024258 
L 409.221474 299.109175 
L 409.729001 299.052812 
L 410.236527 299.179565 
L 410.997817 299.078705 
L 411.25158 299.175506 
L 411.759107 299.052666 
L 412.01287 299.171054 
L 412.266633 299.145883 
L 412.520397 299.232911 
L 412.77416 299.137701 
L 413.53545 299.191888 
L 414.042976 299.147438 
L 414.550503 299.190478 
L 415.565556 299.162684 
L 416.073082 299.254943 
L 416.326845 299.122333 
L 416.580608 299.324416 
L 416.834372 299.172207 
L 417.088135 299.278565 
L 417.341898 299.207382 
L 417.595661 299.341961 
L 418.356951 299.2254 
L 418.864478 299.344007 
L 419.625767 299.200264 
L 420.133294 299.306989 
L 420.387057 299.279153 
L 420.64082 299.403949 
L 421.148347 299.280231 
L 421.40211 299.371523 
L 421.909637 299.279884 
L 422.417163 299.358564 
L 423.178453 299.366968 
L 423.685979 299.319983 
L 424.701032 299.262728 
L 424.954796 299.431081 
L 425.462322 299.359541 
L 425.969849 299.393841 
L 428.507481 299.491863 
L 429.015008 299.343739 
L 429.268771 299.497538 
L 429.776297 299.432668 
L 430.283824 299.511526 
L 430.79135 299.483204 
L 432.060166 299.461222 
L 432.567693 299.565504 
L 433.328983 299.504449 
L 433.582746 299.576657 
L 433.836509 299.456335 
L 434.090272 299.458992 
L 434.344036 299.573791 
L 434.597799 299.537241 
L 434.851562 299.65334 
L 437.389195 299.614832 
L 437.896721 299.604928 
L 438.911774 299.545684 
L 439.165537 299.616404 
L 439.419301 299.571237 
L 439.926827 299.663983 
L 440.434354 299.624349 
L 440.94188 299.630627 
L 441.449407 299.747076 
L 442.46446 299.694374 
L 443.987039 299.682128 
L 444.240802 299.855585 
L 444.494565 299.635311 
L 445.002092 299.804848 
L 445.509618 299.733684 
L 447.793488 299.747722 
L 448.047251 299.6944 
L 448.554777 299.905398 
L 448.808541 299.782466 
L 450.33112 299.933634 
L 450.584883 299.760192 
L 451.09241 299.802822 
L 451.346173 299.866468 
L 451.599936 299.78419 
L 452.361226 299.885532 
L 453.630042 299.899559 
L 454.391332 299.824625 
L 454.645095 299.848591 
L 454.898859 299.725197 
L 455.152622 299.87565 
L 455.406385 299.832147 
L 455.660148 299.94231 
L 455.913912 299.874474 
L 456.167675 299.980987 
L 456.675201 299.921914 
L 457.944017 299.907476 
L 458.197781 300.076042 
L 458.451544 299.763389 
L 458.705307 299.990346 
L 458.95907 299.871794 
L 462.257993 300.136975 
L 462.765519 299.990657 
L 463.019282 299.952455 
L 463.273046 300.119438 
L 464.795625 300.074458 
L 466.318205 300.214487 
L 466.825731 300.116582 
L 467.587021 300.137922 
L 467.840784 300.052024 
L 468.348311 300.219785 
L 469.1096 300.121624 
L 469.363363 300.206571 
L 469.87089 299.959098 
L 470.124653 300.152675 
L 470.885943 300.003086 
L 471.139706 300.1731 
L 471.900996 300.090621 
L 474.946155 300.22166 
L 475.453681 300.2151 
L 476.214971 300.247834 
L 476.976261 300.244283 
L 477.230024 300.321798 
L 477.991314 300.200806 
L 478.245077 300.295066 
L 478.752604 300.263902 
L 480.02142 300.294901 
L 480.275183 300.205109 
L 480.78271 300.34636 
L 481.290236 300.269395 
L 481.543999 300.416562 
L 481.797763 300.284098 
L 482.051526 300.366724 
L 482.305289 300.280013 
L 483.066579 300.373345 
L 483.827868 300.212356 
L 484.081632 300.425697 
L 484.589158 300.346013 
L 485.096685 300.454401 
L 486.873027 300.309131 
L 487.634317 300.425107 
L 487.88808 300.496848 
L 488.395607 300.364894 
L 488.64937 300.428836 
L 488.903133 300.340399 
L 489.664423 300.43461 
L 490.425713 300.398288 
L 490.679476 300.363805 
L 491.187003 300.560036 
L 491.440766 300.39772 
L 492.455819 300.423892 
L 492.709582 300.380184 
L 493.217109 300.495109 
L 493.724635 300.41051 
L 493.978398 300.536431 
L 494.485925 300.4698 
L 494.993451 300.500274 
L 495.247215 300.420756 
L 496.008504 300.493513 
L 496.769794 300.426761 
L 497.023557 300.62863 
L 497.27732 300.471735 
L 498.03861 300.523219 
L 498.546137 300.587144 
L 499.053663 300.551571 
L 500.068716 300.523861 
L 500.322479 300.602021 
L 500.576243 300.524197 
L 501.083769 300.691872 
L 501.337532 300.580839 
L 501.591296 300.701496 
L 502.098822 300.522405 
L 502.352585 300.59902 
L 502.860112 300.524917 
L 503.113875 300.662995 
L 503.875165 300.588434 
L 504.128928 300.670956 
L 504.382691 300.580547 
L 504.890218 300.653078 
L 505.397744 300.585748 
L 506.412797 300.611021 
L 507.174087 300.577411 
L 507.42785 300.755392 
L 508.18914 300.719703 
L 508.442903 300.776366 
L 509.204193 300.605578 
L 510.219246 300.829015 
L 513.518168 300.709613 
L 514.025695 300.749084 
L 514.279458 300.634238 
L 514.533221 300.783613 
L 515.294511 300.786693 
L 515.548274 300.917068 
L 516.055801 300.838298 
L 517.324617 300.827571 
L 517.57838 300.873936 
L 517.832143 300.751649 
L 518.085907 300.902906 
L 518.33967 300.773363 
L 518.847196 300.898893 
L 519.354723 300.862083 
L 519.862249 300.857145 
L 520.116013 300.733433 
L 521.131066 300.866038 
L 521.384829 300.81986 
L 521.638592 300.891793 
L 522.146119 300.836269 
L 523.161171 300.895704 
L 523.414935 300.8367 
L 523.668698 300.905473 
L 523.922461 300.82154 
L 524.176224 300.904216 
L 524.683751 300.910341 
L 525.191277 300.962474 
L 525.445041 300.776074 
L 525.698804 300.879139 
L 525.952567 300.825503 
L 526.20633 300.949871 
L 527.72891 300.933193 
L 528.4902 300.960475 
L 531.027832 300.871746 
L 531.535359 300.980637 
L 535.595571 301.060295 
L 535.849334 301.118935 
L 536.35686 301.085012 
L 536.864387 300.931384 
L 537.11815 301.05085 
L 537.625676 300.995153 
L 538.894493 301.13332 
L 539.148256 300.987455 
L 539.402019 301.077784 
L 539.655782 301.037057 
L 540.163309 301.118243 
L 540.670835 301.120149 
L 540.924599 300.974387 
L 541.178362 301.144779 
L 541.939652 301.073514 
L 542.954705 301.184434 
L 545.492337 301.144586 
L 545.7461 301.085593 
L 545.999864 301.248831 
L 546.253627 301.082179 
L 547.776206 301.128698 
L 548.02997 301.037598 
L 548.283733 301.223115 
L 548.791259 301.118866 
L 549.045023 301.239369 
L 549.552549 301.153429 
L 551.328892 301.25447 
L 552.343945 301.234268 
L 555.89663 301.366313 
L 556.150393 301.19067 
L 557.165446 301.303411 
L 557.41921 301.251716 
L 558.180499 301.405191 
L 558.434263 301.258266 
L 558.688026 301.327484 
L 558.941789 301.203815 
L 559.195552 301.350606 
L 559.703079 301.274875 
L 560.464369 301.420672 
L 560.718132 301.282229 
L 560.971895 301.293583 
L 561.225658 301.42653 
L 561.733185 301.340217 
L 562.240711 301.396512 
L 563.509527 301.36788 
L 563.763291 301.321014 
L 564.017054 301.428487 
L 564.270817 301.354823 
L 564.52458 301.42189 
L 565.032107 301.332685 
L 565.28587 301.459699 
L 565.793397 301.279313 
L 566.04716 301.383251 
L 566.80845 301.350566 
L 567.062213 301.489785 
L 567.315976 301.372642 
L 568.077266 301.503552 
L 569.092319 301.47824 
L 569.853609 301.532737 
L 570.107372 301.486093 
L 570.614898 301.566897 
L 571.376188 301.473469 
L 572.391241 301.557214 
L 572.645004 301.439594 
L 572.898768 301.556038 
L 573.913821 301.454061 
L 574.421347 301.512639 
L 574.67511 301.362937 
L 574.928874 301.633872 
L 575.182637 301.485082 
L 576.19769 301.509608 
L 577.212743 301.637844 
L 577.974032 301.508927 
L 579.496612 301.541121 
L 579.750375 301.107764 
L 580.004138 301.574261 
L 580.511665 301.218762 
L 580.765428 301.4085 
L 581.272955 301.325073 
L 581.526718 301.485763 
L 583.810587 301.674285 
L 584.318114 301.626457 
L 584.571877 301.702872 
L 584.82564 301.588764 
L 585.333167 301.643685 
L 586.34822 301.593853 
L 586.855746 301.557201 
L 587.363273 301.735906 
L 587.870799 301.612608 
L 588.124562 301.684834 
L 588.632089 301.692314 
L 588.885852 301.789601 
L 590.408431 301.692845 
L 590.662195 301.776631 
L 591.169721 301.729074 
L 591.931011 301.817777 
L 592.184774 301.651366 
L 592.438537 301.801172 
L 593.45359 301.709553 
L 593.961117 301.830934 
L 594.21488 301.735839 
L 594.722407 301.757793 
L 595.483696 301.717456 
L 595.991223 301.855315 
L 596.244986 301.807532 
L 596.498749 301.915761 
L 597.006276 301.802201 
L 597.260039 301.881372 
L 597.513802 301.740398 
L 598.021329 301.864407 
L 598.275092 301.739437 
L 598.782619 301.812627 
L 599.290145 301.786997 
L 599.797672 301.907432 
L 600.051435 301.779228 
L 600.558961 301.941849 
L 600.812725 301.849584 
L 601.066488 301.999201 
L 601.574014 301.889179 
L 601.827778 301.818743 
L 602.589067 302.022531 
L 602.842831 301.826106 
L 603.350357 301.979147 
L 603.60412 301.807339 
L 603.857883 301.942014 
L 604.111647 301.898779 
L 604.36541 302.000106 
L 604.872936 301.944795 
L 605.1267 301.808568 
L 605.634226 301.877907 
L 606.141753 301.815667 
L 606.395516 301.981601 
L 606.649279 301.882818 
L 607.664332 301.997944 
L 608.171859 301.915471 
L 611.217018 302.035916 
L 611.724544 302.060037 
L 611.978307 301.930526 
L 613.247124 302.029174 
L 615.023466 302.027848 
L 616.799809 302.01962 
L 617.814862 302.166739 
L 618.068625 302.057303 
L 618.322388 302.139545 
L 618.576152 302.057055 
L 619.591205 302.164522 
L 619.844968 302.06673 
L 620.098731 302.181015 
L 621.113784 302.110625 
L 621.367547 302.206543 
L 621.875074 302.176335 
L 622.128837 302.205304 
L 622.3826 301.965639 
L 622.636364 302.137974 
L 622.636364 302.137974 
" style="fill:none;stroke:#ff7f0e;stroke-linecap:square;stroke-width:0.5;"/>
   </g>
   <g id="patch_3">
    <path d="M 90 315 
L 90 43.2 
" style="fill:none;stroke:#000000;stroke-linecap:square;stroke-linejoin:miter;stroke-width:0.8;"/>
   </g>
   <g id="patch_4">
    <path d="M 648 315 
L 648 43.2 
" style="fill:none;stroke:#000000;stroke-linecap:square;stroke-linejoin:miter;stroke-width:0.8;"/>
   </g>
   <g id="patch_5">
    <path d="M 90 315 
L 648 315 
" style="fill:none;stroke:#000000;stroke-linecap:square;stroke-linejoin:miter;stroke-width:0.8;"/>
   </g>
   <g id="patch_6">
    <path d="M 90 43.2 
L 648 43.2 
" style="fill:none;stroke:#000000;stroke-linecap:square;stroke-linejoin:miter;stroke-width:0.8;"/>
   </g>
   <g id="text_21">
    <!-- loss -->
    <g transform="translate(357.410625 37.2)scale(0.12 -0.12)">
     <use xlink:href="#DejaVuSans-108"/>
     <use x="27.783203" xlink:href="#DejaVuSans-111"/>
     <use x="88.964844" xlink:href="#DejaVuSans-115"/>
     <use x="141.064453" xlink:href="#DejaVuSans-115"/>
    </g>
   </g>
   <g id="legend_1">
    <g id="patch_7">
     <path d="M 568.846875 80.55625 
L 641 80.55625 
Q 643 80.55625 643 78.55625 
L 643 50.2 
Q 643 48.2 641 48.2 
L 568.846875 48.2 
Q 566.846875 48.2 566.846875 50.2 
L 566.846875 78.55625 
Q 566.846875 80.55625 568.846875 80.55625 
z
" style="fill:#ffffff;opacity:0.8;stroke:#cccccc;stroke-linejoin:miter;"/>
    </g>
    <g id="line2d_39">
     <path d="M 570.846875 56.298437 
L 590.846875 56.298437 
" style="fill:none;stroke:#1f77b4;stroke-linecap:square;stroke-width:0.5;"/>
    </g>
    <g id="line2d_40"/>
    <g id="text_22">
     <!-- train -->
     <defs>
      <path d="M 18.3125 70.21875 
L 18.3125 54.6875 
L 36.8125 54.6875 
L 36.8125 47.703125 
L 18.3125 47.703125 
L 18.3125 18.015625 
Q 18.3125 11.328125 20.140625 9.421875 
Q 21.96875 7.515625 27.59375 7.515625 
L 36.8125 7.515625 
L 36.8125 0 
L 27.59375 0 
Q 17.1875 0 13.234375 3.875 
Q 9.28125 7.765625 9.28125 18.015625 
L 9.28125 47.703125 
L 2.6875 47.703125 
L 2.6875 54.6875 
L 9.28125 54.6875 
L 9.28125 70.21875 
z
" id="DejaVuSans-116"/>
      <path d="M 41.109375 46.296875 
Q 39.59375 47.171875 37.8125 47.578125 
Q 36.03125 48 33.890625 48 
Q 26.265625 48 22.1875 43.046875 
Q 18.109375 38.09375 18.109375 28.8125 
L 18.109375 0 
L 9.078125 0 
L 9.078125 54.6875 
L 18.109375 54.6875 
L 18.109375 46.1875 
Q 20.953125 51.171875 25.484375 53.578125 
Q 30.03125 56 36.53125 56 
Q 37.453125 56 38.578125 55.875 
Q 39.703125 55.765625 41.0625 55.515625 
z
" id="DejaVuSans-114"/>
      <path d="M 34.28125 27.484375 
Q 23.390625 27.484375 19.1875 25 
Q 14.984375 22.515625 14.984375 16.5 
Q 14.984375 11.71875 18.140625 8.90625 
Q 21.296875 6.109375 26.703125 6.109375 
Q 34.1875 6.109375 38.703125 11.40625 
Q 43.21875 16.703125 43.21875 25.484375 
L 43.21875 27.484375 
z
M 52.203125 31.203125 
L 52.203125 0 
L 43.21875 0 
L 43.21875 8.296875 
Q 40.140625 3.328125 35.546875 0.953125 
Q 30.953125 -1.421875 24.3125 -1.421875 
Q 15.921875 -1.421875 10.953125 3.296875 
Q 6 8.015625 6 15.921875 
Q 6 25.140625 12.171875 29.828125 
Q 18.359375 34.515625 30.609375 34.515625 
L 43.21875 34.515625 
L 43.21875 35.40625 
Q 43.21875 41.609375 39.140625 45 
Q 35.0625 48.390625 27.6875 48.390625 
Q 23 48.390625 18.546875 47.265625 
Q 14.109375 46.140625 10.015625 43.890625 
L 10.015625 52.203125 
Q 14.9375 54.109375 19.578125 55.046875 
Q 24.21875 56 28.609375 56 
Q 40.484375 56 46.34375 49.84375 
Q 52.203125 43.703125 52.203125 31.203125 
z
" id="DejaVuSans-97"/>
      <path d="M 9.421875 54.6875 
L 18.40625 54.6875 
L 18.40625 0 
L 9.421875 0 
z
M 9.421875 75.984375 
L 18.40625 75.984375 
L 18.40625 64.59375 
L 9.421875 64.59375 
z
" id="DejaVuSans-105"/>
      <path d="M 54.890625 33.015625 
L 54.890625 0 
L 45.90625 0 
L 45.90625 32.71875 
Q 45.90625 40.484375 42.875 44.328125 
Q 39.84375 48.1875 33.796875 48.1875 
Q 26.515625 48.1875 22.3125 43.546875 
Q 18.109375 38.921875 18.109375 30.90625 
L 18.109375 0 
L 9.078125 0 
L 9.078125 54.6875 
L 18.109375 54.6875 
L 18.109375 46.1875 
Q 21.34375 51.125 25.703125 53.5625 
Q 30.078125 56 35.796875 56 
Q 45.21875 56 50.046875 50.171875 
Q 54.890625 44.34375 54.890625 33.015625 
z
" id="DejaVuSans-110"/>
     </defs>
     <g transform="translate(598.846875 59.798437)scale(0.1 -0.1)">
      <use xlink:href="#DejaVuSans-116"/>
      <use x="39.208984" xlink:href="#DejaVuSans-114"/>
      <use x="80.322266" xlink:href="#DejaVuSans-97"/>
      <use x="141.601562" xlink:href="#DejaVuSans-105"/>
      <use x="169.384766" xlink:href="#DejaVuSans-110"/>
     </g>
    </g>
    <g id="line2d_41">
     <path d="M 570.846875 70.976562 
L 590.846875 70.976562 
" style="fill:none;stroke:#ff7f0e;stroke-linecap:square;stroke-width:0.5;"/>
    </g>
    <g id="line2d_42"/>
    <g id="text_23">
     <!-- validate -->
     <defs>
      <path d="M 2.984375 54.6875 
L 12.5 54.6875 
L 29.59375 8.796875 
L 46.6875 54.6875 
L 56.203125 54.6875 
L 35.6875 0 
L 23.484375 0 
z
" id="DejaVuSans-118"/>
      <path d="M 45.40625 46.390625 
L 45.40625 75.984375 
L 54.390625 75.984375 
L 54.390625 0 
L 45.40625 0 
L 45.40625 8.203125 
Q 42.578125 3.328125 38.25 0.953125 
Q 33.9375 -1.421875 27.875 -1.421875 
Q 17.96875 -1.421875 11.734375 6.484375 
Q 5.515625 14.40625 5.515625 27.296875 
Q 5.515625 40.1875 11.734375 48.09375 
Q 17.96875 56 27.875 56 
Q 33.9375 56 38.25 53.625 
Q 42.578125 51.265625 45.40625 46.390625 
z
M 14.796875 27.296875 
Q 14.796875 17.390625 18.875 11.75 
Q 22.953125 6.109375 30.078125 6.109375 
Q 37.203125 6.109375 41.296875 11.75 
Q 45.40625 17.390625 45.40625 27.296875 
Q 45.40625 37.203125 41.296875 42.84375 
Q 37.203125 48.484375 30.078125 48.484375 
Q 22.953125 48.484375 18.875 42.84375 
Q 14.796875 37.203125 14.796875 27.296875 
z
" id="DejaVuSans-100"/>
     </defs>
     <g transform="translate(598.846875 74.476562)scale(0.1 -0.1)">
      <use xlink:href="#DejaVuSans-118"/>
      <use x="59.179688" xlink:href="#DejaVuSans-97"/>
      <use x="120.458984" xlink:href="#DejaVuSans-108"/>
      <use x="148.242188" xlink:href="#DejaVuSans-105"/>
      <use x="176.025391" xlink:href="#DejaVuSans-100"/>
      <use x="239.501953" xlink:href="#DejaVuSans-97"/>
      <use x="300.78125" xlink:href="#DejaVuSans-116"/>
      <use x="339.990234" xlink:href="#DejaVuSans-101"/>
     </g>
    </g>
   </g>
  </g>
 </g>
 <defs>
  <clipPath id="p748d66a238">
   <rect height="271.8" width="558" x="90" y="43.2"/>
  </clipPath>
 </defs>
</svg>
