<?xml version="1.0" encoding="utf-8" standalone="no"?>
<!DOCTYPE svg PUBLIC "-//W3C//DTD SVG 1.1//EN"
  "http://www.w3.org/Graphics/SVG/1.1/DTD/svg11.dtd">
<!-- Created with matplotlib (https://matplotlib.org/) -->
<svg height="360pt" version="1.1" viewBox="0 0 720 360" width="720pt" xmlns="http://www.w3.org/2000/svg" xmlns:xlink="http://www.w3.org/1999/xlink">
 <defs>
  <style type="text/css">
*{stroke-linecap:butt;stroke-linejoin:round;}
  </style>
 </defs>
 <g id="figure_1">
  <g id="patch_1">
   <path d="M 0 360 
L 720 360 
L 720 0 
L 0 0 
z
" style="fill:#ffffff;"/>
  </g>
  <g id="axes_1">
   <g id="patch_2">
    <path d="M 90 315 
L 648 315 
L 648 43.2 
L 90 43.2 
z
" style="fill:#ffffff;"/>
   </g>
   <g id="matplotlib.axis_1">
    <g id="xtick_1">
     <g id="line2d_1">
      <path clip-path="url(#p0a6b408259)" d="M 115.363636 315 
L 115.363636 43.2 
" style="fill:none;stroke:#b0b0b0;stroke-linecap:square;stroke-width:0.8;"/>
     </g>
     <g id="line2d_2">
      <defs>
       <path d="M 0 0 
L 0 3.5 
" id="me4e0382731" style="stroke:#000000;stroke-width:0.8;"/>
      </defs>
      <g>
       <use style="stroke:#000000;stroke-width:0.8;" x="115.363636" xlink:href="#me4e0382731" y="315"/>
      </g>
     </g>
     <g id="text_1">
      <!-- 0 -->
      <defs>
       <path d="M 31.78125 66.40625 
Q 24.171875 66.40625 20.328125 58.90625 
Q 16.5 51.421875 16.5 36.375 
Q 16.5 21.390625 20.328125 13.890625 
Q 24.171875 6.390625 31.78125 6.390625 
Q 39.453125 6.390625 43.28125 13.890625 
Q 47.125 21.390625 47.125 36.375 
Q 47.125 51.421875 43.28125 58.90625 
Q 39.453125 66.40625 31.78125 66.40625 
z
M 31.78125 74.21875 
Q 44.046875 74.21875 50.515625 64.515625 
Q 56.984375 54.828125 56.984375 36.375 
Q 56.984375 17.96875 50.515625 8.265625 
Q 44.046875 -1.421875 31.78125 -1.421875 
Q 19.53125 -1.421875 13.0625 8.265625 
Q 6.59375 17.96875 6.59375 36.375 
Q 6.59375 54.828125 13.0625 64.515625 
Q 19.53125 74.21875 31.78125 74.21875 
z
" id="DejaVuSans-48"/>
      </defs>
      <g transform="translate(112.182386 329.598437)scale(0.1 -0.1)">
       <use xlink:href="#DejaVuSans-48"/>
      </g>
     </g>
    </g>
    <g id="xtick_2">
     <g id="line2d_3">
      <path clip-path="url(#p0a6b408259)" d="M 203.157462 315 
L 203.157462 43.2 
" style="fill:none;stroke:#b0b0b0;stroke-linecap:square;stroke-width:0.8;"/>
     </g>
     <g id="line2d_4">
      <g>
       <use style="stroke:#000000;stroke-width:0.8;" x="203.157462" xlink:href="#me4e0382731" y="315"/>
      </g>
     </g>
     <g id="text_2">
      <!-- 500 -->
      <defs>
       <path d="M 10.796875 72.90625 
L 49.515625 72.90625 
L 49.515625 64.59375 
L 19.828125 64.59375 
L 19.828125 46.734375 
Q 21.96875 47.46875 24.109375 47.828125 
Q 26.265625 48.1875 28.421875 48.1875 
Q 40.625 48.1875 47.75 41.5 
Q 54.890625 34.8125 54.890625 23.390625 
Q 54.890625 11.625 47.5625 5.09375 
Q 40.234375 -1.421875 26.90625 -1.421875 
Q 22.3125 -1.421875 17.546875 -0.640625 
Q 12.796875 0.140625 7.71875 1.703125 
L 7.71875 11.625 
Q 12.109375 9.234375 16.796875 8.0625 
Q 21.484375 6.890625 26.703125 6.890625 
Q 35.15625 6.890625 40.078125 11.328125 
Q 45.015625 15.765625 45.015625 23.390625 
Q 45.015625 31 40.078125 35.4375 
Q 35.15625 39.890625 26.703125 39.890625 
Q 22.75 39.890625 18.8125 39.015625 
Q 14.890625 38.140625 10.796875 36.28125 
z
" id="DejaVuSans-53"/>
      </defs>
      <g transform="translate(193.613712 329.598437)scale(0.1 -0.1)">
       <use xlink:href="#DejaVuSans-53"/>
       <use x="63.623047" xlink:href="#DejaVuSans-48"/>
       <use x="127.246094" xlink:href="#DejaVuSans-48"/>
      </g>
     </g>
    </g>
    <g id="xtick_3">
     <g id="line2d_5">
      <path clip-path="url(#p0a6b408259)" d="M 290.951289 315 
L 290.951289 43.2 
" style="fill:none;stroke:#b0b0b0;stroke-linecap:square;stroke-width:0.8;"/>
     </g>
     <g id="line2d_6">
      <g>
       <use style="stroke:#000000;stroke-width:0.8;" x="290.951289" xlink:href="#me4e0382731" y="315"/>
      </g>
     </g>
     <g id="text_3">
      <!-- 1000 -->
      <defs>
       <path d="M 12.40625 8.296875 
L 28.515625 8.296875 
L 28.515625 63.921875 
L 10.984375 60.40625 
L 10.984375 69.390625 
L 28.421875 72.90625 
L 38.28125 72.90625 
L 38.28125 8.296875 
L 54.390625 8.296875 
L 54.390625 0 
L 12.40625 0 
z
" id="DejaVuSans-49"/>
      </defs>
      <g transform="translate(278.226289 329.598437)scale(0.1 -0.1)">
       <use xlink:href="#DejaVuSans-49"/>
       <use x="63.623047" xlink:href="#DejaVuSans-48"/>
       <use x="127.246094" xlink:href="#DejaVuSans-48"/>
       <use x="190.869141" xlink:href="#DejaVuSans-48"/>
      </g>
     </g>
    </g>
    <g id="xtick_4">
     <g id="line2d_7">
      <path clip-path="url(#p0a6b408259)" d="M 378.745115 315 
L 378.745115 43.2 
" style="fill:none;stroke:#b0b0b0;stroke-linecap:square;stroke-width:0.8;"/>
     </g>
     <g id="line2d_8">
      <g>
       <use style="stroke:#000000;stroke-width:0.8;" x="378.745115" xlink:href="#me4e0382731" y="315"/>
      </g>
     </g>
     <g id="text_4">
      <!-- 1500 -->
      <g transform="translate(366.020115 329.598437)scale(0.1 -0.1)">
       <use xlink:href="#DejaVuSans-49"/>
       <use x="63.623047" xlink:href="#DejaVuSans-53"/>
       <use x="127.246094" xlink:href="#DejaVuSans-48"/>
       <use x="190.869141" xlink:href="#DejaVuSans-48"/>
      </g>
     </g>
    </g>
    <g id="xtick_5">
     <g id="line2d_9">
      <path clip-path="url(#p0a6b408259)" d="M 466.538941 315 
L 466.538941 43.2 
" style="fill:none;stroke:#b0b0b0;stroke-linecap:square;stroke-width:0.8;"/>
     </g>
     <g id="line2d_10">
      <g>
       <use style="stroke:#000000;stroke-width:0.8;" x="466.538941" xlink:href="#me4e0382731" y="315"/>
      </g>
     </g>
     <g id="text_5">
      <!-- 2000 -->
      <defs>
       <path d="M 19.1875 8.296875 
L 53.609375 8.296875 
L 53.609375 0 
L 7.328125 0 
L 7.328125 8.296875 
Q 12.9375 14.109375 22.625 23.890625 
Q 32.328125 33.6875 34.8125 36.53125 
Q 39.546875 41.84375 41.421875 45.53125 
Q 43.3125 49.21875 43.3125 52.78125 
Q 43.3125 58.59375 39.234375 62.25 
Q 35.15625 65.921875 28.609375 65.921875 
Q 23.96875 65.921875 18.8125 64.3125 
Q 13.671875 62.703125 7.8125 59.421875 
L 7.8125 69.390625 
Q 13.765625 71.78125 18.9375 73 
Q 24.125 74.21875 28.421875 74.21875 
Q 39.75 74.21875 46.484375 68.546875 
Q 53.21875 62.890625 53.21875 53.421875 
Q 53.21875 48.921875 51.53125 44.890625 
Q 49.859375 40.875 45.40625 35.40625 
Q 44.1875 33.984375 37.640625 27.21875 
Q 31.109375 20.453125 19.1875 8.296875 
z
" id="DejaVuSans-50"/>
      </defs>
      <g transform="translate(453.813941 329.598437)scale(0.1 -0.1)">
       <use xlink:href="#DejaVuSans-50"/>
       <use x="63.623047" xlink:href="#DejaVuSans-48"/>
       <use x="127.246094" xlink:href="#DejaVuSans-48"/>
       <use x="190.869141" xlink:href="#DejaVuSans-48"/>
      </g>
     </g>
    </g>
    <g id="xtick_6">
     <g id="line2d_11">
      <path clip-path="url(#p0a6b408259)" d="M 554.332767 315 
L 554.332767 43.2 
" style="fill:none;stroke:#b0b0b0;stroke-linecap:square;stroke-width:0.8;"/>
     </g>
     <g id="line2d_12">
      <g>
       <use style="stroke:#000000;stroke-width:0.8;" x="554.332767" xlink:href="#me4e0382731" y="315"/>
      </g>
     </g>
     <g id="text_6">
      <!-- 2500 -->
      <g transform="translate(541.607767 329.598437)scale(0.1 -0.1)">
       <use xlink:href="#DejaVuSans-50"/>
       <use x="63.623047" xlink:href="#DejaVuSans-53"/>
       <use x="127.246094" xlink:href="#DejaVuSans-48"/>
       <use x="190.869141" xlink:href="#DejaVuSans-48"/>
      </g>
     </g>
    </g>
    <g id="xtick_7">
     <g id="line2d_13">
      <path clip-path="url(#p0a6b408259)" d="M 642.126593 315 
L 642.126593 43.2 
" style="fill:none;stroke:#b0b0b0;stroke-linecap:square;stroke-width:0.8;"/>
     </g>
     <g id="line2d_14">
      <g>
       <use style="stroke:#000000;stroke-width:0.8;" x="642.126593" xlink:href="#me4e0382731" y="315"/>
      </g>
     </g>
     <g id="text_7">
      <!-- 3000 -->
      <defs>
       <path d="M 40.578125 39.3125 
Q 47.65625 37.796875 51.625 33 
Q 55.609375 28.21875 55.609375 21.1875 
Q 55.609375 10.40625 48.1875 4.484375 
Q 40.765625 -1.421875 27.09375 -1.421875 
Q 22.515625 -1.421875 17.65625 -0.515625 
Q 12.796875 0.390625 7.625 2.203125 
L 7.625 11.71875 
Q 11.71875 9.328125 16.59375 8.109375 
Q 21.484375 6.890625 26.8125 6.890625 
Q 36.078125 6.890625 40.9375 10.546875 
Q 45.796875 14.203125 45.796875 21.1875 
Q 45.796875 27.640625 41.28125 31.265625 
Q 36.765625 34.90625 28.71875 34.90625 
L 20.21875 34.90625 
L 20.21875 43.015625 
L 29.109375 43.015625 
Q 36.375 43.015625 40.234375 45.921875 
Q 44.09375 48.828125 44.09375 54.296875 
Q 44.09375 59.90625 40.109375 62.90625 
Q 36.140625 65.921875 28.71875 65.921875 
Q 24.65625 65.921875 20.015625 65.03125 
Q 15.375 64.15625 9.8125 62.3125 
L 9.8125 71.09375 
Q 15.4375 72.65625 20.34375 73.4375 
Q 25.25 74.21875 29.59375 74.21875 
Q 40.828125 74.21875 47.359375 69.109375 
Q 53.90625 64.015625 53.90625 55.328125 
Q 53.90625 49.265625 50.4375 45.09375 
Q 46.96875 40.921875 40.578125 39.3125 
z
" id="DejaVuSans-51"/>
      </defs>
      <g transform="translate(629.401593 329.598437)scale(0.1 -0.1)">
       <use xlink:href="#DejaVuSans-51"/>
       <use x="63.623047" xlink:href="#DejaVuSans-48"/>
       <use x="127.246094" xlink:href="#DejaVuSans-48"/>
       <use x="190.869141" xlink:href="#DejaVuSans-48"/>
      </g>
     </g>
    </g>
    <g id="text_8">
     <!-- epoch -->
     <defs>
      <path d="M 56.203125 29.59375 
L 56.203125 25.203125 
L 14.890625 25.203125 
Q 15.484375 15.921875 20.484375 11.0625 
Q 25.484375 6.203125 34.421875 6.203125 
Q 39.59375 6.203125 44.453125 7.46875 
Q 49.3125 8.734375 54.109375 11.28125 
L 54.109375 2.78125 
Q 49.265625 0.734375 44.1875 -0.34375 
Q 39.109375 -1.421875 33.890625 -1.421875 
Q 20.796875 -1.421875 13.15625 6.1875 
Q 5.515625 13.8125 5.515625 26.8125 
Q 5.515625 40.234375 12.765625 48.109375 
Q 20.015625 56 32.328125 56 
Q 43.359375 56 49.78125 48.890625 
Q 56.203125 41.796875 56.203125 29.59375 
z
M 47.21875 32.234375 
Q 47.125 39.59375 43.09375 43.984375 
Q 39.0625 48.390625 32.421875 48.390625 
Q 24.90625 48.390625 20.390625 44.140625 
Q 15.875 39.890625 15.1875 32.171875 
z
" id="DejaVuSans-101"/>
      <path d="M 18.109375 8.203125 
L 18.109375 -20.796875 
L 9.078125 -20.796875 
L 9.078125 54.6875 
L 18.109375 54.6875 
L 18.109375 46.390625 
Q 20.953125 51.265625 25.265625 53.625 
Q 29.59375 56 35.59375 56 
Q 45.5625 56 51.78125 48.09375 
Q 58.015625 40.1875 58.015625 27.296875 
Q 58.015625 14.40625 51.78125 6.484375 
Q 45.5625 -1.421875 35.59375 -1.421875 
Q 29.59375 -1.421875 25.265625 0.953125 
Q 20.953125 3.328125 18.109375 8.203125 
z
M 48.6875 27.296875 
Q 48.6875 37.203125 44.609375 42.84375 
Q 40.53125 48.484375 33.40625 48.484375 
Q 26.265625 48.484375 22.1875 42.84375 
Q 18.109375 37.203125 18.109375 27.296875 
Q 18.109375 17.390625 22.1875 11.75 
Q 26.265625 6.109375 33.40625 6.109375 
Q 40.53125 6.109375 44.609375 11.75 
Q 48.6875 17.390625 48.6875 27.296875 
z
" id="DejaVuSans-112"/>
      <path d="M 30.609375 48.390625 
Q 23.390625 48.390625 19.1875 42.75 
Q 14.984375 37.109375 14.984375 27.296875 
Q 14.984375 17.484375 19.15625 11.84375 
Q 23.34375 6.203125 30.609375 6.203125 
Q 37.796875 6.203125 41.984375 11.859375 
Q 46.1875 17.53125 46.1875 27.296875 
Q 46.1875 37.015625 41.984375 42.703125 
Q 37.796875 48.390625 30.609375 48.390625 
z
M 30.609375 56 
Q 42.328125 56 49.015625 48.375 
Q 55.71875 40.765625 55.71875 27.296875 
Q 55.71875 13.875 49.015625 6.21875 
Q 42.328125 -1.421875 30.609375 -1.421875 
Q 18.84375 -1.421875 12.171875 6.21875 
Q 5.515625 13.875 5.515625 27.296875 
Q 5.515625 40.765625 12.171875 48.375 
Q 18.84375 56 30.609375 56 
z
" id="DejaVuSans-111"/>
      <path d="M 48.78125 52.59375 
L 48.78125 44.1875 
Q 44.96875 46.296875 41.140625 47.34375 
Q 37.3125 48.390625 33.40625 48.390625 
Q 24.65625 48.390625 19.8125 42.84375 
Q 14.984375 37.3125 14.984375 27.296875 
Q 14.984375 17.28125 19.8125 11.734375 
Q 24.65625 6.203125 33.40625 6.203125 
Q 37.3125 6.203125 41.140625 7.25 
Q 44.96875 8.296875 48.78125 10.40625 
L 48.78125 2.09375 
Q 45.015625 0.34375 40.984375 -0.53125 
Q 36.96875 -1.421875 32.421875 -1.421875 
Q 20.0625 -1.421875 12.78125 6.34375 
Q 5.515625 14.109375 5.515625 27.296875 
Q 5.515625 40.671875 12.859375 48.328125 
Q 20.21875 56 33.015625 56 
Q 37.15625 56 41.109375 55.140625 
Q 45.0625 54.296875 48.78125 52.59375 
z
" id="DejaVuSans-99"/>
      <path d="M 54.890625 33.015625 
L 54.890625 0 
L 45.90625 0 
L 45.90625 32.71875 
Q 45.90625 40.484375 42.875 44.328125 
Q 39.84375 48.1875 33.796875 48.1875 
Q 26.515625 48.1875 22.3125 43.546875 
Q 18.109375 38.921875 18.109375 30.90625 
L 18.109375 0 
L 9.078125 0 
L 9.078125 75.984375 
L 18.109375 75.984375 
L 18.109375 46.1875 
Q 21.34375 51.125 25.703125 53.5625 
Q 30.078125 56 35.796875 56 
Q 45.21875 56 50.046875 50.171875 
Q 54.890625 44.34375 54.890625 33.015625 
z
" id="DejaVuSans-104"/>
     </defs>
     <g transform="translate(353.771875 343.276563)scale(0.1 -0.1)">
      <use xlink:href="#DejaVuSans-101"/>
      <use x="61.523438" xlink:href="#DejaVuSans-112"/>
      <use x="125" xlink:href="#DejaVuSans-111"/>
      <use x="186.181641" xlink:href="#DejaVuSans-99"/>
      <use x="241.162109" xlink:href="#DejaVuSans-104"/>
     </g>
    </g>
   </g>
   <g id="matplotlib.axis_2">
    <g id="ytick_1">
     <g id="line2d_15">
      <path clip-path="url(#p0a6b408259)" d="M 90 301.255787 
L 648 301.255787 
" style="fill:none;stroke:#b0b0b0;stroke-linecap:square;stroke-width:0.8;"/>
     </g>
     <g id="line2d_16">
      <defs>
       <path d="M 0 0 
L -3.5 0 
" id="m1016a75e5d" style="stroke:#000000;stroke-width:0.8;"/>
      </defs>
      <g>
       <use style="stroke:#000000;stroke-width:0.8;" x="90" xlink:href="#m1016a75e5d" y="301.255787"/>
      </g>
     </g>
     <g id="text_9">
      <!-- 5 -->
      <g transform="translate(76.6375 305.055005)scale(0.1 -0.1)">
       <use xlink:href="#DejaVuSans-53"/>
      </g>
     </g>
    </g>
    <g id="ytick_2">
     <g id="line2d_17">
      <path clip-path="url(#p0a6b408259)" d="M 90 266.500256 
L 648 266.500256 
" style="fill:none;stroke:#b0b0b0;stroke-linecap:square;stroke-width:0.8;"/>
     </g>
     <g id="line2d_18">
      <g>
       <use style="stroke:#000000;stroke-width:0.8;" x="90" xlink:href="#m1016a75e5d" y="266.500256"/>
      </g>
     </g>
     <g id="text_10">
      <!-- 10 -->
      <g transform="translate(70.275 270.299474)scale(0.1 -0.1)">
       <use xlink:href="#DejaVuSans-49"/>
       <use x="63.623047" xlink:href="#DejaVuSans-48"/>
      </g>
     </g>
    </g>
    <g id="ytick_3">
     <g id="line2d_19">
      <path clip-path="url(#p0a6b408259)" d="M 90 231.744725 
L 648 231.744725 
" style="fill:none;stroke:#b0b0b0;stroke-linecap:square;stroke-width:0.8;"/>
     </g>
     <g id="line2d_20">
      <g>
       <use style="stroke:#000000;stroke-width:0.8;" x="90" xlink:href="#m1016a75e5d" y="231.744725"/>
      </g>
     </g>
     <g id="text_11">
      <!-- 15 -->
      <g transform="translate(70.275 235.543944)scale(0.1 -0.1)">
       <use xlink:href="#DejaVuSans-49"/>
       <use x="63.623047" xlink:href="#DejaVuSans-53"/>
      </g>
     </g>
    </g>
    <g id="ytick_4">
     <g id="line2d_21">
      <path clip-path="url(#p0a6b408259)" d="M 90 196.989194 
L 648 196.989194 
" style="fill:none;stroke:#b0b0b0;stroke-linecap:square;stroke-width:0.8;"/>
     </g>
     <g id="line2d_22">
      <g>
       <use style="stroke:#000000;stroke-width:0.8;" x="90" xlink:href="#m1016a75e5d" y="196.989194"/>
      </g>
     </g>
     <g id="text_12">
      <!-- 20 -->
      <g transform="translate(70.275 200.788413)scale(0.1 -0.1)">
       <use xlink:href="#DejaVuSans-50"/>
       <use x="63.623047" xlink:href="#DejaVuSans-48"/>
      </g>
     </g>
    </g>
    <g id="ytick_5">
     <g id="line2d_23">
      <path clip-path="url(#p0a6b408259)" d="M 90 162.233663 
L 648 162.233663 
" style="fill:none;stroke:#b0b0b0;stroke-linecap:square;stroke-width:0.8;"/>
     </g>
     <g id="line2d_24">
      <g>
       <use style="stroke:#000000;stroke-width:0.8;" x="90" xlink:href="#m1016a75e5d" y="162.233663"/>
      </g>
     </g>
     <g id="text_13">
      <!-- 25 -->
      <g transform="translate(70.275 166.032882)scale(0.1 -0.1)">
       <use xlink:href="#DejaVuSans-50"/>
       <use x="63.623047" xlink:href="#DejaVuSans-53"/>
      </g>
     </g>
    </g>
    <g id="ytick_6">
     <g id="line2d_25">
      <path clip-path="url(#p0a6b408259)" d="M 90 127.478132 
L 648 127.478132 
" style="fill:none;stroke:#b0b0b0;stroke-linecap:square;stroke-width:0.8;"/>
     </g>
     <g id="line2d_26">
      <g>
       <use style="stroke:#000000;stroke-width:0.8;" x="90" xlink:href="#m1016a75e5d" y="127.478132"/>
      </g>
     </g>
     <g id="text_14">
      <!-- 30 -->
      <g transform="translate(70.275 131.277351)scale(0.1 -0.1)">
       <use xlink:href="#DejaVuSans-51"/>
       <use x="63.623047" xlink:href="#DejaVuSans-48"/>
      </g>
     </g>
    </g>
    <g id="ytick_7">
     <g id="line2d_27">
      <path clip-path="url(#p0a6b408259)" d="M 90 92.722602 
L 648 92.722602 
" style="fill:none;stroke:#b0b0b0;stroke-linecap:square;stroke-width:0.8;"/>
     </g>
     <g id="line2d_28">
      <g>
       <use style="stroke:#000000;stroke-width:0.8;" x="90" xlink:href="#m1016a75e5d" y="92.722602"/>
      </g>
     </g>
     <g id="text_15">
      <!-- 35 -->
      <g transform="translate(70.275 96.52182)scale(0.1 -0.1)">
       <use xlink:href="#DejaVuSans-51"/>
       <use x="63.623047" xlink:href="#DejaVuSans-53"/>
      </g>
     </g>
    </g>
    <g id="ytick_8">
     <g id="line2d_29">
      <path clip-path="url(#p0a6b408259)" d="M 90 57.967071 
L 648 57.967071 
" style="fill:none;stroke:#b0b0b0;stroke-linecap:square;stroke-width:0.8;"/>
     </g>
     <g id="line2d_30">
      <g>
       <use style="stroke:#000000;stroke-width:0.8;" x="90" xlink:href="#m1016a75e5d" y="57.967071"/>
      </g>
     </g>
     <g id="text_16">
      <!-- 40 -->
      <defs>
       <path d="M 37.796875 64.3125 
L 12.890625 25.390625 
L 37.796875 25.390625 
z
M 35.203125 72.90625 
L 47.609375 72.90625 
L 47.609375 25.390625 
L 58.015625 25.390625 
L 58.015625 17.1875 
L 47.609375 17.1875 
L 47.609375 0 
L 37.796875 0 
L 37.796875 17.1875 
L 4.890625 17.1875 
L 4.890625 26.703125 
z
" id="DejaVuSans-52"/>
      </defs>
      <g transform="translate(70.275 61.766289)scale(0.1 -0.1)">
       <use xlink:href="#DejaVuSans-52"/>
       <use x="63.623047" xlink:href="#DejaVuSans-48"/>
      </g>
     </g>
    </g>
    <g id="text_17">
     <!-- loss -->
     <defs>
      <path d="M 9.421875 75.984375 
L 18.40625 75.984375 
L 18.40625 0 
L 9.421875 0 
z
" id="DejaVuSans-108"/>
      <path d="M 44.28125 53.078125 
L 44.28125 44.578125 
Q 40.484375 46.53125 36.375 47.5 
Q 32.28125 48.484375 27.875 48.484375 
Q 21.1875 48.484375 17.84375 46.4375 
Q 14.5 44.390625 14.5 40.28125 
Q 14.5 37.15625 16.890625 35.375 
Q 19.28125 33.59375 26.515625 31.984375 
L 29.59375 31.296875 
Q 39.15625 29.25 43.1875 25.515625 
Q 47.21875 21.78125 47.21875 15.09375 
Q 47.21875 7.46875 41.1875 3.015625 
Q 35.15625 -1.421875 24.609375 -1.421875 
Q 20.21875 -1.421875 15.453125 -0.5625 
Q 10.6875 0.296875 5.421875 2 
L 5.421875 11.28125 
Q 10.40625 8.6875 15.234375 7.390625 
Q 20.0625 6.109375 24.8125 6.109375 
Q 31.15625 6.109375 34.5625 8.28125 
Q 37.984375 10.453125 37.984375 14.40625 
Q 37.984375 18.0625 35.515625 20.015625 
Q 33.0625 21.96875 24.703125 23.78125 
L 21.578125 24.515625 
Q 13.234375 26.265625 9.515625 29.90625 
Q 5.8125 33.546875 5.8125 39.890625 
Q 5.8125 47.609375 11.28125 51.796875 
Q 16.75 56 26.8125 56 
Q 31.78125 56 36.171875 55.265625 
Q 40.578125 54.546875 44.28125 53.078125 
z
" id="DejaVuSans-115"/>
     </defs>
     <g transform="translate(64.195312 188.757812)rotate(-90)scale(0.1 -0.1)">
      <use xlink:href="#DejaVuSans-108"/>
      <use x="27.783203" xlink:href="#DejaVuSans-111"/>
      <use x="88.964844" xlink:href="#DejaVuSans-115"/>
      <use x="141.064453" xlink:href="#DejaVuSans-115"/>
     </g>
    </g>
   </g>
   <g id="line2d_31">
    <path clip-path="url(#p0a6b408259)" d="M 115.363636 55.554545 
L 117.997451 133.609001 
L 118.699802 147.451797 
L 119.402152 156.630212 
L 120.104503 163.045919 
L 120.982441 169.262303 
L 122.387142 177.472214 
L 124.143019 186.013089 
L 125.372133 190.970198 
L 130.990937 212.17106 
L 133.624752 223.064937 
L 135.556216 229.789547 
L 138.541206 237.709515 
L 139.77032 240.107652 
L 140.297083 241.15599 
L 141.175021 242.743985 
L 142.930898 245.482486 
L 147.145001 250.702614 
L 147.496177 251.029958 
L 148.02294 251.622672 
L 148.900878 252.490596 
L 149.427641 253.0133 
L 149.778816 253.363196 
L 152.588219 256.020265 
L 153.114982 256.408021 
L 153.466157 256.675389 
L 155.573209 258.493858 
L 155.924384 258.810059 
L 156.451147 259.120161 
L 157.680261 260.16596 
L 157.855848 260.201257 
L 158.207024 260.5718 
L 158.733786 260.909555 
L 159.787312 261.75955 
L 160.138488 261.955506 
L 161.192014 262.744282 
L 161.367601 262.838133 
L 161.718777 263.192051 
L 162.069952 263.405733 
L 163.299065 264.234117 
L 168.566695 267.607993 
L 170.146984 268.553411 
L 170.498159 268.791618 
L 170.673747 268.830802 
L 171.024922 269.077908 
L 174.361088 270.810448 
L 174.712263 271.001694 
L 175.414613 271.307537 
L 176.116964 271.645969 
L 177.17049 272.199196 
L 177.521665 272.256839 
L 178.399604 272.654475 
L 178.575191 272.769596 
L 178.750779 272.70784 
L 179.804305 273.217995 
L 180.15548 273.392297 
L 180.331068 273.529731 
L 180.506655 273.479893 
L 181.033418 273.733218 
L 181.384594 273.805011 
L 181.735769 274.077161 
L 182.262532 274.15328 
L 182.613707 274.293243 
L 182.964882 274.475805 
L 183.316058 274.512716 
L 183.842821 274.735699 
L 184.720759 275.056769 
L 184.896347 275.222436 
L 185.071934 275.123706 
L 185.42311 275.283504 
L 185.598697 275.325333 
L 185.774285 275.50993 
L 186.301048 275.585084 
L 187.003398 275.856588 
L 187.530161 275.980102 
L 187.705749 276.17561 
L 188.056924 276.156896 
L 188.4081 276.246601 
L 188.934863 276.459054 
L 189.286038 276.527612 
L 189.637213 276.722146 
L 190.515152 276.824857 
L 190.866327 277.055301 
L 191.568677 277.165101 
L 191.744265 277.328512 
L 192.09544 277.35818 
L 193.148966 277.656006 
L 193.324554 277.74759 
L 193.500142 277.673516 
L 193.851317 277.773075 
L 194.904843 278.052624 
L 195.08043 277.996028 
L 195.607193 278.353585 
L 196.485132 278.476853 
L 197.011895 278.688016 
L 197.889833 278.817018 
L 198.592184 279.033445 
L 199.118946 279.165847 
L 199.294534 279.14077 
L 199.470122 279.309152 
L 199.821297 279.279526 
L 199.996885 279.375449 
L 200.172472 279.279324 
L 200.523648 279.481488 
L 201.050411 279.504677 
L 202.103937 279.776045 
L 203.508638 280.035733 
L 203.684225 280.160453 
L 204.035401 280.164719 
L 204.386576 280.293005 
L 204.562164 280.259316 
L 205.088927 280.380479 
L 206.493628 280.706861 
L 206.669216 280.708127 
L 206.844803 280.84314 
L 207.020391 280.813091 
L 207.371566 280.895808 
L 209.30303 281.273083 
L 209.478618 281.417455 
L 209.654206 281.285141 
L 209.829793 281.406179 
L 210.180969 281.406502 
L 210.356556 281.505854 
L 210.707732 281.548247 
L 211.234494 281.602131 
L 211.410082 281.622067 
L 211.58567 281.788175 
L 211.761257 281.720056 
L 211.936845 281.794418 
L 212.112433 281.693348 
L 212.28802 281.800376 
L 212.463608 281.773876 
L 212.990371 281.923394 
L 214.043897 282.121716 
L 214.57066 282.292134 
L 214.746248 282.254333 
L 214.921835 282.407558 
L 215.097423 282.287392 
L 215.799773 282.485488 
L 216.677712 282.535135 
L 217.028887 282.686198 
L 217.204475 282.762138 
L 217.380062 282.705194 
L 217.731238 282.779398 
L 218.258001 282.835055 
L 218.609176 282.91177 
L 218.784764 282.87557 
L 218.960351 282.966667 
L 219.135939 282.930659 
L 219.311526 283.09308 
L 219.487114 283.007345 
L 219.662702 283.166035 
L 219.838289 283.122513 
L 220.013877 283.231734 
L 220.365052 283.184351 
L 220.716228 283.308387 
L 221.067403 283.422495 
L 221.418578 283.411061 
L 221.594166 283.505992 
L 221.945341 283.458913 
L 222.120929 283.603663 
L 222.296517 283.503975 
L 222.472104 283.661576 
L 222.647692 283.57893 
L 222.82328 283.691818 
L 223.350042 283.664244 
L 223.701218 283.850358 
L 223.876805 283.783709 
L 224.227981 283.866985 
L 224.754744 283.990308 
L 225.105919 284.020775 
L 225.457094 284.119713 
L 225.632682 284.021753 
L 225.983857 284.149328 
L 226.159445 284.074146 
L 226.51062 284.198127 
L 226.686208 284.207253 
L 227.037383 284.347692 
L 227.915321 284.366729 
L 228.266497 284.524122 
L 228.79326 284.573436 
L 229.671198 284.788913 
L 230.373549 284.84178 
L 230.724724 284.989561 
L 231.075899 285.036851 
L 231.251487 284.954455 
L 233.007363 285.349847 
L 233.358539 285.324308 
L 233.534126 285.392412 
L 233.709714 285.332462 
L 234.060889 285.493077 
L 234.587652 285.487797 
L 234.938828 285.523536 
L 235.114415 285.612483 
L 235.290003 285.352416 
L 235.46559 285.653071 
L 235.641178 285.57451 
L 235.816766 285.772675 
L 235.992353 285.700464 
L 236.519116 285.878601 
L 238.099405 286.150739 
L 238.977344 286.342997 
L 239.328519 286.35746 
L 239.504106 286.436512 
L 239.679694 286.370884 
L 240.030869 286.436183 
L 240.73322 286.496375 
L 240.908808 286.661591 
L 241.962334 286.739024 
L 242.313509 286.86114 
L 242.489097 286.831038 
L 242.664684 286.937158 
L 243.01586 286.940827 
L 244.069385 287.101889 
L 245.122911 287.320475 
L 245.474087 287.311559 
L 245.649674 287.387528 
L 246.00085 287.347214 
L 246.7032 287.503794 
L 246.878788 287.578317 
L 247.054376 287.484986 
L 247.405551 287.590894 
L 249.161427 287.909584 
L 249.68819 287.980736 
L 250.390541 287.989248 
L 250.741716 288.079624 
L 251.795242 288.253202 
L 254.429057 288.653441 
L 255.131408 288.702192 
L 256.184933 288.913965 
L 256.360521 288.877032 
L 256.711696 288.949906 
L 257.238459 289.153457 
L 257.414047 289.030265 
L 257.589635 289.150716 
L 258.291985 289.156803 
L 258.818748 289.201531 
L 259.169924 289.404482 
L 259.521099 289.324198 
L 259.696686 289.453428 
L 259.872274 289.39289 
L 260.047862 289.503934 
L 260.399037 289.433112 
L 261.276975 289.606385 
L 261.803738 289.66749 
L 262.506089 289.719605 
L 262.681677 289.689252 
L 262.857264 289.825256 
L 263.032852 289.759177 
L 263.559615 289.912481 
L 264.086378 289.909896 
L 264.964316 290.138871 
L 265.315491 290.079405 
L 266.369017 290.298652 
L 266.720193 290.312618 
L 267.422543 290.320237 
L 267.598131 290.447408 
L 267.773718 290.390018 
L 268.124894 290.520233 
L 269.17842 290.570725 
L 269.529595 290.729812 
L 269.705183 290.64776 
L 270.231946 290.801907 
L 271.285472 290.770689 
L 271.461059 290.884069 
L 271.812234 290.806686 
L 272.16341 291.006119 
L 272.514585 290.926134 
L 272.86576 291.038756 
L 273.568111 291.063297 
L 274.270462 291.233891 
L 274.446049 291.176228 
L 275.1484 291.351975 
L 275.323988 291.274359 
L 275.499575 291.382593 
L 275.85075 291.362511 
L 276.553101 291.476677 
L 276.904276 291.503853 
L 279.186916 291.736877 
L 279.713679 291.877777 
L 280.064854 291.838846 
L 280.767205 292.00122 
L 281.293968 291.894949 
L 281.645143 292.082087 
L 281.820731 291.960968 
L 282.698669 292.129168 
L 282.874257 292.108598 
L 283.225432 292.22217 
L 283.40102 292.175681 
L 283.752195 292.207269 
L 284.278958 292.297312 
L 284.805721 292.318318 
L 286.210422 292.469629 
L 286.38601 292.377511 
L 286.912773 292.562316 
L 288.317474 292.71076 
L 288.844237 292.69069 
L 289.019824 292.814759 
L 289.195412 292.755941 
L 289.546587 292.827069 
L 290.248938 292.875249 
L 290.951289 292.949238 
L 291.302464 292.979817 
L 305.525064 294.21688 
L 305.700651 294.105892 
L 305.876239 294.292771 
L 306.403002 294.172892 
L 307.456528 294.327774 
L 307.807703 294.29789 
L 307.983291 294.431323 
L 308.510054 294.468817 
L 309.914755 294.452476 
L 310.090343 294.60324 
L 310.26593 294.513213 
L 311.495044 294.70291 
L 312.197395 294.723195 
L 312.54857 294.803911 
L 313.25092 294.760994 
L 313.426508 294.909101 
L 313.602096 294.860732 
L 313.777683 294.962386 
L 314.128859 294.717026 
L 314.655622 294.891688 
L 315.182385 294.987555 
L 315.357972 294.941534 
L 315.53356 295.045175 
L 316.060323 294.862222 
L 316.411498 294.925107 
L 317.113849 295.048194 
L 317.289436 295.195499 
L 317.640612 295.091166 
L 318.167375 295.192077 
L 318.51855 295.159159 
L 318.694138 295.25129 
L 318.869725 295.144429 
L 319.045313 295.285115 
L 319.396488 295.232485 
L 319.747664 295.257616 
L 320.098839 295.219662 
L 320.625602 295.339032 
L 320.976777 295.35914 
L 321.152365 295.213811 
L 321.327952 295.350796 
L 321.679128 295.310062 
L 322.381478 295.338915 
L 323.78618 295.535078 
L 323.961767 295.426533 
L 324.664118 295.564166 
L 325.015293 295.565288 
L 325.893231 295.695084 
L 326.244407 295.548957 
L 326.419994 295.653853 
L 326.946757 295.635383 
L 327.122345 295.756639 
L 327.297933 295.629958 
L 327.824696 295.755081 
L 328.878221 295.79015 
L 329.053809 295.902767 
L 329.229397 295.814907 
L 329.75616 295.825079 
L 334.672614 296.148237 
L 336.779666 296.254142 
L 336.955253 296.362862 
L 337.306429 296.321518 
L 337.833192 296.386082 
L 338.359955 296.401954 
L 338.71113 296.571571 
L 338.886718 296.425418 
L 339.062305 296.493228 
L 339.413481 296.44969 
L 339.764656 296.476452 
L 339.940244 296.567532 
L 340.291419 296.565666 
L 340.467007 296.600282 
L 340.818182 296.530895 
L 341.344945 296.488268 
L 342.047295 296.593061 
L 342.398471 296.521694 
L 342.749646 296.663258 
L 343.276409 296.681819 
L 343.97876 296.771973 
L 344.329935 296.768975 
L 344.68111 296.762373 
L 344.856698 296.646757 
L 345.032285 296.805225 
L 345.910224 296.795117 
L 346.436987 296.78086 
L 346.788162 296.787187 
L 346.96375 296.867245 
L 347.139337 296.798911 
L 347.314925 296.930062 
L 347.490513 296.884071 
L 347.841688 296.905966 
L 349.773152 297.013899 
L 349.94874 297.109112 
L 350.299915 297.051895 
L 350.475503 297.074323 
L 350.65109 296.953084 
L 351.002266 297.121303 
L 351.177853 297.047271 
L 351.529029 297.077046 
L 352.406967 297.092236 
L 352.582555 297.219273 
L 352.93373 297.034076 
L 353.460493 297.114674 
L 353.63608 297.053183 
L 353.987256 297.189356 
L 354.162843 297.149658 
L 354.514019 297.264916 
L 354.689606 297.199099 
L 355.216369 297.326454 
L 355.567545 297.290095 
L 355.743132 297.376634 
L 355.91872 297.263522 
L 356.094308 297.358751 
L 356.269895 297.287293 
L 356.445483 297.387223 
L 356.972246 297.289155 
L 357.499009 297.4057 
L 357.674596 297.350155 
L 357.850184 297.462385 
L 358.201359 297.391631 
L 358.552535 297.490302 
L 358.728122 297.398554 
L 359.254885 297.567082 
L 359.781648 297.439979 
L 360.132824 297.480915 
L 360.659587 297.428809 
L 361.537525 297.538568 
L 362.064288 297.616202 
L 362.239875 297.329477 
L 362.415463 297.61169 
L 362.591051 297.517025 
L 362.766638 297.652075 
L 362.942226 297.560749 
L 363.468989 297.686503 
L 363.820164 297.642262 
L 364.346927 297.634564 
L 364.698103 297.603883 
L 365.224865 297.626962 
L 365.400453 297.709455 
L 365.751628 297.646402 
L 367.683093 297.806867 
L 368.209856 297.900535 
L 368.561031 297.931345 
L 370.668083 297.912162 
L 370.84367 298.026688 
L 371.370433 297.96233 
L 371.897196 297.99191 
L 373.301897 298.125034 
L 373.477485 298.093566 
L 373.653073 298.187294 
L 374.179836 298.121922 
L 374.355423 298.175037 
L 374.531011 298.083655 
L 374.706599 298.196028 
L 374.882186 298.042184 
L 375.233362 298.122956 
L 376.286888 298.127069 
L 376.462475 298.015057 
L 376.813651 298.051516 
L 377.164826 297.679602 
L 377.691589 298.076599 
L 378.218352 298.191141 
L 379.271878 298.290039 
L 379.447465 298.424551 
L 379.798641 298.277057 
L 380.149816 298.393733 
L 380.676579 298.371989 
L 380.852167 298.426338 
L 381.027754 298.321683 
L 381.730105 298.391036 
L 384.715095 298.538123 
L 384.890683 298.476391 
L 385.06627 298.608074 
L 385.417445 298.584354 
L 385.944208 298.611099 
L 386.295384 298.565612 
L 387.34891 298.590075 
L 387.700085 298.606429 
L 388.578023 298.647619 
L 388.753611 298.490249 
L 389.455961 298.690774 
L 390.158312 298.554226 
L 390.3339 298.761148 
L 390.509487 298.657925 
L 390.860663 298.671944 
L 391.563013 298.710477 
L 392.265364 298.826039 
L 392.616539 298.798384 
L 394.196828 298.820968 
L 399.28887 298.959375 
L 399.464458 298.867015 
L 399.640045 298.964889 
L 399.815633 298.776931 
L 400.517984 299.017209 
L 400.693571 298.930981 
L 401.220334 299.041329 
L 401.571509 298.988501 
L 401.747097 299.156978 
L 401.922685 299.009438 
L 402.449448 299.18157 
L 402.625035 299.022865 
L 402.800623 299.159983 
L 404.732087 299.032641 
L 405.083263 299.151428 
L 406.312376 299.270965 
L 407.014727 299.270103 
L 408.419428 299.247732 
L 408.595016 299.361779 
L 409.121779 299.366476 
L 409.297366 299.359626 
L 409.472954 299.171968 
L 409.824129 299.36517 
L 410.175304 299.438698 
L 410.52648 299.368943 
L 411.580006 299.310657 
L 411.755593 299.456142 
L 412.282356 299.387026 
L 412.633532 299.486149 
L 413.160295 299.288832 
L 413.335882 299.417462 
L 413.51147 299.375009 
L 414.038233 299.519967 
L 416.320872 299.526696 
L 420.534976 299.602075 
L 420.710564 299.494147 
L 420.886151 299.653003 
L 421.412914 299.600889 
L 421.939677 299.634258 
L 422.115265 299.588767 
L 422.46644 299.65268 
L 423.871141 299.804859 
L 424.046729 299.836486 
L 424.222317 299.730128 
L 424.397904 299.866183 
L 424.573492 299.702483 
L 426.680544 299.676906 
L 426.856131 299.905555 
L 427.031719 299.74113 
L 428.260833 299.826409 
L 428.612008 299.915104 
L 429.665534 299.862714 
L 430.016709 299.911531 
L 430.192297 299.807418 
L 430.367884 299.940987 
L 431.070235 299.842953 
L 431.42141 299.935157 
L 432.650524 299.914844 
L 432.826112 299.803568 
L 433.001699 299.900984 
L 433.177287 299.827491 
L 433.352875 300.030155 
L 433.70405 299.939983 
L 434.757576 300.01018 
L 436.162277 300.063531 
L 436.337865 299.80947 
L 436.513452 300.019229 
L 436.68904 299.947091 
L 436.864628 300.105972 
L 437.040215 299.969203 
L 437.391391 300.093185 
L 440.200793 300.121078 
L 440.551968 300.128718 
L 440.727556 300.157687 
L 441.078731 300.048793 
L 441.429907 300.063498 
L 441.956669 300.04251 
L 442.307845 300.080164 
L 442.65902 300.038569 
L 442.834608 300.096284 
L 443.361371 299.895934 
L 444.063721 300.168828 
L 444.414897 300.11967 
L 444.94166 300.238042 
L 445.292835 300.129159 
L 445.468423 300.289195 
L 445.995185 300.201812 
L 446.170773 300.324749 
L 446.521948 300.13465 
L 447.224299 300.178667 
L 447.399887 299.890225 
L 447.575474 299.91637 
L 447.751062 299.752063 
L 448.102237 299.991342 
L 448.804588 300.202848 
L 449.506939 300.361421 
L 450.033702 300.319439 
L 450.736052 300.363468 
L 451.438403 300.266749 
L 451.789578 300.41476 
L 454.59898 300.423068 
L 455.125743 300.467543 
L 455.301331 300.383859 
L 455.652506 300.488506 
L 456.179269 300.497031 
L 456.354857 300.402596 
L 456.706032 300.530362 
L 456.88162 300.334515 
L 457.232795 300.363983 
L 457.583971 300.422564 
L 458.110734 300.43045 
L 458.286321 300.554241 
L 458.461909 300.420876 
L 458.813084 300.385316 
L 458.988672 300.30633 
L 459.164259 300.499286 
L 459.339847 300.466045 
L 459.515435 300.578998 
L 459.86661 300.527592 
L 460.217785 300.536653 
L 460.393373 300.603442 
L 460.568961 300.412879 
L 460.920136 300.589601 
L 461.798074 300.467813 
L 461.973662 300.53334 
L 462.14925 300.470609 
L 462.324837 300.579859 
L 462.8516 300.453426 
L 463.027188 300.567824 
L 463.378363 300.463453 
L 463.553951 300.624283 
L 466.187766 300.59295 
L 466.538941 300.683316 
L 471.630983 300.738991 
L 472.157746 300.864707 
L 472.684509 300.737904 
L 472.860096 300.838929 
L 473.562447 300.774496 
L 473.913622 300.799584 
L 474.08921 300.731338 
L 474.440385 300.839567 
L 475.493911 300.752645 
L 476.020674 300.838464 
L 476.547437 300.842327 
L 477.0742 300.924566 
L 480.05919 300.843056 
L 480.234778 300.65854 
L 480.410365 300.871745 
L 480.585953 300.753885 
L 480.761541 300.327644 
L 480.937128 300.249867 
L 481.112716 299.660235 
L 481.288304 299.701038 
L 481.639479 297.051849 
L 481.815067 292.715095 
L 481.990654 296.834541 
L 482.166242 296.761879 
L 482.34183 298.353656 
L 482.517417 298.301244 
L 482.868592 298.861549 
L 483.04418 299.001937 
L 483.395355 299.440781 
L 483.570943 299.422926 
L 484.097706 299.992328 
L 484.273294 300.057933 
L 484.448881 300.26343 
L 484.800057 300.40007 
L 485.677995 300.655537 
L 487.258284 300.853319 
L 487.433871 300.989885 
L 488.136222 300.952986 
L 488.487397 300.99409 
L 488.838573 300.956644 
L 489.01416 301.038548 
L 489.189748 300.905432 
L 489.365336 301.048838 
L 489.540923 300.940749 
L 489.716511 301.051095 
L 490.243274 301.042996 
L 490.418862 301.10617 
L 490.770037 301.086347 
L 491.472387 301.09556 
L 491.647975 301.027998 
L 492.174738 301.162916 
L 492.877089 301.134061 
L 493.930615 301.184913 
L 494.28179 301.140964 
L 494.457378 301.240548 
L 494.632965 301.11879 
L 494.808553 301.197104 
L 495.159728 301.093203 
L 495.510903 301.152505 
L 495.862079 301.171902 
L 496.037666 301.241325 
L 496.388842 301.103685 
L 497.091192 301.199842 
L 498.847069 301.273514 
L 499.022656 301.195155 
L 499.549419 301.264419 
L 502.53441 301.262795 
L 502.885585 301.29219 
L 503.23676 301.246975 
L 503.939111 301.324073 
L 504.992637 301.266549 
L 505.168224 301.447071 
L 505.5194 301.241686 
L 505.870575 301.28815 
L 506.397338 301.227092 
L 506.572926 301.342717 
L 506.748513 301.181458 
L 506.924101 301.183181 
L 507.099688 301.061581 
L 507.275276 300.557619 
L 507.450864 300.827297 
L 507.802039 299.848248 
L 507.977627 300.004062 
L 508.153214 300.502471 
L 509.031153 301.073654 
L 509.20674 300.915855 
L 509.382328 301.135777 
L 509.557916 301.059386 
L 510.084679 301.234617 
L 510.260266 301.210768 
L 510.435854 301.32869 
L 510.787029 301.275246 
L 511.138204 301.311141 
L 511.313792 301.230704 
L 511.664967 301.391622 
L 511.840555 301.30783 
L 512.19173 301.388494 
L 512.367318 301.466756 
L 512.718493 301.372492 
L 512.894081 301.443009 
L 513.245256 301.225437 
L 513.420844 301.376136 
L 513.596432 301.317159 
L 513.772019 301.426756 
L 514.123195 301.353551 
L 514.298782 301.446751 
L 514.47437 301.341537 
L 515.001133 301.39534 
L 515.352308 301.216005 
L 515.703483 301.283093 
L 516.230246 301.457525 
L 516.405834 301.326686 
L 516.581422 301.419035 
L 516.757009 301.330506 
L 517.108185 301.431849 
L 519.741999 301.490219 
L 519.917587 301.577326 
L 520.268762 301.528284 
L 520.971113 301.506764 
L 521.497876 301.570769 
L 522.551402 301.516969 
L 522.902577 301.580882 
L 523.253752 301.559604 
L 523.780515 301.52008 
L 523.956103 301.620292 
L 524.482866 301.555879 
L 524.834041 301.641659 
L 525.360804 301.56752 
L 525.536392 301.69119 
L 525.71198 301.58454 
L 526.238743 301.612171 
L 526.941093 301.604959 
L 528.69697 301.626895 
L 528.872557 301.558847 
L 529.048145 301.674467 
L 529.39932 301.65273 
L 530.628434 301.611688 
L 532.38431 301.444431 
L 532.559898 301.348637 
L 532.911073 301.591658 
L 533.437836 301.566447 
L 533.613424 301.688018 
L 533.964599 301.565948 
L 534.140187 301.672824 
L 534.315775 301.598945 
L 534.491362 301.753079 
L 535.193713 301.716938 
L 535.544888 301.747421 
L 536.949589 301.760058 
L 537.125177 301.608752 
L 537.300765 301.744379 
L 537.476352 301.58956 
L 537.827528 301.738819 
L 538.529878 301.788603 
L 540.461342 301.639212 
L 540.63693 301.802337 
L 540.988105 301.732319 
L 541.514868 301.809407 
L 542.217219 301.759483 
L 542.392807 301.945943 
L 542.568394 301.773364 
L 542.743982 301.888755 
L 543.095157 301.750093 
L 543.270745 301.832736 
L 543.446332 301.735468 
L 543.62192 301.906256 
L 543.973095 301.760289 
L 544.324271 301.779926 
L 545.026621 301.913416 
L 545.553384 301.83479 
L 546.60691 301.890679 
L 546.958086 301.822194 
L 547.309261 301.930535 
L 549.065137 301.776459 
L 549.767488 301.945195 
L 550.294251 301.727851 
L 550.645426 301.797141 
L 551.172189 301.855512 
L 555.035118 301.905633 
L 555.210705 301.778649 
L 555.56188 301.81531 
L 555.737468 301.645587 
L 555.913056 301.804324 
L 556.790994 301.75207 
L 557.142169 301.883334 
L 557.493345 301.886614 
L 557.668932 301.805671 
L 558.195695 301.878459 
L 558.898046 301.911293 
L 559.249221 302.071692 
L 559.951572 301.971813 
L 560.127159 302.036917 
L 560.653922 301.845356 
L 561.005098 301.988775 
L 561.180685 301.845827 
L 561.356273 302.002759 
L 561.707448 301.888076 
L 561.883036 302.028614 
L 564.516851 301.931979 
L 564.868026 302.016055 
L 566.272727 301.936072 
L 566.975078 301.958545 
L 567.150666 302.02204 
L 567.326253 301.882589 
L 567.853016 301.989905 
L 568.028604 301.838046 
L 568.555367 302.088992 
L 568.906542 301.951352 
L 569.08213 302.031385 
L 569.433305 301.953657 
L 569.608893 302.046309 
L 569.78448 301.935467 
L 569.960068 302.03379 
L 570.311243 301.28744 
L 570.486831 301.412591 
L 571.013594 299.338998 
L 571.189182 298.529312 
L 571.364769 295.69782 
L 571.540357 296.341863 
L 571.715944 297.964204 
L 572.06712 298.746095 
L 572.242707 299.097227 
L 572.418295 299.166055 
L 572.593883 300.014514 
L 572.76947 299.818147 
L 573.120646 300.646742 
L 573.296233 300.632425 
L 573.647409 301.145099 
L 574.174172 301.262104 
L 574.349759 301.454996 
L 574.525347 301.445886 
L 574.876522 301.648275 
L 575.227698 301.768857 
L 575.75446 301.65029 
L 576.632399 301.847914 
L 576.807986 301.868494 
L 576.983574 302.012138 
L 577.159162 301.956142 
L 577.510337 302.074385 
L 577.685925 301.984514 
L 578.0371 302.113624 
L 578.212688 302.041206 
L 578.563863 302.032288 
L 580.319739 302.038364 
L 580.495327 302.144504 
L 580.670915 302.040673 
L 580.846502 302.157492 
L 581.373265 302.120419 
L 581.900028 302.16643 
L 582.426791 302.112189 
L 583.129142 302.270798 
L 583.30473 302.150936 
L 583.655905 302.217003 
L 584.00708 302.176658 
L 585.762957 302.264943 
L 585.938544 302.217098 
L 586.28972 302.257737 
L 586.640895 302.312324 
L 587.343246 302.336463 
L 587.518833 302.143435 
L 587.694421 302.139695 
L 588.045596 302.259777 
L 588.221184 302.298062 
L 588.396771 302.214472 
L 588.923534 302.330974 
L 589.27471 302.270843 
L 589.450297 302.376913 
L 589.625885 302.227644 
L 590.152648 302.279341 
L 591.732937 302.170167 
L 591.908524 302.349394 
L 592.084112 302.161574 
L 592.435287 302.385105 
L 593.137638 302.267813 
L 593.313226 302.351201 
L 593.839989 302.289318 
L 594.191164 302.309353 
L 594.542339 302.313388 
L 595.069102 302.286219 
L 595.24469 302.389505 
L 595.94704 302.264013 
L 596.473803 301.674435 
L 596.649391 301.514288 
L 596.824979 301.732209 
L 597.000566 301.619207 
L 597.176154 301.357904 
L 597.351742 301.707493 
L 597.527329 301.743592 
L 597.702917 301.932085 
L 598.054092 301.924818 
L 598.22968 302.036998 
L 598.405268 301.953541 
L 598.580855 302.125711 
L 598.756443 301.974052 
L 598.932031 302.082512 
L 599.107618 301.950232 
L 599.283206 301.960968 
L 599.458794 301.745436 
L 599.634381 301.759135 
L 599.809969 301.086352 
L 599.985556 301.198947 
L 600.336732 300.218856 
L 601.039082 301.484634 
L 601.21467 301.706803 
L 601.565845 301.820653 
L 602.794959 302.222785 
L 603.146134 302.265715 
L 605.779949 302.394288 
L 605.955537 302.265246 
L 606.131124 302.345833 
L 606.306712 302.241552 
L 606.833475 301.630247 
L 607.009063 301.844566 
L 607.711413 299.474845 
L 607.887001 300.845623 
L 608.062589 299.993327 
L 608.238176 301.006783 
L 608.413764 300.894781 
L 608.940527 301.354799 
L 609.116114 301.302389 
L 609.46729 301.634023 
L 609.642877 301.635892 
L 609.994053 301.947232 
L 611.398754 302.082456 
L 611.749929 302.24312 
L 612.276692 302.316438 
L 612.979043 302.364512 
L 613.15463 302.432223 
L 613.330218 302.330129 
L 613.505806 302.442336 
L 614.032569 302.386428 
L 615.086095 302.449601 
L 615.43727 302.403778 
L 615.964033 302.420324 
L 616.841971 302.114512 
L 617.193146 302.329507 
L 617.544322 302.311405 
L 618.246672 302.484107 
L 619.826961 302.51714 
L 620.178137 302.516573 
L 620.353724 302.54483 
L 620.529312 302.426186 
L 622.285188 302.586212 
L 622.636364 302.602748 
L 622.636364 302.602748 
" style="fill:none;stroke:#1f77b4;stroke-linecap:square;stroke-width:0.5;"/>
   </g>
   <g id="line2d_32">
    <path clip-path="url(#p0a6b408259)" d="M 115.363636 59.590986 
L 116.241575 84.327388 
L 117.821863 132.132126 
L 118.524214 146.218441 
L 119.226565 155.831194 
L 120.104503 163.644148 
L 121.158029 170.543057 
L 122.211555 176.645228 
L 124.143019 186.012864 
L 126.601246 195.333751 
L 129.937411 207.806293 
L 132.044463 216.571291 
L 133.80034 223.723272 
L 134.678278 226.97803 
L 135.205041 228.643947 
L 136.434155 232.266434 
L 137.487681 235.044872 
L 138.716794 237.852094 
L 141.175021 242.499027 
L 143.984424 246.625928 
L 144.160011 246.742342 
L 145.03795 247.911905 
L 145.389125 248.411752 
L 145.915888 248.998162 
L 146.267063 249.393647 
L 147.320589 250.597602 
L 149.427641 252.740635 
L 149.603229 252.84556 
L 149.954404 253.343949 
L 150.129992 253.31836 
L 150.656754 253.959029 
L 151.183517 254.418511 
L 154.69527 257.487787 
L 155.924384 258.525472 
L 156.451147 258.930218 
L 158.031436 260.062685 
L 158.382611 260.376255 
L 158.909374 260.815929 
L 159.084962 261.014013 
L 159.260549 260.968345 
L 159.787312 261.515146 
L 160.138488 261.707045 
L 160.489663 261.931174 
L 160.840838 262.205831 
L 161.367601 262.696284 
L 161.543189 262.641223 
L 161.718777 262.886307 
L 161.894364 262.91287 
L 162.24554 263.237954 
L 162.596715 263.442077 
L 162.772302 263.704881 
L 162.94789 263.673319 
L 163.474653 264.022732 
L 163.650241 264.285748 
L 163.825828 264.280909 
L 164.352591 264.71125 
L 169.971396 268.172868 
L 170.146984 268.153505 
L 170.322572 268.420087 
L 170.673747 268.598456 
L 171.376097 268.986483 
L 171.90286 269.210314 
L 173.483149 270.041059 
L 173.658737 270.294449 
L 173.834325 270.226501 
L 174.009912 270.398824 
L 174.1855 270.399805 
L 174.361088 270.64772 
L 174.712263 270.654422 
L 175.063438 270.891962 
L 175.590201 271.044286 
L 175.941376 271.343689 
L 176.116964 271.179605 
L 176.819315 271.660771 
L 177.17049 271.767931 
L 177.346078 271.878729 
L 177.521665 271.830549 
L 177.697253 272.108387 
L 177.872841 272.147048 
L 178.048428 272.319677 
L 178.224016 272.222103 
L 178.399604 272.444032 
L 178.575191 272.382421 
L 179.628717 272.892251 
L 179.804305 272.819464 
L 180.15548 272.965297 
L 180.506655 273.254186 
L 180.857831 273.312986 
L 182.964882 274.073853 
L 183.14047 274.102789 
L 183.491645 274.397274 
L 183.842821 274.370512 
L 186.12546 275.330245 
L 186.301048 275.20416 
L 186.652223 275.394972 
L 187.354574 275.54046 
L 187.530161 275.763357 
L 187.705749 275.687281 
L 189.461626 276.242932 
L 189.637213 276.238669 
L 189.988389 276.425437 
L 190.163976 276.392325 
L 190.339564 276.581539 
L 190.515152 276.527572 
L 190.866327 276.738662 
L 191.568677 276.770773 
L 191.919853 277.003799 
L 192.446616 277.105861 
L 192.622203 277.283752 
L 192.797791 277.208459 
L 193.324554 277.480457 
L 193.500142 277.33064 
L 194.729255 277.696758 
L 195.08043 277.789638 
L 195.256018 277.788816 
L 195.431606 277.971474 
L 195.607193 277.90867 
L 196.133956 278.131275 
L 196.485132 278.11988 
L 197.011895 278.293389 
L 197.187482 278.280284 
L 197.538658 278.470877 
L 197.714245 278.352594 
L 197.889833 278.482749 
L 198.416596 278.553853 
L 198.767771 278.698732 
L 199.294534 278.859766 
L 199.470122 278.768616 
L 199.645709 278.964227 
L 199.821297 278.806939 
L 200.172472 278.905533 
L 200.34806 278.904492 
L 200.699235 279.28353 
L 201.225998 279.220945 
L 202.6307 279.52522 
L 203.157462 279.636596 
L 203.684225 279.846049 
L 204.386576 279.875561 
L 204.913339 280.12103 
L 205.088927 280.038312 
L 205.264514 280.153851 
L 205.61569 279.999174 
L 205.791277 280.254885 
L 205.966865 280.151749 
L 206.142453 280.317861 
L 206.669216 280.400314 
L 206.844803 280.514427 
L 207.371566 280.478374 
L 207.898329 280.679594 
L 208.073917 280.721864 
L 208.249504 280.638606 
L 209.127443 280.90792 
L 209.30303 280.830204 
L 209.478618 280.965808 
L 209.654206 280.926468 
L 210.005381 281.030773 
L 210.180969 280.970028 
L 210.707732 281.200826 
L 211.234494 281.144522 
L 211.410082 281.413567 
L 211.761257 281.314764 
L 214.219485 281.721674 
L 214.57066 281.936231 
L 214.921835 281.861594 
L 216.326536 282.187268 
L 216.677712 282.236827 
L 217.028887 282.36694 
L 217.204475 282.282571 
L 217.906825 282.470019 
L 218.082413 282.365859 
L 218.433588 282.494112 
L 218.960351 282.537195 
L 219.311526 282.813764 
L 219.487114 282.740187 
L 219.838289 282.824125 
L 220.189465 282.717403 
L 220.365052 282.978725 
L 220.54064 282.907698 
L 220.716228 283.009908 
L 220.891815 282.888079 
L 221.067403 283.068384 
L 221.418578 283.060505 
L 221.594166 283.197525 
L 221.769754 283.069302 
L 222.647692 283.205765 
L 222.82328 283.331595 
L 223.52563 283.348267 
L 224.754744 283.636523 
L 224.930331 283.562089 
L 225.632682 283.725436 
L 226.335033 283.7306 
L 226.686208 283.891498 
L 227.212971 283.934819 
L 227.388558 283.920404 
L 227.564146 284.126615 
L 227.739734 283.907361 
L 227.915321 284.067036 
L 228.266497 284.12231 
L 228.79326 284.356081 
L 228.968847 284.190752 
L 229.144435 284.182088 
L 229.671198 284.371786 
L 230.022373 284.39809 
L 230.373549 284.561673 
L 230.724724 284.509846 
L 230.900312 284.594195 
L 231.075899 284.535803 
L 231.427074 284.67857 
L 231.77825 284.7627 
L 231.953837 284.585952 
L 233.358539 285.048066 
L 233.709714 284.981092 
L 234.236477 285.119517 
L 234.412065 285.001443 
L 234.76324 284.983316 
L 234.938828 285.194539 
L 235.114415 285.059401 
L 235.290003 285.208162 
L 235.46559 285.172013 
L 236.167941 285.413113 
L 236.343529 285.373537 
L 236.519116 285.601449 
L 236.694704 285.497982 
L 237.045879 285.612871 
L 237.221467 285.503746 
L 237.74823 285.733693 
L 237.923818 285.660978 
L 238.274993 285.919301 
L 238.450581 285.866238 
L 238.626168 285.980998 
L 239.152931 285.909854 
L 239.328519 286.057245 
L 239.679694 285.956934 
L 240.382045 286.101783 
L 240.557632 286.037408 
L 240.73322 286.226055 
L 241.435571 286.276834 
L 241.611158 286.356536 
L 241.786746 286.306121 
L 242.137921 286.58036 
L 242.489097 286.502366 
L 242.840272 286.529787 
L 243.01586 286.625889 
L 243.191447 286.465641 
L 243.367035 286.701454 
L 243.542622 286.644845 
L 243.71821 286.742634 
L 243.893798 286.584039 
L 244.244973 286.808212 
L 244.596148 286.819972 
L 245.122911 286.86094 
L 246.352025 286.992441 
L 246.7032 287.189136 
L 247.054376 287.189793 
L 248.107901 287.339617 
L 248.459077 287.452692 
L 248.810252 287.359796 
L 248.98584 287.594094 
L 249.161427 287.414184 
L 249.337015 287.54073 
L 249.863778 287.458108 
L 250.214953 287.611923 
L 250.390541 287.571569 
L 250.566129 287.701025 
L 250.741716 287.66003 
L 250.917304 287.834578 
L 251.092892 287.710567 
L 252.848768 288.09124 
L 253.024356 287.976125 
L 253.199943 288.173546 
L 253.902294 288.088585 
L 254.253469 288.208356 
L 254.604645 288.331292 
L 254.780232 288.429804 
L 254.95582 288.274607 
L 255.306995 288.38751 
L 256.009346 288.536638 
L 256.184933 288.479201 
L 256.536109 288.731795 
L 256.711696 288.503413 
L 256.887284 288.645737 
L 257.238459 288.68689 
L 258.116398 288.84332 
L 258.291985 288.709376 
L 258.467573 288.715193 
L 258.643161 288.895736 
L 258.994336 288.863539 
L 259.345511 289.036962 
L 259.872274 289.005782 
L 260.750212 289.19902 
L 262.681677 289.346209 
L 262.857264 289.494419 
L 263.384027 289.431436 
L 263.559615 289.524897 
L 263.735202 289.420697 
L 263.91079 289.624592 
L 264.086378 289.517598 
L 264.437553 289.622851 
L 264.788728 289.690916 
L 264.964316 289.747777 
L 265.139904 289.578297 
L 265.491079 289.732805 
L 266.369017 289.874807 
L 268.651657 290.168953 
L 269.002832 290.169818 
L 269.354007 290.30063 
L 269.529595 290.168522 
L 270.056358 290.363003 
L 270.934296 290.338558 
L 271.285472 290.580172 
L 271.461059 290.592747 
L 271.636647 290.39644 
L 271.812234 290.584166 
L 272.690173 290.618272 
L 273.392523 290.799005 
L 273.568111 290.678713 
L 273.743699 290.810745 
L 274.094874 290.655246 
L 274.270462 290.934407 
L 274.621637 290.873062 
L 275.323988 290.942143 
L 275.499575 291.01674 
L 275.85075 290.955955 
L 276.026338 291.016697 
L 276.201926 290.950476 
L 276.377513 291.156386 
L 276.904276 291.010466 
L 277.255452 291.181473 
L 277.431039 291.082939 
L 277.957802 291.312312 
L 278.13339 291.180625 
L 278.308978 291.358513 
L 278.660153 291.336896 
L 279.011328 291.329107 
L 279.186916 291.49906 
L 279.713679 291.433661 
L 280.064854 291.514366 
L 281.11838 291.599988 
L 281.469555 291.605666 
L 281.820731 291.627668 
L 282.171906 291.582736 
L 282.523081 291.820147 
L 283.225432 291.780442 
L 283.752195 291.854439 
L 283.927782 291.783491 
L 284.278958 291.971015 
L 284.454545 291.862344 
L 284.805721 292.037564 
L 284.981308 291.914833 
L 285.156896 291.928903 
L 285.508071 292.118522 
L 285.859247 292.071025 
L 286.210422 292.057945 
L 286.38601 291.999401 
L 286.561597 292.195025 
L 287.08836 292.127209 
L 289.897763 292.508561 
L 290.07335 292.462506 
L 290.248938 292.531402 
L 290.424526 292.396934 
L 290.600113 292.519373 
L 290.951289 292.469711 
L 291.126876 292.622605 
L 291.829227 292.642303 
L 292.180402 292.726585 
L 292.35599 292.578415 
L 292.531577 292.729728 
L 292.707165 292.641329 
L 292.882753 292.822452 
L 293.409516 292.709257 
L 293.585103 292.819214 
L 293.760691 292.724017 
L 294.287454 292.902939 
L 294.638629 292.90279 
L 295.867743 292.930032 
L 296.043331 293.071709 
L 296.218918 292.87571 
L 296.570093 293.053267 
L 296.745681 293.011076 
L 297.096856 293.166104 
L 297.623619 293.104735 
L 297.974795 293.209193 
L 298.150382 293.14153 
L 298.32597 293.334824 
L 299.203908 293.124546 
L 299.555084 293.370887 
L 300.433022 293.246585 
L 300.784197 293.507419 
L 302.364486 293.587545 
L 303.418012 293.70613 
L 303.769187 293.68969 
L 304.120363 293.688639 
L 304.647125 293.740757 
L 304.822713 293.705361 
L 304.998301 293.842563 
L 305.525064 293.668679 
L 305.700651 293.797213 
L 306.227414 293.741549 
L 306.754177 293.864714 
L 307.28094 293.799752 
L 307.456528 294.017594 
L 307.632116 293.834711 
L 308.334466 294.072079 
L 308.685641 293.991675 
L 309.036817 294.069265 
L 309.387992 294.076829 
L 313.075333 294.444425 
L 313.25092 294.294839 
L 313.777683 294.47059 
L 314.128859 294.345423 
L 314.480034 294.511564 
L 315.006797 294.516516 
L 315.53356 294.4823 
L 315.709148 294.615873 
L 315.884735 294.354677 
L 316.060323 294.577726 
L 316.411498 294.511186 
L 316.938261 294.67237 
L 317.289436 294.644116 
L 317.465024 294.778488 
L 317.640612 294.653815 
L 318.694138 294.823138 
L 318.869725 294.714411 
L 319.220901 294.857066 
L 319.923251 294.903032 
L 320.098839 294.790182 
L 320.274427 294.88745 
L 320.450014 294.785684 
L 320.801189 294.945717 
L 321.50354 294.809081 
L 322.030303 294.926741 
L 322.557066 294.999373 
L 322.732654 294.914481 
L 323.259417 295.056081 
L 323.435004 294.979711 
L 323.78618 295.137148 
L 323.961767 295.037838 
L 324.137355 295.11328 
L 324.312943 295.009114 
L 324.664118 295.205647 
L 325.190881 295.196287 
L 325.893231 295.248209 
L 326.068819 295.05097 
L 326.419994 295.322955 
L 326.595582 295.141938 
L 327.122345 295.335464 
L 328.351459 295.263008 
L 328.527046 295.437625 
L 329.580572 295.431165 
L 329.75616 295.365647 
L 330.107335 295.556939 
L 330.45851 295.479322 
L 331.160861 295.633614 
L 331.336449 295.576246 
L 331.687624 295.73617 
L 332.214387 295.534413 
L 332.389975 295.707439 
L 332.74115 295.63443 
L 333.092325 295.709106 
L 333.267913 295.588599 
L 333.4435 295.709435 
L 333.619088 295.621659 
L 333.970263 295.804569 
L 334.145851 295.760532 
L 334.321439 295.832656 
L 334.848202 295.719962 
L 336.077315 295.822613 
L 336.428491 295.851012 
L 336.779666 295.942593 
L 336.955253 295.861443 
L 337.130841 295.912271 
L 337.306429 295.803422 
L 337.657604 295.998824 
L 338.008779 295.915493 
L 338.359955 296.1384 
L 338.71113 295.90079 
L 339.062305 296.025831 
L 339.237893 296.02242 
L 339.413481 295.883219 
L 339.589068 296.133862 
L 339.764656 296.170922 
L 339.940244 296.032033 
L 340.467007 296.169076 
L 340.642594 296.074011 
L 340.818182 296.181184 
L 340.993769 296.005798 
L 341.169357 296.020942 
L 341.344945 296.177657 
L 341.520532 296.024098 
L 341.69612 296.194853 
L 342.222883 296.112228 
L 342.398471 296.246315 
L 342.574058 296.168751 
L 342.749646 296.340723 
L 343.276409 296.247581 
L 343.627584 296.337644 
L 344.329935 296.270955 
L 344.856698 296.399447 
L 345.032285 296.401591 
L 345.207873 296.196593 
L 345.559048 296.432778 
L 345.910224 296.334936 
L 346.436987 296.430149 
L 346.612574 296.336596 
L 346.788162 296.434561 
L 346.96375 296.344157 
L 347.490513 296.461783 
L 347.841688 296.549768 
L 348.017276 296.600729 
L 348.192863 296.509702 
L 348.368451 296.5794 
L 348.544039 296.454713 
L 348.895214 296.587521 
L 349.246389 296.565933 
L 349.597564 296.54174 
L 349.773152 296.516334 
L 349.94874 296.643265 
L 350.475503 296.538903 
L 350.65109 296.415661 
L 350.826678 296.688203 
L 351.002266 296.607948 
L 351.177853 296.667235 
L 351.353441 296.558721 
L 351.880204 296.665741 
L 352.231379 296.680494 
L 352.406967 296.850934 
L 352.758142 296.641823 
L 353.109317 296.746771 
L 353.284905 296.609794 
L 354.162843 296.723135 
L 354.338431 296.847434 
L 355.040782 296.79235 
L 355.216369 296.937557 
L 355.743132 296.837046 
L 355.91872 296.740394 
L 356.094308 296.971073 
L 356.796658 296.884448 
L 357.323421 297.060735 
L 357.499009 296.890135 
L 357.674596 297.034172 
L 358.025772 297.032273 
L 359.254885 297.077609 
L 359.606061 296.983145 
L 359.781648 297.08229 
L 360.308411 296.956022 
L 361.010762 297.125538 
L 361.361937 297.054079 
L 361.537525 297.175743 
L 361.713112 297.057676 
L 361.8887 297.199339 
L 362.064288 296.789164 
L 362.239875 297.088471 
L 362.415463 297.017291 
L 362.591051 297.274109 
L 362.766638 297.085747 
L 363.293401 297.346651 
L 363.644577 297.248613 
L 363.820164 297.31449 
L 364.522515 297.147981 
L 364.698103 297.137659 
L 364.87369 297.302773 
L 365.224865 297.214271 
L 365.751628 297.151812 
L 365.927216 297.30383 
L 366.278391 297.240645 
L 366.453979 297.025422 
L 366.805154 297.263042 
L 367.15633 297.424288 
L 367.507505 297.387118 
L 368.561031 297.484758 
L 368.736619 297.376913 
L 369.087794 297.493565 
L 369.438969 297.443373 
L 369.614557 297.545027 
L 369.790144 297.399339 
L 370.316907 297.567791 
L 370.492495 297.5079 
L 370.84367 297.590244 
L 371.546021 297.54907 
L 371.721609 297.636624 
L 372.072784 297.540075 
L 372.599547 297.666714 
L 372.775135 297.594264 
L 373.301897 297.777595 
L 373.653073 297.701414 
L 374.531011 297.754062 
L 374.882186 297.638341 
L 375.233362 297.799793 
L 375.408949 297.702776 
L 375.760125 297.726249 
L 375.935712 297.672819 
L 376.1113 297.797529 
L 376.286888 297.445043 
L 376.638063 297.79963 
L 376.813651 297.353071 
L 376.989238 297.267437 
L 377.691589 297.839149 
L 378.042764 297.714413 
L 378.569527 297.840396 
L 379.271878 297.878102 
L 380.149816 297.896978 
L 380.676579 297.961327 
L 381.027754 297.979633 
L 381.730105 298.035841 
L 381.905692 297.842577 
L 382.08128 298.059491 
L 382.256868 297.913624 
L 382.783631 298.017674 
L 382.959218 297.939809 
L 383.661569 298.066067 
L 384.012744 298.023173 
L 384.36392 298.156912 
L 384.539507 298.04306 
L 384.890683 298.0648 
L 385.06627 297.999839 
L 385.241858 298.198403 
L 385.417445 298.086829 
L 385.593033 298.191873 
L 385.944208 298.051522 
L 386.295384 298.251598 
L 386.646559 298.090475 
L 386.822147 298.220339 
L 387.173322 298.116441 
L 387.700085 298.187515 
L 388.05126 298.170909 
L 388.753611 297.978334 
L 388.929199 298.232003 
L 389.104786 298.179228 
L 389.455961 298.242503 
L 390.3339 298.267187 
L 390.685075 298.328854 
L 390.860663 298.143948 
L 391.387426 298.289457 
L 391.738601 298.352158 
L 392.089776 298.307962 
L 392.265364 298.445691 
L 393.143302 298.377866 
L 395.952705 298.435148 
L 396.128292 298.588114 
L 396.479468 298.536023 
L 397.884169 298.500292 
L 398.059756 298.613822 
L 398.410932 298.506444 
L 398.937695 298.623543 
L 399.113282 298.588704 
L 399.28887 298.427203 
L 399.640045 298.5382 
L 399.991221 298.488867 
L 400.166808 298.659665 
L 400.517984 298.538794 
L 400.869159 298.625535 
L 401.220334 298.611101 
L 401.571509 298.666202 
L 401.747097 298.531372 
L 401.922685 298.710096 
L 402.098272 298.59536 
L 402.449448 298.709241 
L 402.976211 298.740182 
L 403.327386 298.657398 
L 403.502974 298.82814 
L 404.732087 298.581757 
L 404.907675 298.731482 
L 405.083263 298.645996 
L 405.434438 298.838134 
L 405.610025 298.696182 
L 405.961201 298.823311 
L 406.136788 298.813652 
L 406.312376 298.933825 
L 406.663551 298.741332 
L 407.014727 298.912333 
L 407.892665 298.923967 
L 408.068253 298.971203 
L 408.24384 298.786934 
L 408.595016 298.945906 
L 408.946191 298.840944 
L 409.121779 298.909456 
L 409.472954 298.792416 
L 409.648541 298.88812 
L 409.824129 298.842227 
L 410.52648 299.096605 
L 410.877655 298.916712 
L 411.404418 299.021657 
L 411.755593 298.933888 
L 411.931181 298.9681 
L 412.106769 298.860523 
L 412.282356 299.004527 
L 412.633532 298.958544 
L 414.740583 299.1282 
L 415.091759 299.037818 
L 415.267346 299.114786 
L 415.442934 298.980109 
L 415.794109 299.07348 
L 416.145285 299.028942 
L 416.320872 299.134799 
L 417.023223 299.083165 
L 417.725573 299.161497 
L 418.076749 299.019632 
L 418.252336 299.174524 
L 418.427924 299.125412 
L 418.603512 299.196632 
L 418.954687 299.170304 
L 419.48145 299.207155 
L 419.832625 299.304301 
L 420.008213 299.32454 
L 420.183801 299.159674 
L 420.710564 299.231053 
L 420.886151 299.241865 
L 421.061739 299.13167 
L 421.939677 299.267255 
L 422.817615 299.288295 
L 423.168791 299.286055 
L 423.519966 299.344029 
L 423.871141 299.250208 
L 424.222317 299.347148 
L 424.397904 299.221859 
L 424.74908 299.353665 
L 425.275843 299.335243 
L 425.45143 299.345395 
L 425.627018 299.226025 
L 426.153781 299.363599 
L 426.680544 299.351391 
L 426.856131 299.437142 
L 427.031719 299.183277 
L 427.207307 299.45035 
L 427.558482 299.320748 
L 427.73407 299.421583 
L 427.909657 299.394285 
L 428.085245 299.485925 
L 428.260833 299.357211 
L 428.43642 299.470804 
L 429.138771 299.283748 
L 429.314359 299.422442 
L 429.665534 299.443986 
L 429.841121 299.513204 
L 430.016709 299.390622 
L 430.367884 299.527824 
L 430.71906 299.488759 
L 431.070235 299.421348 
L 431.245823 299.531686 
L 431.596998 299.441136 
L 431.772586 299.573167 
L 432.123761 299.373227 
L 433.352875 299.595686 
L 433.528462 299.449362 
L 433.879637 299.59733 
L 434.230813 299.75258 
L 434.581988 299.600956 
L 434.757576 299.621546 
L 434.933163 299.494828 
L 435.635514 299.669011 
L 435.986689 299.563449 
L 436.162277 299.346257 
L 436.337865 299.65214 
L 436.513452 299.55204 
L 436.68904 299.610125 
L 436.864628 299.488123 
L 437.215803 299.707705 
L 437.566978 299.519823 
L 437.742566 299.661033 
L 438.093741 299.6397 
L 438.269329 299.758387 
L 438.444916 299.672017 
L 438.971679 299.810346 
L 439.498442 299.64155 
L 440.200793 299.852607 
L 440.727556 299.545385 
L 441.254319 299.782229 
L 441.429907 299.667327 
L 441.605494 299.718033 
L 441.781082 299.636478 
L 442.132257 299.716223 
L 442.65902 299.775693 
L 442.834608 299.540164 
L 443.010195 299.513675 
L 443.185783 299.725693 
L 443.361371 299.531755 
L 443.712546 299.611931 
L 443.888134 299.799475 
L 444.239309 299.625524 
L 444.414897 299.868023 
L 444.766072 299.729481 
L 445.117247 299.805776 
L 445.468423 299.822458 
L 445.64401 299.638709 
L 445.995185 299.781374 
L 446.170773 299.63215 
L 446.346361 299.794155 
L 446.521948 299.583005 
L 446.873124 299.813611 
L 447.224299 299.582243 
L 447.399887 299.904204 
L 447.575474 299.046884 
L 448.102237 299.695786 
L 448.277825 299.828891 
L 448.629 299.778885 
L 448.980176 299.861476 
L 449.155763 299.939657 
L 449.331351 299.83384 
L 449.506939 299.947966 
L 449.682526 299.785176 
L 450.033702 299.989 
L 450.209289 299.932766 
L 450.560464 299.961808 
L 452.491929 300.022427 
L 452.667516 300.068132 
L 453.018692 299.870896 
L 453.194279 300.042722 
L 453.89663 299.989249 
L 454.072218 300.080992 
L 454.423393 299.934532 
L 454.774568 300.079912 
L 456.003682 300.044668 
L 456.179269 300.098655 
L 456.706032 299.906909 
L 456.88162 300.143432 
L 457.057208 299.820227 
L 457.232795 299.773469 
L 457.935146 300.067001 
L 458.110734 300.094552 
L 458.461909 300.019998 
L 458.813084 299.863581 
L 458.988672 300.063737 
L 459.339847 300.104936 
L 459.515435 300.250601 
L 460.042198 300.109789 
L 460.568961 300.086027 
L 460.744548 300.18895 
L 461.095724 300.043027 
L 461.446899 300.036173 
L 461.622487 299.994824 
L 461.798074 300.138771 
L 461.973662 300.017681 
L 462.14925 300.141874 
L 462.324837 300.0226 
L 462.676012 300.170349 
L 462.8516 299.98611 
L 463.027188 299.993873 
L 463.378363 300.210975 
L 464.080714 300.135878 
L 464.256301 300.217386 
L 464.431889 300.176265 
L 464.783064 300.313219 
L 464.958652 300.192155 
L 465.309827 300.192275 
L 465.485415 300.145066 
L 465.83659 300.227886 
L 466.187766 300.156865 
L 466.538941 300.294064 
L 466.714528 300.175231 
L 468.11923 300.288208 
L 468.470405 300.30545 
L 468.645993 300.133703 
L 468.82158 300.220044 
L 468.997168 300.080996 
L 469.172756 300.322324 
L 469.348343 300.24654 
L 469.523931 300.33666 
L 469.875106 300.277856 
L 470.401869 300.275705 
L 470.577457 300.209378 
L 470.753044 300.358887 
L 470.928632 300.298165 
L 471.10422 300.409318 
L 471.455395 300.289925 
L 471.80657 300.527233 
L 472.157746 300.384777 
L 472.333333 300.332023 
L 472.508921 300.39661 
L 472.684509 300.320896 
L 472.860096 300.443743 
L 473.386859 300.350011 
L 473.562447 300.450859 
L 474.08921 300.427969 
L 475.493911 300.379394 
L 475.669499 300.18657 
L 476.020674 300.432281 
L 476.196262 300.404502 
L 476.371849 300.54947 
L 477.249788 300.477336 
L 478.127726 300.488678 
L 478.478901 300.429417 
L 478.654489 300.562291 
L 479.005664 300.40777 
L 479.181252 300.429285 
L 479.356839 300.598423 
L 479.883602 300.271111 
L 480.234778 300.524575 
L 480.410365 300.158208 
L 480.585953 300.072013 
L 480.761541 300.349222 
L 480.937128 299.358428 
L 481.112716 299.676193 
L 481.288304 299.115558 
L 481.463891 299.209552 
L 481.639479 292.402297 
L 481.815067 296.05832 
L 481.990654 296.447474 
L 482.166242 297.681142 
L 482.517417 298.167333 
L 482.868592 298.473729 
L 483.04418 298.908558 
L 483.395355 298.824295 
L 483.570943 299.322511 
L 484.097706 299.582216 
L 484.273294 299.823807 
L 484.448881 299.785769 
L 485.151232 300.271071 
L 485.32682 300.158569 
L 485.502407 300.319255 
L 485.677995 300.230627 
L 485.853583 300.338645 
L 486.02917 300.298894 
L 486.380346 300.384532 
L 486.907108 300.479275 
L 487.082696 300.554946 
L 487.258284 300.355887 
L 487.785047 300.559417 
L 487.960634 300.474353 
L 488.136222 300.599603 
L 488.487397 300.514704 
L 488.838573 300.544873 
L 493.228264 300.677113 
L 493.403852 300.872323 
L 493.579439 300.662188 
L 493.755027 300.833726 
L 493.930615 300.657726 
L 494.28179 300.723779 
L 494.98414 300.689685 
L 495.159728 300.819635 
L 495.686491 300.786898 
L 496.037666 300.854544 
L 496.213254 300.651591 
L 496.740017 300.788631 
L 497.091192 300.740431 
L 497.793543 300.81591 
L 498.144718 300.68468 
L 498.495894 300.960308 
L 498.671481 300.792569 
L 499.022656 300.860633 
L 500.076182 300.867133 
L 500.602945 300.895542 
L 500.778533 300.680176 
L 500.954121 300.917216 
L 501.305296 300.799748 
L 502.183234 300.747401 
L 502.53441 300.97763 
L 502.709997 300.776805 
L 503.23676 300.864597 
L 503.939111 300.753162 
L 504.114698 300.955737 
L 504.641461 300.809937 
L 504.817049 300.778346 
L 504.992637 300.929082 
L 505.343812 300.956125 
L 505.5194 300.798989 
L 505.694987 300.899894 
L 505.870575 300.860126 
L 506.046163 300.935953 
L 506.22175 300.789728 
L 506.397338 300.935021 
L 506.748513 300.767216 
L 507.450864 299.695176 
L 507.626451 298.540398 
L 507.802039 298.858631 
L 507.977627 300.195503 
L 508.153214 300.007084 
L 508.328802 300.428151 
L 508.50439 300.350952 
L 508.679977 300.54422 
L 508.855565 300.422898 
L 509.20674 300.76523 
L 509.382328 300.570329 
L 509.733503 300.944958 
L 510.084679 300.831793 
L 510.260266 300.952903 
L 510.435854 300.843043 
L 510.787029 300.945485 
L 511.313792 300.697378 
L 511.48938 300.952134 
L 512.542906 300.887428 
L 512.718493 301.152618 
L 513.069669 300.795791 
L 513.420844 301.057295 
L 513.772019 300.883997 
L 514.123195 301.044481 
L 514.47437 300.907792 
L 514.649958 300.963434 
L 514.825545 300.764876 
L 515.17672 300.996655 
L 515.352308 300.77303 
L 515.527896 300.845602 
L 515.879071 300.779629 
L 516.230246 300.906188 
L 517.108185 301.081408 
L 517.283772 300.968737 
L 517.634948 301.055638 
L 517.986123 301.031776 
L 518.337298 301.138684 
L 518.512886 301.028061 
L 519.390824 301.126373 
L 519.566412 301.003775 
L 520.619938 301.100954 
L 520.795525 301.051995 
L 520.971113 301.149078 
L 521.322288 301.073443 
L 521.497876 301.14459 
L 522.200227 300.998806 
L 522.551402 301.117636 
L 523.078165 301.176088 
L 523.42934 301.050225 
L 523.780515 301.225246 
L 524.131691 301.232217 
L 524.658454 301.083109 
L 524.834041 301.188024 
L 525.185217 301.193877 
L 525.887567 301.289121 
L 526.238743 301.09701 
L 526.41433 301.2275 
L 526.589918 301.131952 
L 526.765506 301.29284 
L 526.941093 301.112542 
L 527.292268 301.163075 
L 527.467856 301.004464 
L 527.643444 301.150271 
L 528.170207 301.167494 
L 528.345794 301.300513 
L 528.69697 301.175734 
L 528.872557 301.228528 
L 529.048145 301.147573 
L 529.39932 301.230921 
L 529.574908 301.125734 
L 529.750496 301.326062 
L 530.452846 301.244027 
L 530.628434 301.033715 
L 530.804022 301.185952 
L 531.330784 301.189685 
L 531.506372 301.242223 
L 531.68196 301.090301 
L 532.033135 301.227169 
L 532.208723 300.913106 
L 532.38431 300.928697 
L 532.559898 301.251057 
L 533.086661 301.039377 
L 533.437836 301.25817 
L 533.789012 301.109993 
L 533.964599 301.28695 
L 534.842538 301.34101 
L 535.896063 301.273748 
L 536.071651 301.181305 
L 536.598414 301.30524 
L 536.949589 301.087272 
L 537.125177 301.348249 
L 537.300765 301.227169 
L 538.003115 301.324404 
L 538.178703 301.365077 
L 538.354291 301.278488 
L 538.881054 301.406041 
L 539.232229 301.31216 
L 539.407816 301.150712 
L 539.583404 301.37279 
L 539.758992 301.108826 
L 539.934579 301.274759 
L 540.110167 301.109396 
L 540.461342 301.329267 
L 540.812518 301.440456 
L 540.988105 301.31112 
L 541.339281 301.447437 
L 541.514868 301.322512 
L 541.690456 301.502505 
L 541.866044 301.515978 
L 542.041631 301.373148 
L 542.392807 301.375385 
L 543.095157 301.437308 
L 544.148683 301.361756 
L 544.499858 301.458577 
L 544.675446 301.269807 
L 544.851034 301.474036 
L 545.026621 301.378826 
L 545.202209 301.461882 
L 545.553384 301.455074 
L 546.255735 301.530718 
L 546.431323 301.426121 
L 546.60691 301.549677 
L 546.958086 301.351414 
L 547.133673 301.535468 
L 547.309261 301.529469 
L 547.484848 301.308372 
L 547.660436 301.418723 
L 547.836024 301.259635 
L 548.011611 301.416645 
L 548.187199 301.300596 
L 548.713962 301.388574 
L 548.88955 301.339446 
L 549.065137 301.485133 
L 549.416313 301.410367 
L 549.767488 301.535117 
L 549.943076 301.471378 
L 550.118663 301.25451 
L 550.294251 301.254696 
L 550.469839 301.491229 
L 550.821014 301.376267 
L 550.996602 301.476678 
L 551.172189 301.435634 
L 551.347777 301.548978 
L 551.87454 301.292001 
L 552.57689 301.45108 
L 553.279241 301.514649 
L 553.454829 301.387159 
L 553.630416 301.508491 
L 553.806004 301.380801 
L 554.157179 301.58625 
L 554.332767 301.379303 
L 554.683942 301.6304 
L 554.85953 301.417825 
L 555.386293 301.305538 
L 555.56188 301.1694 
L 555.913056 301.564053 
L 556.264231 301.454265 
L 556.615406 301.302243 
L 556.790994 301.549624 
L 557.142169 301.446658 
L 557.493345 301.407321 
L 557.668932 301.529174 
L 557.84452 301.478282 
L 558.020108 301.573569 
L 558.195695 301.346184 
L 558.371283 301.531732 
L 558.722458 301.532525 
L 559.073634 301.579604 
L 559.424809 301.59097 
L 560.302747 301.616797 
L 560.478335 301.368693 
L 560.82951 301.514851 
L 561.005098 301.325425 
L 561.180685 301.498159 
L 561.356273 301.372455 
L 562.058624 301.54097 
L 562.409799 301.445272 
L 562.585387 301.538474 
L 562.936562 301.484116 
L 563.11215 301.530456 
L 563.287737 301.43281 
L 563.463325 301.622206 
L 563.638912 301.567337 
L 563.8145 301.640483 
L 563.990088 301.573174 
L 564.341263 301.669296 
L 564.692438 301.58986 
L 564.868026 301.643535 
L 565.043614 301.536499 
L 565.219201 301.693913 
L 565.394789 301.551464 
L 565.745964 301.747774 
L 565.921552 301.468647 
L 566.09714 301.605948 
L 566.79949 301.583141 
L 566.975078 301.68497 
L 567.150666 301.421162 
L 567.326253 301.590582 
L 567.677428 301.515968 
L 567.853016 301.351762 
L 568.379779 301.684656 
L 568.555367 301.446492 
L 568.730954 301.43389 
L 569.08213 301.569124 
L 569.433305 301.631275 
L 569.78448 301.615189 
L 569.960068 301.166864 
L 570.135656 301.148584 
L 570.311243 301.444971 
L 570.486831 300.693882 
L 570.662419 301.105717 
L 570.838006 300.030432 
L 571.013594 300.573331 
L 571.364769 295.88725 
L 571.540357 298.941766 
L 571.715944 298.566719 
L 571.891532 297.9085 
L 572.06712 298.75578 
L 572.242707 298.724117 
L 572.418295 299.498719 
L 572.593883 299.336684 
L 572.945058 300.28195 
L 573.120646 300.276136 
L 573.296233 300.403017 
L 573.471821 300.784853 
L 573.822996 300.753921 
L 573.998584 300.919264 
L 574.174172 300.930421 
L 574.349759 301.117156 
L 574.700935 301.168147 
L 575.05211 301.315213 
L 575.227698 301.338634 
L 575.403285 301.062946 
L 575.578873 301.048979 
L 575.75446 301.277242 
L 575.930048 301.240384 
L 576.281223 301.447735 
L 576.456811 301.538587 
L 576.632399 301.35565 
L 576.807986 301.619415 
L 576.983574 301.502014 
L 577.159162 301.660884 
L 578.0371 301.546615 
L 578.388275 301.661523 
L 578.563863 301.597563 
L 578.739451 301.723485 
L 579.090626 301.62509 
L 579.266214 301.671931 
L 579.617389 301.542123 
L 579.792976 301.55807 
L 579.968564 301.7451 
L 580.144152 301.682766 
L 580.495327 301.722203 
L 580.846502 301.743949 
L 581.02209 301.628494 
L 581.900028 301.773817 
L 582.075616 301.758742 
L 582.251204 301.875229 
L 582.602379 301.829853 
L 583.30473 301.780194 
L 583.480317 301.704433 
L 583.655905 301.861898 
L 584.00708 301.768709 
L 584.358255 301.888033 
L 584.709431 301.821855 
L 586.28972 301.830744 
L 586.465307 301.746856 
L 586.816483 301.902289 
L 587.343246 301.826273 
L 587.518833 301.566817 
L 587.870008 301.818908 
L 588.045596 301.866651 
L 588.221184 301.797678 
L 588.572359 301.933343 
L 588.747947 301.863701 
L 588.923534 301.950565 
L 589.27471 301.754887 
L 589.450297 301.945083 
L 590.328236 301.966442 
L 590.503823 301.770088 
L 591.030586 301.881702 
L 591.908524 301.803678 
L 592.084112 301.90149 
L 592.435287 301.844635 
L 592.786463 301.940273 
L 592.96205 301.847377 
L 593.313226 301.92035 
L 593.664401 301.841092 
L 593.839989 301.877589 
L 594.015576 301.795769 
L 594.366752 301.960747 
L 594.893515 301.783601 
L 595.069102 301.96906 
L 595.420278 302.023932 
L 595.595865 301.824516 
L 595.771453 301.836316 
L 595.94704 301.564401 
L 596.122628 301.719863 
L 596.473803 301.092104 
L 596.649391 301.346887 
L 597.000566 301.100116 
L 597.176154 301.486777 
L 597.351742 301.524198 
L 597.527329 301.713459 
L 597.702917 301.509648 
L 597.878505 301.507042 
L 598.22968 301.683542 
L 598.405268 301.608046 
L 598.580855 301.375786 
L 598.756443 301.46451 
L 599.458794 301.096619 
L 599.634381 300.494651 
L 599.809969 300.342977 
L 599.985556 299.118014 
L 600.161144 298.729274 
L 600.687907 301.113304 
L 600.863495 300.927143 
L 601.039082 301.268567 
L 602.268196 301.684795 
L 602.443784 301.82333 
L 602.619371 301.700108 
L 602.794959 301.856863 
L 603.321722 301.886346 
L 603.672897 301.957655 
L 604.024073 301.875948 
L 604.550835 301.894161 
L 604.726423 301.749912 
L 605.077598 301.888977 
L 605.604361 302.020446 
L 605.955537 302.000512 
L 606.306712 301.587178 
L 606.4823 301.884035 
L 606.657887 301.306453 
L 606.833475 301.606472 
L 607.009063 301.113145 
L 607.18465 301.734539 
L 607.360238 300.08717 
L 607.535826 301.150255 
L 607.887001 299.384944 
L 608.062589 300.448158 
L 608.238176 300.447223 
L 608.764939 300.926851 
L 608.940527 300.940891 
L 609.642877 301.404845 
L 611.398754 301.859485 
L 612.101105 301.93619 
L 612.276692 301.850323 
L 613.330218 302.002159 
L 613.505806 301.919763 
L 613.856981 302.007101 
L 614.734919 301.848434 
L 614.910507 302.047807 
L 615.261682 302.0091 
L 615.43727 302.101615 
L 615.788445 301.987569 
L 616.315208 301.911672 
L 616.490796 301.712229 
L 616.841971 301.786227 
L 617.017559 301.952252 
L 617.719909 301.921251 
L 617.895497 302.039706 
L 618.071085 301.86617 
L 618.246672 302.048036 
L 618.597848 301.976919 
L 618.949023 301.997506 
L 619.300198 302.004579 
L 619.651374 302.161267 
L 619.826961 301.93441 
L 620.002549 302.127771 
L 620.178137 302.016047 
L 620.529312 302.15264 
L 620.704899 302.045053 
L 620.880487 302.233694 
L 621.056075 302.055106 
L 621.40725 302.094164 
L 621.758425 302.11026 
L 621.934013 302.059017 
L 622.109601 302.24202 
L 622.285188 302.149252 
L 622.460776 302.254307 
L 622.636364 302.214164 
L 622.636364 302.214164 
" style="fill:none;stroke:#ff7f0e;stroke-linecap:square;stroke-width:0.5;"/>
   </g>
   <g id="patch_3">
    <path d="M 90 315 
L 90 43.2 
" style="fill:none;stroke:#000000;stroke-linecap:square;stroke-linejoin:miter;stroke-width:0.8;"/>
   </g>
   <g id="patch_4">
    <path d="M 648 315 
L 648 43.2 
" style="fill:none;stroke:#000000;stroke-linecap:square;stroke-linejoin:miter;stroke-width:0.8;"/>
   </g>
   <g id="patch_5">
    <path d="M 90 315 
L 648 315 
" style="fill:none;stroke:#000000;stroke-linecap:square;stroke-linejoin:miter;stroke-width:0.8;"/>
   </g>
   <g id="patch_6">
    <path d="M 90 43.2 
L 648 43.2 
" style="fill:none;stroke:#000000;stroke-linecap:square;stroke-linejoin:miter;stroke-width:0.8;"/>
   </g>
   <g id="text_18">
    <!-- loss -->
    <g transform="translate(357.410625 37.2)scale(0.12 -0.12)">
     <use xlink:href="#DejaVuSans-108"/>
     <use x="27.783203" xlink:href="#DejaVuSans-111"/>
     <use x="88.964844" xlink:href="#DejaVuSans-115"/>
     <use x="141.064453" xlink:href="#DejaVuSans-115"/>
    </g>
   </g>
   <g id="legend_1">
    <g id="patch_7">
     <path d="M 568.846875 80.55625 
L 641 80.55625 
Q 643 80.55625 643 78.55625 
L 643 50.2 
Q 643 48.2 641 48.2 
L 568.846875 48.2 
Q 566.846875 48.2 566.846875 50.2 
L 566.846875 78.55625 
Q 566.846875 80.55625 568.846875 80.55625 
z
" style="fill:#ffffff;opacity:0.8;stroke:#cccccc;stroke-linejoin:miter;"/>
    </g>
    <g id="line2d_33">
     <path d="M 570.846875 56.298437 
L 590.846875 56.298437 
" style="fill:none;stroke:#1f77b4;stroke-linecap:square;stroke-width:0.5;"/>
    </g>
    <g id="line2d_34"/>
    <g id="text_19">
     <!-- train -->
     <defs>
      <path d="M 18.3125 70.21875 
L 18.3125 54.6875 
L 36.8125 54.6875 
L 36.8125 47.703125 
L 18.3125 47.703125 
L 18.3125 18.015625 
Q 18.3125 11.328125 20.140625 9.421875 
Q 21.96875 7.515625 27.59375 7.515625 
L 36.8125 7.515625 
L 36.8125 0 
L 27.59375 0 
Q 17.1875 0 13.234375 3.875 
Q 9.28125 7.765625 9.28125 18.015625 
L 9.28125 47.703125 
L 2.6875 47.703125 
L 2.6875 54.6875 
L 9.28125 54.6875 
L 9.28125 70.21875 
z
" id="DejaVuSans-116"/>
      <path d="M 41.109375 46.296875 
Q 39.59375 47.171875 37.8125 47.578125 
Q 36.03125 48 33.890625 48 
Q 26.265625 48 22.1875 43.046875 
Q 18.109375 38.09375 18.109375 28.8125 
L 18.109375 0 
L 9.078125 0 
L 9.078125 54.6875 
L 18.109375 54.6875 
L 18.109375 46.1875 
Q 20.953125 51.171875 25.484375 53.578125 
Q 30.03125 56 36.53125 56 
Q 37.453125 56 38.578125 55.875 
Q 39.703125 55.765625 41.0625 55.515625 
z
" id="DejaVuSans-114"/>
      <path d="M 34.28125 27.484375 
Q 23.390625 27.484375 19.1875 25 
Q 14.984375 22.515625 14.984375 16.5 
Q 14.984375 11.71875 18.140625 8.90625 
Q 21.296875 6.109375 26.703125 6.109375 
Q 34.1875 6.109375 38.703125 11.40625 
Q 43.21875 16.703125 43.21875 25.484375 
L 43.21875 27.484375 
z
M 52.203125 31.203125 
L 52.203125 0 
L 43.21875 0 
L 43.21875 8.296875 
Q 40.140625 3.328125 35.546875 0.953125 
Q 30.953125 -1.421875 24.3125 -1.421875 
Q 15.921875 -1.421875 10.953125 3.296875 
Q 6 8.015625 6 15.921875 
Q 6 25.140625 12.171875 29.828125 
Q 18.359375 34.515625 30.609375 34.515625 
L 43.21875 34.515625 
L 43.21875 35.40625 
Q 43.21875 41.609375 39.140625 45 
Q 35.0625 48.390625 27.6875 48.390625 
Q 23 48.390625 18.546875 47.265625 
Q 14.109375 46.140625 10.015625 43.890625 
L 10.015625 52.203125 
Q 14.9375 54.109375 19.578125 55.046875 
Q 24.21875 56 28.609375 56 
Q 40.484375 56 46.34375 49.84375 
Q 52.203125 43.703125 52.203125 31.203125 
z
" id="DejaVuSans-97"/>
      <path d="M 9.421875 54.6875 
L 18.40625 54.6875 
L 18.40625 0 
L 9.421875 0 
z
M 9.421875 75.984375 
L 18.40625 75.984375 
L 18.40625 64.59375 
L 9.421875 64.59375 
z
" id="DejaVuSans-105"/>
      <path d="M 54.890625 33.015625 
L 54.890625 0 
L 45.90625 0 
L 45.90625 32.71875 
Q 45.90625 40.484375 42.875 44.328125 
Q 39.84375 48.1875 33.796875 48.1875 
Q 26.515625 48.1875 22.3125 43.546875 
Q 18.109375 38.921875 18.109375 30.90625 
L 18.109375 0 
L 9.078125 0 
L 9.078125 54.6875 
L 18.109375 54.6875 
L 18.109375 46.1875 
Q 21.34375 51.125 25.703125 53.5625 
Q 30.078125 56 35.796875 56 
Q 45.21875 56 50.046875 50.171875 
Q 54.890625 44.34375 54.890625 33.015625 
z
" id="DejaVuSans-110"/>
     </defs>
     <g transform="translate(598.846875 59.798437)scale(0.1 -0.1)">
      <use xlink:href="#DejaVuSans-116"/>
      <use x="39.208984" xlink:href="#DejaVuSans-114"/>
      <use x="80.322266" xlink:href="#DejaVuSans-97"/>
      <use x="141.601562" xlink:href="#DejaVuSans-105"/>
      <use x="169.384766" xlink:href="#DejaVuSans-110"/>
     </g>
    </g>
    <g id="line2d_35">
     <path d="M 570.846875 70.976562 
L 590.846875 70.976562 
" style="fill:none;stroke:#ff7f0e;stroke-linecap:square;stroke-width:0.5;"/>
    </g>
    <g id="line2d_36"/>
    <g id="text_20">
     <!-- validate -->
     <defs>
      <path d="M 2.984375 54.6875 
L 12.5 54.6875 
L 29.59375 8.796875 
L 46.6875 54.6875 
L 56.203125 54.6875 
L 35.6875 0 
L 23.484375 0 
z
" id="DejaVuSans-118"/>
      <path d="M 45.40625 46.390625 
L 45.40625 75.984375 
L 54.390625 75.984375 
L 54.390625 0 
L 45.40625 0 
L 45.40625 8.203125 
Q 42.578125 3.328125 38.25 0.953125 
Q 33.9375 -1.421875 27.875 -1.421875 
Q 17.96875 -1.421875 11.734375 6.484375 
Q 5.515625 14.40625 5.515625 27.296875 
Q 5.515625 40.1875 11.734375 48.09375 
Q 17.96875 56 27.875 56 
Q 33.9375 56 38.25 53.625 
Q 42.578125 51.265625 45.40625 46.390625 
z
M 14.796875 27.296875 
Q 14.796875 17.390625 18.875 11.75 
Q 22.953125 6.109375 30.078125 6.109375 
Q 37.203125 6.109375 41.296875 11.75 
Q 45.40625 17.390625 45.40625 27.296875 
Q 45.40625 37.203125 41.296875 42.84375 
Q 37.203125 48.484375 30.078125 48.484375 
Q 22.953125 48.484375 18.875 42.84375 
Q 14.796875 37.203125 14.796875 27.296875 
z
" id="DejaVuSans-100"/>
     </defs>
     <g transform="translate(598.846875 74.476562)scale(0.1 -0.1)">
      <use xlink:href="#DejaVuSans-118"/>
      <use x="59.179688" xlink:href="#DejaVuSans-97"/>
      <use x="120.458984" xlink:href="#DejaVuSans-108"/>
      <use x="148.242188" xlink:href="#DejaVuSans-105"/>
      <use x="176.025391" xlink:href="#DejaVuSans-100"/>
      <use x="239.501953" xlink:href="#DejaVuSans-97"/>
      <use x="300.78125" xlink:href="#DejaVuSans-116"/>
      <use x="339.990234" xlink:href="#DejaVuSans-101"/>
     </g>
    </g>
   </g>
  </g>
 </g>
 <defs>
  <clipPath id="p0a6b408259">
   <rect height="271.8" width="558" x="90" y="43.2"/>
  </clipPath>
 </defs>
</svg>
