<?xml version="1.0" encoding="utf-8" standalone="no"?>
<!DOCTYPE svg PUBLIC "-//W3C//DTD SVG 1.1//EN"
  "http://www.w3.org/Graphics/SVG/1.1/DTD/svg11.dtd">
<!-- Created with matplotlib (https://matplotlib.org/) -->
<svg height="360pt" version="1.1" viewBox="0 0 720 360" width="720pt" xmlns="http://www.w3.org/2000/svg" xmlns:xlink="http://www.w3.org/1999/xlink">
 <defs>
  <style type="text/css">
*{stroke-linecap:butt;stroke-linejoin:round;}
  </style>
 </defs>
 <g id="figure_1">
  <g id="patch_1">
   <path d="M 0 360 
L 720 360 
L 720 0 
L 0 0 
z
" style="fill:#ffffff;"/>
  </g>
  <g id="axes_1">
   <g id="patch_2">
    <path d="M 90 315 
L 648 315 
L 648 43.2 
L 90 43.2 
z
" style="fill:#ffffff;"/>
   </g>
   <g id="matplotlib.axis_1">
    <g id="xtick_1">
     <g id="line2d_1">
      <path clip-path="url(#pa74e2a4ef6)" d="M 115.363636 315 
L 115.363636 43.2 
" style="fill:none;stroke:#b0b0b0;stroke-linecap:square;stroke-width:0.8;"/>
     </g>
     <g id="line2d_2">
      <defs>
       <path d="M 0 0 
L 0 3.5 
" id="m2b542e1341" style="stroke:#000000;stroke-width:0.8;"/>
      </defs>
      <g>
       <use style="stroke:#000000;stroke-width:0.8;" x="115.363636" xlink:href="#m2b542e1341" y="315"/>
      </g>
     </g>
     <g id="text_1">
      <!-- 0 -->
      <defs>
       <path d="M 31.78125 66.40625 
Q 24.171875 66.40625 20.328125 58.90625 
Q 16.5 51.421875 16.5 36.375 
Q 16.5 21.390625 20.328125 13.890625 
Q 24.171875 6.390625 31.78125 6.390625 
Q 39.453125 6.390625 43.28125 13.890625 
Q 47.125 21.390625 47.125 36.375 
Q 47.125 51.421875 43.28125 58.90625 
Q 39.453125 66.40625 31.78125 66.40625 
z
M 31.78125 74.21875 
Q 44.046875 74.21875 50.515625 64.515625 
Q 56.984375 54.828125 56.984375 36.375 
Q 56.984375 17.96875 50.515625 8.265625 
Q 44.046875 -1.421875 31.78125 -1.421875 
Q 19.53125 -1.421875 13.0625 8.265625 
Q 6.59375 17.96875 6.59375 36.375 
Q 6.59375 54.828125 13.0625 64.515625 
Q 19.53125 74.21875 31.78125 74.21875 
z
" id="DejaVuSans-48"/>
      </defs>
      <g transform="translate(112.182386 329.598437)scale(0.1 -0.1)">
       <use xlink:href="#DejaVuSans-48"/>
      </g>
     </g>
    </g>
    <g id="xtick_2">
     <g id="line2d_3">
      <path clip-path="url(#pa74e2a4ef6)" d="M 178.804448 315 
L 178.804448 43.2 
" style="fill:none;stroke:#b0b0b0;stroke-linecap:square;stroke-width:0.8;"/>
     </g>
     <g id="line2d_4">
      <g>
       <use style="stroke:#000000;stroke-width:0.8;" x="178.804448" xlink:href="#m2b542e1341" y="315"/>
      </g>
     </g>
     <g id="text_2">
      <!-- 250 -->
      <defs>
       <path d="M 19.1875 8.296875 
L 53.609375 8.296875 
L 53.609375 0 
L 7.328125 0 
L 7.328125 8.296875 
Q 12.9375 14.109375 22.625 23.890625 
Q 32.328125 33.6875 34.8125 36.53125 
Q 39.546875 41.84375 41.421875 45.53125 
Q 43.3125 49.21875 43.3125 52.78125 
Q 43.3125 58.59375 39.234375 62.25 
Q 35.15625 65.921875 28.609375 65.921875 
Q 23.96875 65.921875 18.8125 64.3125 
Q 13.671875 62.703125 7.8125 59.421875 
L 7.8125 69.390625 
Q 13.765625 71.78125 18.9375 73 
Q 24.125 74.21875 28.421875 74.21875 
Q 39.75 74.21875 46.484375 68.546875 
Q 53.21875 62.890625 53.21875 53.421875 
Q 53.21875 48.921875 51.53125 44.890625 
Q 49.859375 40.875 45.40625 35.40625 
Q 44.1875 33.984375 37.640625 27.21875 
Q 31.109375 20.453125 19.1875 8.296875 
z
" id="DejaVuSans-50"/>
       <path d="M 10.796875 72.90625 
L 49.515625 72.90625 
L 49.515625 64.59375 
L 19.828125 64.59375 
L 19.828125 46.734375 
Q 21.96875 47.46875 24.109375 47.828125 
Q 26.265625 48.1875 28.421875 48.1875 
Q 40.625 48.1875 47.75 41.5 
Q 54.890625 34.8125 54.890625 23.390625 
Q 54.890625 11.625 47.5625 5.09375 
Q 40.234375 -1.421875 26.90625 -1.421875 
Q 22.3125 -1.421875 17.546875 -0.640625 
Q 12.796875 0.140625 7.71875 1.703125 
L 7.71875 11.625 
Q 12.109375 9.234375 16.796875 8.0625 
Q 21.484375 6.890625 26.703125 6.890625 
Q 35.15625 6.890625 40.078125 11.328125 
Q 45.015625 15.765625 45.015625 23.390625 
Q 45.015625 31 40.078125 35.4375 
Q 35.15625 39.890625 26.703125 39.890625 
Q 22.75 39.890625 18.8125 39.015625 
Q 14.890625 38.140625 10.796875 36.28125 
z
" id="DejaVuSans-53"/>
      </defs>
      <g transform="translate(169.260698 329.598437)scale(0.1 -0.1)">
       <use xlink:href="#DejaVuSans-50"/>
       <use x="63.623047" xlink:href="#DejaVuSans-53"/>
       <use x="127.246094" xlink:href="#DejaVuSans-48"/>
      </g>
     </g>
    </g>
    <g id="xtick_3">
     <g id="line2d_5">
      <path clip-path="url(#pa74e2a4ef6)" d="M 242.245259 315 
L 242.245259 43.2 
" style="fill:none;stroke:#b0b0b0;stroke-linecap:square;stroke-width:0.8;"/>
     </g>
     <g id="line2d_6">
      <g>
       <use style="stroke:#000000;stroke-width:0.8;" x="242.245259" xlink:href="#m2b542e1341" y="315"/>
      </g>
     </g>
     <g id="text_3">
      <!-- 500 -->
      <g transform="translate(232.701509 329.598437)scale(0.1 -0.1)">
       <use xlink:href="#DejaVuSans-53"/>
       <use x="63.623047" xlink:href="#DejaVuSans-48"/>
       <use x="127.246094" xlink:href="#DejaVuSans-48"/>
      </g>
     </g>
    </g>
    <g id="xtick_4">
     <g id="line2d_7">
      <path clip-path="url(#pa74e2a4ef6)" d="M 305.68607 315 
L 305.68607 43.2 
" style="fill:none;stroke:#b0b0b0;stroke-linecap:square;stroke-width:0.8;"/>
     </g>
     <g id="line2d_8">
      <g>
       <use style="stroke:#000000;stroke-width:0.8;" x="305.68607" xlink:href="#m2b542e1341" y="315"/>
      </g>
     </g>
     <g id="text_4">
      <!-- 750 -->
      <defs>
       <path d="M 8.203125 72.90625 
L 55.078125 72.90625 
L 55.078125 68.703125 
L 28.609375 0 
L 18.3125 0 
L 43.21875 64.59375 
L 8.203125 64.59375 
z
" id="DejaVuSans-55"/>
      </defs>
      <g transform="translate(296.14232 329.598437)scale(0.1 -0.1)">
       <use xlink:href="#DejaVuSans-55"/>
       <use x="63.623047" xlink:href="#DejaVuSans-53"/>
       <use x="127.246094" xlink:href="#DejaVuSans-48"/>
      </g>
     </g>
    </g>
    <g id="xtick_5">
     <g id="line2d_9">
      <path clip-path="url(#pa74e2a4ef6)" d="M 369.126882 315 
L 369.126882 43.2 
" style="fill:none;stroke:#b0b0b0;stroke-linecap:square;stroke-width:0.8;"/>
     </g>
     <g id="line2d_10">
      <g>
       <use style="stroke:#000000;stroke-width:0.8;" x="369.126882" xlink:href="#m2b542e1341" y="315"/>
      </g>
     </g>
     <g id="text_5">
      <!-- 1000 -->
      <defs>
       <path d="M 12.40625 8.296875 
L 28.515625 8.296875 
L 28.515625 63.921875 
L 10.984375 60.40625 
L 10.984375 69.390625 
L 28.421875 72.90625 
L 38.28125 72.90625 
L 38.28125 8.296875 
L 54.390625 8.296875 
L 54.390625 0 
L 12.40625 0 
z
" id="DejaVuSans-49"/>
      </defs>
      <g transform="translate(356.401882 329.598437)scale(0.1 -0.1)">
       <use xlink:href="#DejaVuSans-49"/>
       <use x="63.623047" xlink:href="#DejaVuSans-48"/>
       <use x="127.246094" xlink:href="#DejaVuSans-48"/>
       <use x="190.869141" xlink:href="#DejaVuSans-48"/>
      </g>
     </g>
    </g>
    <g id="xtick_6">
     <g id="line2d_11">
      <path clip-path="url(#pa74e2a4ef6)" d="M 432.567693 315 
L 432.567693 43.2 
" style="fill:none;stroke:#b0b0b0;stroke-linecap:square;stroke-width:0.8;"/>
     </g>
     <g id="line2d_12">
      <g>
       <use style="stroke:#000000;stroke-width:0.8;" x="432.567693" xlink:href="#m2b542e1341" y="315"/>
      </g>
     </g>
     <g id="text_6">
      <!-- 1250 -->
      <g transform="translate(419.842693 329.598437)scale(0.1 -0.1)">
       <use xlink:href="#DejaVuSans-49"/>
       <use x="63.623047" xlink:href="#DejaVuSans-50"/>
       <use x="127.246094" xlink:href="#DejaVuSans-53"/>
       <use x="190.869141" xlink:href="#DejaVuSans-48"/>
      </g>
     </g>
    </g>
    <g id="xtick_7">
     <g id="line2d_13">
      <path clip-path="url(#pa74e2a4ef6)" d="M 496.008504 315 
L 496.008504 43.2 
" style="fill:none;stroke:#b0b0b0;stroke-linecap:square;stroke-width:0.8;"/>
     </g>
     <g id="line2d_14">
      <g>
       <use style="stroke:#000000;stroke-width:0.8;" x="496.008504" xlink:href="#m2b542e1341" y="315"/>
      </g>
     </g>
     <g id="text_7">
      <!-- 1500 -->
      <g transform="translate(483.283504 329.598437)scale(0.1 -0.1)">
       <use xlink:href="#DejaVuSans-49"/>
       <use x="63.623047" xlink:href="#DejaVuSans-53"/>
       <use x="127.246094" xlink:href="#DejaVuSans-48"/>
       <use x="190.869141" xlink:href="#DejaVuSans-48"/>
      </g>
     </g>
    </g>
    <g id="xtick_8">
     <g id="line2d_15">
      <path clip-path="url(#pa74e2a4ef6)" d="M 559.449316 315 
L 559.449316 43.2 
" style="fill:none;stroke:#b0b0b0;stroke-linecap:square;stroke-width:0.8;"/>
     </g>
     <g id="line2d_16">
      <g>
       <use style="stroke:#000000;stroke-width:0.8;" x="559.449316" xlink:href="#m2b542e1341" y="315"/>
      </g>
     </g>
     <g id="text_8">
      <!-- 1750 -->
      <g transform="translate(546.724316 329.598437)scale(0.1 -0.1)">
       <use xlink:href="#DejaVuSans-49"/>
       <use x="63.623047" xlink:href="#DejaVuSans-55"/>
       <use x="127.246094" xlink:href="#DejaVuSans-53"/>
       <use x="190.869141" xlink:href="#DejaVuSans-48"/>
      </g>
     </g>
    </g>
    <g id="xtick_9">
     <g id="line2d_17">
      <path clip-path="url(#pa74e2a4ef6)" d="M 622.890127 315 
L 622.890127 43.2 
" style="fill:none;stroke:#b0b0b0;stroke-linecap:square;stroke-width:0.8;"/>
     </g>
     <g id="line2d_18">
      <g>
       <use style="stroke:#000000;stroke-width:0.8;" x="622.890127" xlink:href="#m2b542e1341" y="315"/>
      </g>
     </g>
     <g id="text_9">
      <!-- 2000 -->
      <g transform="translate(610.165127 329.598437)scale(0.1 -0.1)">
       <use xlink:href="#DejaVuSans-50"/>
       <use x="63.623047" xlink:href="#DejaVuSans-48"/>
       <use x="127.246094" xlink:href="#DejaVuSans-48"/>
       <use x="190.869141" xlink:href="#DejaVuSans-48"/>
      </g>
     </g>
    </g>
    <g id="text_10">
     <!-- epoch -->
     <defs>
      <path d="M 56.203125 29.59375 
L 56.203125 25.203125 
L 14.890625 25.203125 
Q 15.484375 15.921875 20.484375 11.0625 
Q 25.484375 6.203125 34.421875 6.203125 
Q 39.59375 6.203125 44.453125 7.46875 
Q 49.3125 8.734375 54.109375 11.28125 
L 54.109375 2.78125 
Q 49.265625 0.734375 44.1875 -0.34375 
Q 39.109375 -1.421875 33.890625 -1.421875 
Q 20.796875 -1.421875 13.15625 6.1875 
Q 5.515625 13.8125 5.515625 26.8125 
Q 5.515625 40.234375 12.765625 48.109375 
Q 20.015625 56 32.328125 56 
Q 43.359375 56 49.78125 48.890625 
Q 56.203125 41.796875 56.203125 29.59375 
z
M 47.21875 32.234375 
Q 47.125 39.59375 43.09375 43.984375 
Q 39.0625 48.390625 32.421875 48.390625 
Q 24.90625 48.390625 20.390625 44.140625 
Q 15.875 39.890625 15.1875 32.171875 
z
" id="DejaVuSans-101"/>
      <path d="M 18.109375 8.203125 
L 18.109375 -20.796875 
L 9.078125 -20.796875 
L 9.078125 54.6875 
L 18.109375 54.6875 
L 18.109375 46.390625 
Q 20.953125 51.265625 25.265625 53.625 
Q 29.59375 56 35.59375 56 
Q 45.5625 56 51.78125 48.09375 
Q 58.015625 40.1875 58.015625 27.296875 
Q 58.015625 14.40625 51.78125 6.484375 
Q 45.5625 -1.421875 35.59375 -1.421875 
Q 29.59375 -1.421875 25.265625 0.953125 
Q 20.953125 3.328125 18.109375 8.203125 
z
M 48.6875 27.296875 
Q 48.6875 37.203125 44.609375 42.84375 
Q 40.53125 48.484375 33.40625 48.484375 
Q 26.265625 48.484375 22.1875 42.84375 
Q 18.109375 37.203125 18.109375 27.296875 
Q 18.109375 17.390625 22.1875 11.75 
Q 26.265625 6.109375 33.40625 6.109375 
Q 40.53125 6.109375 44.609375 11.75 
Q 48.6875 17.390625 48.6875 27.296875 
z
" id="DejaVuSans-112"/>
      <path d="M 30.609375 48.390625 
Q 23.390625 48.390625 19.1875 42.75 
Q 14.984375 37.109375 14.984375 27.296875 
Q 14.984375 17.484375 19.15625 11.84375 
Q 23.34375 6.203125 30.609375 6.203125 
Q 37.796875 6.203125 41.984375 11.859375 
Q 46.1875 17.53125 46.1875 27.296875 
Q 46.1875 37.015625 41.984375 42.703125 
Q 37.796875 48.390625 30.609375 48.390625 
z
M 30.609375 56 
Q 42.328125 56 49.015625 48.375 
Q 55.71875 40.765625 55.71875 27.296875 
Q 55.71875 13.875 49.015625 6.21875 
Q 42.328125 -1.421875 30.609375 -1.421875 
Q 18.84375 -1.421875 12.171875 6.21875 
Q 5.515625 13.875 5.515625 27.296875 
Q 5.515625 40.765625 12.171875 48.375 
Q 18.84375 56 30.609375 56 
z
" id="DejaVuSans-111"/>
      <path d="M 48.78125 52.59375 
L 48.78125 44.1875 
Q 44.96875 46.296875 41.140625 47.34375 
Q 37.3125 48.390625 33.40625 48.390625 
Q 24.65625 48.390625 19.8125 42.84375 
Q 14.984375 37.3125 14.984375 27.296875 
Q 14.984375 17.28125 19.8125 11.734375 
Q 24.65625 6.203125 33.40625 6.203125 
Q 37.3125 6.203125 41.140625 7.25 
Q 44.96875 8.296875 48.78125 10.40625 
L 48.78125 2.09375 
Q 45.015625 0.34375 40.984375 -0.53125 
Q 36.96875 -1.421875 32.421875 -1.421875 
Q 20.0625 -1.421875 12.78125 6.34375 
Q 5.515625 14.109375 5.515625 27.296875 
Q 5.515625 40.671875 12.859375 48.328125 
Q 20.21875 56 33.015625 56 
Q 37.15625 56 41.109375 55.140625 
Q 45.0625 54.296875 48.78125 52.59375 
z
" id="DejaVuSans-99"/>
      <path d="M 54.890625 33.015625 
L 54.890625 0 
L 45.90625 0 
L 45.90625 32.71875 
Q 45.90625 40.484375 42.875 44.328125 
Q 39.84375 48.1875 33.796875 48.1875 
Q 26.515625 48.1875 22.3125 43.546875 
Q 18.109375 38.921875 18.109375 30.90625 
L 18.109375 0 
L 9.078125 0 
L 9.078125 75.984375 
L 18.109375 75.984375 
L 18.109375 46.1875 
Q 21.34375 51.125 25.703125 53.5625 
Q 30.078125 56 35.796875 56 
Q 45.21875 56 50.046875 50.171875 
Q 54.890625 44.34375 54.890625 33.015625 
z
" id="DejaVuSans-104"/>
     </defs>
     <g transform="translate(353.771875 343.276563)scale(0.1 -0.1)">
      <use xlink:href="#DejaVuSans-101"/>
      <use x="61.523438" xlink:href="#DejaVuSans-112"/>
      <use x="125" xlink:href="#DejaVuSans-111"/>
      <use x="186.181641" xlink:href="#DejaVuSans-99"/>
      <use x="241.162109" xlink:href="#DejaVuSans-104"/>
     </g>
    </g>
   </g>
   <g id="matplotlib.axis_2">
    <g id="ytick_1">
     <g id="line2d_19">
      <path clip-path="url(#pa74e2a4ef6)" d="M 90 311.478245 
L 648 311.478245 
" style="fill:none;stroke:#b0b0b0;stroke-linecap:square;stroke-width:0.8;"/>
     </g>
     <g id="line2d_20">
      <defs>
       <path d="M 0 0 
L -3.5 0 
" id="m8a59bfa691" style="stroke:#000000;stroke-width:0.8;"/>
      </defs>
      <g>
       <use style="stroke:#000000;stroke-width:0.8;" x="90" xlink:href="#m8a59bfa691" y="311.478245"/>
      </g>
     </g>
     <g id="text_11">
      <!-- 0 -->
      <g transform="translate(76.6375 315.277464)scale(0.1 -0.1)">
       <use xlink:href="#DejaVuSans-48"/>
      </g>
     </g>
    </g>
    <g id="ytick_2">
     <g id="line2d_21">
      <path clip-path="url(#pa74e2a4ef6)" d="M 90 279.365766 
L 648 279.365766 
" style="fill:none;stroke:#b0b0b0;stroke-linecap:square;stroke-width:0.8;"/>
     </g>
     <g id="line2d_22">
      <g>
       <use style="stroke:#000000;stroke-width:0.8;" x="90" xlink:href="#m8a59bfa691" y="279.365766"/>
      </g>
     </g>
     <g id="text_12">
      <!-- 5 -->
      <g transform="translate(76.6375 283.164985)scale(0.1 -0.1)">
       <use xlink:href="#DejaVuSans-53"/>
      </g>
     </g>
    </g>
    <g id="ytick_3">
     <g id="line2d_23">
      <path clip-path="url(#pa74e2a4ef6)" d="M 90 247.253286 
L 648 247.253286 
" style="fill:none;stroke:#b0b0b0;stroke-linecap:square;stroke-width:0.8;"/>
     </g>
     <g id="line2d_24">
      <g>
       <use style="stroke:#000000;stroke-width:0.8;" x="90" xlink:href="#m8a59bfa691" y="247.253286"/>
      </g>
     </g>
     <g id="text_13">
      <!-- 10 -->
      <g transform="translate(70.275 251.052505)scale(0.1 -0.1)">
       <use xlink:href="#DejaVuSans-49"/>
       <use x="63.623047" xlink:href="#DejaVuSans-48"/>
      </g>
     </g>
    </g>
    <g id="ytick_4">
     <g id="line2d_25">
      <path clip-path="url(#pa74e2a4ef6)" d="M 90 215.140807 
L 648 215.140807 
" style="fill:none;stroke:#b0b0b0;stroke-linecap:square;stroke-width:0.8;"/>
     </g>
     <g id="line2d_26">
      <g>
       <use style="stroke:#000000;stroke-width:0.8;" x="90" xlink:href="#m8a59bfa691" y="215.140807"/>
      </g>
     </g>
     <g id="text_14">
      <!-- 15 -->
      <g transform="translate(70.275 218.940025)scale(0.1 -0.1)">
       <use xlink:href="#DejaVuSans-49"/>
       <use x="63.623047" xlink:href="#DejaVuSans-53"/>
      </g>
     </g>
    </g>
    <g id="ytick_5">
     <g id="line2d_27">
      <path clip-path="url(#pa74e2a4ef6)" d="M 90 183.028327 
L 648 183.028327 
" style="fill:none;stroke:#b0b0b0;stroke-linecap:square;stroke-width:0.8;"/>
     </g>
     <g id="line2d_28">
      <g>
       <use style="stroke:#000000;stroke-width:0.8;" x="90" xlink:href="#m8a59bfa691" y="183.028327"/>
      </g>
     </g>
     <g id="text_15">
      <!-- 20 -->
      <g transform="translate(70.275 186.827546)scale(0.1 -0.1)">
       <use xlink:href="#DejaVuSans-50"/>
       <use x="63.623047" xlink:href="#DejaVuSans-48"/>
      </g>
     </g>
    </g>
    <g id="ytick_6">
     <g id="line2d_29">
      <path clip-path="url(#pa74e2a4ef6)" d="M 90 150.915848 
L 648 150.915848 
" style="fill:none;stroke:#b0b0b0;stroke-linecap:square;stroke-width:0.8;"/>
     </g>
     <g id="line2d_30">
      <g>
       <use style="stroke:#000000;stroke-width:0.8;" x="90" xlink:href="#m8a59bfa691" y="150.915848"/>
      </g>
     </g>
     <g id="text_16">
      <!-- 25 -->
      <g transform="translate(70.275 154.715066)scale(0.1 -0.1)">
       <use xlink:href="#DejaVuSans-50"/>
       <use x="63.623047" xlink:href="#DejaVuSans-53"/>
      </g>
     </g>
    </g>
    <g id="ytick_7">
     <g id="line2d_31">
      <path clip-path="url(#pa74e2a4ef6)" d="M 90 118.803368 
L 648 118.803368 
" style="fill:none;stroke:#b0b0b0;stroke-linecap:square;stroke-width:0.8;"/>
     </g>
     <g id="line2d_32">
      <g>
       <use style="stroke:#000000;stroke-width:0.8;" x="90" xlink:href="#m8a59bfa691" y="118.803368"/>
      </g>
     </g>
     <g id="text_17">
      <!-- 30 -->
      <defs>
       <path d="M 40.578125 39.3125 
Q 47.65625 37.796875 51.625 33 
Q 55.609375 28.21875 55.609375 21.1875 
Q 55.609375 10.40625 48.1875 4.484375 
Q 40.765625 -1.421875 27.09375 -1.421875 
Q 22.515625 -1.421875 17.65625 -0.515625 
Q 12.796875 0.390625 7.625 2.203125 
L 7.625 11.71875 
Q 11.71875 9.328125 16.59375 8.109375 
Q 21.484375 6.890625 26.8125 6.890625 
Q 36.078125 6.890625 40.9375 10.546875 
Q 45.796875 14.203125 45.796875 21.1875 
Q 45.796875 27.640625 41.28125 31.265625 
Q 36.765625 34.90625 28.71875 34.90625 
L 20.21875 34.90625 
L 20.21875 43.015625 
L 29.109375 43.015625 
Q 36.375 43.015625 40.234375 45.921875 
Q 44.09375 48.828125 44.09375 54.296875 
Q 44.09375 59.90625 40.109375 62.90625 
Q 36.140625 65.921875 28.71875 65.921875 
Q 24.65625 65.921875 20.015625 65.03125 
Q 15.375 64.15625 9.8125 62.3125 
L 9.8125 71.09375 
Q 15.4375 72.65625 20.34375 73.4375 
Q 25.25 74.21875 29.59375 74.21875 
Q 40.828125 74.21875 47.359375 69.109375 
Q 53.90625 64.015625 53.90625 55.328125 
Q 53.90625 49.265625 50.4375 45.09375 
Q 46.96875 40.921875 40.578125 39.3125 
z
" id="DejaVuSans-51"/>
      </defs>
      <g transform="translate(70.275 122.602587)scale(0.1 -0.1)">
       <use xlink:href="#DejaVuSans-51"/>
       <use x="63.623047" xlink:href="#DejaVuSans-48"/>
      </g>
     </g>
    </g>
    <g id="ytick_8">
     <g id="line2d_33">
      <path clip-path="url(#pa74e2a4ef6)" d="M 90 86.690889 
L 648 86.690889 
" style="fill:none;stroke:#b0b0b0;stroke-linecap:square;stroke-width:0.8;"/>
     </g>
     <g id="line2d_34">
      <g>
       <use style="stroke:#000000;stroke-width:0.8;" x="90" xlink:href="#m8a59bfa691" y="86.690889"/>
      </g>
     </g>
     <g id="text_18">
      <!-- 35 -->
      <g transform="translate(70.275 90.490107)scale(0.1 -0.1)">
       <use xlink:href="#DejaVuSans-51"/>
       <use x="63.623047" xlink:href="#DejaVuSans-53"/>
      </g>
     </g>
    </g>
    <g id="ytick_9">
     <g id="line2d_35">
      <path clip-path="url(#pa74e2a4ef6)" d="M 90 54.578409 
L 648 54.578409 
" style="fill:none;stroke:#b0b0b0;stroke-linecap:square;stroke-width:0.8;"/>
     </g>
     <g id="line2d_36">
      <g>
       <use style="stroke:#000000;stroke-width:0.8;" x="90" xlink:href="#m8a59bfa691" y="54.578409"/>
      </g>
     </g>
     <g id="text_19">
      <!-- 40 -->
      <defs>
       <path d="M 37.796875 64.3125 
L 12.890625 25.390625 
L 37.796875 25.390625 
z
M 35.203125 72.90625 
L 47.609375 72.90625 
L 47.609375 25.390625 
L 58.015625 25.390625 
L 58.015625 17.1875 
L 47.609375 17.1875 
L 47.609375 0 
L 37.796875 0 
L 37.796875 17.1875 
L 4.890625 17.1875 
L 4.890625 26.703125 
z
" id="DejaVuSans-52"/>
      </defs>
      <g transform="translate(70.275 58.377628)scale(0.1 -0.1)">
       <use xlink:href="#DejaVuSans-52"/>
       <use x="63.623047" xlink:href="#DejaVuSans-48"/>
      </g>
     </g>
    </g>
    <g id="text_20">
     <!-- loss -->
     <defs>
      <path d="M 9.421875 75.984375 
L 18.40625 75.984375 
L 18.40625 0 
L 9.421875 0 
z
" id="DejaVuSans-108"/>
      <path d="M 44.28125 53.078125 
L 44.28125 44.578125 
Q 40.484375 46.53125 36.375 47.5 
Q 32.28125 48.484375 27.875 48.484375 
Q 21.1875 48.484375 17.84375 46.4375 
Q 14.5 44.390625 14.5 40.28125 
Q 14.5 37.15625 16.890625 35.375 
Q 19.28125 33.59375 26.515625 31.984375 
L 29.59375 31.296875 
Q 39.15625 29.25 43.1875 25.515625 
Q 47.21875 21.78125 47.21875 15.09375 
Q 47.21875 7.46875 41.1875 3.015625 
Q 35.15625 -1.421875 24.609375 -1.421875 
Q 20.21875 -1.421875 15.453125 -0.5625 
Q 10.6875 0.296875 5.421875 2 
L 5.421875 11.28125 
Q 10.40625 8.6875 15.234375 7.390625 
Q 20.0625 6.109375 24.8125 6.109375 
Q 31.15625 6.109375 34.5625 8.28125 
Q 37.984375 10.453125 37.984375 14.40625 
Q 37.984375 18.0625 35.515625 20.015625 
Q 33.0625 21.96875 24.703125 23.78125 
L 21.578125 24.515625 
Q 13.234375 26.265625 9.515625 29.90625 
Q 5.8125 33.546875 5.8125 39.890625 
Q 5.8125 47.609375 11.28125 51.796875 
Q 16.75 56 26.8125 56 
Q 31.78125 56 36.171875 55.265625 
Q 40.578125 54.546875 44.28125 53.078125 
z
" id="DejaVuSans-115"/>
     </defs>
     <g transform="translate(64.195312 188.757812)rotate(-90)scale(0.1 -0.1)">
      <use xlink:href="#DejaVuSans-108"/>
      <use x="27.783203" xlink:href="#DejaVuSans-111"/>
      <use x="88.964844" xlink:href="#DejaVuSans-115"/>
      <use x="141.064453" xlink:href="#DejaVuSans-115"/>
     </g>
    </g>
   </g>
   <g id="line2d_37">
    <path clip-path="url(#pa74e2a4ef6)" d="M 115.363636 55.554545 
L 116.632453 133.32488 
L 117.393742 156.874837 
L 118.155032 171.927286 
L 118.916322 185.51177 
L 120.438901 207.164896 
L 121.453954 218.019408 
L 122.469007 226.500576 
L 123.48406 233.33803 
L 124.752876 240.103181 
L 126.275456 246.759767 
L 128.559325 254.77541 
L 129.828141 258.549871 
L 131.350721 262.537445 
L 133.127064 266.353861 
L 135.157169 269.987173 
L 138.709855 275.119822 
L 143.02383 279.578541 
L 144.54641 280.869022 
L 147.845332 283.144469 
L 148.860385 283.710171 
L 149.875438 284.289915 
L 151.65178 285.238664 
L 151.905544 285.266886 
L 153.428123 286.078447 
L 159.772204 288.581503 
L 161.548547 289.078777 
L 162.309837 289.333411 
L 163.578653 289.657945 
L 167.131338 290.529008 
L 167.638865 290.633982 
L 168.400155 290.73549 
L 168.907681 290.874561 
L 173.221656 291.612377 
L 175.251762 291.941225 
L 175.505525 292.042543 
L 176.013052 292.048255 
L 184.641002 293.122931 
L 185.148529 293.194653 
L 186.671108 293.288823 
L 187.178635 293.328017 
L 188.954977 293.546571 
L 189.462504 293.516693 
L 189.97003 293.657347 
L 192.2539 293.779832 
L 192.761426 293.919194 
L 193.268953 293.860428 
L 193.522716 293.974387 
L 193.776479 293.942139 
L 194.030242 294.03244 
L 194.791532 294.000591 
L 197.329165 294.226756 
L 198.597981 294.294407 
L 198.851744 294.403389 
L 199.359271 294.391502 
L 201.389377 294.582656 
L 202.150666 294.58871 
L 203.673246 294.675827 
L 204.434535 294.687171 
L 204.688299 294.787437 
L 205.195825 294.753098 
L 211.539906 295.174725 
L 211.79367 295.250264 
L 212.301196 295.119088 
L 212.808723 295.264592 
L 213.316249 295.244773 
L 213.570012 295.221478 
L 213.823776 295.326998 
L 214.585065 295.3044 
L 219.406567 295.575719 
L 220.167857 295.578025 
L 220.675383 295.634863 
L 221.18291 295.651087 
L 221.690436 295.699608 
L 223.213016 295.728488 
L 223.974305 295.719214 
L 224.228069 295.823303 
L 224.735595 295.782687 
L 228.288281 295.967956 
L 232.856019 296.1715 
L 233.617309 296.168802 
L 241.737733 296.521785 
L 241.991496 296.453687 
L 242.245259 296.538641 
L 243.006549 296.475941 
L 243.514075 296.559634 
L 243.767838 296.530772 
L 244.275365 296.622792 
L 244.782891 296.652421 
L 245.290418 296.584547 
L 247.066761 296.710379 
L 247.574287 296.738841 
L 248.843103 296.73536 
L 249.604393 296.765575 
L 249.858156 296.705579 
L 250.619446 296.822677 
L 251.634499 296.807769 
L 256.963527 296.984263 
L 257.724817 297.000491 
L 258.486107 296.995333 
L 260.516213 297.104005 
L 260.769976 297.031018 
L 261.277502 297.126886 
L 261.531266 297.057287 
L 262.292555 297.143999 
L 270.920506 297.387511 
L 271.174269 297.315368 
L 271.681795 297.425264 
L 272.696848 297.420391 
L 273.204375 297.447468 
L 273.711901 297.449623 
L 274.473191 297.449802 
L 275.488244 297.510073 
L 275.995771 297.51599 
L 276.503297 297.574908 
L 277.010824 297.512928 
L 278.27964 297.552949 
L 290.967802 297.885942 
L 291.475329 297.84417 
L 292.236618 297.925527 
L 292.490382 297.863606 
L 292.997908 297.950928 
L 297.565646 298.053482 
L 299.088226 298.067385 
L 299.595752 298.091717 
L 306.193597 298.222117 
L 306.44736 298.280317 
L 306.954887 298.241861 
L 308.477466 298.266202 
L 309.746282 298.354009 
L 310.000045 298.249311 
L 313.806494 298.408395 
L 314.821547 298.424577 
L 320.150575 298.499642 
L 320.658102 298.5251 
L 321.673155 298.559361 
L 322.434444 298.580448 
L 322.941971 298.571475 
L 323.449497 298.599028 
L 324.718314 298.598484 
L 324.972077 298.666707 
L 325.479603 298.583788 
L 325.733367 298.698533 
L 325.98713 298.61858 
L 326.494656 298.677111 
L 327.509709 298.691166 
L 330.808632 298.714442 
L 331.062395 298.791224 
L 331.823685 298.753309 
L 332.584974 298.789215 
L 332.838738 298.715787 
L 333.600027 298.791715 
L 334.107554 298.772958 
L 334.868844 298.84217 
L 336.13766 298.769577 
L 337.406476 298.894513 
L 338.167766 298.807441 
L 338.421529 298.905018 
L 338.929055 298.861003 
L 339.690345 298.937024 
L 340.197872 298.921366 
L 342.227978 298.975392 
L 342.481741 298.898597 
L 342.735504 298.98672 
L 342.989267 298.932959 
L 343.496794 299.015405 
L 344.00432 299.019898 
L 346.034426 299.014854 
L 346.541953 299.065045 
L 347.303243 299.036433 
L 347.810769 299.036562 
L 349.079585 299.058121 
L 350.348401 299.090012 
L 357.961299 299.245063 
L 358.215062 299.182025 
L 358.722589 299.305394 
L 358.976352 299.215948 
L 359.991405 299.270199 
L 361.006458 299.272225 
L 361.767748 299.290098 
L 393.488153 299.76646 
L 394.503206 299.799846 
L 395.518259 299.817453 
L 407.952658 300.040456 
L 408.460185 299.977187 
L 409.475238 300.054845 
L 410.744054 300.026263 
L 411.759107 300.11785 
L 412.266633 300.058654 
L 412.77416 300.10237 
L 413.789213 300.088609 
L 414.804266 300.08979 
L 415.058029 300.048939 
L 415.565556 300.1432 
L 436.374142 300.403039 
L 436.881668 300.490646 
L 437.135431 300.418197 
L 437.642958 300.480601 
L 437.896721 300.41388 
L 438.150484 300.491187 
L 438.658011 300.42225 
L 439.165537 300.4577 
L 440.688117 300.483305 
L 441.449407 300.520866 
L 441.70317 300.45892 
L 442.46446 300.549701 
L 443.479512 300.54329 
L 443.987039 300.608317 
L 450.584883 300.682646 
L 451.346173 300.686684 
L 452.868753 300.696318 
L 456.421438 300.726075 
L 457.182728 300.767622 
L 458.197781 300.788965 
L 458.705307 300.806307 
L 460.48165 300.839934 
L 460.989176 300.789891 
L 462.511756 300.845333 
L 466.064441 300.915602 
L 466.825731 300.939874 
L 467.333258 300.92 
L 467.587021 300.853688 
L 467.840784 300.983151 
L 472.916049 301.030222 
L 473.423575 301.04747 
L 474.692392 300.998711 
L 474.946155 301.089831 
L 475.199918 301.008859 
L 475.453681 301.098283 
L 476.214971 301.052293 
L 479.006367 301.091172 
L 479.513893 300.941625 
L 480.02142 301.074499 
L 481.290236 301.029979 
L 481.797763 301.111539 
L 482.812815 301.051785 
L 484.335395 301.212952 
L 485.096685 301.194378 
L 485.857974 301.205305 
L 486.365501 301.205687 
L 486.873027 301.212708 
L 487.126791 301.151845 
L 487.380554 301.292592 
L 488.141844 301.228385 
L 489.41066 301.253878 
L 491.440766 301.308981 
L 493.217109 301.350609 
L 494.232162 301.271492 
L 494.993451 301.324456 
L 500.322479 301.359177 
L 500.830006 301.358816 
L 501.845059 301.434802 
L 505.651508 301.500939 
L 506.159034 301.45221 
L 506.920324 301.563845 
L 507.42785 301.468323 
L 508.696667 301.545899 
L 514.279458 301.648836 
L 514.533221 301.69444 
L 514.786984 301.577545 
L 515.802037 301.651305 
L 516.309564 301.6425 
L 517.324617 301.622635 
L 518.085907 301.608472 
L 518.593433 301.678903 
L 519.354723 301.69683 
L 520.369776 301.663203 
L 520.623539 301.738441 
L 521.384829 301.673899 
L 522.146119 301.718584 
L 522.907408 301.710149 
L 524.429988 301.716998 
L 524.937514 301.68425 
L 525.445041 301.771325 
L 527.475147 301.702521 
L 527.982673 301.690116 
L 528.743963 301.747498 
L 531.281595 301.827913 
L 531.535359 301.725246 
L 531.789122 301.827904 
L 533.311701 301.787524 
L 534.326754 301.837495 
L 535.088044 301.575064 
L 538.894493 301.859693 
L 539.909546 301.848839 
L 540.417072 301.892698 
L 541.685888 301.879582 
L 541.939652 301.969463 
L 542.447178 301.9619 
L 543.969758 301.981415 
L 544.477284 301.910614 
L 545.238574 302.013096 
L 545.7461 301.7701 
L 545.999864 301.961983 
L 546.50739 301.913058 
L 546.761153 302.00538 
L 547.26868 301.903718 
L 548.791259 302.035715 
L 550.821365 302.017686 
L 551.328892 301.942173 
L 552.851471 302.078111 
L 553.358998 302.019062 
L 554.881577 302.07528 
L 555.13534 301.994739 
L 555.389104 302.096313 
L 555.89663 302.078636 
L 556.65792 302.083607 
L 557.165446 302.154291 
L 557.672973 302.044515 
L 558.941789 302.10959 
L 560.971895 302.046035 
L 563.255764 302.128555 
L 565.032107 302.119141 
L 565.539633 302.158888 
L 567.315976 302.156253 
L 568.584792 302.172831 
L 570.361135 302.213684 
L 570.614898 302.077328 
L 571.122425 302.255425 
L 571.376188 302.158942 
L 571.883715 302.268253 
L 572.137478 302.075215 
L 572.898768 302.125639 
L 575.4364 302.257401 
L 575.943927 302.252708 
L 577.466506 302.262009 
L 578.481559 302.306328 
L 579.750375 302.334046 
L 580.257902 302.291035 
L 581.780481 302.275677 
L 584.06435 302.285954 
L 584.318114 302.342421 
L 584.571877 302.244996 
L 585.840693 302.395479 
L 586.34822 302.328338 
L 587.617036 302.33443 
L 588.124562 302.34433 
L 588.632089 302.288738 
L 589.139615 302.409785 
L 589.393379 302.286231 
L 589.900905 302.327458 
L 591.423484 302.408439 
L 592.184774 302.41395 
L 593.707354 302.398407 
L 595.73746 302.331632 
L 596.244986 302.361968 
L 597.006276 302.409909 
L 597.513802 302.409599 
L 599.036382 302.414617 
L 599.290145 302.511359 
L 599.797672 302.416674 
L 600.305198 302.416021 
L 600.558961 302.388723 
L 600.812725 302.526459 
L 601.574014 302.479048 
L 602.335304 302.417061 
L 603.096594 302.431907 
L 608.171859 302.454034 
L 608.425622 302.383054 
L 608.679385 302.509677 
L 611.470781 302.515779 
L 611.978307 302.546986 
L 612.232071 302.488295 
L 612.739597 302.584912 
L 614.262177 302.491065 
L 615.27723 302.645455 
L 615.530993 302.566127 
L 615.784756 302.630808 
L 616.546046 302.540552 
L 617.561099 302.571685 
L 618.068625 302.535091 
L 618.322388 302.627342 
L 618.829915 302.610728 
L 622.636364 302.630882 
L 622.636364 302.630882 
" style="fill:none;stroke:#1f77b4;stroke-linecap:square;stroke-width:0.5;"/>
   </g>
   <g id="line2d_38">
    <path clip-path="url(#pa74e2a4ef6)" d="M 115.363636 67.026503 
L 116.124926 119.609488 
L 116.632453 139.390493 
L 117.393742 160.995698 
L 119.170085 191.961068 
L 120.185138 206.06174 
L 121.200191 217.112747 
L 122.215244 225.700358 
L 123.230297 232.607694 
L 124.24535 238.1957 
L 125.514166 244.019609 
L 126.782982 249.06673 
L 128.051799 253.432174 
L 129.574378 257.993463 
L 131.096958 261.99862 
L 133.380827 266.83188 
L 136.172222 271.537972 
L 136.679749 272.243734 
L 139.978671 276.430674 
L 141.501251 278.013296 
L 142.516304 278.925996 
L 143.78512 280.044425 
L 144.038883 280.138109 
L 144.800173 280.795389 
L 146.322752 281.893951 
L 147.084042 282.38649 
L 148.606621 283.291785 
L 150.890491 284.552929 
L 153.428123 285.69768 
L 153.93565 286.031549 
L 154.950703 286.405559 
L 155.965756 286.903236 
L 156.473282 287.054948 
L 156.980809 287.276657 
L 160.787257 288.537284 
L 161.294784 288.694808 
L 162.5636 289.141621 
L 162.817363 289.077557 
L 163.071126 289.266549 
L 163.32489 289.211755 
L 163.578653 289.3813 
L 164.086179 289.455128 
L 164.339943 289.460625 
L 164.593706 289.637724 
L 165.354996 289.732344 
L 165.862522 289.879697 
L 166.877575 290.123656 
L 167.131338 290.113968 
L 167.638865 290.238678 
L 168.146391 290.332943 
L 168.400155 290.441886 
L 168.653918 290.42381 
L 169.161444 290.585747 
L 171.19155 290.895218 
L 172.206603 291.100671 
L 172.71413 291.156369 
L 172.967893 291.290881 
L 173.221656 291.229724 
L 173.729183 291.453578 
L 173.982946 291.392498 
L 174.744236 291.49063 
L 175.505525 291.569083 
L 176.013052 291.6917 
L 177.028105 291.824211 
L 177.789395 291.991652 
L 178.296921 292.02846 
L 185.656055 292.811504 
L 186.671108 292.891285 
L 187.686161 293.001232 
L 187.939925 293.157404 
L 188.193688 293.141145 
L 188.447451 293.012899 
L 189.462504 293.255316 
L 190.223794 293.227484 
L 190.73132 293.305434 
L 195.045295 293.661489 
L 195.299059 293.795348 
L 195.552822 293.67391 
L 196.060348 293.78649 
L 197.582928 293.89479 
L 197.836691 293.754942 
L 198.090454 293.928703 
L 200.12056 294.036499 
L 200.628087 294.109536 
L 211.03238 294.746558 
L 211.286143 294.919979 
L 211.79367 294.705432 
L 214.077539 294.866531 
L 214.585065 294.91037 
L 216.107645 295.041051 
L 216.615171 295.031951 
L 217.376461 295.101732 
L 217.630224 295.188312 
L 218.137751 295.133685 
L 218.391514 295.20243 
L 218.645277 295.135431 
L 218.89904 295.196244 
L 219.406567 295.121992 
L 219.914093 295.246939 
L 220.675383 295.169288 
L 220.929146 295.244046 
L 221.18291 295.194195 
L 221.690436 295.284917 
L 221.944199 295.275331 
L 222.197963 295.38476 
L 222.451726 295.306308 
L 222.705489 295.386698 
L 223.466779 295.312649 
L 224.228069 295.368481 
L 225.750648 295.443461 
L 226.258175 295.543327 
L 227.019464 295.440678 
L 227.526991 295.619407 
L 227.780754 295.533898 
L 228.288281 295.563532 
L 229.557097 295.663795 
L 230.064623 295.647051 
L 230.57215 295.680545 
L 231.840966 295.712413 
L 232.348492 295.744254 
L 233.109782 295.826984 
L 233.871072 295.78579 
L 234.124835 295.834308 
L 234.378598 295.718682 
L 234.632362 295.854021 
L 244.275365 296.155645 
L 244.529128 296.283652 
L 246.812997 296.276946 
L 249.858156 296.368272 
L 250.11192 296.346075 
L 250.365683 296.47971 
L 250.619446 296.47746 
L 250.873209 296.359996 
L 253.664605 296.538705 
L 254.172132 296.450154 
L 254.679658 296.549747 
L 255.948474 296.544382 
L 257.21729 296.478765 
L 257.471054 296.639766 
L 257.724817 296.594375 
L 257.97858 296.684236 
L 258.73987 296.662829 
L 258.993633 296.697028 
L 259.247396 296.596994 
L 260.769976 296.710793 
L 261.277502 296.722929 
L 262.038792 296.839183 
L 262.292555 296.739142 
L 263.307608 296.859645 
L 263.815135 296.791834 
L 264.068898 296.761138 
L 264.322661 296.851736 
L 264.830188 296.838832 
L 265.591478 296.856317 
L 266.352767 296.980415 
L 266.606531 296.847911 
L 266.860294 296.923197 
L 267.36782 296.885484 
L 268.636637 296.956848 
L 269.651689 297.008625 
L 270.159216 296.986957 
L 272.443085 297.05122 
L 273.204375 297.149968 
L 273.458138 297.04082 
L 274.473191 297.114969 
L 274.726954 297.030899 
L 275.234481 297.088983 
L 277.264587 297.212284 
L 277.772113 297.151446 
L 280.055983 297.23671 
L 284.623721 297.360243 
L 284.877484 297.293205 
L 285.385011 297.369218 
L 286.400064 297.3667 
L 287.66888 297.416201 
L 294.012961 297.61947 
L 294.520488 297.590142 
L 297.05812 297.628844 
L 298.580699 297.737242 
L 300.357042 297.641644 
L 300.610805 297.794635 
L 301.625858 297.737906 
L 301.879622 297.840607 
L 302.387148 297.780068 
L 302.640911 297.696828 
L 303.148438 297.736674 
L 304.417254 297.829573 
L 305.178544 297.837958 
L 307.716176 297.867397 
L 308.223703 297.828139 
L 308.477466 298.001125 
L 308.984992 297.964384 
L 309.492519 297.896588 
L 310.253809 297.948145 
L 310.761335 297.94302 
L 311.776388 297.998915 
L 313.298968 298.012993 
L 313.552731 297.96537 
L 314.060257 298.057468 
L 315.07531 298.072765 
L 316.090363 298.103571 
L 316.59789 298.085473 
L 317.105416 298.06188 
L 317.866706 298.17494 
L 318.120469 298.121189 
L 318.374233 298.191602 
L 318.627996 298.108725 
L 319.389286 298.162966 
L 319.896812 298.082332 
L 320.658102 298.157498 
L 320.911865 298.127109 
L 321.165628 298.238991 
L 321.419392 298.123681 
L 321.926918 298.2325 
L 322.180681 298.087643 
L 322.688208 298.208478 
L 323.195734 298.185814 
L 323.449497 298.249725 
L 323.703261 298.184249 
L 323.957024 298.270325 
L 324.46455 298.199384 
L 324.972077 298.302119 
L 325.479603 298.213404 
L 325.98713 298.363594 
L 326.494656 298.2537 
L 327.002183 298.326437 
L 327.763473 298.384137 
L 328.017236 298.275341 
L 328.778526 298.351476 
L 329.793579 298.305217 
L 330.301105 298.367851 
L 330.554868 298.319628 
L 331.062395 298.368725 
L 334.868844 298.429068 
L 335.122607 298.515656 
L 335.630133 298.467533 
L 336.13766 298.467863 
L 336.645186 298.450278 
L 340.959161 298.6315 
L 341.466688 298.607852 
L 341.720451 298.556155 
L 341.974214 298.650633 
L 342.227978 298.552582 
L 343.243031 298.586973 
L 343.496794 298.537666 
L 344.258084 298.70901 
L 345.019373 298.624006 
L 345.5269 298.605948 
L 346.034426 298.688597 
L 346.795716 298.633467 
L 347.049479 298.68603 
L 347.303243 298.603944 
L 347.810769 298.662362 
L 352.378507 298.780379 
L 352.886034 298.750149 
L 353.39356 298.844205 
L 354.91614 298.788478 
L 355.423666 298.810221 
L 355.931193 298.829204 
L 358.215062 298.839214 
L 358.468825 298.964292 
L 359.230115 298.850328 
L 360.245168 298.995852 
L 360.498931 298.871183 
L 360.752695 298.948122 
L 361.260221 298.938223 
L 361.513984 298.964219 
L 361.767748 298.842252 
L 362.021511 298.988499 
L 362.529037 298.898569 
L 363.036564 298.957508 
L 363.290327 298.921402 
L 363.54409 299.002494 
L 363.797853 298.919238 
L 364.051617 299.016471 
L 364.812906 298.966241 
L 365.06667 299.026683 
L 365.320433 298.934035 
L 365.827959 299.056449 
L 366.589249 298.943213 
L 367.350539 299.040503 
L 368.873118 299.075773 
L 369.888171 299.115626 
L 370.141935 299.009618 
L 370.649461 299.088539 
L 373.440857 299.180981 
L 373.69462 299.053527 
L 376.993542 299.186741 
L 377.754832 299.197408 
L 378.769885 299.238882 
L 379.277411 299.173638 
L 379.784938 299.197601 
L 384.352676 299.397893 
L 384.60644 299.21019 
L 385.113966 299.370943 
L 385.875256 299.276884 
L 386.636546 299.387744 
L 387.651599 299.39259 
L 387.905362 299.431835 
L 388.159125 299.267222 
L 388.666652 299.40795 
L 388.920415 299.312474 
L 389.427941 299.45844 
L 389.681704 299.365529 
L 390.696757 299.4654 
L 390.950521 299.395318 
L 391.204284 299.441844 
L 391.458047 299.365178 
L 391.965574 299.414924 
L 392.980627 299.411231 
L 393.23439 299.497059 
L 393.741916 299.398344 
L 394.249443 299.477395 
L 394.503206 299.374073 
L 395.010733 299.561732 
L 395.264496 299.399326 
L 395.518259 299.527545 
L 396.025786 299.462152 
L 396.533312 299.529005 
L 397.040839 299.505834 
L 403.638683 299.5637 
L 403.892446 299.50758 
L 404.146209 299.629533 
L 406.937605 299.662519 
L 407.445132 299.692081 
L 407.952658 299.637521 
L 409.221474 299.689603 
L 409.475238 299.636546 
L 409.729001 299.739632 
L 410.236527 299.687063 
L 412.01287 299.682962 
L 412.520397 299.768738 
L 413.789213 299.778984 
L 414.042976 299.682677 
L 414.296739 299.780603 
L 414.550503 299.743829 
L 414.804266 299.840579 
L 415.311792 299.785286 
L 416.580608 299.837666 
L 416.834372 299.802846 
L 417.341898 299.889164 
L 417.849425 299.74429 
L 418.103188 299.87882 
L 418.610714 299.817246 
L 418.864478 299.895431 
L 419.372004 299.749515 
L 419.625767 299.911139 
L 420.133294 299.791321 
L 420.387057 299.890567 
L 421.655873 299.865336 
L 422.92469 299.909455 
L 423.178453 299.785727 
L 423.432216 299.92613 
L 427.492428 299.953418 
L 427.746191 300.049764 
L 427.999955 299.921593 
L 429.268771 299.962044 
L 429.522534 299.919444 
L 429.776297 299.993678 
L 430.03006 299.935917 
L 430.79135 300.068788 
L 436.627905 300.101791 
L 437.135431 300.140717 
L 437.642958 300.087554 
L 437.896721 300.190364 
L 438.150484 300.092363 
L 438.658011 300.147615 
L 438.911774 300.084338 
L 439.419301 300.16573 
L 439.673064 300.122998 
L 439.926827 300.225042 
L 440.434354 300.124329 
L 440.94188 300.170548 
L 441.195643 300.06848 
L 441.449407 300.191327 
L 442.210696 300.196506 
L 442.46446 300.243888 
L 442.971986 300.165637 
L 446.270908 300.271626 
L 446.524671 300.145138 
L 447.285961 300.29426 
L 447.539724 300.231064 
L 448.047251 300.354979 
L 448.301014 300.253561 
L 448.554777 300.347208 
L 449.062304 300.27299 
L 449.316067 300.392715 
L 449.823594 300.35604 
L 450.838647 300.320418 
L 451.09241 300.409214 
L 452.361226 300.307045 
L 453.376279 300.384117 
L 453.883806 300.371955 
L 454.391332 300.364999 
L 455.152622 300.284059 
L 455.406385 300.371449 
L 455.913912 300.305999 
L 456.675201 300.43152 
L 456.928964 300.524845 
L 457.182728 300.37733 
L 457.690254 300.508803 
L 457.944017 300.435755 
L 458.197781 300.506388 
L 458.451544 300.416414 
L 459.212834 300.514588 
L 460.989176 300.480946 
L 461.24294 300.514176 
L 461.496703 300.409515 
L 462.004229 300.525779 
L 462.257993 300.454822 
L 462.765519 300.542609 
L 463.780572 300.438311 
L 464.034335 300.58236 
L 465.303152 300.50993 
L 465.556915 300.656434 
L 466.064441 300.563706 
L 466.318205 300.655699 
L 466.825731 300.594734 
L 467.587021 300.54799 
L 468.602074 300.637665 
L 469.87089 300.544123 
L 471.393469 300.718754 
L 471.900996 300.575641 
L 472.408522 300.678751 
L 473.423575 300.737167 
L 474.184865 300.677768 
L 474.692392 300.77241 
L 475.453681 300.656022 
L 475.707445 300.739471 
L 476.214971 300.709923 
L 476.468734 300.766551 
L 476.976261 300.741532 
L 478.752604 300.774956 
L 479.006367 300.606344 
L 479.513893 300.712964 
L 480.275183 300.770261 
L 480.528946 300.75568 
L 480.78271 300.872666 
L 481.036473 300.705121 
L 481.290236 300.876767 
L 482.305289 300.82056 
L 482.559052 300.701679 
L 482.812815 300.81848 
L 483.320342 300.732693 
L 483.574105 300.857833 
L 483.827868 300.855296 
L 484.081632 300.73849 
L 485.096685 300.872965 
L 486.365501 300.921916 
L 486.619264 300.822497 
L 488.141844 300.932551 
L 488.903133 300.970848 
L 489.664423 300.964135 
L 491.694529 300.982113 
L 491.948292 301.080673 
L 492.202056 300.859002 
L 492.455819 301.028469 
L 493.470872 300.969086 
L 493.724635 301.001239 
L 493.978398 300.893216 
L 494.232162 301.005486 
L 494.739688 300.945566 
L 495.247215 301.032331 
L 495.754741 300.989791 
L 496.516031 301.077596 
L 496.769794 300.894896 
L 497.023557 301.054686 
L 498.03861 301.021861 
L 498.292373 301.184163 
L 498.7999 300.926712 
L 499.307426 301.129587 
L 499.814953 301.044404 
L 501.591296 301.098045 
L 501.845059 301.062173 
L 502.098822 301.217924 
L 502.860112 301.03136 
L 503.113875 301.174771 
L 505.143981 301.063688 
L 505.397744 301.194998 
L 505.905271 301.122247 
L 507.681614 301.225222 
L 507.935377 301.128403 
L 508.18914 301.234102 
L 509.711719 301.157298 
L 510.473009 301.255252 
L 511.234299 301.206639 
L 517.324617 301.267803 
L 517.832143 301.316126 
L 518.085907 301.406071 
L 518.33967 301.371691 
L 518.593433 301.458487 
L 519.354723 301.27725 
L 520.369776 301.408457 
L 520.877302 301.409374 
L 521.131066 301.289894 
L 523.668698 301.404556 
L 525.445041 301.426189 
L 526.96762 301.500375 
L 527.475147 301.30697 
L 527.72891 301.264556 
L 527.982673 301.449651 
L 528.4902 301.438561 
L 530.520306 301.440286 
L 531.789122 301.458174 
L 532.296648 301.545277 
L 532.550412 301.557043 
L 533.057938 301.450788 
L 533.311701 301.556528 
L 533.819228 301.531414 
L 534.072991 301.509732 
L 534.326754 301.314035 
L 534.580518 301.42232 
L 534.834281 301.274628 
L 535.088044 301.311426 
L 535.341807 301.492152 
L 536.864387 301.33795 
L 537.11815 301.565343 
L 537.371913 301.637346 
L 537.625676 301.443509 
L 537.87944 301.598524 
L 538.133203 301.426175 
L 538.386966 301.596871 
L 539.148256 301.561539 
L 539.402019 301.675498 
L 539.655782 301.494099 
L 542.954705 301.648525 
L 543.208468 301.46786 
L 543.715994 301.659673 
L 544.984811 301.616786 
L 545.492337 301.495639 
L 546.50739 301.571453 
L 546.761153 301.679014 
L 547.26868 301.56636 
L 547.522443 301.651824 
L 547.776206 301.588235 
L 548.283733 301.662895 
L 548.791259 301.716924 
L 549.552549 301.703913 
L 550.060075 301.666864 
L 550.567602 301.773185 
L 551.075128 301.564773 
L 551.328892 301.789284 
L 551.582655 301.696495 
L 551.836418 301.771341 
L 552.090181 301.684853 
L 552.597708 301.73165 
L 553.105234 301.709052 
L 553.358998 301.719739 
L 553.612761 301.610929 
L 553.866524 301.739778 
L 555.89663 301.645861 
L 556.404157 301.771825 
L 557.165446 301.740056 
L 558.941789 301.837788 
L 559.449316 301.630216 
L 560.971895 301.69852 
L 561.225658 301.864056 
L 562.240711 301.821234 
L 562.748238 301.840952 
L 563.002001 301.698044 
L 563.509527 301.917793 
L 564.270817 301.787801 
L 566.554686 301.767744 
L 566.80845 301.965663 
L 567.062213 301.828981 
L 567.823503 301.863382 
L 568.077266 301.920534 
L 568.331029 301.745042 
L 568.584792 301.866928 
L 569.092319 301.830764 
L 569.346082 301.95138 
L 569.599845 301.856927 
L 570.107372 301.832432 
L 570.614898 301.869686 
L 571.376188 301.942235 
L 571.883715 301.837414 
L 572.137478 301.894645 
L 572.391241 301.700124 
L 572.898768 301.767452 
L 573.152531 301.753665 
L 573.406294 301.903211 
L 573.913821 301.870656 
L 574.421347 301.935068 
L 574.67511 301.993955 
L 574.928874 301.890391 
L 575.182637 301.957149 
L 575.690163 301.949834 
L 576.19769 301.989287 
L 576.705216 302.013651 
L 577.466506 301.86909 
L 577.974032 301.96268 
L 578.481559 301.971647 
L 582.288008 301.879571 
L 582.541771 301.771244 
L 582.795534 302.016219 
L 583.303061 301.974022 
L 584.318114 302.06995 
L 584.571877 301.881453 
L 584.82564 302.066926 
L 585.079403 301.943362 
L 585.58693 302.030791 
L 591.931011 301.95127 
L 592.184774 302.178277 
L 592.946064 302.109982 
L 593.199827 302.155902 
L 593.45359 302.025222 
L 593.961117 302.064872 
L 594.21488 301.945612 
L 594.97617 302.003559 
L 595.483696 301.978403 
L 595.73746 302.114089 
L 596.244986 302.032035 
L 596.752513 302.125655 
L 597.260039 302.088427 
L 600.305198 302.137804 
L 601.320251 302.097099 
L 601.827778 302.14118 
L 602.081541 302.182114 
L 602.335304 302.003126 
L 602.842831 302.04019 
L 603.096594 302.178841 
L 603.60412 302.060661 
L 604.619173 302.214751 
L 605.634226 302.159046 
L 605.887989 302.286346 
L 606.141753 302.164468 
L 606.395516 302.190228 
L 606.649279 302.102837 
L 607.664332 302.193241 
L 608.425622 302.095324 
L 608.679385 302.205122 
L 608.933148 302.113519 
L 609.186912 302.231351 
L 609.948201 302.180631 
L 610.455728 302.211387 
L 610.709491 302.150049 
L 610.963254 302.24522 
L 611.724544 302.257579 
L 612.739597 302.161717 
L 612.99336 302.243104 
L 614.008413 302.177404 
L 614.262177 302.282009 
L 614.769703 302.206159 
L 615.023466 302.288686 
L 615.530993 302.241603 
L 615.784756 302.314116 
L 616.546046 302.232318 
L 616.799809 302.229335 
L 617.053572 302.367081 
L 617.814862 302.245127 
L 618.068625 302.362577 
L 619.591205 302.244779 
L 620.098731 302.327615 
L 620.352494 302.238592 
L 621.113784 302.338529 
L 621.367547 302.265206 
L 621.621311 302.358956 
L 622.636364 302.287619 
L 622.636364 302.287619 
" style="fill:none;stroke:#ff7f0e;stroke-linecap:square;stroke-width:0.5;"/>
   </g>
   <g id="patch_3">
    <path d="M 90 315 
L 90 43.2 
" style="fill:none;stroke:#000000;stroke-linecap:square;stroke-linejoin:miter;stroke-width:0.8;"/>
   </g>
   <g id="patch_4">
    <path d="M 648 315 
L 648 43.2 
" style="fill:none;stroke:#000000;stroke-linecap:square;stroke-linejoin:miter;stroke-width:0.8;"/>
   </g>
   <g id="patch_5">
    <path d="M 90 315 
L 648 315 
" style="fill:none;stroke:#000000;stroke-linecap:square;stroke-linejoin:miter;stroke-width:0.8;"/>
   </g>
   <g id="patch_6">
    <path d="M 90 43.2 
L 648 43.2 
" style="fill:none;stroke:#000000;stroke-linecap:square;stroke-linejoin:miter;stroke-width:0.8;"/>
   </g>
   <g id="text_21">
    <!-- loss -->
    <g transform="translate(357.410625 37.2)scale(0.12 -0.12)">
     <use xlink:href="#DejaVuSans-108"/>
     <use x="27.783203" xlink:href="#DejaVuSans-111"/>
     <use x="88.964844" xlink:href="#DejaVuSans-115"/>
     <use x="141.064453" xlink:href="#DejaVuSans-115"/>
    </g>
   </g>
   <g id="legend_1">
    <g id="patch_7">
     <path d="M 568.846875 80.55625 
L 641 80.55625 
Q 643 80.55625 643 78.55625 
L 643 50.2 
Q 643 48.2 641 48.2 
L 568.846875 48.2 
Q 566.846875 48.2 566.846875 50.2 
L 566.846875 78.55625 
Q 566.846875 80.55625 568.846875 80.55625 
z
" style="fill:#ffffff;opacity:0.8;stroke:#cccccc;stroke-linejoin:miter;"/>
    </g>
    <g id="line2d_39">
     <path d="M 570.846875 56.298437 
L 590.846875 56.298437 
" style="fill:none;stroke:#1f77b4;stroke-linecap:square;stroke-width:0.5;"/>
    </g>
    <g id="line2d_40"/>
    <g id="text_22">
     <!-- train -->
     <defs>
      <path d="M 18.3125 70.21875 
L 18.3125 54.6875 
L 36.8125 54.6875 
L 36.8125 47.703125 
L 18.3125 47.703125 
L 18.3125 18.015625 
Q 18.3125 11.328125 20.140625 9.421875 
Q 21.96875 7.515625 27.59375 7.515625 
L 36.8125 7.515625 
L 36.8125 0 
L 27.59375 0 
Q 17.1875 0 13.234375 3.875 
Q 9.28125 7.765625 9.28125 18.015625 
L 9.28125 47.703125 
L 2.6875 47.703125 
L 2.6875 54.6875 
L 9.28125 54.6875 
L 9.28125 70.21875 
z
" id="DejaVuSans-116"/>
      <path d="M 41.109375 46.296875 
Q 39.59375 47.171875 37.8125 47.578125 
Q 36.03125 48 33.890625 48 
Q 26.265625 48 22.1875 43.046875 
Q 18.109375 38.09375 18.109375 28.8125 
L 18.109375 0 
L 9.078125 0 
L 9.078125 54.6875 
L 18.109375 54.6875 
L 18.109375 46.1875 
Q 20.953125 51.171875 25.484375 53.578125 
Q 30.03125 56 36.53125 56 
Q 37.453125 56 38.578125 55.875 
Q 39.703125 55.765625 41.0625 55.515625 
z
" id="DejaVuSans-114"/>
      <path d="M 34.28125 27.484375 
Q 23.390625 27.484375 19.1875 25 
Q 14.984375 22.515625 14.984375 16.5 
Q 14.984375 11.71875 18.140625 8.90625 
Q 21.296875 6.109375 26.703125 6.109375 
Q 34.1875 6.109375 38.703125 11.40625 
Q 43.21875 16.703125 43.21875 25.484375 
L 43.21875 27.484375 
z
M 52.203125 31.203125 
L 52.203125 0 
L 43.21875 0 
L 43.21875 8.296875 
Q 40.140625 3.328125 35.546875 0.953125 
Q 30.953125 -1.421875 24.3125 -1.421875 
Q 15.921875 -1.421875 10.953125 3.296875 
Q 6 8.015625 6 15.921875 
Q 6 25.140625 12.171875 29.828125 
Q 18.359375 34.515625 30.609375 34.515625 
L 43.21875 34.515625 
L 43.21875 35.40625 
Q 43.21875 41.609375 39.140625 45 
Q 35.0625 48.390625 27.6875 48.390625 
Q 23 48.390625 18.546875 47.265625 
Q 14.109375 46.140625 10.015625 43.890625 
L 10.015625 52.203125 
Q 14.9375 54.109375 19.578125 55.046875 
Q 24.21875 56 28.609375 56 
Q 40.484375 56 46.34375 49.84375 
Q 52.203125 43.703125 52.203125 31.203125 
z
" id="DejaVuSans-97"/>
      <path d="M 9.421875 54.6875 
L 18.40625 54.6875 
L 18.40625 0 
L 9.421875 0 
z
M 9.421875 75.984375 
L 18.40625 75.984375 
L 18.40625 64.59375 
L 9.421875 64.59375 
z
" id="DejaVuSans-105"/>
      <path d="M 54.890625 33.015625 
L 54.890625 0 
L 45.90625 0 
L 45.90625 32.71875 
Q 45.90625 40.484375 42.875 44.328125 
Q 39.84375 48.1875 33.796875 48.1875 
Q 26.515625 48.1875 22.3125 43.546875 
Q 18.109375 38.921875 18.109375 30.90625 
L 18.109375 0 
L 9.078125 0 
L 9.078125 54.6875 
L 18.109375 54.6875 
L 18.109375 46.1875 
Q 21.34375 51.125 25.703125 53.5625 
Q 30.078125 56 35.796875 56 
Q 45.21875 56 50.046875 50.171875 
Q 54.890625 44.34375 54.890625 33.015625 
z
" id="DejaVuSans-110"/>
     </defs>
     <g transform="translate(598.846875 59.798437)scale(0.1 -0.1)">
      <use xlink:href="#DejaVuSans-116"/>
      <use x="39.208984" xlink:href="#DejaVuSans-114"/>
      <use x="80.322266" xlink:href="#DejaVuSans-97"/>
      <use x="141.601562" xlink:href="#DejaVuSans-105"/>
      <use x="169.384766" xlink:href="#DejaVuSans-110"/>
     </g>
    </g>
    <g id="line2d_41">
     <path d="M 570.846875 70.976562 
L 590.846875 70.976562 
" style="fill:none;stroke:#ff7f0e;stroke-linecap:square;stroke-width:0.5;"/>
    </g>
    <g id="line2d_42"/>
    <g id="text_23">
     <!-- validate -->
     <defs>
      <path d="M 2.984375 54.6875 
L 12.5 54.6875 
L 29.59375 8.796875 
L 46.6875 54.6875 
L 56.203125 54.6875 
L 35.6875 0 
L 23.484375 0 
z
" id="DejaVuSans-118"/>
      <path d="M 45.40625 46.390625 
L 45.40625 75.984375 
L 54.390625 75.984375 
L 54.390625 0 
L 45.40625 0 
L 45.40625 8.203125 
Q 42.578125 3.328125 38.25 0.953125 
Q 33.9375 -1.421875 27.875 -1.421875 
Q 17.96875 -1.421875 11.734375 6.484375 
Q 5.515625 14.40625 5.515625 27.296875 
Q 5.515625 40.1875 11.734375 48.09375 
Q 17.96875 56 27.875 56 
Q 33.9375 56 38.25 53.625 
Q 42.578125 51.265625 45.40625 46.390625 
z
M 14.796875 27.296875 
Q 14.796875 17.390625 18.875 11.75 
Q 22.953125 6.109375 30.078125 6.109375 
Q 37.203125 6.109375 41.296875 11.75 
Q 45.40625 17.390625 45.40625 27.296875 
Q 45.40625 37.203125 41.296875 42.84375 
Q 37.203125 48.484375 30.078125 48.484375 
Q 22.953125 48.484375 18.875 42.84375 
Q 14.796875 37.203125 14.796875 27.296875 
z
" id="DejaVuSans-100"/>
     </defs>
     <g transform="translate(598.846875 74.476562)scale(0.1 -0.1)">
      <use xlink:href="#DejaVuSans-118"/>
      <use x="59.179688" xlink:href="#DejaVuSans-97"/>
      <use x="120.458984" xlink:href="#DejaVuSans-108"/>
      <use x="148.242188" xlink:href="#DejaVuSans-105"/>
      <use x="176.025391" xlink:href="#DejaVuSans-100"/>
      <use x="239.501953" xlink:href="#DejaVuSans-97"/>
      <use x="300.78125" xlink:href="#DejaVuSans-116"/>
      <use x="339.990234" xlink:href="#DejaVuSans-101"/>
     </g>
    </g>
   </g>
  </g>
 </g>
 <defs>
  <clipPath id="pa74e2a4ef6">
   <rect height="271.8" width="558" x="90" y="43.2"/>
  </clipPath>
 </defs>
</svg>
