<?xml version="1.0" encoding="utf-8" standalone="no"?>
<!DOCTYPE svg PUBLIC "-//W3C//DTD SVG 1.1//EN"
  "http://www.w3.org/Graphics/SVG/1.1/DTD/svg11.dtd">
<!-- Created with matplotlib (https://matplotlib.org/) -->
<svg height="360pt" version="1.1" viewBox="0 0 720 360" width="720pt" xmlns="http://www.w3.org/2000/svg" xmlns:xlink="http://www.w3.org/1999/xlink">
 <defs>
  <style type="text/css">
*{stroke-linecap:butt;stroke-linejoin:round;}
  </style>
 </defs>
 <g id="figure_1">
  <g id="patch_1">
   <path d="M 0 360 
L 720 360 
L 720 0 
L 0 0 
z
" style="fill:#ffffff;"/>
  </g>
  <g id="axes_1">
   <g id="patch_2">
    <path d="M 90 315 
L 648 315 
L 648 43.2 
L 90 43.2 
z
" style="fill:#ffffff;"/>
   </g>
   <g id="matplotlib.axis_1">
    <g id="xtick_1">
     <g id="line2d_1">
      <path clip-path="url(#pedb7530b66)" d="M 115.363636 315 
L 115.363636 43.2 
" style="fill:none;stroke:#b0b0b0;stroke-linecap:square;stroke-width:0.8;"/>
     </g>
     <g id="line2d_2">
      <defs>
       <path d="M 0 0 
L 0 3.5 
" id="m4c0ce4f942" style="stroke:#000000;stroke-width:0.8;"/>
      </defs>
      <g>
       <use style="stroke:#000000;stroke-width:0.8;" x="115.363636" xlink:href="#m4c0ce4f942" y="315"/>
      </g>
     </g>
     <g id="text_1">
      <!-- 0 -->
      <defs>
       <path d="M 31.78125 66.40625 
Q 24.171875 66.40625 20.328125 58.90625 
Q 16.5 51.421875 16.5 36.375 
Q 16.5 21.390625 20.328125 13.890625 
Q 24.171875 6.390625 31.78125 6.390625 
Q 39.453125 6.390625 43.28125 13.890625 
Q 47.125 21.390625 47.125 36.375 
Q 47.125 51.421875 43.28125 58.90625 
Q 39.453125 66.40625 31.78125 66.40625 
z
M 31.78125 74.21875 
Q 44.046875 74.21875 50.515625 64.515625 
Q 56.984375 54.828125 56.984375 36.375 
Q 56.984375 17.96875 50.515625 8.265625 
Q 44.046875 -1.421875 31.78125 -1.421875 
Q 19.53125 -1.421875 13.0625 8.265625 
Q 6.59375 17.96875 6.59375 36.375 
Q 6.59375 54.828125 13.0625 64.515625 
Q 19.53125 74.21875 31.78125 74.21875 
z
" id="DejaVuSans-48"/>
      </defs>
      <g transform="translate(112.182386 329.598437)scale(0.1 -0.1)">
       <use xlink:href="#DejaVuSans-48"/>
      </g>
     </g>
    </g>
    <g id="xtick_2">
     <g id="line2d_3">
      <path clip-path="url(#pedb7530b66)" d="M 178.804448 315 
L 178.804448 43.2 
" style="fill:none;stroke:#b0b0b0;stroke-linecap:square;stroke-width:0.8;"/>
     </g>
     <g id="line2d_4">
      <g>
       <use style="stroke:#000000;stroke-width:0.8;" x="178.804448" xlink:href="#m4c0ce4f942" y="315"/>
      </g>
     </g>
     <g id="text_2">
      <!-- 250 -->
      <defs>
       <path d="M 19.1875 8.296875 
L 53.609375 8.296875 
L 53.609375 0 
L 7.328125 0 
L 7.328125 8.296875 
Q 12.9375 14.109375 22.625 23.890625 
Q 32.328125 33.6875 34.8125 36.53125 
Q 39.546875 41.84375 41.421875 45.53125 
Q 43.3125 49.21875 43.3125 52.78125 
Q 43.3125 58.59375 39.234375 62.25 
Q 35.15625 65.921875 28.609375 65.921875 
Q 23.96875 65.921875 18.8125 64.3125 
Q 13.671875 62.703125 7.8125 59.421875 
L 7.8125 69.390625 
Q 13.765625 71.78125 18.9375 73 
Q 24.125 74.21875 28.421875 74.21875 
Q 39.75 74.21875 46.484375 68.546875 
Q 53.21875 62.890625 53.21875 53.421875 
Q 53.21875 48.921875 51.53125 44.890625 
Q 49.859375 40.875 45.40625 35.40625 
Q 44.1875 33.984375 37.640625 27.21875 
Q 31.109375 20.453125 19.1875 8.296875 
z
" id="DejaVuSans-50"/>
       <path d="M 10.796875 72.90625 
L 49.515625 72.90625 
L 49.515625 64.59375 
L 19.828125 64.59375 
L 19.828125 46.734375 
Q 21.96875 47.46875 24.109375 47.828125 
Q 26.265625 48.1875 28.421875 48.1875 
Q 40.625 48.1875 47.75 41.5 
Q 54.890625 34.8125 54.890625 23.390625 
Q 54.890625 11.625 47.5625 5.09375 
Q 40.234375 -1.421875 26.90625 -1.421875 
Q 22.3125 -1.421875 17.546875 -0.640625 
Q 12.796875 0.140625 7.71875 1.703125 
L 7.71875 11.625 
Q 12.109375 9.234375 16.796875 8.0625 
Q 21.484375 6.890625 26.703125 6.890625 
Q 35.15625 6.890625 40.078125 11.328125 
Q 45.015625 15.765625 45.015625 23.390625 
Q 45.015625 31 40.078125 35.4375 
Q 35.15625 39.890625 26.703125 39.890625 
Q 22.75 39.890625 18.8125 39.015625 
Q 14.890625 38.140625 10.796875 36.28125 
z
" id="DejaVuSans-53"/>
      </defs>
      <g transform="translate(169.260698 329.598437)scale(0.1 -0.1)">
       <use xlink:href="#DejaVuSans-50"/>
       <use x="63.623047" xlink:href="#DejaVuSans-53"/>
       <use x="127.246094" xlink:href="#DejaVuSans-48"/>
      </g>
     </g>
    </g>
    <g id="xtick_3">
     <g id="line2d_5">
      <path clip-path="url(#pedb7530b66)" d="M 242.245259 315 
L 242.245259 43.2 
" style="fill:none;stroke:#b0b0b0;stroke-linecap:square;stroke-width:0.8;"/>
     </g>
     <g id="line2d_6">
      <g>
       <use style="stroke:#000000;stroke-width:0.8;" x="242.245259" xlink:href="#m4c0ce4f942" y="315"/>
      </g>
     </g>
     <g id="text_3">
      <!-- 500 -->
      <g transform="translate(232.701509 329.598437)scale(0.1 -0.1)">
       <use xlink:href="#DejaVuSans-53"/>
       <use x="63.623047" xlink:href="#DejaVuSans-48"/>
       <use x="127.246094" xlink:href="#DejaVuSans-48"/>
      </g>
     </g>
    </g>
    <g id="xtick_4">
     <g id="line2d_7">
      <path clip-path="url(#pedb7530b66)" d="M 305.68607 315 
L 305.68607 43.2 
" style="fill:none;stroke:#b0b0b0;stroke-linecap:square;stroke-width:0.8;"/>
     </g>
     <g id="line2d_8">
      <g>
       <use style="stroke:#000000;stroke-width:0.8;" x="305.68607" xlink:href="#m4c0ce4f942" y="315"/>
      </g>
     </g>
     <g id="text_4">
      <!-- 750 -->
      <defs>
       <path d="M 8.203125 72.90625 
L 55.078125 72.90625 
L 55.078125 68.703125 
L 28.609375 0 
L 18.3125 0 
L 43.21875 64.59375 
L 8.203125 64.59375 
z
" id="DejaVuSans-55"/>
      </defs>
      <g transform="translate(296.14232 329.598437)scale(0.1 -0.1)">
       <use xlink:href="#DejaVuSans-55"/>
       <use x="63.623047" xlink:href="#DejaVuSans-53"/>
       <use x="127.246094" xlink:href="#DejaVuSans-48"/>
      </g>
     </g>
    </g>
    <g id="xtick_5">
     <g id="line2d_9">
      <path clip-path="url(#pedb7530b66)" d="M 369.126882 315 
L 369.126882 43.2 
" style="fill:none;stroke:#b0b0b0;stroke-linecap:square;stroke-width:0.8;"/>
     </g>
     <g id="line2d_10">
      <g>
       <use style="stroke:#000000;stroke-width:0.8;" x="369.126882" xlink:href="#m4c0ce4f942" y="315"/>
      </g>
     </g>
     <g id="text_5">
      <!-- 1000 -->
      <defs>
       <path d="M 12.40625 8.296875 
L 28.515625 8.296875 
L 28.515625 63.921875 
L 10.984375 60.40625 
L 10.984375 69.390625 
L 28.421875 72.90625 
L 38.28125 72.90625 
L 38.28125 8.296875 
L 54.390625 8.296875 
L 54.390625 0 
L 12.40625 0 
z
" id="DejaVuSans-49"/>
      </defs>
      <g transform="translate(356.401882 329.598437)scale(0.1 -0.1)">
       <use xlink:href="#DejaVuSans-49"/>
       <use x="63.623047" xlink:href="#DejaVuSans-48"/>
       <use x="127.246094" xlink:href="#DejaVuSans-48"/>
       <use x="190.869141" xlink:href="#DejaVuSans-48"/>
      </g>
     </g>
    </g>
    <g id="xtick_6">
     <g id="line2d_11">
      <path clip-path="url(#pedb7530b66)" d="M 432.567693 315 
L 432.567693 43.2 
" style="fill:none;stroke:#b0b0b0;stroke-linecap:square;stroke-width:0.8;"/>
     </g>
     <g id="line2d_12">
      <g>
       <use style="stroke:#000000;stroke-width:0.8;" x="432.567693" xlink:href="#m4c0ce4f942" y="315"/>
      </g>
     </g>
     <g id="text_6">
      <!-- 1250 -->
      <g transform="translate(419.842693 329.598437)scale(0.1 -0.1)">
       <use xlink:href="#DejaVuSans-49"/>
       <use x="63.623047" xlink:href="#DejaVuSans-50"/>
       <use x="127.246094" xlink:href="#DejaVuSans-53"/>
       <use x="190.869141" xlink:href="#DejaVuSans-48"/>
      </g>
     </g>
    </g>
    <g id="xtick_7">
     <g id="line2d_13">
      <path clip-path="url(#pedb7530b66)" d="M 496.008504 315 
L 496.008504 43.2 
" style="fill:none;stroke:#b0b0b0;stroke-linecap:square;stroke-width:0.8;"/>
     </g>
     <g id="line2d_14">
      <g>
       <use style="stroke:#000000;stroke-width:0.8;" x="496.008504" xlink:href="#m4c0ce4f942" y="315"/>
      </g>
     </g>
     <g id="text_7">
      <!-- 1500 -->
      <g transform="translate(483.283504 329.598437)scale(0.1 -0.1)">
       <use xlink:href="#DejaVuSans-49"/>
       <use x="63.623047" xlink:href="#DejaVuSans-53"/>
       <use x="127.246094" xlink:href="#DejaVuSans-48"/>
       <use x="190.869141" xlink:href="#DejaVuSans-48"/>
      </g>
     </g>
    </g>
    <g id="xtick_8">
     <g id="line2d_15">
      <path clip-path="url(#pedb7530b66)" d="M 559.449316 315 
L 559.449316 43.2 
" style="fill:none;stroke:#b0b0b0;stroke-linecap:square;stroke-width:0.8;"/>
     </g>
     <g id="line2d_16">
      <g>
       <use style="stroke:#000000;stroke-width:0.8;" x="559.449316" xlink:href="#m4c0ce4f942" y="315"/>
      </g>
     </g>
     <g id="text_8">
      <!-- 1750 -->
      <g transform="translate(546.724316 329.598437)scale(0.1 -0.1)">
       <use xlink:href="#DejaVuSans-49"/>
       <use x="63.623047" xlink:href="#DejaVuSans-55"/>
       <use x="127.246094" xlink:href="#DejaVuSans-53"/>
       <use x="190.869141" xlink:href="#DejaVuSans-48"/>
      </g>
     </g>
    </g>
    <g id="xtick_9">
     <g id="line2d_17">
      <path clip-path="url(#pedb7530b66)" d="M 622.890127 315 
L 622.890127 43.2 
" style="fill:none;stroke:#b0b0b0;stroke-linecap:square;stroke-width:0.8;"/>
     </g>
     <g id="line2d_18">
      <g>
       <use style="stroke:#000000;stroke-width:0.8;" x="622.890127" xlink:href="#m4c0ce4f942" y="315"/>
      </g>
     </g>
     <g id="text_9">
      <!-- 2000 -->
      <g transform="translate(610.165127 329.598437)scale(0.1 -0.1)">
       <use xlink:href="#DejaVuSans-50"/>
       <use x="63.623047" xlink:href="#DejaVuSans-48"/>
       <use x="127.246094" xlink:href="#DejaVuSans-48"/>
       <use x="190.869141" xlink:href="#DejaVuSans-48"/>
      </g>
     </g>
    </g>
    <g id="text_10">
     <!-- epoch -->
     <defs>
      <path d="M 56.203125 29.59375 
L 56.203125 25.203125 
L 14.890625 25.203125 
Q 15.484375 15.921875 20.484375 11.0625 
Q 25.484375 6.203125 34.421875 6.203125 
Q 39.59375 6.203125 44.453125 7.46875 
Q 49.3125 8.734375 54.109375 11.28125 
L 54.109375 2.78125 
Q 49.265625 0.734375 44.1875 -0.34375 
Q 39.109375 -1.421875 33.890625 -1.421875 
Q 20.796875 -1.421875 13.15625 6.1875 
Q 5.515625 13.8125 5.515625 26.8125 
Q 5.515625 40.234375 12.765625 48.109375 
Q 20.015625 56 32.328125 56 
Q 43.359375 56 49.78125 48.890625 
Q 56.203125 41.796875 56.203125 29.59375 
z
M 47.21875 32.234375 
Q 47.125 39.59375 43.09375 43.984375 
Q 39.0625 48.390625 32.421875 48.390625 
Q 24.90625 48.390625 20.390625 44.140625 
Q 15.875 39.890625 15.1875 32.171875 
z
" id="DejaVuSans-101"/>
      <path d="M 18.109375 8.203125 
L 18.109375 -20.796875 
L 9.078125 -20.796875 
L 9.078125 54.6875 
L 18.109375 54.6875 
L 18.109375 46.390625 
Q 20.953125 51.265625 25.265625 53.625 
Q 29.59375 56 35.59375 56 
Q 45.5625 56 51.78125 48.09375 
Q 58.015625 40.1875 58.015625 27.296875 
Q 58.015625 14.40625 51.78125 6.484375 
Q 45.5625 -1.421875 35.59375 -1.421875 
Q 29.59375 -1.421875 25.265625 0.953125 
Q 20.953125 3.328125 18.109375 8.203125 
z
M 48.6875 27.296875 
Q 48.6875 37.203125 44.609375 42.84375 
Q 40.53125 48.484375 33.40625 48.484375 
Q 26.265625 48.484375 22.1875 42.84375 
Q 18.109375 37.203125 18.109375 27.296875 
Q 18.109375 17.390625 22.1875 11.75 
Q 26.265625 6.109375 33.40625 6.109375 
Q 40.53125 6.109375 44.609375 11.75 
Q 48.6875 17.390625 48.6875 27.296875 
z
" id="DejaVuSans-112"/>
      <path d="M 30.609375 48.390625 
Q 23.390625 48.390625 19.1875 42.75 
Q 14.984375 37.109375 14.984375 27.296875 
Q 14.984375 17.484375 19.15625 11.84375 
Q 23.34375 6.203125 30.609375 6.203125 
Q 37.796875 6.203125 41.984375 11.859375 
Q 46.1875 17.53125 46.1875 27.296875 
Q 46.1875 37.015625 41.984375 42.703125 
Q 37.796875 48.390625 30.609375 48.390625 
z
M 30.609375 56 
Q 42.328125 56 49.015625 48.375 
Q 55.71875 40.765625 55.71875 27.296875 
Q 55.71875 13.875 49.015625 6.21875 
Q 42.328125 -1.421875 30.609375 -1.421875 
Q 18.84375 -1.421875 12.171875 6.21875 
Q 5.515625 13.875 5.515625 27.296875 
Q 5.515625 40.765625 12.171875 48.375 
Q 18.84375 56 30.609375 56 
z
" id="DejaVuSans-111"/>
      <path d="M 48.78125 52.59375 
L 48.78125 44.1875 
Q 44.96875 46.296875 41.140625 47.34375 
Q 37.3125 48.390625 33.40625 48.390625 
Q 24.65625 48.390625 19.8125 42.84375 
Q 14.984375 37.3125 14.984375 27.296875 
Q 14.984375 17.28125 19.8125 11.734375 
Q 24.65625 6.203125 33.40625 6.203125 
Q 37.3125 6.203125 41.140625 7.25 
Q 44.96875 8.296875 48.78125 10.40625 
L 48.78125 2.09375 
Q 45.015625 0.34375 40.984375 -0.53125 
Q 36.96875 -1.421875 32.421875 -1.421875 
Q 20.0625 -1.421875 12.78125 6.34375 
Q 5.515625 14.109375 5.515625 27.296875 
Q 5.515625 40.671875 12.859375 48.328125 
Q 20.21875 56 33.015625 56 
Q 37.15625 56 41.109375 55.140625 
Q 45.0625 54.296875 48.78125 52.59375 
z
" id="DejaVuSans-99"/>
      <path d="M 54.890625 33.015625 
L 54.890625 0 
L 45.90625 0 
L 45.90625 32.71875 
Q 45.90625 40.484375 42.875 44.328125 
Q 39.84375 48.1875 33.796875 48.1875 
Q 26.515625 48.1875 22.3125 43.546875 
Q 18.109375 38.921875 18.109375 30.90625 
L 18.109375 0 
L 9.078125 0 
L 9.078125 75.984375 
L 18.109375 75.984375 
L 18.109375 46.1875 
Q 21.34375 51.125 25.703125 53.5625 
Q 30.078125 56 35.796875 56 
Q 45.21875 56 50.046875 50.171875 
Q 54.890625 44.34375 54.890625 33.015625 
z
" id="DejaVuSans-104"/>
     </defs>
     <g transform="translate(353.771875 343.276563)scale(0.1 -0.1)">
      <use xlink:href="#DejaVuSans-101"/>
      <use x="61.523438" xlink:href="#DejaVuSans-112"/>
      <use x="125" xlink:href="#DejaVuSans-111"/>
      <use x="186.181641" xlink:href="#DejaVuSans-99"/>
      <use x="241.162109" xlink:href="#DejaVuSans-104"/>
     </g>
    </g>
   </g>
   <g id="matplotlib.axis_2">
    <g id="ytick_1">
     <g id="line2d_19">
      <path clip-path="url(#pedb7530b66)" d="M 90 283.641442 
L 648 283.641442 
" style="fill:none;stroke:#b0b0b0;stroke-linecap:square;stroke-width:0.8;"/>
     </g>
     <g id="line2d_20">
      <defs>
       <path d="M 0 0 
L -3.5 0 
" id="md20d333341" style="stroke:#000000;stroke-width:0.8;"/>
      </defs>
      <g>
       <use style="stroke:#000000;stroke-width:0.8;" x="90" xlink:href="#md20d333341" y="283.641442"/>
      </g>
     </g>
     <g id="text_11">
      <!-- 5 -->
      <g transform="translate(76.6375 287.440661)scale(0.1 -0.1)">
       <use xlink:href="#DejaVuSans-53"/>
      </g>
     </g>
    </g>
    <g id="ytick_2">
     <g id="line2d_21">
      <path clip-path="url(#pedb7530b66)" d="M 90 251.346378 
L 648 251.346378 
" style="fill:none;stroke:#b0b0b0;stroke-linecap:square;stroke-width:0.8;"/>
     </g>
     <g id="line2d_22">
      <g>
       <use style="stroke:#000000;stroke-width:0.8;" x="90" xlink:href="#md20d333341" y="251.346378"/>
      </g>
     </g>
     <g id="text_12">
      <!-- 10 -->
      <g transform="translate(70.275 255.145597)scale(0.1 -0.1)">
       <use xlink:href="#DejaVuSans-49"/>
       <use x="63.623047" xlink:href="#DejaVuSans-48"/>
      </g>
     </g>
    </g>
    <g id="ytick_3">
     <g id="line2d_23">
      <path clip-path="url(#pedb7530b66)" d="M 90 219.051314 
L 648 219.051314 
" style="fill:none;stroke:#b0b0b0;stroke-linecap:square;stroke-width:0.8;"/>
     </g>
     <g id="line2d_24">
      <g>
       <use style="stroke:#000000;stroke-width:0.8;" x="90" xlink:href="#md20d333341" y="219.051314"/>
      </g>
     </g>
     <g id="text_13">
      <!-- 15 -->
      <g transform="translate(70.275 222.850533)scale(0.1 -0.1)">
       <use xlink:href="#DejaVuSans-49"/>
       <use x="63.623047" xlink:href="#DejaVuSans-53"/>
      </g>
     </g>
    </g>
    <g id="ytick_4">
     <g id="line2d_25">
      <path clip-path="url(#pedb7530b66)" d="M 90 186.75625 
L 648 186.75625 
" style="fill:none;stroke:#b0b0b0;stroke-linecap:square;stroke-width:0.8;"/>
     </g>
     <g id="line2d_26">
      <g>
       <use style="stroke:#000000;stroke-width:0.8;" x="90" xlink:href="#md20d333341" y="186.75625"/>
      </g>
     </g>
     <g id="text_14">
      <!-- 20 -->
      <g transform="translate(70.275 190.555469)scale(0.1 -0.1)">
       <use xlink:href="#DejaVuSans-50"/>
       <use x="63.623047" xlink:href="#DejaVuSans-48"/>
      </g>
     </g>
    </g>
    <g id="ytick_5">
     <g id="line2d_27">
      <path clip-path="url(#pedb7530b66)" d="M 90 154.461186 
L 648 154.461186 
" style="fill:none;stroke:#b0b0b0;stroke-linecap:square;stroke-width:0.8;"/>
     </g>
     <g id="line2d_28">
      <g>
       <use style="stroke:#000000;stroke-width:0.8;" x="90" xlink:href="#md20d333341" y="154.461186"/>
      </g>
     </g>
     <g id="text_15">
      <!-- 25 -->
      <g transform="translate(70.275 158.260404)scale(0.1 -0.1)">
       <use xlink:href="#DejaVuSans-50"/>
       <use x="63.623047" xlink:href="#DejaVuSans-53"/>
      </g>
     </g>
    </g>
    <g id="ytick_6">
     <g id="line2d_29">
      <path clip-path="url(#pedb7530b66)" d="M 90 122.166121 
L 648 122.166121 
" style="fill:none;stroke:#b0b0b0;stroke-linecap:square;stroke-width:0.8;"/>
     </g>
     <g id="line2d_30">
      <g>
       <use style="stroke:#000000;stroke-width:0.8;" x="90" xlink:href="#md20d333341" y="122.166121"/>
      </g>
     </g>
     <g id="text_16">
      <!-- 30 -->
      <defs>
       <path d="M 40.578125 39.3125 
Q 47.65625 37.796875 51.625 33 
Q 55.609375 28.21875 55.609375 21.1875 
Q 55.609375 10.40625 48.1875 4.484375 
Q 40.765625 -1.421875 27.09375 -1.421875 
Q 22.515625 -1.421875 17.65625 -0.515625 
Q 12.796875 0.390625 7.625 2.203125 
L 7.625 11.71875 
Q 11.71875 9.328125 16.59375 8.109375 
Q 21.484375 6.890625 26.8125 6.890625 
Q 36.078125 6.890625 40.9375 10.546875 
Q 45.796875 14.203125 45.796875 21.1875 
Q 45.796875 27.640625 41.28125 31.265625 
Q 36.765625 34.90625 28.71875 34.90625 
L 20.21875 34.90625 
L 20.21875 43.015625 
L 29.109375 43.015625 
Q 36.375 43.015625 40.234375 45.921875 
Q 44.09375 48.828125 44.09375 54.296875 
Q 44.09375 59.90625 40.109375 62.90625 
Q 36.140625 65.921875 28.71875 65.921875 
Q 24.65625 65.921875 20.015625 65.03125 
Q 15.375 64.15625 9.8125 62.3125 
L 9.8125 71.09375 
Q 15.4375 72.65625 20.34375 73.4375 
Q 25.25 74.21875 29.59375 74.21875 
Q 40.828125 74.21875 47.359375 69.109375 
Q 53.90625 64.015625 53.90625 55.328125 
Q 53.90625 49.265625 50.4375 45.09375 
Q 46.96875 40.921875 40.578125 39.3125 
z
" id="DejaVuSans-51"/>
      </defs>
      <g transform="translate(70.275 125.96534)scale(0.1 -0.1)">
       <use xlink:href="#DejaVuSans-51"/>
       <use x="63.623047" xlink:href="#DejaVuSans-48"/>
      </g>
     </g>
    </g>
    <g id="ytick_7">
     <g id="line2d_31">
      <path clip-path="url(#pedb7530b66)" d="M 90 89.871057 
L 648 89.871057 
" style="fill:none;stroke:#b0b0b0;stroke-linecap:square;stroke-width:0.8;"/>
     </g>
     <g id="line2d_32">
      <g>
       <use style="stroke:#000000;stroke-width:0.8;" x="90" xlink:href="#md20d333341" y="89.871057"/>
      </g>
     </g>
     <g id="text_17">
      <!-- 35 -->
      <g transform="translate(70.275 93.670276)scale(0.1 -0.1)">
       <use xlink:href="#DejaVuSans-51"/>
       <use x="63.623047" xlink:href="#DejaVuSans-53"/>
      </g>
     </g>
    </g>
    <g id="ytick_8">
     <g id="line2d_33">
      <path clip-path="url(#pedb7530b66)" d="M 90 57.575993 
L 648 57.575993 
" style="fill:none;stroke:#b0b0b0;stroke-linecap:square;stroke-width:0.8;"/>
     </g>
     <g id="line2d_34">
      <g>
       <use style="stroke:#000000;stroke-width:0.8;" x="90" xlink:href="#md20d333341" y="57.575993"/>
      </g>
     </g>
     <g id="text_18">
      <!-- 40 -->
      <defs>
       <path d="M 37.796875 64.3125 
L 12.890625 25.390625 
L 37.796875 25.390625 
z
M 35.203125 72.90625 
L 47.609375 72.90625 
L 47.609375 25.390625 
L 58.015625 25.390625 
L 58.015625 17.1875 
L 47.609375 17.1875 
L 47.609375 0 
L 37.796875 0 
L 37.796875 17.1875 
L 4.890625 17.1875 
L 4.890625 26.703125 
z
" id="DejaVuSans-52"/>
      </defs>
      <g transform="translate(70.275 61.375212)scale(0.1 -0.1)">
       <use xlink:href="#DejaVuSans-52"/>
       <use x="63.623047" xlink:href="#DejaVuSans-48"/>
      </g>
     </g>
    </g>
    <g id="text_19">
     <!-- loss -->
     <defs>
      <path d="M 9.421875 75.984375 
L 18.40625 75.984375 
L 18.40625 0 
L 9.421875 0 
z
" id="DejaVuSans-108"/>
      <path d="M 44.28125 53.078125 
L 44.28125 44.578125 
Q 40.484375 46.53125 36.375 47.5 
Q 32.28125 48.484375 27.875 48.484375 
Q 21.1875 48.484375 17.84375 46.4375 
Q 14.5 44.390625 14.5 40.28125 
Q 14.5 37.15625 16.890625 35.375 
Q 19.28125 33.59375 26.515625 31.984375 
L 29.59375 31.296875 
Q 39.15625 29.25 43.1875 25.515625 
Q 47.21875 21.78125 47.21875 15.09375 
Q 47.21875 7.46875 41.1875 3.015625 
Q 35.15625 -1.421875 24.609375 -1.421875 
Q 20.21875 -1.421875 15.453125 -0.5625 
Q 10.6875 0.296875 5.421875 2 
L 5.421875 11.28125 
Q 10.40625 8.6875 15.234375 7.390625 
Q 20.0625 6.109375 24.8125 6.109375 
Q 31.15625 6.109375 34.5625 8.28125 
Q 37.984375 10.453125 37.984375 14.40625 
Q 37.984375 18.0625 35.515625 20.015625 
Q 33.0625 21.96875 24.703125 23.78125 
L 21.578125 24.515625 
Q 13.234375 26.265625 9.515625 29.90625 
Q 5.8125 33.546875 5.8125 39.890625 
Q 5.8125 47.609375 11.28125 51.796875 
Q 16.75 56 26.8125 56 
Q 31.78125 56 36.171875 55.265625 
Q 40.578125 54.546875 44.28125 53.078125 
z
" id="DejaVuSans-115"/>
     </defs>
     <g transform="translate(64.195312 188.757812)rotate(-90)scale(0.1 -0.1)">
      <use xlink:href="#DejaVuSans-108"/>
      <use x="27.783203" xlink:href="#DejaVuSans-111"/>
      <use x="88.964844" xlink:href="#DejaVuSans-115"/>
      <use x="141.064453" xlink:href="#DejaVuSans-115"/>
     </g>
    </g>
   </g>
   <g id="line2d_35">
    <path clip-path="url(#pedb7530b66)" d="M 115.363636 55.554545 
L 116.632453 106.997701 
L 117.647506 136.623905 
L 118.408795 151.485025 
L 119.423848 165.598088 
L 120.946428 182.646416 
L 122.469007 197.37289 
L 123.991587 210.065763 
L 125.260403 219.15174 
L 126.529219 226.592498 
L 127.544272 231.574839 
L 128.559325 235.776056 
L 129.574378 239.392173 
L 131.096958 243.922341 
L 133.127064 248.953406 
L 133.888353 250.554783 
L 135.410933 253.52106 
L 137.694802 257.494414 
L 139.724908 260.541988 
L 143.02383 264.65447 
L 143.78512 265.424309 
L 145.053936 266.744433 
L 145.815226 267.442163 
L 147.591569 269.091017 
L 147.845332 269.239818 
L 148.352858 269.675228 
L 149.621674 270.688178 
L 149.875438 270.780463 
L 150.636727 271.383748 
L 154.189413 273.727362 
L 155.711992 274.623411 
L 155.965756 274.683379 
L 156.473282 275.069187 
L 157.488335 275.52293 
L 161.80231 277.516195 
L 162.5636 277.763403 
L 162.817363 277.974573 
L 163.578653 278.163643 
L 164.086179 278.415594 
L 166.116285 279.137467 
L 173.221656 281.423773 
L 173.729183 281.544801 
L 174.236709 281.72742 
L 174.744236 281.826442 
L 175.759289 282.135062 
L 176.266815 282.267764 
L 178.296921 282.739869 
L 178.804448 282.923152 
L 179.311974 283.027331 
L 180.073264 283.15825 
L 180.58079 283.384497 
L 180.834554 283.387112 
L 181.088317 283.507852 
L 181.595843 283.537805 
L 183.372186 283.94958 
L 183.625949 283.940483 
L 183.879713 284.101356 
L 184.387239 284.13373 
L 184.641002 284.279391 
L 185.402292 284.361042 
L 186.671108 284.644968 
L 187.432398 284.778916 
L 189.716267 285.227114 
L 189.97003 285.188213 
L 190.477557 285.35298 
L 190.985083 285.429551 
L 192.000136 285.692452 
L 192.761426 285.820882 
L 194.030242 285.949655 
L 194.791532 286.147852 
L 195.045295 286.160242 
L 195.299059 286.294524 
L 196.314112 286.408755 
L 200.12056 287.049381 
L 200.628087 287.061511 
L 203.419482 287.536233 
L 204.434535 287.684665 
L 205.195825 287.810174 
L 205.957115 287.868808 
L 222.451726 290.038532 
L 222.705489 289.985501 
L 222.959252 290.084889 
L 223.466779 290.108173 
L 224.735595 290.283583 
L 227.273228 290.576693 
L 228.034517 290.64195 
L 228.795807 290.799261 
L 229.303333 290.741144 
L 230.064623 290.897511 
L 231.079676 290.934195 
L 231.840966 291.032688 
L 233.363545 291.183105 
L 236.916231 291.505909 
L 237.423757 291.62609 
L 237.931284 291.609613 
L 238.946337 291.687384 
L 239.453863 291.811883 
L 239.707627 291.733916 
L 240.215153 291.849409 
L 240.468916 291.819659 
L 240.72268 291.936314 
L 241.230206 291.869238 
L 241.991496 291.998476 
L 243.767838 292.080147 
L 244.529128 292.232413 
L 245.036655 292.237148 
L 247.066761 292.36877 
L 247.320524 292.4782 
L 247.82805 292.411492 
L 248.335577 292.495206 
L 248.58934 292.430372 
L 249.35063 292.629326 
L 249.858156 292.57499 
L 250.873209 292.703198 
L 251.380736 292.716213 
L 251.634499 292.791738 
L 252.142026 292.730039 
L 252.649552 292.840166 
L 253.157079 292.858276 
L 254.425895 292.871467 
L 254.679658 292.979065 
L 255.440948 292.985718 
L 255.694711 293.089432 
L 256.202237 293.055136 
L 256.456001 293.134153 
L 256.963527 293.091699 
L 257.471054 293.103208 
L 257.97858 293.233477 
L 258.232343 293.173938 
L 258.73987 293.275566 
L 258.993633 293.207339 
L 259.50116 293.282277 
L 260.516213 293.378358 
L 261.023739 293.346083 
L 261.531266 293.479049 
L 262.038792 293.404689 
L 262.546319 293.567243 
L 262.800082 293.51355 
L 263.053845 293.607171 
L 263.307608 293.501477 
L 264.322661 293.651041 
L 265.845241 293.688783 
L 266.606531 293.78144 
L 267.114057 293.730373 
L 267.621584 293.841669 
L 269.397926 293.95414 
L 270.412979 293.994818 
L 271.428032 294.040799 
L 271.935559 294.056465 
L 275.234481 294.251265 
L 275.742007 294.310341 
L 276.249534 294.421172 
L 276.75706 294.302736 
L 277.010824 294.398993 
L 277.772113 294.359374 
L 278.025877 294.563196 
L 278.27964 294.460963 
L 279.04093 294.508537 
L 279.802219 294.52196 
L 280.309746 294.609724 
L 280.817272 294.623788 
L 281.578562 294.612121 
L 281.832325 294.67244 
L 282.086088 294.599171 
L 283.101141 294.757021 
L 284.116194 294.781776 
L 287.161353 295.011371 
L 287.922643 294.999696 
L 289.191459 295.127946 
L 289.698986 295.106951 
L 290.460276 295.150394 
L 291.729092 295.147234 
L 292.236618 295.231558 
L 292.997908 295.220256 
L 293.251671 295.326304 
L 293.759198 295.319654 
L 294.520488 295.357761 
L 298.834463 295.562879 
L 299.088226 295.667243 
L 299.341989 295.554846 
L 299.849516 295.676153 
L 300.610805 295.671657 
L 300.864569 295.744302 
L 301.372095 295.705724 
L 302.133385 295.712368 
L 302.894675 295.823648 
L 304.671017 295.888926 
L 305.68607 295.944083 
L 305.939834 295.834028 
L 307.716176 296.001659 
L 307.96994 295.925025 
L 308.223703 296.0601 
L 309.492519 296.076979 
L 310.000045 296.11808 
L 312.537678 296.187385 
L 312.791441 296.174141 
L 313.298968 296.298546 
L 315.329074 296.309744 
L 316.59789 296.394964 
L 316.851653 296.357882 
L 317.35918 296.429319 
L 319.135522 296.479278 
L 321.673155 296.61308 
L 323.195734 296.602407 
L 327.002183 296.769261 
L 327.255946 296.858177 
L 327.509709 296.765877 
L 327.763473 296.829068 
L 328.017236 296.768924 
L 328.270999 296.878876 
L 329.032289 296.871976 
L 329.793579 296.897996 
L 330.047342 296.797389 
L 332.331211 297.018048 
L 333.092501 297.00583 
L 333.600027 297.016379 
L 334.107554 296.990303 
L 334.868844 297.047502 
L 341.720451 297.276914 
L 341.974214 297.23492 
L 342.227978 297.349638 
L 342.735504 297.370564 
L 343.243031 297.360063 
L 343.750557 297.386248 
L 344.00432 297.430739 
L 344.258084 297.329078 
L 344.76561 297.429884 
L 345.780663 297.495323 
L 346.28819 297.451396 
L 347.049479 297.49596 
L 348.318296 297.450944 
L 349.079585 297.604986 
L 350.094638 297.569105 
L 350.348401 297.655262 
L 350.602165 297.528184 
L 351.363454 297.649389 
L 354.408613 297.716164 
L 354.662377 297.796485 
L 355.169903 297.761567 
L 356.184956 297.80586 
L 356.438719 297.747058 
L 357.200009 297.828662 
L 361.006458 297.980119 
L 361.767748 298.042597 
L 362.021511 297.94268 
L 362.7828 298.063681 
L 363.290327 297.984272 
L 363.54409 298.055239 
L 364.30538 297.968921 
L 364.812906 298.038977 
L 365.827959 298.079173 
L 366.081723 298.13173 
L 366.843012 298.055017 
L 367.350539 298.116976 
L 368.111829 298.173943 
L 368.365592 298.09882 
L 369.126882 298.191537 
L 369.380645 298.101646 
L 369.634408 298.212601 
L 370.649461 298.187142 
L 371.156988 298.252775 
L 373.440857 298.333313 
L 373.69462 298.217885 
L 373.948383 298.377151 
L 374.709673 298.281754 
L 374.963436 298.37923 
L 375.470963 298.344416 
L 376.232252 298.438129 
L 376.486016 298.481605 
L 376.739779 298.391928 
L 377.247305 298.422358 
L 387.144072 298.662508 
L 388.412888 298.729421 
L 389.174178 298.769206 
L 389.427941 298.68052 
L 390.189231 298.782573 
L 390.950521 298.805078 
L 392.980627 298.797141 
L 393.23439 298.914318 
L 393.488153 298.84197 
L 393.741916 298.928488 
L 393.99568 298.817663 
L 395.264496 298.890708 
L 400.085998 299.00404 
L 400.593524 298.972756 
L 401.101051 299.044064 
L 403.38492 299.09737 
L 405.161262 299.190476 
L 405.668789 299.201222 
L 406.937605 299.14732 
L 407.698895 299.180763 
L 408.967711 299.275824 
L 409.729001 299.211849 
L 410.490291 299.20885 
L 412.266633 299.34827 
L 412.520397 299.265025 
L 412.77416 299.372612 
L 413.789213 299.330136 
L 414.550503 299.427544 
L 415.058029 299.316269 
L 415.565556 299.361653 
L 416.326845 299.385575 
L 416.580608 299.496973 
L 416.834372 299.357582 
L 417.595661 299.391105 
L 420.387057 299.495585 
L 422.92469 299.507355 
L 423.432216 299.569913 
L 424.447269 299.573222 
L 424.954796 299.668392 
L 425.208559 299.59601 
L 426.223612 299.690689 
L 427.492428 299.562207 
L 427.746191 299.687607 
L 428.507481 299.631877 
L 428.761244 299.742092 
L 429.015008 299.725095 
L 429.268771 299.545389 
L 429.522534 299.532125 
L 429.776297 299.695773 
L 430.03006 299.642689 
L 430.537587 299.735976 
L 431.55264 299.759001 
L 431.806403 299.808421 
L 432.060166 299.651727 
L 432.567693 299.721425 
L 437.642958 299.831849 
L 439.165537 299.847927 
L 440.18059 299.882613 
L 440.688117 299.931728 
L 441.195643 299.887433 
L 442.210696 299.936847 
L 443.479512 299.935915 
L 443.733276 299.981832 
L 443.987039 299.907745 
L 444.494565 300.026083 
L 446.270908 300.001969 
L 447.285961 300.096304 
L 447.793488 300.032634 
L 453.630042 300.159302 
L 453.883806 300.065519 
L 454.137569 300.158329 
L 455.152622 300.085754 
L 456.167675 300.179594 
L 456.421438 300.104468 
L 457.182728 300.229181 
L 457.944017 300.234893 
L 458.197781 300.306346 
L 458.451544 300.193186 
L 458.95907 300.259637 
L 459.212834 300.139634 
L 459.72036 300.306165 
L 460.227887 300.272749 
L 460.735413 300.255451 
L 460.989176 300.180381 
L 461.496703 300.296048 
L 465.049388 300.261922 
L 465.303152 300.397514 
L 468.094547 300.370942 
L 468.348311 300.480361 
L 468.602074 300.371964 
L 469.1096 300.391001 
L 470.378416 300.418348 
L 478.752604 300.590512 
L 479.006367 300.532843 
L 479.513893 300.624469 
L 483.320342 300.547432 
L 483.827868 300.681394 
L 485.604211 300.683113 
L 486.111738 300.608238 
L 486.619264 300.744864 
L 486.873027 300.625649 
L 487.380554 300.676447 
L 488.395607 300.698349 
L 488.903133 300.717251 
L 489.41066 300.74258 
L 490.679476 300.732864 
L 490.933239 300.619256 
L 491.440766 300.778681 
L 493.470872 300.742797 
L 493.978398 300.849878 
L 494.232162 300.78316 
L 494.739688 300.836219 
L 495.500978 300.649596 
L 496.008504 300.82895 
L 496.262267 300.743255 
L 496.769794 300.88369 
L 499.56119 300.873319 
L 500.576243 301.017991 
L 500.830006 300.861332 
L 501.337532 300.977129 
L 501.845059 300.940471 
L 502.352585 300.9426 
L 504.128928 300.874297 
L 504.382691 300.97917 
L 504.636455 300.870696 
L 505.143981 300.927439 
L 506.159034 300.971012 
L 506.920324 300.993416 
L 507.681614 301.007841 
L 509.204193 300.866337 
L 509.457956 301.019571 
L 510.219246 300.971085 
L 511.234299 301.091999 
L 511.741825 300.998535 
L 511.995589 301.105323 
L 512.249352 301.020055 
L 512.503115 301.094159 
L 513.010642 301.066686 
L 513.771931 301.097002 
L 516.055801 301.131599 
L 516.309564 301.186934 
L 516.563327 301.105546 
L 517.324617 301.229305 
L 517.57838 301.091351 
L 518.33967 301.126023 
L 519.608486 301.136041 
L 520.116013 301.082916 
L 521.131066 301.169285 
L 525.698804 301.214419 
L 526.713857 301.241408 
L 526.96762 301.341299 
L 527.221383 301.237528 
L 527.72891 301.276427 
L 529.251489 301.301852 
L 529.759016 301.361374 
L 530.520306 301.284485 
L 535.088044 301.392815 
L 535.341807 301.310064 
L 536.103097 301.434696 
L 538.640729 301.324791 
L 539.148256 301.047645 
L 539.402019 301.27142 
L 539.909546 301.280553 
L 540.417072 301.32919 
L 540.670835 301.459252 
L 541.178362 301.371519 
L 543.208468 301.521265 
L 543.715994 301.485802 
L 544.477284 301.584232 
L 548.02997 301.590433 
L 548.537496 301.635564 
L 551.075128 301.599112 
L 551.836418 301.631677 
L 552.343945 301.589502 
L 557.926736 301.76006 
L 558.434263 301.745355 
L 558.941789 301.719819 
L 559.449316 301.75262 
L 560.210605 301.684472 
L 560.718132 301.818441 
L 561.479422 301.712365 
L 561.986948 301.831424 
L 562.240711 301.731409 
L 563.002001 301.789304 
L 563.255764 301.68913 
L 563.509527 301.845869 
L 563.763291 301.676811 
L 566.80845 301.940291 
L 568.077266 301.851555 
L 568.331029 301.929308 
L 568.838556 301.869404 
L 569.599845 301.820416 
L 569.853609 301.916826 
L 570.107372 301.856001 
L 570.614898 301.921987 
L 571.122425 301.85018 
L 571.376188 301.935939 
L 571.629951 301.895642 
L 571.883715 301.971556 
L 572.137478 301.852152 
L 572.898768 301.929579 
L 574.421347 301.924039 
L 575.943927 302.016293 
L 576.19769 301.977099 
L 576.451453 302.051211 
L 576.705216 301.960472 
L 577.212743 302.049182 
L 577.720269 302.005239 
L 577.974032 302.069917 
L 578.735322 301.980814 
L 578.989085 302.056847 
L 579.242849 301.94264 
L 580.257902 302.157281 
L 580.765428 301.988929 
L 582.288008 302.075252 
L 582.795534 302.02905 
L 588.632089 302.122624 
L 588.885852 302.065514 
L 589.393379 302.225375 
L 589.900905 302.184909 
L 590.408431 302.125917 
L 591.423484 302.161063 
L 592.184774 302.221999 
L 593.961117 302.26313 
L 594.21488 302.152128 
L 595.229933 302.305909 
L 597.006276 302.250376 
L 597.513802 302.329977 
L 597.767566 302.19866 
L 598.782619 302.302332 
L 599.036382 302.284745 
L 599.290145 302.392647 
L 599.797672 302.219414 
L 600.305198 302.348151 
L 601.574014 302.261197 
L 601.827778 302.194245 
L 602.081541 302.258991 
L 602.335304 302.169441 
L 602.842831 302.308096 
L 604.619173 302.406927 
L 605.1267 302.278125 
L 605.380463 302.389835 
L 606.395516 302.354298 
L 606.649279 302.461379 
L 607.410569 302.354026 
L 609.440675 302.507166 
L 609.694438 302.40543 
L 610.455728 302.418136 
L 610.963254 302.329442 
L 611.470781 302.455738 
L 611.724544 302.398406 
L 611.978307 302.510222 
L 612.232071 302.431503 
L 612.485834 302.50003 
L 612.739597 302.435153 
L 613.247124 302.501574 
L 613.75465 302.461742 
L 615.530993 302.550298 
L 616.038519 302.503767 
L 618.322388 302.645455 
L 619.083678 302.313173 
L 619.337441 302.497193 
L 621.367547 302.576309 
L 621.621311 302.489189 
L 622.128837 302.596543 
L 622.636364 302.587685 
L 622.636364 302.587685 
" style="fill:none;stroke:#1f77b4;stroke-linecap:square;stroke-width:0.5;"/>
   </g>
   <g id="line2d_36">
    <path clip-path="url(#pedb7530b66)" d="M 115.363636 63.759022 
L 116.632453 112.989296 
L 117.393742 134.769887 
L 118.155032 150.132525 
L 119.170085 164.461452 
L 120.438901 178.847147 
L 121.961481 194.129931 
L 123.48406 207.20561 
L 125.260403 219.956176 
L 126.782982 228.427199 
L 128.305562 235.126783 
L 129.066852 237.896467 
L 130.081905 241.088534 
L 131.604484 245.311301 
L 134.649643 252.086194 
L 136.933512 256.201417 
L 138.456092 258.512203 
L 138.963618 259.31714 
L 141.247487 262.341753 
L 142.008777 263.225893 
L 142.516304 263.834869 
L 143.277593 264.621164 
L 144.038883 265.474015 
L 145.053936 266.549149 
L 145.307699 266.716209 
L 146.068989 267.449187 
L 148.099095 269.282607 
L 148.606621 269.638902 
L 151.398017 271.688475 
L 153.681886 273.171181 
L 154.189413 273.485419 
L 154.443176 273.546475 
L 154.950703 273.850831 
L 157.488335 275.272111 
L 157.995862 275.485403 
L 158.757151 275.874825 
L 159.772204 276.302155 
L 160.533494 276.683295 
L 161.294784 276.973187 
L 161.80231 277.247791 
L 163.071126 277.638359 
L 163.578653 277.881936 
L 164.339943 278.1763 
L 164.593706 278.372751 
L 164.847469 278.319374 
L 167.131338 279.208232 
L 167.385102 279.211956 
L 167.892628 279.437675 
L 169.668971 280.065814 
L 170.176497 280.168609 
L 171.19155 280.488394 
L 171.445314 280.615394 
L 171.699077 280.576723 
L 172.206603 280.851385 
L 172.71413 280.866901 
L 173.221656 281.054255 
L 174.490473 281.496938 
L 174.744236 281.430498 
L 175.251762 281.746132 
L 175.505525 281.719057 
L 176.520578 281.987531 
L 177.281868 282.136143 
L 177.535631 282.356685 
L 177.789395 282.227745 
L 178.550684 282.460804 
L 181.849607 283.267346 
L 182.10337 283.173523 
L 182.357133 283.372614 
L 182.610896 283.401149 
L 182.86466 283.568267 
L 183.118423 283.522136 
L 183.372186 283.705209 
L 184.387239 283.795936 
L 186.924872 284.325848 
L 187.432398 284.432409 
L 188.954977 284.772873 
L 189.462504 284.897883 
L 189.716267 284.818632 
L 191.238847 285.180501 
L 191.746373 285.21426 
L 192.000136 285.361984 
L 192.2539 285.332041 
L 192.507663 285.442126 
L 193.268953 285.444972 
L 193.522716 285.619026 
L 194.284006 285.714823 
L 194.537769 285.751545 
L 194.791532 285.901573 
L 195.045295 285.82893 
L 196.060348 286.135783 
L 196.314112 286.000474 
L 198.597981 286.426708 
L 199.866797 286.586828 
L 200.12056 286.775842 
L 200.374324 286.764957 
L 200.628087 286.869498 
L 201.135613 286.820996 
L 201.64314 286.93048 
L 212.554959 288.427569 
L 213.062486 288.517585 
L 213.570012 288.663853 
L 213.823776 288.598719 
L 214.077539 288.789839 
L 214.331302 288.710233 
L 215.346355 288.790969 
L 216.615171 288.961485 
L 217.376461 289.098121 
L 217.630224 289.059835 
L 218.137751 289.191307 
L 218.645277 289.242836 
L 218.89904 289.217935 
L 219.152804 289.384151 
L 219.914093 289.231062 
L 220.42162 289.476767 
L 220.675383 289.378324 
L 221.18291 289.470456 
L 221.436673 289.468069 
L 221.690436 289.578259 
L 222.197963 289.487586 
L 222.705489 289.749532 
L 227.019464 290.16543 
L 227.526991 290.295122 
L 228.288281 290.22363 
L 228.795807 290.36139 
L 229.557097 290.373359 
L 229.81086 290.525623 
L 230.318386 290.462663 
L 230.57215 290.61356 
L 230.825913 290.554991 
L 231.079676 290.700732 
L 231.333439 290.585271 
L 231.587203 290.740892 
L 231.840966 290.610745 
L 232.856019 290.833676 
L 233.109782 290.870496 
L 233.363545 290.794099 
L 233.617309 290.912255 
L 233.871072 290.867773 
L 234.124835 290.947247 
L 234.378598 290.811197 
L 234.886125 290.98032 
L 235.139888 290.927634 
L 235.393651 291.099936 
L 237.677521 291.25058 
L 237.931284 291.324453 
L 238.43881 291.313822 
L 239.453863 291.437799 
L 239.707627 291.336241 
L 240.215153 291.531888 
L 242.499022 291.635304 
L 242.752785 291.761935 
L 243.260312 291.695137 
L 252.395789 292.395328 
L 252.649552 292.380861 
L 252.903315 292.534735 
L 253.918368 292.506032 
L 254.172132 292.719996 
L 254.425895 292.588045 
L 254.679658 292.636099 
L 254.933421 292.479995 
L 255.187185 292.625301 
L 257.724817 292.702736 
L 257.97858 292.891075 
L 258.232343 292.930376 
L 258.73987 292.784244 
L 259.247396 292.945962 
L 259.50116 292.915666 
L 260.008686 293.085775 
L 260.516213 292.968731 
L 261.023739 292.938802 
L 261.277502 293.094391 
L 262.800082 293.046918 
L 263.053845 293.219897 
L 265.083951 293.273821 
L 265.337714 293.429305 
L 266.352767 293.357445 
L 266.606531 293.484573 
L 267.875347 293.446428 
L 268.636637 293.60623 
L 269.144163 293.551725 
L 269.651689 293.653094 
L 269.905453 293.501835 
L 270.412979 293.708008 
L 270.920506 293.708173 
L 273.965665 293.817968 
L 274.219428 293.901808 
L 274.980718 293.88614 
L 275.488244 293.937265 
L 275.742007 294.043789 
L 275.995771 293.907176 
L 276.249534 293.997774 
L 276.75706 293.969167 
L 278.025877 294.134673 
L 278.27964 293.973454 
L 278.787166 294.090787 
L 281.832325 294.338305 
L 282.086088 294.225188 
L 282.593615 294.426915 
L 284.116194 294.408651 
L 285.131247 294.557401 
L 285.638774 294.596395 
L 288.43017 294.730964 
L 288.683933 294.776058 
L 289.445223 294.632826 
L 289.952749 294.791957 
L 290.460276 294.700869 
L 290.714039 294.679138 
L 290.967802 294.820199 
L 291.475329 294.829764 
L 293.251671 294.880844 
L 293.759198 294.957281 
L 296.29683 295.077468 
L 296.550593 295.003319 
L 296.804357 295.154166 
L 299.088226 295.170901 
L 299.341989 295.335759 
L 299.849516 295.293415 
L 301.625858 295.337804 
L 302.133385 295.4298 
L 302.387148 295.274694 
L 302.894675 295.48992 
L 303.655964 295.468393 
L 305.939834 295.573461 
L 306.193597 295.498132 
L 306.701123 295.601896 
L 307.462413 295.51576 
L 307.716176 295.721177 
L 308.223703 295.620261 
L 308.984992 295.647218 
L 309.238756 295.778097 
L 309.746282 295.683632 
L 310.000045 295.812042 
L 310.507572 295.815266 
L 311.268862 295.740466 
L 311.776388 295.794203 
L 312.791441 295.813152 
L 313.298968 295.893756 
L 314.060257 295.811606 
L 314.567784 295.888442 
L 315.329074 296.019379 
L 316.090363 295.991815 
L 316.59789 296.046761 
L 317.35918 295.948932 
L 317.612943 296.073097 
L 318.881759 296.025653 
L 319.135522 296.221354 
L 320.911865 296.204541 
L 321.419392 296.191299 
L 321.673155 296.123452 
L 322.180681 296.324343 
L 322.688208 296.230851 
L 325.22584 296.411151 
L 325.479603 296.309417 
L 325.733367 296.459291 
L 326.240893 296.430423 
L 330.301105 296.443901 
L 330.554868 296.575847 
L 330.808632 296.50741 
L 331.316158 296.580459 
L 331.569921 296.497513 
L 332.584974 296.676614 
L 333.346264 296.612593 
L 340.959161 296.928715 
L 341.212925 296.774215 
L 342.481741 296.957762 
L 342.989267 296.97587 
L 345.019373 297.07046 
L 345.5269 297.043183 
L 345.780663 297.127306 
L 346.034426 296.996444 
L 346.28819 297.112054 
L 346.541953 297.039501 
L 346.795716 297.136693 
L 347.049479 297.109088 
L 347.303243 297.201102 
L 347.810769 297.082464 
L 348.572059 297.139197 
L 350.602165 297.217618 
L 350.855928 297.138704 
L 351.109691 297.2964 
L 351.363454 297.208529 
L 351.617218 297.35605 
L 352.632271 297.298958 
L 352.886034 297.378825 
L 353.39356 297.287269 
L 353.647324 297.369464 
L 354.15485 297.363029 
L 355.67743 297.491166 
L 355.931193 297.380459 
L 356.692483 297.441069 
L 357.961299 297.495912 
L 358.215062 297.423025 
L 358.722589 297.537714 
L 359.991405 297.54232 
L 360.245168 297.623325 
L 360.498931 297.515206 
L 361.006458 297.604831 
L 362.021511 297.604896 
L 362.275274 297.712811 
L 362.7828 297.54318 
L 363.54409 297.641461 
L 368.619355 297.808431 
L 369.126882 297.865719 
L 370.649461 297.755009 
L 370.903224 297.924405 
L 371.410751 297.880676 
L 372.93333 297.887047 
L 373.187094 297.823269 
L 374.202147 297.964488 
L 375.2172 297.971624 
L 375.724726 298.02898 
L 376.486016 297.960729 
L 376.739779 298.043925 
L 376.993542 297.989578 
L 377.247305 298.110791 
L 377.501069 297.942659 
L 377.754832 298.099432 
L 379.277411 298.11607 
L 379.531175 298.004565 
L 380.038701 298.112271 
L 382.068807 298.1478 
L 382.32257 298.221234 
L 382.830097 298.182556 
L 384.098913 298.309453 
L 384.60644 298.265084 
L 385.113966 298.26493 
L 386.382782 298.309027 
L 386.636546 298.264473 
L 386.890309 298.409336 
L 387.397835 298.291858 
L 388.412888 298.364254 
L 390.189231 298.295247 
L 390.442994 298.494384 
L 390.696757 298.378788 
L 390.950521 298.391993 
L 391.204284 298.523897 
L 391.458047 298.380958 
L 391.965574 298.48504 
L 392.4731 298.438962 
L 392.980627 298.509277 
L 393.741916 298.516857 
L 394.249443 298.510132 
L 394.503206 298.448594 
L 395.010733 298.593033 
L 396.025786 298.44945 
L 396.279549 298.604096 
L 397.294602 298.590757 
L 398.563418 298.666531 
L 400.085998 298.714947 
L 400.339761 298.611519 
L 400.847287 298.716661 
L 402.116104 298.755432 
L 403.131156 298.782777 
L 403.38492 298.686458 
L 404.399973 298.88996 
L 404.653736 298.803532 
L 404.907499 298.83836 
L 405.161262 298.745585 
L 405.415026 298.85468 
L 406.937605 298.835997 
L 407.445132 298.837163 
L 407.952658 298.795606 
L 408.206421 298.9172 
L 408.713948 298.827044 
L 409.221474 298.892906 
L 409.729001 298.786222 
L 409.982764 298.961077 
L 410.236527 298.792417 
L 412.01287 299.000575 
L 412.520397 298.94102 
L 415.311792 299.045757 
L 415.565556 298.950325 
L 415.819319 299.096299 
L 416.073082 299.027071 
L 416.580608 299.13014 
L 416.834372 298.989218 
L 418.864478 299.153481 
L 419.118241 299.053301 
L 419.879531 299.235295 
L 420.387057 299.127574 
L 420.894584 299.142382 
L 426.223612 299.280054 
L 426.984902 299.232363 
L 427.492428 299.332837 
L 428.253718 299.185767 
L 428.507481 299.295998 
L 429.522534 299.271159 
L 429.776297 299.401101 
L 430.283824 299.330065 
L 430.79135 299.345623 
L 432.31393 299.404728 
L 432.567693 299.489498 
L 432.821456 299.324458 
L 433.075219 299.410612 
L 433.836509 299.41327 
L 434.344036 299.451404 
L 434.851562 299.407358 
L 435.105325 299.466511 
L 435.359089 299.372957 
L 435.612852 299.487223 
L 435.866615 299.417887 
L 436.374142 299.467837 
L 436.627905 299.376122 
L 437.135431 299.461087 
L 437.389195 299.497661 
L 437.642958 299.388369 
L 437.896721 299.548804 
L 438.150484 299.481079 
L 438.404248 299.575621 
L 438.658011 299.463586 
L 439.419301 299.565745 
L 439.673064 299.444194 
L 439.926827 299.564792 
L 440.94188 299.562705 
L 441.195643 299.617504 
L 441.449407 299.51659 
L 443.225749 299.608305 
L 443.733276 299.54728 
L 447.539724 299.74607 
L 448.047251 299.600879 
L 448.301014 299.763881 
L 448.808541 299.684697 
L 450.077357 299.670502 
L 450.33112 299.81189 
L 450.838647 299.696859 
L 451.599936 299.762076 
L 452.868753 299.826947 
L 453.122516 299.687612 
L 453.630042 299.791871 
L 453.883806 299.883344 
L 454.137569 299.842274 
L 454.391332 299.935148 
L 454.898859 299.81257 
L 456.675201 299.877603 
L 456.928964 299.95596 
L 457.182728 299.825137 
L 457.690254 299.87215 
L 457.944017 299.77669 
L 458.451544 299.833805 
L 458.95907 299.796191 
L 459.212834 299.915905 
L 459.466597 299.842251 
L 459.72036 299.988449 
L 460.989176 299.841695 
L 461.496703 299.934492 
L 467.840784 300.004999 
L 468.094547 300.12029 
L 468.602074 300.014331 
L 469.363363 300.054522 
L 469.617127 299.964458 
L 470.378416 300.098541 
L 470.63218 299.896566 
L 470.885943 300.050621 
L 471.393469 300.009458 
L 473.169812 299.984214 
L 473.423575 300.219284 
L 474.692392 300.08302 
L 475.199918 300.230886 
L 475.453681 300.108266 
L 476.722498 300.141147 
L 477.230024 300.166003 
L 477.483787 300.309907 
L 477.737551 300.179036 
L 483.066579 300.30148 
L 483.320342 300.220708 
L 483.574105 300.403211 
L 484.081632 300.307266 
L 487.380554 300.340461 
L 487.634317 300.405117 
L 488.141844 300.358176 
L 489.156897 300.381307 
L 491.948292 300.427102 
L 494.993451 300.462984 
L 495.247215 300.302849 
L 495.500978 300.495229 
L 496.008504 300.399191 
L 496.262267 300.526849 
L 496.516031 300.506863 
L 496.769794 300.610228 
L 497.27732 300.452665 
L 497.784847 300.538269 
L 498.292373 300.554734 
L 498.546137 300.482666 
L 498.7999 300.578505 
L 499.307426 300.526804 
L 501.591296 300.59165 
L 503.113875 300.586012 
L 503.367638 300.629038 
L 503.621402 300.517424 
L 504.382691 300.689406 
L 505.397744 300.643284 
L 505.651508 300.520064 
L 506.412797 300.673536 
L 506.666561 300.631146 
L 506.920324 300.707066 
L 507.681614 300.685542 
L 507.935377 300.735399 
L 508.442903 300.59317 
L 508.95043 300.507083 
L 509.204193 300.647642 
L 509.457956 300.608663 
L 509.711719 300.738019 
L 510.219246 300.628381 
L 510.473009 300.735596 
L 510.980536 300.684612 
L 511.488062 300.704563 
L 511.741825 300.751131 
L 511.995589 300.646569 
L 512.503115 300.779334 
L 513.010642 300.734235 
L 514.025695 300.741822 
L 514.533221 300.688138 
L 514.786984 300.828226 
L 515.294511 300.682922 
L 516.563327 300.791758 
L 517.070854 300.792969 
L 517.832143 300.812594 
L 518.33967 300.871785 
L 518.593433 300.779719 
L 519.10096 300.887777 
L 519.354723 300.904786 
L 519.608486 300.704751 
L 519.862249 300.67098 
L 520.623539 300.835182 
L 521.384829 300.910984 
L 522.146119 300.90387 
L 522.653645 300.804246 
L 522.907408 300.929639 
L 523.161171 300.834225 
L 523.668698 300.922195 
L 523.922461 300.755762 
L 524.176224 300.964861 
L 524.429988 300.845424 
L 524.683751 301.019082 
L 525.191277 300.88653 
L 525.698804 300.924824 
L 526.20633 300.843608 
L 526.713857 300.999702 
L 526.96762 300.868663 
L 527.221383 300.99462 
L 527.982673 300.914936 
L 528.4902 300.943469 
L 528.997726 300.914906 
L 529.505253 301.063947 
L 529.759016 300.862011 
L 530.774069 301.070645 
L 531.281595 301.087294 
L 531.535359 301.108698 
L 532.042885 301.004652 
L 532.550412 301.030726 
L 533.057938 301.034885 
L 538.133203 301.057644 
L 538.386966 300.940356 
L 538.640729 301.0107 
L 539.148256 300.864581 
L 539.402019 301.054849 
L 539.655782 300.945402 
L 539.909546 301.071633 
L 541.178362 301.076262 
L 541.432125 301.15792 
L 541.685888 301.051679 
L 542.447178 301.159781 
L 543.208468 301.070038 
L 543.462231 301.232986 
L 543.969758 301.186159 
L 544.223521 301.10762 
L 544.731047 301.19735 
L 545.238574 301.144236 
L 545.492337 301.297699 
L 546.50739 301.181726 
L 546.761153 301.296735 
L 547.014917 301.193183 
L 548.283733 301.333469 
L 549.045023 301.164527 
L 549.298786 301.376169 
L 549.806312 301.166893 
L 550.821365 301.337028 
L 551.075128 301.193238 
L 551.328892 301.346308 
L 551.836418 301.239243 
L 552.090181 301.351497 
L 552.343945 301.223195 
L 553.866524 301.366259 
L 554.881577 301.300513 
L 555.13534 301.405414 
L 557.165446 301.370921 
L 558.434263 301.436024 
L 558.688026 301.341449 
L 559.195552 301.409081 
L 560.971895 301.368495 
L 561.225658 301.54457 
L 561.479422 301.401251 
L 561.733185 301.496928 
L 562.240711 301.410149 
L 562.748238 301.488513 
L 563.002001 301.371478 
L 563.509527 301.444028 
L 563.763291 301.404416 
L 564.270817 301.555014 
L 564.52458 301.557273 
L 564.778344 301.426588 
L 565.539633 301.564837 
L 566.80845 301.491412 
L 568.077266 301.554253 
L 568.331029 301.45674 
L 568.584792 301.557515 
L 569.092319 301.464819 
L 570.361135 301.605516 
L 571.629951 301.564739 
L 572.137478 301.611342 
L 573.406294 301.51869 
L 576.451453 301.719808 
L 576.705216 301.526837 
L 577.212743 301.807006 
L 577.466506 301.638365 
L 578.735322 301.731087 
L 578.989085 301.570013 
L 579.242849 301.733355 
L 579.750375 301.624974 
L 580.004138 301.709819 
L 580.511665 301.645886 
L 580.765428 301.709306 
L 581.019191 301.65013 
L 581.272955 301.827628 
L 581.780481 301.675897 
L 582.034244 301.782849 
L 582.795534 301.659273 
L 583.049297 301.771352 
L 583.556824 301.762011 
L 583.810587 301.756946 
L 584.06435 301.892434 
L 584.318114 301.687514 
L 584.82564 301.726016 
L 585.58693 301.852355 
L 586.855746 301.740163 
L 587.617036 301.850491 
L 588.124562 301.790303 
L 588.378326 301.905796 
L 591.169721 301.741186 
L 591.423484 301.875733 
L 591.677248 301.765928 
L 591.931011 301.922952 
L 592.692301 301.887258 
L 592.946064 301.975993 
L 593.199827 301.831013 
L 594.21488 301.904955 
L 594.468643 301.844127 
L 594.722407 301.970283 
L 594.97617 301.87289 
L 595.229933 301.936827 
L 595.483696 301.88541 
L 595.991223 302.062547 
L 596.244986 301.89215 
L 596.498749 301.974694 
L 596.752513 301.892027 
L 597.006276 301.96835 
L 597.767566 301.939839 
L 598.021329 302.044919 
L 598.782619 301.933915 
L 599.036382 301.999645 
L 599.543908 301.869071 
L 600.051435 301.971308 
L 600.558961 301.942939 
L 601.066488 302.025594 
L 601.320251 301.869371 
L 604.36541 302.128352 
L 604.619173 301.912431 
L 605.634226 302.183545 
L 606.141753 301.991863 
L 606.395516 302.093166 
L 607.664332 302.061714 
L 608.679385 302.107266 
L 610.201965 302.118238 
L 610.455728 301.944964 
L 610.709491 301.94101 
L 610.963254 302.129713 
L 611.470781 302.080269 
L 611.724544 302.170879 
L 612.232071 301.9978 
L 612.485834 302.251539 
L 612.99336 302.112922 
L 613.247124 302.118798 
L 613.500887 302.236249 
L 613.75465 302.096697 
L 614.769703 302.178758 
L 615.27723 302.058115 
L 615.530993 302.292044 
L 615.784756 302.134897 
L 616.292283 302.284648 
L 617.053572 302.163184 
L 617.307335 302.123239 
L 617.561099 302.2738 
L 618.068625 302.171263 
L 618.322388 302.273555 
L 619.083678 302.097659 
L 619.337441 302.253262 
L 619.591205 302.082596 
L 619.844968 302.229673 
L 622.128837 302.279142 
L 622.636364 302.310255 
L 622.636364 302.310255 
" style="fill:none;stroke:#ff7f0e;stroke-linecap:square;stroke-width:0.5;"/>
   </g>
   <g id="patch_3">
    <path d="M 90 315 
L 90 43.2 
" style="fill:none;stroke:#000000;stroke-linecap:square;stroke-linejoin:miter;stroke-width:0.8;"/>
   </g>
   <g id="patch_4">
    <path d="M 648 315 
L 648 43.2 
" style="fill:none;stroke:#000000;stroke-linecap:square;stroke-linejoin:miter;stroke-width:0.8;"/>
   </g>
   <g id="patch_5">
    <path d="M 90 315 
L 648 315 
" style="fill:none;stroke:#000000;stroke-linecap:square;stroke-linejoin:miter;stroke-width:0.8;"/>
   </g>
   <g id="patch_6">
    <path d="M 90 43.2 
L 648 43.2 
" style="fill:none;stroke:#000000;stroke-linecap:square;stroke-linejoin:miter;stroke-width:0.8;"/>
   </g>
   <g id="text_20">
    <!-- loss -->
    <g transform="translate(357.410625 37.2)scale(0.12 -0.12)">
     <use xlink:href="#DejaVuSans-108"/>
     <use x="27.783203" xlink:href="#DejaVuSans-111"/>
     <use x="88.964844" xlink:href="#DejaVuSans-115"/>
     <use x="141.064453" xlink:href="#DejaVuSans-115"/>
    </g>
   </g>
   <g id="legend_1">
    <g id="patch_7">
     <path d="M 568.846875 80.55625 
L 641 80.55625 
Q 643 80.55625 643 78.55625 
L 643 50.2 
Q 643 48.2 641 48.2 
L 568.846875 48.2 
Q 566.846875 48.2 566.846875 50.2 
L 566.846875 78.55625 
Q 566.846875 80.55625 568.846875 80.55625 
z
" style="fill:#ffffff;opacity:0.8;stroke:#cccccc;stroke-linejoin:miter;"/>
    </g>
    <g id="line2d_37">
     <path d="M 570.846875 56.298437 
L 590.846875 56.298437 
" style="fill:none;stroke:#1f77b4;stroke-linecap:square;stroke-width:0.5;"/>
    </g>
    <g id="line2d_38"/>
    <g id="text_21">
     <!-- train -->
     <defs>
      <path d="M 18.3125 70.21875 
L 18.3125 54.6875 
L 36.8125 54.6875 
L 36.8125 47.703125 
L 18.3125 47.703125 
L 18.3125 18.015625 
Q 18.3125 11.328125 20.140625 9.421875 
Q 21.96875 7.515625 27.59375 7.515625 
L 36.8125 7.515625 
L 36.8125 0 
L 27.59375 0 
Q 17.1875 0 13.234375 3.875 
Q 9.28125 7.765625 9.28125 18.015625 
L 9.28125 47.703125 
L 2.6875 47.703125 
L 2.6875 54.6875 
L 9.28125 54.6875 
L 9.28125 70.21875 
z
" id="DejaVuSans-116"/>
      <path d="M 41.109375 46.296875 
Q 39.59375 47.171875 37.8125 47.578125 
Q 36.03125 48 33.890625 48 
Q 26.265625 48 22.1875 43.046875 
Q 18.109375 38.09375 18.109375 28.8125 
L 18.109375 0 
L 9.078125 0 
L 9.078125 54.6875 
L 18.109375 54.6875 
L 18.109375 46.1875 
Q 20.953125 51.171875 25.484375 53.578125 
Q 30.03125 56 36.53125 56 
Q 37.453125 56 38.578125 55.875 
Q 39.703125 55.765625 41.0625 55.515625 
z
" id="DejaVuSans-114"/>
      <path d="M 34.28125 27.484375 
Q 23.390625 27.484375 19.1875 25 
Q 14.984375 22.515625 14.984375 16.5 
Q 14.984375 11.71875 18.140625 8.90625 
Q 21.296875 6.109375 26.703125 6.109375 
Q 34.1875 6.109375 38.703125 11.40625 
Q 43.21875 16.703125 43.21875 25.484375 
L 43.21875 27.484375 
z
M 52.203125 31.203125 
L 52.203125 0 
L 43.21875 0 
L 43.21875 8.296875 
Q 40.140625 3.328125 35.546875 0.953125 
Q 30.953125 -1.421875 24.3125 -1.421875 
Q 15.921875 -1.421875 10.953125 3.296875 
Q 6 8.015625 6 15.921875 
Q 6 25.140625 12.171875 29.828125 
Q 18.359375 34.515625 30.609375 34.515625 
L 43.21875 34.515625 
L 43.21875 35.40625 
Q 43.21875 41.609375 39.140625 45 
Q 35.0625 48.390625 27.6875 48.390625 
Q 23 48.390625 18.546875 47.265625 
Q 14.109375 46.140625 10.015625 43.890625 
L 10.015625 52.203125 
Q 14.9375 54.109375 19.578125 55.046875 
Q 24.21875 56 28.609375 56 
Q 40.484375 56 46.34375 49.84375 
Q 52.203125 43.703125 52.203125 31.203125 
z
" id="DejaVuSans-97"/>
      <path d="M 9.421875 54.6875 
L 18.40625 54.6875 
L 18.40625 0 
L 9.421875 0 
z
M 9.421875 75.984375 
L 18.40625 75.984375 
L 18.40625 64.59375 
L 9.421875 64.59375 
z
" id="DejaVuSans-105"/>
      <path d="M 54.890625 33.015625 
L 54.890625 0 
L 45.90625 0 
L 45.90625 32.71875 
Q 45.90625 40.484375 42.875 44.328125 
Q 39.84375 48.1875 33.796875 48.1875 
Q 26.515625 48.1875 22.3125 43.546875 
Q 18.109375 38.921875 18.109375 30.90625 
L 18.109375 0 
L 9.078125 0 
L 9.078125 54.6875 
L 18.109375 54.6875 
L 18.109375 46.1875 
Q 21.34375 51.125 25.703125 53.5625 
Q 30.078125 56 35.796875 56 
Q 45.21875 56 50.046875 50.171875 
Q 54.890625 44.34375 54.890625 33.015625 
z
" id="DejaVuSans-110"/>
     </defs>
     <g transform="translate(598.846875 59.798437)scale(0.1 -0.1)">
      <use xlink:href="#DejaVuSans-116"/>
      <use x="39.208984" xlink:href="#DejaVuSans-114"/>
      <use x="80.322266" xlink:href="#DejaVuSans-97"/>
      <use x="141.601562" xlink:href="#DejaVuSans-105"/>
      <use x="169.384766" xlink:href="#DejaVuSans-110"/>
     </g>
    </g>
    <g id="line2d_39">
     <path d="M 570.846875 70.976562 
L 590.846875 70.976562 
" style="fill:none;stroke:#ff7f0e;stroke-linecap:square;stroke-width:0.5;"/>
    </g>
    <g id="line2d_40"/>
    <g id="text_22">
     <!-- validate -->
     <defs>
      <path d="M 2.984375 54.6875 
L 12.5 54.6875 
L 29.59375 8.796875 
L 46.6875 54.6875 
L 56.203125 54.6875 
L 35.6875 0 
L 23.484375 0 
z
" id="DejaVuSans-118"/>
      <path d="M 45.40625 46.390625 
L 45.40625 75.984375 
L 54.390625 75.984375 
L 54.390625 0 
L 45.40625 0 
L 45.40625 8.203125 
Q 42.578125 3.328125 38.25 0.953125 
Q 33.9375 -1.421875 27.875 -1.421875 
Q 17.96875 -1.421875 11.734375 6.484375 
Q 5.515625 14.40625 5.515625 27.296875 
Q 5.515625 40.1875 11.734375 48.09375 
Q 17.96875 56 27.875 56 
Q 33.9375 56 38.25 53.625 
Q 42.578125 51.265625 45.40625 46.390625 
z
M 14.796875 27.296875 
Q 14.796875 17.390625 18.875 11.75 
Q 22.953125 6.109375 30.078125 6.109375 
Q 37.203125 6.109375 41.296875 11.75 
Q 45.40625 17.390625 45.40625 27.296875 
Q 45.40625 37.203125 41.296875 42.84375 
Q 37.203125 48.484375 30.078125 48.484375 
Q 22.953125 48.484375 18.875 42.84375 
Q 14.796875 37.203125 14.796875 27.296875 
z
" id="DejaVuSans-100"/>
     </defs>
     <g transform="translate(598.846875 74.476562)scale(0.1 -0.1)">
      <use xlink:href="#DejaVuSans-118"/>
      <use x="59.179688" xlink:href="#DejaVuSans-97"/>
      <use x="120.458984" xlink:href="#DejaVuSans-108"/>
      <use x="148.242188" xlink:href="#DejaVuSans-105"/>
      <use x="176.025391" xlink:href="#DejaVuSans-100"/>
      <use x="239.501953" xlink:href="#DejaVuSans-97"/>
      <use x="300.78125" xlink:href="#DejaVuSans-116"/>
      <use x="339.990234" xlink:href="#DejaVuSans-101"/>
     </g>
    </g>
   </g>
  </g>
 </g>
 <defs>
  <clipPath id="pedb7530b66">
   <rect height="271.8" width="558" x="90" y="43.2"/>
  </clipPath>
 </defs>
</svg>
